<svg width="38" height="37" viewBox="0 0 38 37" fill="none" xmlns="http://www.w3.org/2000/svg">
    <path fill-rule="evenodd" clip-rule="evenodd"
          d="M32.3073 21.049C32.3073 21.9471 31.5784 22.6687 30.6875 22.6687H28.2579V15.7848H30.6875C31.5784 15.7848 32.3073 16.5129 32.3073 17.4045V21.049ZM21.779 32.3954H18.1345C17.9078 32.3954 17.7296 32.2083 17.7296 31.9905V30.3707C17.7296 30.1431 17.9078 29.9658 18.1345 29.9658H21.779V32.3954ZM9.63074 22.6687H7.20111C6.31024 22.6687 5.58135 21.9471 5.58135 21.049V17.4045C5.58135 16.5129 6.31024 15.7848 7.20111 15.7848H9.63074V22.6687ZM30.6877 13.3552V12.7712C30.6877 6.72228 26.3467 1.62006 21.204 1.62006H16.6849C11.5422 1.62006 7.20124 6.72228 7.20124 12.7712V13.3552C4.96598 13.3552 3.15186 15.1685 3.15186 17.4045V21.049C3.15186 23.2924 4.96598 25.0984 7.20124 25.0984H10.4407C11.3316 25.0984 12.0605 24.3768 12.0605 23.4786V14.9749C12.0605 14.0832 11.3316 13.3552 10.4407 13.3552H9.63087V12.7712C9.63087 8.04157 12.8623 4.04969 16.6849 4.04969H21.204C25.0266 4.04969 28.258 8.04157 28.258 12.7712V13.3552H27.4482C26.5573 13.3552 25.8284 14.0832 25.8284 14.9749V23.4786C25.8284 24.3768 26.5573 25.0984 27.4482 25.0984H29.0679V28.7509C29.0679 29.4142 28.5253 29.9657 27.8531 29.9657H24.2086V28.7509C24.2086 28.0787 23.666 27.5361 22.9938 27.5361H18.1346C16.5715 27.5361 15.3 28.8068 15.3 30.3707V31.9904C15.3 33.5527 16.5715 34.825 18.1346 34.825H22.9938C23.666 34.825 24.2086 34.2735 24.2086 33.6102V32.3954H27.8531C29.8616 32.3954 31.4975 30.7586 31.4975 28.7509V25.0166C33.3441 24.644 34.737 23.017 34.737 21.049V17.4045C34.737 15.1685 32.9229 13.3552 30.6877 13.3552Z"
          fill="black"/>
</svg>
