<svg width="56" height="56" viewBox="0 0 56 56" fill="none" xmlns="http://www.w3.org/2000/svg">
<g clip-path="url(#clip0_41_2113)">
<path d="M36.1937 14.1794L36.1938 14.1794C36.4597 14.1828 36.7159 14.2798 36.9174 14.4534C36.9177 14.4537 36.9181 14.454 36.9184 14.4543L36.7954 14.5968C40.845 17.9946 43.1844 23.0114 43.1844 28.2976L36.1937 14.1794ZM36.1937 14.1794C35.57 14.1717 35.0578 14.671 35.0501 15.295C35.0458 15.639 35.1986 15.9664 35.4652 16.184M36.1937 14.1794L35.4652 16.184M36.8905 42.1642C36.8965 42.1593 36.9024 42.1544 36.9077 42.1499C36.9111 42.1471 36.9143 42.1443 36.9172 42.1419L35.4477 41.8805C35.12 41.4768 35.1815 40.884 35.5852 40.5562M36.8905 42.1642L36.772 42.0179L36.8907 42.1641C36.8906 42.1641 36.8905 42.1642 36.8905 42.1642ZM36.8905 42.1642C36.4061 42.5574 35.6948 42.4834 35.3016 41.9992C34.9086 41.5152 34.982 40.8046 35.4653 40.4111M35.4653 40.4111C35.4649 40.4114 35.4645 40.4117 35.4642 40.412L35.5852 40.5562M35.4653 40.4111C39.0459 37.406 41.1133 32.9722 41.1133 28.2976C41.1133 23.6229 39.0461 19.1891 35.4652 16.184M35.4653 40.4111C35.4657 40.4107 35.4661 40.4104 35.4665 40.4101L35.5852 40.5562M35.5852 40.5562L35.4652 16.184M20.5177 42.0271L20.5177 42.0272C20.1093 42.4981 19.3967 42.5492 18.9252 42.1416C18.9249 42.1413 18.9245 42.1409 18.9241 42.1406L20.5177 42.0271ZM20.5177 42.0271C20.9264 41.5557 20.8756 40.8423 20.4043 40.4335L20.4032 40.4326M20.5177 42.0271L20.4032 40.4326M20.4032 40.4326L20.4028 40.4323C20.3957 40.4262 20.3868 40.4186 20.3773 40.4109C16.7966 37.4058 14.7295 32.9721 14.7295 28.2976C14.7295 23.6227 16.7969 19.1891 20.3776 16.1839C20.8603 15.7898 20.9326 15.0789 20.5389 14.5955L20.5389 14.5955L20.4032 40.4326ZM27.9054 26.1325V26.1325C27.5415 26.1275 27.2505 25.8284 27.2557 25.4644L27.9054 26.1325ZM27.9054 26.1325H27.908M27.9054 26.1325H27.908M27.908 26.1325H27.908M27.908 26.1325H27.908M31.4043 28.3133H31.4043C31.3993 28.6772 31.1002 28.9683 30.7362 28.9631L31.4043 28.3133ZM31.4043 28.3133V28.3107M31.4043 28.3133V28.3107M31.4043 28.3107V28.3107V28.3107V28.3107V28.3106V28.3106V28.3106V28.3106V28.3105V28.3105V28.3105V28.3104V28.3104V28.3104V28.3104V28.3103V28.3103V28.3103V28.3103V28.3102V28.3102V28.3102V28.3102V28.3101V28.3101V28.3101V28.3101V28.31V28.31V28.31V28.3099V28.3099V28.3099V28.3099V28.3098V28.3098V28.3098V28.3098V28.3097V28.3097V28.3097V28.3097V28.3096V28.3096V28.3096V28.3096V28.3095V28.3095V28.3095V28.3094V28.3094V28.3094V28.3094V28.3093V28.3093V28.3093V28.3093V28.3092V28.3092V28.3092V28.3092V28.3091V28.3091V28.3091V28.3091V28.309V28.309V28.309V28.3089V28.3089V28.3089V28.3089V28.3088V28.3088V28.3088V28.3088V28.3087V28.3087V28.3087V28.3087V28.3086V28.3086V28.3086V28.3086V28.3085V28.3085V28.3085V28.3085V28.3084V28.3084V28.3084V28.3083V28.3083V28.3083V28.3083V28.3082V28.3082V28.3082V28.3082V28.3081V28.3081V28.3081V28.3081V28.308V28.308V28.308V28.308V28.3079V28.3079V28.3079V28.3078V28.3078V28.3078V28.3078V28.3077V28.3077V28.3077V28.3077V28.3076V28.3076V28.3076V28.3076V28.3075V28.3075V28.3075V28.3075V28.3074V28.3074V28.3074V28.3074V28.3073V28.3073V28.3073V28.3072V28.3072V28.3072V28.3072V28.3071V28.3071V28.3071V28.3071V28.307V28.307V28.307V28.307V28.3069V28.3069V28.3069V28.3069V28.3068V28.3068V28.3068V28.3068V28.3067V28.3067V28.3067V28.3067V28.3066V28.3066V28.3066V28.3065V28.3065V28.3065V28.3065V28.3064V28.3064V28.3064V28.3064V28.3063V28.3063V28.3063V28.3063V28.3062V28.3062V28.3062V28.3062V28.3061V28.3061V28.3061V28.3061V28.306V28.306V28.306V28.306V28.3059V28.3059V28.3059V28.3058V28.3058V28.3058V28.3058V28.3057V28.3057V28.3057V28.3057V28.3056V28.3056V28.3056V28.3056V28.3055V28.3055V28.3055V28.3055V28.3054V28.3054V28.3054V28.3054V28.3053V28.3053V28.3053V28.3052V28.3052V28.3052V28.3052V28.3051V28.3051V28.3051V28.3051V28.305V28.305V28.305V28.305V28.3049V28.3049V28.3049V28.3049V28.3048V28.3048V28.3048V28.3048V28.3047V28.3047V28.3047V28.3047V28.3046V28.3046V28.3046V28.3045V28.3045V28.3045V28.3045V28.3044V28.3044V28.3044V28.3044V28.3043V28.3043V28.3043V28.3043V28.3042V28.3042V28.3042V28.3042V28.3041V28.3041V28.3041V28.3041V28.304V28.304V28.304V28.304V28.3039V28.3039V28.3039V28.3038V28.3038V28.3038V28.3038V28.3037V28.3037V28.3037V28.3037V28.3036V28.3036V28.3036V28.3036V28.3035V28.3035V28.3035V28.3035V28.3034V28.3034V28.3034V28.3034V28.3033V28.3033V28.3033V28.3033V28.3032V28.3032V28.3032V28.3031V28.3031V28.3031V28.3031V28.303V28.303V28.303V28.303V28.3029V28.3029V28.3029V28.3029V28.3028V28.3028V28.3028V28.3028V28.3027V28.3027V28.3027V28.3027V28.3026V28.3026V28.3026V28.3026V28.3025V28.3025V28.3025V28.3024V28.3024V28.3024V28.3024V28.3023V28.3023V28.3023V28.3023V28.3022V28.3022V28.3022V28.3022V28.3021V28.3021V28.3021V28.3021V28.302V28.302V28.302V28.302V28.3019V28.3019V28.3019V28.3019V28.3018V28.3018V28.3018V28.3017V28.3017V28.3017V28.3017V28.3016V28.3016V28.3016V28.3016V28.3015V28.3015V28.3015V28.3015V28.3014V28.3014V28.3014V28.3014V28.3013V28.3013V28.3013V28.3013V28.3012V28.3012V28.3012V28.3011V28.3011V28.3011V28.3011V28.301V28.301V28.301V28.301V28.3009V28.3009V28.3009V28.3009V28.3008V28.3008V28.3008V28.3008V28.3007V28.3007V28.3007V28.3007V28.3006V28.3006V28.3006V28.3006V28.3005V28.3005V28.3005V28.3004V28.3004V28.3004V28.3004V28.3003V28.3003V28.3003V28.3003V28.3002V28.3002V28.3002V28.3002V28.3001V28.3001V28.3001V28.3001V28.3V28.3V28.3V28.2999V28.2999V28.2999V28.2999V28.2998V28.2998V28.2998V28.2998V28.2997V28.2997V28.2997V28.2997V28.2996V28.2996V28.2996V28.2996V28.2995V28.2995V28.2995V28.2995V28.2994V28.2994V28.2994V28.2993V28.2993V28.2993V28.2993V28.2992V28.2992V28.2992V28.2992V28.2991V28.2991V28.2991V28.2991V28.299V28.299V28.299V28.299V28.2989V28.2989V28.2989V28.2988V28.2988V28.2988V28.2988V28.2987V28.2987V28.2987V28.2987V28.2986V28.2986V28.2986V28.2986V28.2985V28.2985V28.2985V28.2985V28.2984V28.2984V28.2984V28.2983V28.2983V28.2983V28.2983V28.2982V28.2982V28.2982V28.2982V28.2981V28.2981V28.2981V28.2981V28.298V28.298V28.298V28.298V28.2979V28.2979V28.2979V28.2978V28.2978V28.2978V28.2978V28.2977V28.2977V28.2977V28.2977V28.2976V28.2976V28.2976V28.2976V28.2975V28.2975V28.2975V28.2975V28.2974V28.2974V28.2974C31.4041 26.3801 29.8399 24.8154 27.9226 24.8146M31.4043 28.3107L27.2557 25.4642C27.2608 25.1008 27.5591 24.8101 27.9226 24.8146M43.7236 8.08418C43.7313 7.4604 44.2434 6.96096 44.8671 6.96858L43.7236 8.08418ZM43.7236 8.08418C43.7193 8.42799 43.8718 8.7549 44.1379 8.97264M43.7236 8.08418L44.1379 8.97264M44.1379 8.97264C49.8505 13.7665 53.149 20.8402 53.149 28.2976C53.149 35.7551 49.8503 42.8293 44.1374 47.6229C43.6583 48.0224 43.5938 48.7348 43.9932 49.2139C44.3923 49.6927 45.104 49.7576 45.5831 49.3593C45.5866 49.3565 45.5895 49.354 45.5915 49.3522C51.814 44.13 55.4082 36.4212 55.4082 28.2976C55.4082 20.1736 51.8137 12.4644 45.5907 7.24221M44.1379 8.97264L44.8672 6.96858C45.1332 6.97176 45.3894 7.06883 45.5907 7.24221M45.5907 7.24221C45.591 7.24249 45.5913 7.24278 45.5917 7.24307L45.4686 7.38558L45.5897 7.24136C45.59 7.24164 45.5903 7.24192 45.5907 7.24221ZM27.9226 24.8146C27.923 24.8146 27.9235 24.8146 27.9239 24.8146L27.9212 25.0029V24.8146C27.9216 24.8146 27.9221 24.8146 27.9226 24.8146ZM27.908 26.1325H27.9081M27.908 26.1325H27.9081M27.9081 26.1325H27.9081M27.9081 26.1325H27.9081M27.9081 26.1325H27.9081M27.9081 26.1325H27.9081M27.9081 26.1325H27.9081M27.9081 26.1325H27.9081M27.9081 26.1325H27.9082M27.9081 26.1325H27.9082M27.9082 26.1325H27.9082M27.9082 26.1325H27.9082M27.9082 26.1325H27.9082M27.9082 26.1325H27.9082M27.9082 26.1325H27.9082M27.9082 26.1325H27.9082M27.9082 26.1325H27.9083M27.9082 26.1325H27.9083M27.9083 26.1325H27.9083M27.9083 26.1325H27.9083M27.9083 26.1325H27.9083M27.9083 26.1325H27.9083M27.9083 26.1325H27.9084M27.9083 26.1325H27.9084M27.9084 26.1325H27.9084M27.9084 26.1325H27.9084M27.9084 26.1325H27.9084M27.9084 26.1325H27.9084M27.9084 26.1325H27.9084M27.9084 26.1325H27.9084M27.9084 26.1325H27.9085M27.9084 26.1325H27.9085M27.9085 26.1325H27.9085M27.9085 26.1325H27.9085M27.9085 26.1325H27.9085M27.9085 26.1325H27.9085M27.9085 26.1325H27.9085M27.9085 26.1325H27.9085M27.9085 26.1325H27.9086M27.9085 26.1325H27.9086M27.9086 26.1325H27.9086M27.9086 26.1325H27.9086M27.9086 26.1325H27.9086M27.9086 26.1325H27.9086M27.9086 26.1325H27.9086M27.9086 26.1325H27.9086M27.9086 26.1325H27.9087M27.9086 26.1325H27.9087M27.9087 26.1325H27.9087M27.9087 26.1325H27.9087M27.9087 26.1325H27.9087M27.9087 26.1325H27.9087M27.9087 26.1325H27.9088M27.9087 26.1325H27.9088M27.9088 26.1325H27.9088M27.9088 26.1325H27.9088M27.9088 26.1325H27.9088M27.9088 26.1325H27.9088M27.9088 26.1325H27.9088M27.9088 26.1325H27.9088M27.9088 26.1325H27.9089M27.9088 26.1325H27.9089M27.9089 26.1325H27.9089M27.9089 26.1325H27.9089M27.9089 26.1325H27.9089M27.9089 26.1325H27.9089M27.9089 26.1325H27.9089M27.9089 26.1325H27.9089M27.9089 26.1325H27.909M27.9089 26.1325H27.909M27.909 26.1325H27.909M27.909 26.1325H27.909M27.909 26.1325H27.909M27.909 26.1325H27.909M27.909 26.1325H27.909M27.909 26.1325H27.909M27.909 26.1325H27.9091M27.909 26.1325H27.9091M27.9091 26.1325H27.9091M27.9091 26.1325H27.9091M27.9091 26.1325H27.9091M27.9091 26.1325H27.9091M27.9091 26.1325H27.9091M27.9091 26.1325H27.9091M27.9091 26.1325H27.9092M27.9091 26.1325H27.9092M27.9092 26.1325H27.9092M27.9092 26.1325H27.9092M27.9092 26.1325H27.9092M27.9092 26.1325H27.9092M27.9092 26.1325H27.9093M27.9092 26.1325H27.9093M27.9093 26.1325H27.9093M27.9093 26.1325H27.9093M27.9093 26.1325H27.9093M27.9093 26.1325H27.9093M27.9093 26.1325H27.9093M27.9093 26.1325H27.9093M27.9093 26.1325H27.9094M27.9093 26.1325H27.9094M27.9094 26.1325H27.9094M27.9094 26.1325H27.9094M27.9094 26.1325H27.9094M27.9094 26.1325H27.9094M27.9094 26.1325H27.9094M27.9094 26.1325H27.9094M27.9094 26.1325H27.9095M27.9094 26.1325H27.9095M27.9095 26.1325H27.9095M27.9095 26.1325H27.9095M27.9095 26.1325H27.9095M27.9095 26.1325H27.9095M27.9095 26.1325H27.9095M27.9095 26.1325H27.9095M27.9095 26.1325H27.9096M27.9095 26.1325H27.9096M27.9096 26.1325H27.9096M27.9096 26.1325H27.9096M27.9096 26.1325H27.9096M27.9096 26.1325H27.9096M27.9096 26.1325H27.9096M27.9096 26.1325H27.9096M27.9096 26.1325H27.9097M27.9096 26.1325H27.9097M27.9097 26.1325H27.9097M27.9097 26.1325H27.9097M27.9097 26.1325H27.9097M27.9097 26.1325H27.9097M27.9097 26.1325H27.9097M27.9097 26.1325H27.9097M27.9097 26.1325H27.9098M27.9097 26.1325H27.9098M27.9098 26.1325H27.9098M27.9098 26.1325H27.9098M27.9098 26.1325H27.9098M27.9098 26.1325H27.9098M27.9098 26.1325H27.9099M27.9098 26.1325H27.9099M27.9099 26.1325H27.9099M27.9099 26.1325H27.9099M27.9099 26.1325H27.9099M27.9099 26.1325H27.9099M27.9099 26.1325H27.9099M27.9099 26.1325H27.9099M27.9099 26.1325H27.91M27.9099 26.1325H27.91M27.91 26.1325H27.91M27.91 26.1325H27.91M27.91 26.1325H27.91M27.91 26.1325H27.91M27.91 26.1325H27.91M27.91 26.1325H27.91M27.91 26.1325H27.9101M27.91 26.1325H27.9101M27.9101 26.1325H27.9101M27.9101 26.1325H27.9101M27.9101 26.1325H27.9101M27.9101 26.1325H27.9101M27.9101 26.1325H27.9101M27.9101 26.1325H27.9101M27.9101 26.1325H27.9102M27.9101 26.1325H27.9102M27.9102 26.1325H27.9102M27.9102 26.1325H27.9102M27.9102 26.1325H27.9102M27.9102 26.1325H27.9102M27.9102 26.1325H27.9102M27.9102 26.1325H27.9102M27.9102 26.1325H27.9103M27.9102 26.1325H27.9103M27.9103 26.1325H27.9103M27.9103 26.1325H27.9103M27.9103 26.1325H27.9103M27.9103 26.1325H27.9103M27.9103 26.1325H27.9104M27.9103 26.1325H27.9104M27.9104 26.1325H27.9104M27.9104 26.1325H27.9104M27.9104 26.1325H27.9104M27.9104 26.1325H27.9104M27.9104 26.1325H27.9104M27.9104 26.1325H27.9104M27.9104 26.1325H27.9105M27.9104 26.1325H27.9105M27.9105 26.1325H27.9105M27.9105 26.1325H27.9105M27.9105 26.1325H27.9105M27.9105 26.1325H27.9105M27.9105 26.1325H27.9105M27.9105 26.1325H27.9105M27.9105 26.1325H27.9106M27.9105 26.1325H27.9106M27.9106 26.1325H27.9106M27.9106 26.1325H27.9106M27.9106 26.1325H27.9106M27.9106 26.1325H27.9106M27.9106 26.1325H27.9106M27.9106 26.1325H27.9106M27.9106 26.1325H27.9107M27.9106 26.1325H27.9107M27.9107 26.1325H27.9107M27.9107 26.1325H27.9107M27.9107 26.1325H27.9107M27.9107 26.1325H27.9107M27.9107 26.1325H27.9107M27.9107 26.1325H27.9107M27.9107 26.1325H27.9108M27.9107 26.1325H27.9108M27.9108 26.1325H27.9108M27.9108 26.1325H27.9108M27.9108 26.1325H27.9108M27.9108 26.1325H27.9108M27.9108 26.1325H27.9108M27.9108 26.1325H27.9108M27.9108 26.1325H27.9109M27.9108 26.1325H27.9109M27.9109 26.1325H27.9109M27.9109 26.1325H27.9109M27.9109 26.1325H27.9109M27.9109 26.1325H27.9109M27.9109 26.1325H27.911M27.9109 26.1325H27.911M27.911 26.1325H27.911M27.911 26.1325H27.911M27.911 26.1325H27.911M27.911 26.1325H27.911M27.911 26.1325H27.911M27.911 26.1325H27.911M27.911 26.1325H27.9111M27.911 26.1325H27.9111M27.9111 26.1325H27.9111M27.9111 26.1325H27.9111M27.9111 26.1325H27.9111M27.9111 26.1325H27.9111M27.9111 26.1325H27.9111M27.9111 26.1325H27.9111M27.9111 26.1325H27.9112M27.9111 26.1325H27.9112M27.9112 26.1325H27.9112M27.9112 26.1325H27.9112M27.9112 26.1325H27.9112M27.9112 26.1325H27.9112M27.9112 26.1325H27.9112M27.9112 26.1325H27.9112M27.9112 26.1325H27.9113M27.9112 26.1325H27.9113M27.9113 26.1325H27.9113M27.9113 26.1325H27.9113M27.9113 26.1325H27.9113M27.9113 26.1325H27.9113M27.9113 26.1325H27.9113M27.9113 26.1325H27.9113M27.9113 26.1325H27.9114M27.9113 26.1325H27.9114M27.9114 26.1325H27.9114M27.9114 26.1325H27.9114M27.9114 26.1325H27.9114M27.9114 26.1325H27.9114M27.9114 26.1325H27.9114M27.9114 26.1325H27.9114M27.9114 26.1325H27.9115M27.9114 26.1325H27.9115M27.9115 26.1325H27.9115M27.9115 26.1325H27.9115M27.9115 26.1325H27.9115M27.9115 26.1325H27.9115M27.9115 26.1325H27.9116M27.9115 26.1325H27.9116M27.9116 26.1325H27.9116M27.9116 26.1325H27.9116M27.9116 26.1325H27.9116M27.9116 26.1325H27.9116M27.9116 26.1325H27.9116M27.9116 26.1325H27.9116M27.9116 26.1325H27.9117M27.9116 26.1325H27.9117M27.9117 26.1325H27.9117M27.9117 26.1325H27.9117M27.9117 26.1325H27.9117M27.9117 26.1325H27.9117M27.9117 26.1325H27.9117M27.9117 26.1325H27.9117M27.9117 26.1325H27.9118M27.9117 26.1325H27.9118M27.9118 26.1325H27.9118M27.9118 26.1325H27.9118M27.9118 26.1325H27.9118M27.9118 26.1325H27.9118M27.9118 26.1325H27.9118M27.9118 26.1325H27.9118M27.9118 26.1325H27.9119M27.9118 26.1325H27.9119M27.9119 26.1325H27.9119M27.9119 26.1325H27.9119M27.9119 26.1325H27.9119M27.9119 26.1325H27.9119M27.9119 26.1325H27.9119M27.9119 26.1325H27.9119M27.9119 26.1325H27.912M27.9119 26.1325H27.912M27.912 26.1325H27.912M27.912 26.1325H27.912M27.912 26.1325H27.912M27.912 26.1325H27.912M27.912 26.1325H27.912M27.912 26.1325H27.912M27.912 26.1325H27.9121M27.912 26.1325H27.9121M27.9121 26.1325H27.9121M27.9121 26.1325H27.9121M27.9121 26.1325H27.9121M27.9121 26.1325H27.9121M27.9121 26.1325H27.9122M27.9121 26.1325H27.9122M27.9122 26.1325H27.9122M27.9122 26.1325H27.9122M27.9122 26.1325H27.9122M27.9122 26.1325H27.9122M27.9122 26.1325H27.9122M27.9122 26.1325H27.9122M27.9122 26.1325H27.9123M27.9122 26.1325H27.9123M27.9123 26.1325H27.9123M27.9123 26.1325H27.9123M27.9123 26.1325H27.9123M27.9123 26.1325H27.9123M27.9123 26.1325H27.9123M27.9123 26.1325H27.9123M27.9123 26.1325H27.9124M27.9123 26.1325H27.9124M27.9124 26.1325H27.9124M27.9124 26.1325H27.9124M27.9124 26.1325H27.9124M27.9124 26.1325H27.9124M27.9124 26.1325H27.9124M27.9124 26.1325H27.9124M27.9124 26.1325H27.9125M27.9124 26.1325H27.9125M27.9125 26.1325H27.9125M27.9125 26.1325H27.9125M27.9125 26.1325H27.9125M27.9125 26.1325H27.9125M27.9125 26.1325H27.9125M27.9125 26.1325H27.9125M27.9125 26.1325H27.9126M27.9125 26.1325H27.9126M27.9126 26.1325H27.9126M27.9126 26.1325H27.9126M27.9126 26.1325H27.9126M27.9126 26.1325H27.9126M27.9126 26.1325H27.9126M27.9126 26.1325H27.9126M27.9126 26.1325H27.9127M27.9126 26.1325H27.9127M27.9127 26.1325H27.9127M27.9127 26.1325H27.9127M27.9127 26.1325H27.9127M27.9127 26.1325H27.9127M27.9127 26.1325H27.9128M27.9127 26.1325H27.9128M27.9128 26.1325H27.9128M27.9128 26.1325H27.9128M27.9128 26.1325H27.9128M27.9128 26.1325H27.9128M27.9128 26.1325H27.9128M27.9128 26.1325H27.9128M27.9128 26.1325H27.9129M27.9128 26.1325H27.9129M27.9129 26.1325H27.9129M27.9129 26.1325H27.9129M27.9129 26.1325H27.9129M27.9129 26.1325H27.9129M27.9129 26.1325H27.9129M27.9129 26.1325H27.9129M27.9129 26.1325H27.913M27.9129 26.1325H27.913M27.913 26.1325H27.913M27.913 26.1325H27.913M27.913 26.1325H27.913M27.913 26.1325H27.913M27.913 26.1325H27.913M27.913 26.1325H27.913M27.913 26.1325H27.9131M27.913 26.1325H27.9131M27.9131 26.1325H27.9131M27.9131 26.1325H27.9131M27.9131 26.1325H27.9131M27.9131 26.1325H27.9131M27.9131 26.1325H27.9131M27.9131 26.1325H27.9131M27.9131 26.1325H27.9132M27.9131 26.1325H27.9132M27.9132 26.1325H27.9132M27.9132 26.1325H27.9132M27.9132 26.1325H27.9132M27.9132 26.1325H27.9132M27.9132 26.1325H27.9132M27.9132 26.1325H27.9132M27.9132 26.1325H27.9133M27.9132 26.1325H27.9133M27.9133 26.1325H27.9133M27.9133 26.1325H27.9133M27.9133 26.1325H27.9133M27.9133 26.1325H27.9133M27.9133 26.1325H27.9133M27.9133 26.1325H27.9133M27.9133 26.1325H27.9134M27.9133 26.1325H27.9134M27.9134 26.1325H27.9134M27.9134 26.1325H27.9134M27.9134 26.1325H27.9134M27.9134 26.1325H27.9134M27.9134 26.1325H27.9135M27.9134 26.1325H27.9135M27.9135 26.1325H27.9135M27.9135 26.1325H27.9135M27.9135 26.1325H27.9135M27.9135 26.1325H27.9135M27.9135 26.1325H27.9135M27.9135 26.1325H27.9135M27.9135 26.1325H27.9136M27.9135 26.1325H27.9136M27.9136 26.1325H27.9136M27.9136 26.1325H27.9136M27.9136 26.1325H27.9136M27.9136 26.1325H27.9136M27.9136 26.1325H27.9136M27.9136 26.1325H27.9136M27.9136 26.1325H27.9137M27.9136 26.1325H27.9137M27.9137 26.1325H27.9137M27.9137 26.1325H27.9137M27.9137 26.1325H27.9137M27.9137 26.1325H27.9137M27.9137 26.1325H27.9137M27.9137 26.1325H27.9137M27.9137 26.1325H27.9138M27.9137 26.1325H27.9138M27.9138 26.1325H27.9138M27.9138 26.1325H27.9138M27.9138 26.1325H27.9138M27.9138 26.1325H27.9138M27.9138 26.1325H27.9138M27.9138 26.1325H27.9138M27.9138 26.1325H27.9139M27.9138 26.1325H27.9139M27.9139 26.1325H27.9139M27.9139 26.1325H27.9139M27.9139 26.1325H27.9139M27.9139 26.1325H27.9139M27.9139 26.1325H27.9139M27.9139 26.1325H27.9139M27.9139 26.1325H27.914M27.9139 26.1325H27.914M27.914 26.1325H27.914M27.914 26.1325H27.914M27.914 26.1325H27.914M27.914 26.1325H27.914M27.914 26.1325H27.914M27.914 26.1325H27.914M27.914 26.1325H27.9141M27.914 26.1325H27.9141M27.9141 26.1325H27.9141M27.9141 26.1325H27.9141M27.9141 26.1325H27.9141M27.9141 26.1325H27.9141M27.9141 26.1325H27.9142M27.9141 26.1325H27.9142M27.9142 26.1325H27.9142M27.9142 26.1325H27.9142M27.9142 26.1325H27.9142M27.9142 26.1325H27.9142M27.9142 26.1325H27.9142M27.9142 26.1325H27.9142M27.9142 26.1325H27.9143M27.9142 26.1325H27.9143M27.9143 26.1325H27.9143M27.9143 26.1325H27.9143M27.9143 26.1325H27.9143M27.9143 26.1325H27.9143M27.9143 26.1325H27.9143M27.9143 26.1325H27.9143M27.9143 26.1325H27.9144M27.9143 26.1325H27.9144M27.9144 26.1325H27.9144M27.9144 26.1325H27.9144M27.9144 26.1325H27.9144M27.9144 26.1325H27.9144M27.9144 26.1325H27.9144M27.9144 26.1325H27.9144M27.9144 26.1325H27.9145M27.9144 26.1325H27.9145M27.9145 26.1325H27.9145M27.9145 26.1325H27.9145M27.9145 26.1325H27.9145M27.9145 26.1325H27.9145M27.9145 26.1325H27.9145M27.9145 26.1325H27.9145M27.9145 26.1325H27.9146M27.9145 26.1325H27.9146M27.9146 26.1325H27.9146M27.9146 26.1325H27.9146M27.9146 26.1325H27.9146M27.9146 26.1325H27.9146M27.9146 26.1325H27.9146M27.9146 26.1325H27.9146M27.9146 26.1325H27.9147M27.9146 26.1325H27.9147M27.9147 26.1325H27.9147M27.9147 26.1325H27.9147M27.9147 26.1325H27.9147M27.9147 26.1325H27.9147M27.9147 26.1325H27.9147M27.9147 26.1325H27.9147M27.9147 26.1325H27.9148M27.9147 26.1325H27.9148M27.9148 26.1325H27.9148M27.9148 26.1325H27.9148M27.9148 26.1325H27.9148M27.9148 26.1325H27.9148M27.9148 26.1325H27.9149M27.9148 26.1325H27.9149M27.9149 26.1325H27.9149M27.9149 26.1325H27.9149M27.9149 26.1325H27.9149M27.9149 26.1325H27.9149M27.9149 26.1325H27.9149M27.9149 26.1325H27.9149M27.9149 26.1325H27.915M27.9149 26.1325H27.915M27.915 26.1325H27.915M27.915 26.1325H27.915M27.915 26.1325H27.915M27.915 26.1325H27.915M27.915 26.1325H27.915M27.915 26.1325H27.915M27.915 26.1325H27.9151M27.915 26.1325H27.9151M27.9151 26.1325H27.9151M27.9151 26.1325H27.9151M27.9151 26.1325H27.9151M27.9151 26.1325H27.9151M27.9151 26.1325H27.9151M27.9151 26.1325H27.9151M27.9151 26.1325H27.9152M27.9151 26.1325H27.9152M27.9152 26.1325H27.9152M27.9152 26.1325H27.9152M27.9152 26.1325H27.9152M27.9152 26.1325H27.9152M27.9152 26.1325H27.9152M27.9152 26.1325H27.9152M27.9152 26.1325H27.9153M27.9152 26.1325H27.9153M27.9153 26.1325H27.9153M27.9153 26.1325H27.9153M27.9153 26.1325H27.9153M27.9153 26.1325H27.9153M27.9153 26.1325H27.9153M27.9153 26.1325H27.9153M27.9153 26.1325H27.9154M27.9153 26.1325H27.9154M27.9154 26.1325H27.9154M27.9154 26.1325H27.9154M27.9154 26.1325H27.9154M27.9154 26.1325H27.9154M27.9154 26.1325H27.9154M27.9154 26.1325H27.9154M27.9154 26.1325H27.9155M27.9154 26.1325H27.9155M27.9155 26.1325H27.9155M27.9155 26.1325H27.9155M27.9155 26.1325H27.9155M27.9155 26.1325H27.9155M27.9155 26.1325H27.9156M27.9155 26.1325H27.9156M27.9156 26.1325H27.9156M27.9156 26.1325H27.9156M27.9156 26.1325H27.9156M27.9156 26.1325H27.9156M27.9156 26.1325H27.9156M27.9156 26.1325H27.9156M27.9156 26.1325H27.9157M27.9156 26.1325H27.9157M27.9157 26.1325H27.9157M27.9157 26.1325H27.9157M27.9157 26.1325H27.9157M27.9157 26.1325H27.9157M27.9157 26.1325H27.9157M27.9157 26.1325H27.9157M27.9157 26.1325H27.9158M27.9157 26.1325H27.9158M27.9158 26.1325H27.9158M27.9158 26.1325H27.9158M27.9158 26.1325H27.9158M27.9158 26.1325H27.9158M27.9158 26.1325H27.9158M27.9158 26.1325H27.9158M27.9158 26.1325H27.9159M27.9158 26.1325H27.9159M27.9159 26.1325H27.9159M27.9159 26.1325H27.9159M27.9159 26.1325H27.9159M27.9159 26.1325H27.9159M27.9159 26.1325H27.9159M27.9159 26.1325H27.9159M27.9159 26.1325H27.916M27.9159 26.1325H27.916M27.916 26.1325H27.916M27.916 26.1325H27.916M27.916 26.1325H27.916M27.916 26.1325H27.916M27.916 26.1325H27.916M27.916 26.1325H27.916M27.916 26.1325H27.9161M27.916 26.1325H27.9161M27.9161 26.1325H27.9161M27.9161 26.1325H27.9161M27.9161 26.1325H27.9161M27.9161 26.1325H27.9161M27.9161 26.1325H27.9161M27.9161 26.1325H27.9161M27.9161 26.1325H27.9162M27.9161 26.1325H27.9162M27.9162 26.1325H27.9162M27.9162 26.1325H27.9162M27.9162 26.1325H27.9162M27.9162 26.1325H27.9162M27.9162 26.1325H27.9163M27.9162 26.1325H27.9163M27.9163 26.1325H27.9163M27.9163 26.1325H27.9163M27.9163 26.1325H27.9163M27.9163 26.1325H27.9163M27.9163 26.1325H27.9163M27.9163 26.1325H27.9163M27.9163 26.1325H27.9164M27.9163 26.1325H27.9164M27.9164 26.1325H27.9164M27.9164 26.1325H27.9164M27.9164 26.1325H27.9164M27.9164 26.1325H27.9164M27.9164 26.1325H27.9164M27.9164 26.1325H27.9164M27.9164 26.1325H27.9165M27.9164 26.1325H27.9165M27.9165 26.1325H27.9165M27.9165 26.1325H27.9165M27.9165 26.1325H27.9165M27.9165 26.1325H27.9165M27.9165 26.1325H27.9165M27.9165 26.1325H27.9165M27.9165 26.1325H27.9166M27.9165 26.1325H27.9166M27.9166 26.1325H27.9166M27.9166 26.1325H27.9166M27.9166 26.1325H27.9166M27.9166 26.1325H27.9166M27.9166 26.1325H27.9166M27.9166 26.1325H27.9166M27.9166 26.1325H27.9167M27.9166 26.1325H27.9167M27.9167 26.1325H27.9167M27.9167 26.1325H27.9167M27.9167 26.1325H27.9167M27.9167 26.1325H27.9167M27.9167 26.1325H27.9167M27.9167 26.1325H27.9167M27.9167 26.1325H27.9168M27.9167 26.1325H27.9168M27.9168 26.1325H27.9168M27.9168 26.1325H27.9168M27.9168 26.1325H27.9168M27.9168 26.1325H27.9168M27.9168 26.1325H27.9168M27.9168 26.1325H27.9168M27.9168 26.1325H27.9169M27.9168 26.1325H27.9169M27.9169 26.1325H27.9169M27.9169 26.1325H27.9169M27.9169 26.1325H27.9169M27.9169 26.1325H27.9169M27.9169 26.1325H27.917M27.9169 26.1325H27.917M27.917 26.1325H27.917M27.917 26.1325H27.917M27.917 26.1325H27.917M27.917 26.1325H27.917M27.917 26.1325H27.917M27.917 26.1325H27.917M27.917 26.1325H27.9171M27.917 26.1325H27.9171M27.9171 26.1325H27.9171M27.9171 26.1325H27.9171M27.9171 26.1325H27.9171M27.9171 26.1325H27.9171M27.9171 26.1325H27.9171M27.9171 26.1325H27.9171M27.9171 26.1325H27.9172M27.9171 26.1325H27.9172M27.9172 26.1325H27.9172M27.9172 26.1325H27.9172M27.9172 26.1325H27.9172M27.9172 26.1325H27.9172M27.9172 26.1325H27.9172M27.9172 26.1325H27.9172M27.9172 26.1325H27.9173M27.9172 26.1325H27.9173M27.9173 26.1325H27.9173M27.9173 26.1325H27.9173M27.9173 26.1325H27.9173M27.9173 26.1325H27.9173M27.9173 26.1325H27.9173M27.9173 26.1325H27.9173M27.9173 26.1325H27.9174M27.9173 26.1325H27.9174M27.9174 26.1325H27.9174M27.9174 26.1325H27.9174M27.9174 26.1325H27.9174M27.9174 26.1325H27.9174M27.9174 26.1325H27.9174M27.9174 26.1325H27.9174M27.9174 26.1325H27.9175M27.9174 26.1325H27.9175M27.9175 26.1325H27.9175M27.9175 26.1325H27.9175M27.9175 26.1325H27.9175M27.9175 26.1325H27.9175M27.9175 26.1325H27.9176M27.9175 26.1325H27.9176M27.9176 26.1325H27.9176M27.9176 26.1325H27.9176M27.9176 26.1325H27.9176M27.9176 26.1325H27.9176M27.9176 26.1325H27.9176M27.9176 26.1325H27.9176M27.9176 26.1325H27.9177M27.9176 26.1325H27.9177M27.9177 26.1325H27.9177M27.9177 26.1325H27.9177M27.9177 26.1325H27.9177M27.9177 26.1325H27.9177M27.9177 26.1325H27.9177M27.9177 26.1325H27.9177M27.9177 26.1325H27.9178M27.9177 26.1325H27.9178M27.9178 26.1325H27.9178M27.9178 26.1325H27.9178M27.9178 26.1325H27.9178M27.9178 26.1325H27.9178M27.9178 26.1325H27.9178M27.9178 26.1325H27.9178M27.9178 26.1325H27.9179M27.9178 26.1325H27.9179M27.9179 26.1325H27.9179M27.9179 26.1325H27.9179M27.9179 26.1325H27.9179M27.9179 26.1325H27.9179M27.9179 26.1325H27.9179M27.9179 26.1325H27.9179M27.9179 26.1325H27.918M27.9179 26.1325H27.918M27.918 26.1325H27.918M27.918 26.1325H27.918M27.918 26.1325H27.918M27.918 26.1325H27.918M27.918 26.1325H27.918M27.918 26.1325H27.918M27.918 26.1325H27.9181M27.918 26.1325H27.9181M27.9181 26.1325H27.9181M27.9181 26.1325H27.9181M27.9181 26.1325H27.9181M27.9181 26.1325H27.9181M27.9181 26.1325H27.9182M27.9181 26.1325H27.9182M27.9182 26.1325H27.9182M27.9182 26.1325H27.9182M27.9182 26.1325H27.9182M27.9182 26.1325H27.9182M27.9182 26.1325H27.9182M27.9182 26.1325H27.9182M27.9182 26.1325H27.9183M27.9182 26.1325H27.9183M27.9183 26.1325H27.9183M27.9183 26.1325H27.9183M27.9183 26.1325H27.9183M27.9183 26.1325H27.9183M27.9183 26.1325H27.9183M27.9183 26.1325H27.9183M27.9183 26.1325H27.9184M27.9183 26.1325H27.9184M27.9184 26.1325H27.9184M27.9184 26.1325H27.9184M27.9184 26.1325H27.9184M27.9184 26.1325H27.9184M27.9184 26.1325H27.9184M27.9184 26.1325H27.9184M27.9184 26.1325H27.9185M27.9184 26.1325H27.9185M27.9185 26.1325H27.9185M27.9185 26.1325H27.9185M27.9185 26.1325H27.9185M27.9185 26.1325H27.9185M27.9185 26.1325H27.9185M27.9185 26.1325H27.9185M27.9185 26.1325H27.9186M27.9185 26.1325H27.9186M27.9186 26.1325H27.9186M27.9186 26.1325H27.9186M27.9186 26.1325H27.9186M27.9186 26.1325H27.9186M27.9186 26.1325H27.9186M27.9186 26.1325H27.9186M27.9186 26.1325H27.9187M27.9186 26.1325H27.9187M27.9187 26.1325H27.9187M27.9187 26.1325H27.9187M27.9187 26.1325H27.9187M27.9187 26.1325H27.9187M27.9187 26.1325H27.9188M27.9187 26.1325H27.9188M27.9188 26.1325H27.9188M27.9188 26.1325H27.9188M27.9188 26.1325H27.9188M27.9188 26.1325H27.9188M27.9188 26.1325H27.9188M27.9188 26.1325H27.9188M27.9188 26.1325H27.9189M27.9188 26.1325H27.9189M27.9189 26.1325H27.9189M27.9189 26.1325H27.9189M27.9189 26.1325H27.9189M27.9189 26.1325H27.9189M27.9189 26.1325H27.9189M27.9189 26.1325H27.9189M27.9189 26.1325H27.919M27.9189 26.1325H27.919M27.919 26.1325H27.919M27.919 26.1325H27.919M27.919 26.1325H27.919M27.919 26.1325H27.919M27.919 26.1325H27.919M27.919 26.1325H27.919M27.919 26.1325H27.9191M27.919 26.1325H27.9191M27.9191 26.1325H27.9191M27.9191 26.1325H27.9191M27.9191 26.1325H27.9191M27.9191 26.1325H27.9191M27.9191 26.1325H27.9191M27.9191 26.1325H27.9191M27.9191 26.1325H27.9192M27.9191 26.1325H27.9192M27.9192 26.1325H27.9192M27.9192 26.1325H27.9192M27.9192 26.1325H27.9192M27.9192 26.1325H27.9192M27.9192 26.1325H27.9192M27.9192 26.1325H27.9192M27.9192 26.1325H27.9193M27.9192 26.1325H27.9193M27.9193 26.1325H27.9193M27.9193 26.1325H27.9193M27.9193 26.1325H27.9193M27.9193 26.1325H27.9193M27.9193 26.1325H27.9194M27.9193 26.1325H27.9194M27.9194 26.1325H27.9194M27.9194 26.1325H27.9194M27.9194 26.1325H27.9194M27.9194 26.1325H27.9194M27.9194 26.1325H27.9194M27.9194 26.1325H27.9194M27.9194 26.1325H27.9195M27.9194 26.1325H27.9195M27.9195 26.1325H27.9195M27.9195 26.1325H27.9195M27.9195 26.1325H27.9195M27.9195 26.1325H27.9195M27.9195 26.1325H27.9195M27.9195 26.1325H27.9195M27.9195 26.1325H27.9196M27.9195 26.1325H27.9196M27.9196 26.1325H27.9196M27.9196 26.1325H27.9196M27.9196 26.1325H27.9196M27.9196 26.1325H27.9196M27.9196 26.1325H27.9196M27.9196 26.1325H27.9196M27.9196 26.1325H27.9197M27.9196 26.1325H27.9197M27.9197 26.1325H27.9197M27.9197 26.1325H27.9197M27.9197 26.1325H27.9197M27.9197 26.1325H27.9197M27.9197 26.1325H27.9197M27.9197 26.1325H27.9197M27.9197 26.1325H27.9198M27.9197 26.1325H27.9198M27.9198 26.1325H27.9198M27.9198 26.1325H27.9198M27.9198 26.1325H27.9198M27.9198 26.1325H27.9198M27.9198 26.1325H27.9199M27.9198 26.1325H27.9199M27.9199 26.1325H27.9199M27.9199 26.1325H27.9199M27.9199 26.1325H27.9199M27.9199 26.1325H27.9199M27.9199 26.1325H27.9199M27.9199 26.1325H27.9199M27.9199 26.1325H27.92M27.9199 26.1325H27.92M27.92 26.1325H27.92M27.92 26.1325H27.92M27.92 26.1325H27.92M27.92 26.1325H27.92M27.92 26.1325H27.92M27.92 26.1325H27.92M27.92 26.1325H27.9201M27.92 26.1325H27.9201M27.9201 26.1325H27.9201M27.9201 26.1325H27.9201M27.9201 26.1325H27.9201M27.9201 26.1325H27.9201M27.9201 26.1325H27.9201M27.9201 26.1325H27.9201M27.9201 26.1325H27.9202M27.9201 26.1325H27.9202M27.9202 26.1325H27.9202M27.9202 26.1325H27.9202M27.9202 26.1325H27.9202M27.9202 26.1325H27.9202M27.9202 26.1325H27.9202M27.9202 26.1325H27.9202M27.9202 26.1325H27.9203M27.9202 26.1325H27.9203M27.9203 26.1325H27.9203M27.9203 26.1325H27.9203M27.9203 26.1325H27.9203M27.9203 26.1325H27.9203M27.9203 26.1325H27.9204M27.9203 26.1325H27.9204M27.9204 26.1325H27.9204M27.9204 26.1325H27.9204M27.9204 26.1325H27.9204M27.9204 26.1325H27.9204M27.9204 26.1325H27.9204M27.9204 26.1325H27.9204M27.9204 26.1325H27.9205M27.9204 26.1325H27.9205M27.9205 26.1325H27.9205M27.9205 26.1325H27.9205M27.9205 26.1325H27.9205M27.9205 26.1325H27.9205M27.9205 26.1325H27.9205M27.9205 26.1325H27.9205M27.9205 26.1325H27.9206M27.9205 26.1325H27.9206M27.9206 26.1325H27.9206M27.9206 26.1325H27.9206M27.9206 26.1325H27.9206M27.9206 26.1325H27.9206M27.9206 26.1325H27.9206M27.9206 26.1325H27.9206M27.9206 26.1325H27.9207M27.9206 26.1325H27.9207M27.9207 26.1325H27.9207M27.9207 26.1325H27.9207M27.9207 26.1325H27.9207M27.9207 26.1325H27.9207M27.9207 26.1325H27.9207M27.9207 26.1325H27.9207M27.9207 26.1325H27.9208M27.9207 26.1325H27.9208M27.9208 26.1325H27.9208M27.9208 26.1325H27.9208M27.9208 26.1325H27.9208M27.9208 26.1325H27.9208M27.9208 26.1325H27.9209M27.9208 26.1325H27.9209M27.9209 26.1325H27.9209M27.9209 26.1325H27.9209M27.9209 26.1325H27.9209M27.9209 26.1325H27.9209M27.9209 26.1325H27.9209M27.9209 26.1325H27.9209M27.9209 26.1325H27.921M27.9209 26.1325H27.921M27.921 26.1325H27.921M27.921 26.1325H27.921M27.921 26.1325H27.921M27.921 26.1325H27.921M27.921 26.1325H27.921M27.921 26.1325H27.921M27.921 26.1325H27.9211M27.921 26.1325H27.9211M27.9211 26.1325H27.9211M27.9211 26.1325H27.9211M27.9211 26.1325H27.9211M27.9211 26.1325H27.9211M27.9211 26.1325H27.9211M27.9211 26.1325H27.9211M27.9211 26.1325H27.9212M27.9211 26.1325H27.9212M27.9212 26.1325H27.9212M27.9212 26.1325H27.9212M27.9212 26.1325H27.9212M27.9212 26.1325H27.9212M27.9212 26.1325H27.9212M27.9212 26.1325H27.9212M27.9212 26.1325H27.9213M27.9212 26.1325H27.9213M27.9213 26.1325H27.9213M27.9213 26.1325H27.9213M27.9213 26.1325H27.9213M27.9213 26.1325H27.9213M27.9213 26.1325H27.9214M27.9213 26.1325H27.9214M27.9214 26.1325H27.9214M27.9214 26.1325H27.9214M27.9214 26.1325C29.1222 26.1325 30.0858 27.0956 30.0865 28.2963L27.9214 26.1325ZM10.9413 6.96949L10.9413 6.96949C10.6874 6.98031 10.4445 7.07621 10.2518 7.24216C4.02872 12.4643 0.434169 20.1736 0.434169 28.2976C0.434169 36.4219 4.02898 44.1314 10.2525 49.3535C10.7289 49.7561 11.4415 49.6962 11.8442 49.2196C12.2471 48.7431 12.1872 48.0304 11.7107 47.6276L11.7108 47.6275L11.7093 47.6263L11.7081 47.6253L11.7053 47.623C5.99224 42.8295 2.69338 35.7553 2.69338 28.2976C2.69338 20.8403 5.99187 13.7664 11.7044 8.97274C12.1869 8.57829 12.2587 7.86737 11.8648 7.38412L11.8647 7.38397C11.6393 7.10799 11.2971 6.95436 10.9413 6.96949ZM11.7049 47.6228C11.705 47.6229 11.7051 47.623 11.7052 47.6231L11.7049 47.6228ZM19.6146 14.1803C19.3607 14.1912 19.1177 14.2875 18.9252 14.4534L19.6227 14.3684L19.6147 14.1803C19.6147 14.1803 19.6147 14.1803 19.6146 14.1803ZM27.9212 21.5199C24.1891 21.5199 21.1436 24.5655 21.1436 28.2976C21.1436 32.0296 24.1891 35.0752 27.9212 35.0752C31.6533 35.0752 34.6988 32.0296 34.6988 28.2976C34.6988 24.5655 31.6533 21.5199 27.9212 21.5199ZM27.9212 23.7791C30.4277 23.7791 32.4396 25.791 32.4396 28.2976C32.4396 30.8041 30.4277 32.816 27.9212 32.816C25.4147 32.816 23.4028 30.8041 23.4028 28.2976C23.4028 25.791 25.4147 23.7791 27.9212 23.7791Z" fill="black" stroke="black" stroke-width="0.376535"/>
</g>
<defs>
<clipPath id="clip0_41_2113">
<rect width="54.5975" height="54.5975" fill="white" transform="translate(0.622437 0.99585)"/>
</clipPath>
</defs>
</svg>
