<svg width="36" height="36" viewBox="0 0 36 36" fill="none" xmlns="http://www.w3.org/2000/svg">
<g clip-path="url(#clip0_27_2401)">
<path d="M6.80393 3.93879L6.80394 3.93879C7.03858 3.92881 7.26422 4.03012 7.41284 4.21209L7.41292 4.21218C7.67263 4.53083 7.62526 4.9996 7.30708 5.25968C3.54044 8.42048 1.36552 13.0848 1.36552 18.0019C1.36552 22.9193 3.54069 27.5838 7.30772 30.7445L7.3095 30.746L7.31137 30.7475L7.3113 30.7475C7.62543 31.0131 7.66494 31.4831 7.39934 31.7973C7.13381 32.1115 6.66395 32.151 6.34975 31.8856M6.80393 3.93879L6.42972 31.7906M6.80393 3.93879C6.63655 3.94593 6.4764 4.00916 6.34929 4.11859M6.80393 3.93879L6.42972 4.21315M6.34975 31.8856C6.3497 31.8855 6.34964 31.8855 6.34958 31.8854L6.42972 31.7906M6.34975 31.8856C6.34981 31.8856 6.34987 31.8857 6.34993 31.8857L6.42972 31.7906M6.34975 31.8856C2.24618 28.4422 -0.124138 23.3588 -0.124138 18.0019C-0.124138 12.6452 2.246 7.56192 6.34929 4.11859M6.42972 31.7906C2.35415 28.3709 0 23.3222 0 18.0019C0 12.6816 2.35415 7.6329 6.42972 4.21315M6.34929 4.11859C6.34907 4.11878 6.34884 4.11898 6.34862 4.11917L6.42972 4.21315M6.34929 4.11859C6.34951 4.11841 6.34972 4.11823 6.34993 4.11805L6.42972 4.21315M23.4547 8.6928L23.4547 8.6928C23.63 8.69503 23.799 8.75902 23.9318 8.87347C23.9321 8.87366 23.9323 8.87385 23.9325 8.87404L23.8514 8.968C26.5216 11.2084 28.0641 14.5163 28.0641 18.0019L23.4547 8.6928ZM23.4547 8.6928C23.0434 8.68774 22.7057 9.01692 22.7006 9.42839M23.4547 8.6928L22.7006 9.42839M12.523 8.6934C12.3555 8.70054 12.1952 8.76407 12.0683 8.87346C9.37052 11.1375 7.812 14.4799 7.812 18.0019C7.812 21.5238 9.37048 24.8662 12.0683 27.1302C12.3792 27.399 12.8491 27.3653 13.1183 27.0548L13.1184 27.0548C13.3878 26.7439 13.3543 26.2735 13.0436 26.004L13.0428 26.0034C13.0381 25.9994 13.0322 25.9943 13.0258 25.9891C10.6648 24.0076 9.30178 21.0842 9.30178 18.0019C9.30178 14.9194 10.665 11.996 13.026 10.0146C13.3442 9.75465 13.3919 9.28589 13.1323 8.96719L13.1323 8.96714C12.9837 8.78493 12.758 8.68329 12.523 8.6934ZM12.523 8.6934L12.5282 8.81742M12.523 8.6934C12.5229 8.6934 12.5229 8.6934 12.5229 8.6934L12.5282 8.81742M12.5282 8.81742C12.724 8.80898 12.9122 8.89365 13.0361 9.04559L7.93614 18.0019C7.93614 14.5163 9.47868 11.2084 12.1488 8.968C12.2546 8.87651 12.3885 8.82338 12.5282 8.81742ZM17.9913 16.5743H17.9896C17.7496 16.571 17.5578 16.3738 17.5612 16.1338L17.9913 16.5743ZM17.9913 16.5743H17.9913M17.9913 16.5743H17.9913M20.2967 18.0106V18.0123C20.2934 18.2522 20.0962 18.4441 19.8561 18.4407L20.2967 18.0106ZM20.2967 18.0106V18.0106V18.0105V18.0105V18.0105V18.0105V18.0105V18.0105V18.0104V18.0104V18.0104V18.0104V18.0104V18.0104V18.0103V18.0103V18.0103V18.0103V18.0103V18.0103V18.0102V18.0102V18.0102V18.0102V18.0102V18.0101V18.0101V18.0101V18.0101V18.0101V18.0101V18.01V18.01V18.01V18.01V18.01V18.01V18.0099V18.0099V18.0099V18.0099V18.0099V18.0099V18.0098V18.0098V18.0098V18.0098V18.0098V18.0098V18.0097V18.0097V18.0097V18.0097V18.0097V18.0096V18.0096V18.0096V18.0096V18.0096V18.0096V18.0095V18.0095V18.0095V18.0095V18.0095V18.0095V18.0094V18.0094V18.0094V18.0094V18.0094V18.0094V18.0093V18.0093V18.0093V18.0093V18.0093V18.0092V18.0092V18.0092V18.0092V18.0092V18.0092V18.0091V18.0091V18.0091V18.0091V18.0091V18.0091V18.009V18.009V18.009V18.009V18.009V18.009V18.0089V18.0089V18.0089V18.0089V18.0089V18.0089V18.0088V18.0088V18.0088V18.0088V18.0088V18.0087V18.0087V18.0087V18.0087V18.0087V18.0087V18.0086V18.0086V18.0086V18.0086V18.0086V18.0086V18.0085V18.0085V18.0085V18.0085V18.0085V18.0085V18.0084V18.0084V18.0084V18.0084V18.0084V18.0084V18.0083V18.0083V18.0083V18.0083V18.0083V18.0082V18.0082V18.0082V18.0082V18.0082V18.0082V18.0081V18.0081V18.0081V18.0081V18.0081V18.0081V18.008V18.008V18.008V18.008V18.008V18.008V18.0079V18.0079V18.0079V18.0079V18.0079V18.0079V18.0078V18.0078V18.0078V18.0078V18.0078V18.0078V18.0077V18.0077V18.0077V18.0077V18.0077V18.0076V18.0076V18.0076V18.0076V18.0076V18.0076V18.0075V18.0075V18.0075V18.0075V18.0075V18.0075V18.0074V18.0074V18.0074V18.0074V18.0074V18.0074V18.0073V18.0073V18.0073V18.0073V18.0073V18.0073V18.0072V18.0072V18.0072V18.0072V18.0072V18.0072V18.0071V18.0071V18.0071V18.0071V18.0071V18.007V18.007V18.007V18.007V18.007V18.007V18.0069V18.0069V18.0069V18.0069V18.0069V18.0069V18.0068V18.0068V18.0068V18.0068V18.0068V18.0068V18.0067V18.0067V18.0067V18.0067V18.0067V18.0067V18.0066V18.0066V18.0066V18.0066V18.0066V18.0066V18.0065V18.0065V18.0065V18.0065V18.0065V18.0065V18.0064V18.0064V18.0064V18.0064V18.0064V18.0063V18.0063V18.0063V18.0063V18.0063V18.0063V18.0062V18.0062V18.0062V18.0062V18.0062V18.0062V18.0061V18.0061V18.0061V18.0061V18.0061V18.0061V18.006V18.006V18.006V18.006V18.006V18.006V18.0059V18.0059V18.0059V18.0059V18.0059V18.0059V18.0058V18.0058V18.0058V18.0058V18.0058V18.0058V18.0057V18.0057V18.0057V18.0057V18.0057V18.0056V18.0056V18.0056V18.0056V18.0056V18.0056V18.0055V18.0055V18.0055V18.0055V18.0055V18.0055V18.0054V18.0054V18.0054V18.0054V18.0054V18.0054V18.0053V18.0053V18.0053V18.0053V18.0053V18.0053V18.0052V18.0052V18.0052V18.0052V18.0052V18.0052V18.0051V18.0051V18.0051V18.0051V18.0051V18.005V18.005V18.005V18.005V18.005V18.005V18.0049V18.0049V18.0049V18.0049V18.0049V18.0049V18.0048V18.0048V18.0048V18.0048V18.0048V18.0048V18.0047V18.0047V18.0047V18.0047V18.0047V18.0047V18.0046V18.0046V18.0046V18.0046V18.0046V18.0046V18.0045V18.0045V18.0045V18.0045V18.0045V18.0044V18.0044V18.0044V18.0044V18.0044V18.0044V18.0043V18.0043V18.0043V18.0043V18.0043V18.0043V18.0042V18.0042V18.0042V18.0042V18.0042V18.0042V18.0041V18.0041V18.0041V18.0041V18.0041V18.0041V18.004V18.004V18.004V18.004V18.004V18.004V18.0039V18.0039V18.0039V18.0039V18.0039V18.0038V18.0038V18.0038V18.0038V18.0038V18.0038V18.0037V18.0037V18.0037V18.0037V18.0037V18.0037V18.0036V18.0036V18.0036V18.0036V18.0036V18.0036V18.0035V18.0035V18.0035V18.0035V18.0035V18.0035V18.0034V18.0034V18.0034V18.0034V18.0034V18.0033V18.0033V18.0033V18.0033V18.0033V18.0033V18.0032V18.0032V18.0032V18.0032V18.0032V18.0032V18.0031V18.0031V18.0031V18.0031V18.0031V18.0031V18.003V18.003V18.003V18.003V18.003V18.003V18.0029V18.0029V18.0029V18.0029V18.0029V18.0028V18.0028V18.0028V18.0028V18.0028V18.0028V18.0027V18.0027V18.0027V18.0027V18.0027V18.0027V18.0026V18.0026V18.0026V18.0026V18.0026V18.0026V18.0025V18.0025V18.0025V18.0025V18.0025V18.0024V18.0024V18.0024V18.0024V18.0024V18.0024V18.0023V18.0023V18.0023V18.0023V18.0023V18.0023V18.0022V18.0022V18.0022V18.0022V18.0022V18.0022V18.0021V18.0021V18.0021V18.0021V18.0021V18.0021V18.002V18.002V18.002V18.002V18.002V18.0019V18.0019V18.0019V18.0019V18.0019V18.0019V18.0018V18.0018V18.0018V18.0018V18.0018C20.2965 16.7376 19.2651 15.7058 18.0009 15.7053M20.2967 18.0106L17.5612 16.1337C17.5645 15.894 17.7613 15.7024 18.0009 15.7053M28.4197 4.67379C28.4247 4.26248 28.7624 3.93316 29.1736 3.93819L28.4197 4.67379ZM28.4197 4.67379C28.4168 4.90053 28.5174 5.11612 28.6929 5.2597M28.4197 4.67379L28.6929 5.2597M28.6929 5.2597C32.4596 8.42061 34.6345 13.0848 34.6345 18.0019C34.6345 22.9192 32.4594 27.5836 28.6926 30.7444C28.3766 31.0078 28.334 31.4776 28.5974 31.7935C28.8603 32.109 29.329 32.1519 29.645 31.89C29.6476 31.8879 29.6498 31.886 29.6513 31.8847C33.7542 28.4414 36.1241 23.3584 36.1241 18.0019C36.1241 12.6452 33.754 7.56194 29.6507 4.11861C29.518 4.00429 29.3491 3.94029 29.1737 3.93819L28.6929 5.2597ZM22.7006 9.42839C22.6978 9.65521 22.7985 9.87109 22.9743 10.0146M22.7006 9.42839L22.9743 10.0146M22.9743 10.0146C25.3354 11.9961 26.6985 14.9195 26.6985 18.0019C26.6985 21.0842 25.3353 24.0077 22.9743 25.9892C22.6557 26.2486 22.6073 26.7172 22.8664 27.0363C23.1257 27.3556 23.5947 27.4044 23.9141 27.1452L22.9743 10.0146ZM18.0009 15.7053C18.0012 15.7053 18.0015 15.7054 18.0018 15.7054L18 15.8295V15.7053C18.0003 15.7053 18.0006 15.7053 18.0009 15.7053ZM17.9913 16.5743H17.9913M17.9913 16.5743H17.9913M17.9913 16.5743H17.9914M17.9913 16.5743H17.9914M17.9914 16.5743H17.9914M17.9914 16.5743H17.9914M17.9914 16.5743H17.9914M17.9914 16.5743H17.9914M17.9914 16.5743H17.9914M17.9914 16.5743H17.9914M17.9914 16.5743H17.9914M17.9914 16.5743H17.9914M17.9914 16.5743H17.9914M17.9914 16.5743H17.9914M17.9914 16.5743H17.9915M17.9914 16.5743H17.9915M17.9915 16.5743H17.9915M17.9915 16.5743H17.9915M17.9915 16.5743H17.9915M17.9915 16.5743H17.9915M17.9915 16.5743H17.9915M17.9915 16.5743H17.9915M17.9915 16.5743H17.9915M17.9915 16.5743H17.9915M17.9915 16.5743H17.9916M17.9915 16.5743H17.9916M17.9916 16.5743H17.9916M17.9916 16.5743H17.9916M17.9916 16.5743H17.9916M17.9916 16.5743H17.9916M17.9916 16.5743H17.9916M17.9916 16.5743H17.9916M17.9916 16.5743H17.9916M17.9916 16.5743H17.9916M17.9916 16.5743H17.9916M17.9916 16.5743H17.9916M17.9916 16.5743H17.9917M17.9916 16.5743H17.9917M17.9917 16.5743H17.9917M17.9917 16.5743H17.9917M17.9917 16.5743H17.9917M17.9917 16.5743H17.9917M17.9917 16.5743H17.9917M17.9917 16.5743H17.9917M17.9917 16.5743H17.9917M17.9917 16.5743H17.9917M17.9917 16.5743H17.9917M17.9917 16.5743H17.9917M17.9917 16.5743H17.9918M17.9917 16.5743H17.9918M17.9918 16.5743H17.9918M17.9918 16.5743H17.9918M17.9918 16.5743H17.9918M17.9918 16.5743H17.9918M17.9918 16.5743H17.9918M17.9918 16.5743H17.9918M17.9918 16.5743H17.9918M17.9918 16.5743H17.9918M17.9918 16.5743H17.9918M17.9918 16.5743H17.9918M17.9918 16.5743H17.9919M17.9918 16.5743H17.9919M17.9919 16.5743H17.9919M17.9919 16.5743H17.9919M17.9919 16.5743H17.9919M17.9919 16.5743H17.9919M17.9919 16.5743H17.9919M17.9919 16.5743H17.9919M17.9919 16.5743H17.9919M17.9919 16.5743H17.9919M17.9919 16.5743H17.992M17.9919 16.5743H17.992M17.992 16.5743H17.992M17.992 16.5743H17.992M17.992 16.5743H17.992M17.992 16.5743H17.992M17.992 16.5743H17.992M17.992 16.5743H17.992M17.992 16.5743H17.992M17.992 16.5743H17.992M17.992 16.5743H17.992M17.992 16.5743H17.992M17.992 16.5743H17.9921M17.992 16.5743H17.9921M17.9921 16.5743H17.9921M17.9921 16.5743H17.9921M17.9921 16.5743H17.9921M17.9921 16.5743H17.9921M17.9921 16.5743H17.9921M17.9921 16.5743H17.9921M17.9921 16.5743H17.9921M17.9921 16.5743H17.9921M17.9921 16.5743H17.9921M17.9921 16.5743H17.9921M17.9921 16.5743H17.9922M17.9921 16.5743H17.9922M17.9922 16.5743H17.9922M17.9922 16.5743H17.9922M17.9922 16.5743H17.9922M17.9922 16.5743H17.9922M17.9922 16.5743H17.9922M17.9922 16.5743H17.9922M17.9922 16.5743H17.9922M17.9922 16.5743H17.9922M17.9922 16.5743H17.9922M17.9922 16.5743H17.9922M17.9922 16.5743H17.9923M17.9922 16.5743H17.9923M17.9923 16.5743H17.9923M17.9923 16.5743H17.9923M17.9923 16.5743H17.9923M17.9923 16.5743H17.9923M17.9923 16.5743H17.9923M17.9923 16.5743H17.9923M17.9923 16.5743H17.9923M17.9923 16.5743H17.9923M17.9923 16.5743H17.9924M17.9923 16.5743H17.9924M17.9924 16.5743H17.9924M17.9924 16.5743H17.9924M17.9924 16.5743H17.9924M17.9924 16.5743H17.9924M17.9924 16.5743H17.9924M17.9924 16.5743H17.9924M17.9924 16.5743H17.9924M17.9924 16.5743H17.9924M17.9924 16.5743H17.9924M17.9924 16.5743H17.9924M17.9924 16.5743H17.9925M17.9924 16.5743H17.9925M17.9925 16.5743H17.9925M17.9925 16.5743H17.9925M17.9925 16.5743H17.9925M17.9925 16.5743H17.9925M17.9925 16.5743H17.9925M17.9925 16.5743H17.9925M17.9925 16.5743H17.9925M17.9925 16.5743H17.9925M17.9925 16.5743H17.9925M17.9925 16.5743H17.9925M17.9925 16.5743H17.9926M17.9925 16.5743H17.9926M17.9926 16.5743H17.9926M17.9926 16.5743H17.9926M17.9926 16.5743H17.9926M17.9926 16.5743H17.9926M17.9926 16.5743H17.9926M17.9926 16.5743H17.9926M17.9926 16.5743H17.9926M17.9926 16.5743H17.9926M17.9926 16.5743H17.9926M17.9926 16.5743H17.9926M17.9926 16.5743H17.9927M17.9926 16.5743H17.9927M17.9927 16.5743H17.9927M17.9927 16.5743H17.9927M17.9927 16.5743H17.9927M17.9927 16.5743H17.9927M17.9927 16.5743H17.9927M17.9927 16.5743H17.9927M17.9927 16.5743H17.9927M17.9927 16.5743H17.9927M17.9927 16.5743H17.9928M17.9927 16.5743H17.9928M17.9928 16.5743H17.9928M17.9928 16.5743H17.9928M17.9928 16.5743H17.9928M17.9928 16.5743H17.9928M17.9928 16.5743H17.9928M17.9928 16.5743H17.9928M17.9928 16.5743H17.9928M17.9928 16.5743H17.9928M17.9928 16.5743H17.9928M17.9928 16.5743H17.9928M17.9928 16.5743H17.9929M17.9928 16.5743H17.9929M17.9929 16.5743H17.9929M17.9929 16.5743H17.9929M17.9929 16.5743H17.9929M17.9929 16.5743H17.9929M17.9929 16.5743H17.9929M17.9929 16.5743H17.9929M17.9929 16.5743H17.9929M17.9929 16.5743H17.9929M17.9929 16.5743H17.9929M17.9929 16.5743H17.9929M17.9929 16.5743H17.993M17.9929 16.5743H17.993M17.993 16.5743H17.993M17.993 16.5743H17.993M17.993 16.5743H17.993M17.993 16.5743H17.993M17.993 16.5743H17.993M17.993 16.5743H17.993M17.993 16.5743H17.993M17.993 16.5743H17.993M17.993 16.5743H17.993M17.993 16.5743H17.993M17.993 16.5743H17.9931M17.993 16.5743H17.9931M17.9931 16.5743H17.9931M17.9931 16.5743H17.9931M17.9931 16.5743H17.9931M17.9931 16.5743H17.9931M17.9931 16.5743H17.9931M17.9931 16.5743H17.9931M17.9931 16.5743H17.9931M17.9931 16.5743H17.9931M17.9931 16.5743H17.9931M17.9931 16.5743H17.9931M17.9931 16.5743H17.9932M17.9931 16.5743H17.9932M17.9932 16.5743H17.9932M17.9932 16.5743H17.9932M17.9932 16.5743H17.9932M17.9932 16.5743H17.9932M17.9932 16.5743H17.9932M17.9932 16.5743H17.9932M17.9932 16.5743H17.9932M17.9932 16.5743H17.9932M17.9932 16.5743H17.9932M17.9932 16.5743H17.9932M17.9932 16.5743H17.9933M17.9932 16.5743H17.9933M17.9933 16.5743H17.9933M17.9933 16.5743H17.9933M17.9933 16.5743H17.9933M17.9933 16.5743H17.9933M17.9933 16.5743H17.9933M17.9933 16.5743H17.9933M17.9933 16.5743H17.9933M17.9933 16.5743H17.9933M17.9933 16.5743H17.9934M17.9933 16.5743H17.9934M17.9934 16.5743H17.9934M17.9934 16.5743H17.9934M17.9934 16.5743H17.9934M17.9934 16.5743H17.9934M17.9934 16.5743H17.9934M17.9934 16.5743H17.9934M17.9934 16.5743H17.9934M17.9934 16.5743H17.9934M17.9934 16.5743H17.9934M17.9934 16.5743H17.9934M17.9934 16.5743H17.9935M17.9934 16.5743H17.9935M17.9935 16.5743H17.9935M17.9935 16.5743H17.9935M17.9935 16.5743H17.9935M17.9935 16.5743H17.9935M17.9935 16.5743H17.9935M17.9935 16.5743H17.9935M17.9935 16.5743H17.9935M17.9935 16.5743H17.9935M17.9935 16.5743H17.9935M17.9935 16.5743H17.9935M17.9935 16.5743H17.9936M17.9935 16.5743H17.9936M17.9936 16.5743H17.9936M17.9936 16.5743H17.9936M17.9936 16.5743H17.9936M17.9936 16.5743H17.9936M17.9936 16.5743H17.9936M17.9936 16.5743H17.9936M17.9936 16.5743H17.9936M17.9936 16.5743H17.9936M17.9936 16.5743H17.9936M17.9936 16.5743H17.9936M17.9936 16.5743H17.9937M17.9936 16.5743H17.9937M17.9937 16.5743H17.9937M17.9937 16.5743H17.9937M17.9937 16.5743H17.9937M17.9937 16.5743H17.9937M17.9937 16.5743H17.9937M17.9937 16.5743H17.9937M17.9937 16.5743H17.9937M17.9937 16.5743H17.9937M17.9937 16.5743H17.9937M17.9937 16.5743H17.9937M17.9937 16.5743H17.9938M17.9937 16.5743H17.9938M17.9938 16.5743H17.9938M17.9938 16.5743H17.9938M17.9938 16.5743H17.9938M17.9938 16.5743H17.9938M17.9938 16.5743H17.9938M17.9938 16.5743H17.9938M17.9938 16.5743H17.9938M17.9938 16.5743H17.9938M17.9938 16.5743H17.9939M17.9938 16.5743H17.9939M17.9939 16.5743H17.9939M17.9939 16.5743H17.9939M17.9939 16.5743H17.9939M17.9939 16.5743H17.9939M17.9939 16.5743H17.9939M17.9939 16.5743H17.9939M17.9939 16.5743H17.9939M17.9939 16.5743H17.9939M17.9939 16.5743H17.9939M17.9939 16.5743H17.9939M17.9939 16.5743H17.994M17.9939 16.5743H17.994M17.994 16.5743H17.994M17.994 16.5743H17.994M17.994 16.5743H17.994M17.994 16.5743H17.994M17.994 16.5743H17.994M17.994 16.5743H17.994M17.994 16.5743H17.994M17.994 16.5743H17.994M17.994 16.5743H17.994M17.994 16.5743H17.994M17.994 16.5743H17.9941M17.994 16.5743H17.9941M17.9941 16.5743H17.9941M17.9941 16.5743H17.9941M17.9941 16.5743H17.9941M17.9941 16.5743H17.9941M17.9941 16.5743H17.9941M17.9941 16.5743H17.9941M17.9941 16.5743H17.9941M17.9941 16.5743H17.9941M17.9941 16.5743H17.9941M17.9941 16.5743H17.9941M17.9941 16.5743H17.9942M17.9941 16.5743H17.9942M17.9942 16.5743H17.9942M17.9942 16.5743H17.9942M17.9942 16.5743H17.9942M17.9942 16.5743H17.9942M17.9942 16.5743H17.9942M17.9942 16.5743H17.9942M17.9942 16.5743H17.9942M17.9942 16.5743H17.9942M17.9942 16.5743H17.9942M17.9942 16.5743H17.9942M17.9942 16.5743H17.9943M17.9942 16.5743H17.9943M17.9943 16.5743H17.9943M17.9943 16.5743H17.9943M17.9943 16.5743H17.9943M17.9943 16.5743H17.9943M17.9943 16.5743H17.9943M17.9943 16.5743H17.9943M17.9943 16.5743H17.9943M17.9943 16.5743H17.9943M17.9943 16.5743H17.9943M17.9943 16.5743H17.9943M17.9943 16.5743H17.9944M17.9943 16.5743H17.9944M17.9944 16.5743H17.9944M17.9944 16.5743H17.9944M17.9944 16.5743H17.9944M17.9944 16.5743H17.9944M17.9944 16.5743H17.9944M17.9944 16.5743H17.9944M17.9944 16.5743H17.9944M17.9944 16.5743H17.9944M17.9944 16.5743H17.9945M17.9944 16.5743H17.9945M17.9945 16.5743H17.9945M17.9945 16.5743H17.9945M17.9945 16.5743H17.9945M17.9945 16.5743H17.9945M17.9945 16.5743H17.9945M17.9945 16.5743H17.9945M17.9945 16.5743H17.9945M17.9945 16.5743H17.9945M17.9945 16.5743H17.9945M17.9945 16.5743H17.9945M17.9945 16.5743H17.9946M17.9945 16.5743H17.9946M17.9946 16.5743H17.9946M17.9946 16.5743H17.9946M17.9946 16.5743H17.9946M17.9946 16.5743H17.9946M17.9946 16.5743H17.9946M17.9946 16.5743H17.9946M17.9946 16.5743H17.9946M17.9946 16.5743H17.9946M17.9946 16.5743H17.9946M17.9946 16.5743H17.9946M17.9946 16.5743H17.9947M17.9946 16.5743H17.9947M17.9947 16.5743H17.9947M17.9947 16.5743H17.9947M17.9947 16.5743H17.9947M17.9947 16.5743H17.9947M17.9947 16.5743H17.9947M17.9947 16.5743H17.9947M17.9947 16.5743H17.9947M17.9947 16.5743H17.9947M17.9947 16.5743H17.9947M17.9947 16.5743H17.9947M17.9947 16.5743H17.9948M17.9947 16.5743H17.9948M17.9948 16.5743H17.9948M17.9948 16.5743H17.9948M17.9948 16.5743H17.9948M17.9948 16.5743H17.9948M17.9948 16.5743H17.9948M17.9948 16.5743H17.9948M17.9948 16.5743H17.9948M17.9948 16.5743H17.9948M17.9948 16.5743H17.9948M17.9948 16.5743H17.9948M17.9948 16.5743H17.9949M17.9948 16.5743H17.9949M17.9949 16.5743H17.9949M17.9949 16.5743H17.9949M17.9949 16.5743H17.9949M17.9949 16.5743H17.9949M17.9949 16.5743H17.9949M17.9949 16.5743H17.9949M17.9949 16.5743H17.9949M17.9949 16.5743H17.9949M17.9949 16.5743H17.9949M17.9949 16.5743H17.9949M17.9949 16.5743H17.995M17.9949 16.5743H17.995M17.995 16.5743H17.995M17.995 16.5743H17.995M17.995 16.5743H17.995M17.995 16.5743H17.995M17.995 16.5743H17.995M17.995 16.5743H17.995M17.995 16.5743H17.995M17.995 16.5743H17.995M17.995 16.5743H17.9951M17.995 16.5743H17.9951M17.9951 16.5743H17.9951M17.9951 16.5743H17.9951M17.9951 16.5743H17.9951M17.9951 16.5743H17.9951M17.9951 16.5743H17.9951M17.9951 16.5743H17.9951M17.9951 16.5743H17.9951M17.9951 16.5743H17.9951M17.9951 16.5743H17.9951M17.9951 16.5743H17.9951M17.9951 16.5743H17.9952M17.9951 16.5743H17.9952M17.9952 16.5743H17.9952M17.9952 16.5743H17.9952M17.9952 16.5743H17.9952M17.9952 16.5743H17.9952M17.9952 16.5743H17.9952M17.9952 16.5743H17.9952M17.9952 16.5743H17.9952M17.9952 16.5743H17.9952M17.9952 16.5743H17.9952M17.9952 16.5743H17.9952M17.9952 16.5743H17.9953M17.9952 16.5743H17.9953M17.9953 16.5743H17.9953M17.9953 16.5743H17.9953M17.9953 16.5743H17.9953M17.9953 16.5743H17.9953M17.9953 16.5743H17.9953M17.9953 16.5743H17.9953M17.9953 16.5743H17.9953M17.9953 16.5743H17.9953M17.9953 16.5743H17.9953M17.9953 16.5743H17.9953M17.9953 16.5743H17.9954M17.9953 16.5743H17.9954M17.9954 16.5743H17.9954M17.9954 16.5743H17.9954M17.9954 16.5743H17.9954M17.9954 16.5743H17.9954M17.9954 16.5743H17.9954M17.9954 16.5743H17.9954M17.9954 16.5743H17.9954M17.9954 16.5743H17.9954M17.9954 16.5743H17.9954M17.9954 16.5743H17.9954M17.9954 16.5743H17.9955M17.9954 16.5743H17.9955M17.9955 16.5743H17.9955M17.9955 16.5743H17.9955M17.9955 16.5743H17.9955M17.9955 16.5743H17.9955M17.9955 16.5743H17.9955M17.9955 16.5743H17.9955M17.9955 16.5743H17.9955M17.9955 16.5743H17.9955M17.9955 16.5743H17.9955M17.9955 16.5743H17.9955M17.9955 16.5743H17.9956M17.9955 16.5743H17.9956M17.9956 16.5743H17.9956M17.9956 16.5743H17.9956M17.9956 16.5743H17.9956M17.9956 16.5743H17.9956M17.9956 16.5743H17.9956M17.9956 16.5743H17.9956M17.9956 16.5743H17.9956M17.9956 16.5743H17.9956M17.9956 16.5743H17.9956M17.9956 16.5743H17.9956M17.9956 16.5743H17.9957M17.9956 16.5743H17.9957M17.9957 16.5743H17.9957M17.9957 16.5743H17.9957M17.9957 16.5743H17.9957M17.9957 16.5743H17.9957M17.9957 16.5743H17.9957M17.9957 16.5743H17.9957M17.9957 16.5743H17.9957M17.9957 16.5743H17.9957M17.9957 16.5743H17.9958M17.9957 16.5743H17.9958M17.9958 16.5743H17.9958M17.9958 16.5743H17.9958M17.9958 16.5743H17.9958M17.9958 16.5743H17.9958M17.9958 16.5743H17.9958M17.9958 16.5743H17.9958M17.9958 16.5743H17.9958M17.9958 16.5743H17.9958M17.9958 16.5743H17.9958M17.9958 16.5743H17.9958M17.9958 16.5743H17.9959M17.9958 16.5743H17.9959M17.9959 16.5743H17.9959M17.9959 16.5743H17.9959M17.9959 16.5743H17.9959M17.9959 16.5743H17.9959M17.9959 16.5743H17.9959M17.9959 16.5743H17.9959M17.9959 16.5743H17.9959M17.9959 16.5743H17.9959M17.9959 16.5743H17.9959M17.9959 16.5743H17.9959M17.9959 16.5743H17.996M17.9959 16.5743H17.996M17.996 16.5743H17.996M17.996 16.5743H17.996M17.996 16.5743H17.996M17.996 16.5743H17.996M17.996 16.5743H17.996M17.996 16.5743H17.996M17.996 16.5743H17.996M17.996 16.5743H17.996M17.996 16.5743H17.996M17.996 16.5743H17.996M17.996 16.5743H17.9961M17.996 16.5743H17.9961M17.9961 16.5743H17.9961M17.9961 16.5743H17.9961M17.9961 16.5743H17.9961M17.9961 16.5743H17.9961M17.9961 16.5743H17.9961M17.9961 16.5743H17.9961M17.9961 16.5743H17.9961M17.9961 16.5743H17.9961M17.9961 16.5743H17.9961M17.9961 16.5743H17.9961M17.9961 16.5743H17.9962M17.9961 16.5743H17.9962M17.9962 16.5743H17.9962M17.9962 16.5743H17.9962M17.9962 16.5743H17.9962M17.9962 16.5743H17.9962M17.9962 16.5743H17.9962M17.9962 16.5743H17.9962M17.9962 16.5743H17.9962M17.9962 16.5743H17.9962M17.9962 16.5743H17.9962M17.9962 16.5743H17.9962M17.9962 16.5743H17.9963M17.9962 16.5743H17.9963M17.9963 16.5743H17.9963M17.9963 16.5743H17.9963M17.9963 16.5743H17.9963M17.9963 16.5743H17.9963M17.9963 16.5743H17.9963M17.9963 16.5743H17.9963M17.9963 16.5743H17.9963M17.9963 16.5743H17.9963M17.9963 16.5743H17.9963M17.9963 16.5743H17.9963M17.9963 16.5743H17.9964M17.9963 16.5743H17.9964M17.9964 16.5743H17.9964M17.9964 16.5743H17.9964M17.9964 16.5743H17.9964M17.9964 16.5743H17.9964M17.9964 16.5743H17.9964M17.9964 16.5743H17.9964M17.9964 16.5743H17.9964M17.9964 16.5743H17.9964M17.9964 16.5743H17.9965M17.9964 16.5743H17.9965M17.9965 16.5743H17.9965M17.9965 16.5743H17.9965M17.9965 16.5743H17.9965M17.9965 16.5743H17.9965M17.9965 16.5743H17.9965M17.9965 16.5743H17.9965M17.9965 16.5743H17.9965M17.9965 16.5743H17.9965M17.9965 16.5743H17.9965M17.9965 16.5743H17.9965M17.9965 16.5743H17.9966M17.9965 16.5743H17.9966M17.9966 16.5743H17.9966M17.9966 16.5743H17.9966M17.9966 16.5743H17.9966M17.9966 16.5743H17.9966M17.9966 16.5743H17.9966M17.9966 16.5743H17.9966M17.9966 16.5743H17.9966M17.9966 16.5743H17.9966M17.9966 16.5743H17.9966M17.9966 16.5743H17.9966M17.9966 16.5743H17.9967M17.9966 16.5743H17.9967M17.9967 16.5743H17.9967M17.9967 16.5743H17.9967M17.9967 16.5743H17.9967M17.9967 16.5743H17.9967M17.9967 16.5743H17.9967M17.9967 16.5743H17.9967M17.9967 16.5743H17.9967M17.9967 16.5743H17.9967M17.9967 16.5743H17.9967M17.9967 16.5743H17.9967M17.9967 16.5743H17.9968M17.9967 16.5743H17.9968M17.9968 16.5743H17.9968M17.9968 16.5743H17.9968M17.9968 16.5743H17.9968M17.9968 16.5743H17.9968M17.9968 16.5743H17.9968M17.9968 16.5743H17.9968M17.9968 16.5743H17.9968M17.9968 16.5743H17.9968M17.9968 16.5743H17.9968M17.9968 16.5743H17.9968M17.9968 16.5743H17.9969M17.9968 16.5743H17.9969M17.9969 16.5743H17.9969M17.9969 16.5743H17.9969M17.9969 16.5743H17.9969M17.9969 16.5743H17.9969M17.9969 16.5743H17.9969M17.9969 16.5743H17.9969M17.9969 16.5743H17.9969M17.9969 16.5743H17.9969M17.9969 16.5743H17.9969M17.9969 16.5743H17.9969M17.9969 16.5743H17.997M17.9969 16.5743H17.997M17.997 16.5743H17.997M17.997 16.5743H17.997M17.997 16.5743H17.997M17.997 16.5743H17.997M17.997 16.5743H17.997M17.997 16.5743H17.997M17.997 16.5743H17.997M17.997 16.5743H17.997M17.997 16.5743H17.9971M17.997 16.5743H17.9971M17.9971 16.5743H17.9971M17.9971 16.5743H17.9971M17.9971 16.5743H17.9971M17.9971 16.5743H17.9971M17.9971 16.5743H17.9971M17.9971 16.5743H17.9971M17.9971 16.5743H17.9971M17.9971 16.5743H17.9971M17.9971 16.5743H17.9971M17.9971 16.5743H17.9971M17.9971 16.5743H17.9972M17.9971 16.5743H17.9972M17.9972 16.5743H17.9972M17.9972 16.5743H17.9972M17.9972 16.5743H17.9972M17.9972 16.5743H17.9972M17.9972 16.5743H17.9972M17.9972 16.5743H17.9972M17.9972 16.5743H17.9972M17.9972 16.5743H17.9972M17.9972 16.5743H17.9972M17.9972 16.5743H17.9972M17.9972 16.5743H17.9973M17.9972 16.5743H17.9973M17.9973 16.5743H17.9973M17.9973 16.5743H17.9973M17.9973 16.5743H17.9973M17.9973 16.5743H17.9973M17.9973 16.5743H17.9973M17.9973 16.5743H17.9973M17.9973 16.5743H17.9973M17.9973 16.5743H17.9973M17.9973 16.5743H17.9973M17.9973 16.5743H17.9973M17.9973 16.5743H17.9974M17.9973 16.5743H17.9974M17.9974 16.5743H17.9974M17.9974 16.5743H17.9974M17.9974 16.5743H17.9974M17.9974 16.5743H17.9974M17.9974 16.5743H17.9974M17.9974 16.5743H17.9974M17.9974 16.5743H17.9974M17.9974 16.5743H17.9974M17.9974 16.5743H17.9974M17.9974 16.5743H17.9974M17.9974 16.5743H17.9975M17.9974 16.5743H17.9975M17.9975 16.5743H17.9975M17.9975 16.5743H17.9975M17.9975 16.5743H17.9975M17.9975 16.5743H17.9975M17.9975 16.5743H17.9975M17.9975 16.5743H17.9975M17.9975 16.5743H17.9975M17.9975 16.5743H17.9975M17.9975 16.5743H17.9975M17.9975 16.5743H17.9975M17.9975 16.5743H17.9976M17.9975 16.5743H17.9976M17.9976 16.5743H17.9976M17.9976 16.5743H17.9976M17.9976 16.5743H17.9976M17.9976 16.5743H17.9976M17.9976 16.5743H17.9976M17.9976 16.5743H17.9976M17.9976 16.5743H17.9976M17.9976 16.5743H17.9976M17.9976 16.5743H17.9977M17.9976 16.5743H17.9977M17.9977 16.5743H17.9977M17.9977 16.5743H17.9977M17.9977 16.5743H17.9977M17.9977 16.5743H17.9977M17.9977 16.5743H17.9977M17.9977 16.5743H17.9977M17.9977 16.5743H17.9977M17.9977 16.5743H17.9977M17.9977 16.5743H17.9977M17.9977 16.5743H17.9977M17.9977 16.5743H17.9978M17.9977 16.5743H17.9978M17.9978 16.5743H17.9978M17.9978 16.5743H17.9978M17.9978 16.5743H17.9978M17.9978 16.5743H17.9978M17.9978 16.5743H17.9978M17.9978 16.5743H17.9978M17.9978 16.5743H17.9978M17.9978 16.5743H17.9978M17.9978 16.5743H17.9978M17.9978 16.5743H17.9978M17.9978 16.5743H17.9979M17.9978 16.5743H17.9979M17.9979 16.5743H17.9979M17.9979 16.5743H17.9979M17.9979 16.5743H17.9979M17.9979 16.5743H17.9979M17.9979 16.5743H17.9979M17.9979 16.5743H17.9979M17.9979 16.5743H17.9979M17.9979 16.5743H17.9979M17.9979 16.5743H17.9979M17.9979 16.5743H17.9979M17.9979 16.5743H17.998M17.9979 16.5743H17.998M17.998 16.5743H17.998M17.998 16.5743H17.998M17.998 16.5743H17.998M17.998 16.5743H17.998M17.998 16.5743H17.998M17.998 16.5743H17.998M17.998 16.5743H17.998M17.998 16.5743H17.998M17.998 16.5743H17.998M17.998 16.5743H17.998M17.998 16.5743H17.9981M17.998 16.5743H17.9981M17.9981 16.5743H17.9981M17.9981 16.5743H17.9981M17.9981 16.5743H17.9981M17.9981 16.5743H17.9981M17.9981 16.5743H17.9981M17.9981 16.5743H17.9981M17.9981 16.5743H17.9981M17.9981 16.5743H17.9981M17.9981 16.5743H17.9981M17.9981 16.5743H17.9981M17.9981 16.5743H17.9982M17.9981 16.5743H17.9982M17.9982 16.5743H17.9982M17.9982 16.5743H17.9982M17.9982 16.5743H17.9982M17.9982 16.5743H17.9982M17.9982 16.5743H17.9982M17.9982 16.5743H17.9982M17.9982 16.5743H17.9982M17.9982 16.5743H17.9982M17.9982 16.5743H17.9983M17.9982 16.5743H17.9983M17.9983 16.5743H17.9983M17.9983 16.5743H17.9983M17.9983 16.5743H17.9983M17.9983 16.5743H17.9983M17.9983 16.5743H17.9983M17.9983 16.5743H17.9983M17.9983 16.5743H17.9983M17.9983 16.5743H17.9983M17.9983 16.5743H17.9983M17.9983 16.5743H17.9983M17.9983 16.5743H17.9984M17.9983 16.5743H17.9984M17.9984 16.5743H17.9984M17.9984 16.5743H17.9984M17.9984 16.5743H17.9984M17.9984 16.5743H17.9984M17.9984 16.5743H17.9984M17.9984 16.5743H17.9984M17.9984 16.5743H17.9984M17.9984 16.5743H17.9984M17.9984 16.5743H17.9984M17.9984 16.5743H17.9984M17.9984 16.5743H17.9985M17.9984 16.5743H17.9985M17.9985 16.5743H17.9985M17.9985 16.5743H17.9985M17.9985 16.5743H17.9985M17.9985 16.5743H17.9985M17.9985 16.5743H17.9985M17.9985 16.5743H17.9985M17.9985 16.5743H17.9985M17.9985 16.5743H17.9985M17.9985 16.5743H17.9985M17.9985 16.5743H17.9985M17.9985 16.5743H17.9986M17.9985 16.5743H17.9986M17.9986 16.5743H17.9986M17.9986 16.5743H17.9986M17.9986 16.5743H17.9986M17.9986 16.5743H17.9986M17.9986 16.5743H17.9986M17.9986 16.5743H17.9986M17.9986 16.5743H17.9986M17.9986 16.5743H17.9986M17.9986 16.5743H17.9986M17.9986 16.5743H17.9986M17.9986 16.5743H17.9987M17.9986 16.5743H17.9987M17.9987 16.5743H17.9987M17.9987 16.5743H17.9987M17.9987 16.5743H17.9987M17.9987 16.5743H17.9987M17.9987 16.5743H17.9987M17.9987 16.5743H17.9987M17.9987 16.5743H17.9987M17.9987 16.5743H17.9987M17.9987 16.5743H17.9988M17.9987 16.5743H17.9988M17.9988 16.5743H17.9988M17.9988 16.5743H17.9988M17.9988 16.5743H17.9988M17.9988 16.5743H17.9988M17.9988 16.5743H17.9988M17.9988 16.5743H17.9988M17.9988 16.5743H17.9988M17.9988 16.5743H17.9988M17.9988 16.5743H17.9988M17.9988 16.5743H17.9988M17.9988 16.5743H17.9989M17.9988 16.5743H17.9989M17.9989 16.5743H17.9989M17.9989 16.5743H17.9989M17.9989 16.5743H17.9989M17.9989 16.5743H17.9989M17.9989 16.5743H17.9989M17.9989 16.5743H17.9989M17.9989 16.5743H17.9989M17.9989 16.5743H17.9989M17.9989 16.5743H17.9989M17.9989 16.5743H17.9989M17.9989 16.5743H17.999M17.9989 16.5743H17.999M17.999 16.5743H17.999M17.999 16.5743H17.999M17.999 16.5743H17.999M17.999 16.5743H17.999M17.999 16.5743H17.999M17.999 16.5743H17.999M17.999 16.5743H17.999M17.999 16.5743H17.999M17.999 16.5743H17.999M17.999 16.5743H17.999M17.999 16.5743H17.9991M17.999 16.5743H17.9991M17.9991 16.5743H17.9991M17.9991 16.5743H17.9991M17.9991 16.5743H17.9991M17.9991 16.5743H17.9991M17.9991 16.5743H17.9991M17.9991 16.5743H17.9991M17.9991 16.5743H17.9991M17.9991 16.5743H17.9991M17.9991 16.5743H17.9992M17.9991 16.5743H17.9992M17.9992 16.5743H17.9992M17.9992 16.5743H17.9992M17.9992 16.5743H17.9992M17.9992 16.5743H17.9992M17.9992 16.5743H17.9992M17.9992 16.5743H17.9992M17.9992 16.5743H17.9992M17.9992 16.5743H17.9992M17.9992 16.5743H17.9992M17.9992 16.5743H17.9992M17.9992 16.5743H17.9993M17.9992 16.5743H17.9993M17.9993 16.5743H17.9993M17.9993 16.5743H17.9993M17.9993 16.5743H17.9993M17.9993 16.5743H17.9993M17.9993 16.5743H17.9993M17.9993 16.5743H17.9993M17.9993 16.5743H17.9993M17.9993 16.5743H17.9993M17.9993 16.5743H17.9993M17.9993 16.5743H17.9993M17.9993 16.5743H17.9994M17.9993 16.5743H17.9994M17.9994 16.5743H17.9994M17.9994 16.5743H17.9994M17.9994 16.5743H17.9994M17.9994 16.5743H17.9994M17.9994 16.5743H17.9994M17.9994 16.5743H17.9994M17.9994 16.5743H17.9994M17.9994 16.5743H17.9994M17.9994 16.5743H17.9994M17.9994 16.5743H17.9994M17.9994 16.5743H17.9995M17.9994 16.5743H17.9995M17.9995 16.5743H17.9995M17.9995 16.5743H17.9995M17.9995 16.5743H17.9995M17.9995 16.5743H17.9995M17.9995 16.5743H17.9995M17.9995 16.5743H17.9995M17.9995 16.5743H17.9995M17.9995 16.5743H17.9995M17.9995 16.5743H17.9996M17.9995 16.5743H17.9996M17.9996 16.5743H17.9996M17.9996 16.5743H17.9996M17.9996 16.5743H17.9996M17.9996 16.5743H17.9996M17.9996 16.5743H17.9996M17.9996 16.5743H17.9996M17.9996 16.5743H17.9996M17.9996 16.5743H17.9996M17.9996 16.5743H17.9996M17.9996 16.5743H17.9996M17.9996 16.5743H17.9997M17.9996 16.5743H17.9997M17.9997 16.5743H17.9997M17.9997 16.5743H17.9997M17.9997 16.5743H17.9997M17.9997 16.5743H17.9997M17.9997 16.5743H17.9997M17.9997 16.5743H17.9997M17.9997 16.5743H17.9997M17.9997 16.5743H17.9997M17.9997 16.5743H17.9997M17.9997 16.5743H17.9997M17.9997 16.5743H17.9998M17.9997 16.5743H17.9998M17.9998 16.5743H17.9998M17.9998 16.5743H17.9998M17.9998 16.5743H17.9998M17.9998 16.5743H17.9998M17.9998 16.5743H17.9998M17.9998 16.5743H17.9998M17.9998 16.5743H17.9998M17.9998 16.5743H17.9998M17.9998 16.5743H17.9998M17.9998 16.5743H17.9998M17.9998 16.5743H17.9999M17.9998 16.5743H17.9999M17.9999 16.5743H17.9999M17.9999 16.5743H17.9999M17.9999 16.5743H17.9999M17.9999 16.5743H17.9999M17.9999 16.5743H17.9999M17.9999 16.5743H17.9999M17.9999 16.5743H17.9999M17.9999 16.5743H17.9999M17.9999 16.5743H18M17.9999 16.5743H18M18 16.5743H18M18 16.5743H18M18 16.5743H18M18 16.5743H18M18 16.5743H18M18 16.5743H18M18 16.5743H18M18 16.5743H18M18 16.5743H18M18 16.5743H18M18 16.5743H18.0001M18 16.5743H18.0001M18.0001 16.5743H18.0001M18.0001 16.5743H18.0001M18.0001 16.5743H18.0001M18.0001 16.5743H18.0001M18.0001 16.5743H18.0001M18.0001 16.5743H18.0001M18.0001 16.5743H18.0001M18.0001 16.5743H18.0001M18.0001 16.5743C18.792 16.5743 19.4273 17.2094 19.4277 18.0011M18.0001 16.5743L19.4277 18.0011M19.4277 18.0011C19.4248 18.2407 19.6164 18.4374 19.8561 18.4407L19.4277 18.0011ZM7.30731 30.7443C7.30743 30.7444 7.30755 30.7445 7.30767 30.7446L7.30731 30.7443ZM23.9218 27.1389C23.9253 27.1358 23.9287 27.133 23.9316 27.1305L23.9218 27.1389ZM18 13.5329C15.5392 13.5329 13.531 15.5411 13.531 18.0019C13.531 20.4627 15.5392 22.4709 18 22.4709C20.4608 22.4709 22.469 20.4627 22.469 18.0019C22.469 15.5411 20.4608 13.5329 18 13.5329ZM18 15.0226C19.6527 15.0226 20.9793 16.3492 20.9793 18.0019C20.9793 19.6546 19.6527 20.9812 18 20.9812C16.3473 20.9812 15.0207 19.6546 15.0207 18.0019C15.0207 16.3492 16.3473 15.0226 18 15.0226Z" fill="black" stroke="black" stroke-width="0.248276"/>
</g>
<defs>
<clipPath id="clip0_27_2401">
<rect width="36" height="36" fill="white"/>
</clipPath>
</defs>
</svg>
