<svg width="56" height="56" viewBox="0 0 56 56" fill="none" xmlns="http://www.w3.org/2000/svg">
<g clip-path="url(#clip0_43_3523)">
<path d="M36.1936 14.1794L36.1937 14.1794C36.4596 14.1828 36.7158 14.2798 36.9173 14.4534C36.9176 14.4537 36.9179 14.454 36.9183 14.4543L36.7952 14.5968C40.8449 17.9946 43.1843 23.0114 43.1843 28.2976C43.1843 33.5837 40.8447 38.6005 36.7952 41.9983C36.7875 42.0049 36.7798 42.0115 36.7719 42.0179C36.3682 42.3457 35.7754 42.2841 35.4476 41.8805L36.1936 14.1794ZM36.1936 14.1794C35.5699 14.1717 35.0577 14.671 35.05 15.295C35.0457 15.639 35.1984 15.9663 35.465 16.184C39.0459 19.1891 41.1131 23.6229 41.1131 28.2976C41.1131 32.9722 39.0458 37.406 35.4651 40.4111M36.1936 14.1794L35.4651 40.4111M35.4651 40.4111C34.9819 40.8046 34.9085 41.5152 35.3015 41.9992C35.6947 42.4835 36.4061 42.5574 36.8905 42.1642C36.8904 42.1642 36.8904 42.1642 36.8903 42.1642L36.7724 42.0185L36.8906 42.1641L35.4651 40.4111ZM20.5176 42.0271L20.5175 42.0272C20.1092 42.4981 19.3966 42.5492 18.9251 42.1416C18.9247 42.1413 18.9243 42.1409 18.924 42.1406L20.5176 42.0271ZM20.5176 42.0271C20.9262 41.5557 20.8754 40.8422 20.4042 40.4335L20.403 40.4326M20.5176 42.0271L20.403 40.4326M20.403 40.4326C20.396 40.4265 20.3869 40.4188 20.3773 40.411C16.7965 37.4059 14.7294 32.9722 14.7294 28.2976C14.7294 23.6227 16.7968 19.1891 20.3775 16.184C20.8602 15.7898 20.9325 15.0789 20.5388 14.5955L20.5387 14.5955L20.403 40.4326ZM27.9053 26.1325L27.9053 26.1325C27.5413 26.1275 27.2503 25.8283 27.2556 25.4642M27.9053 26.1325L30.7361 28.9631C31.1001 28.9683 31.3992 28.6772 31.4042 28.3133H31.4042V28.3107V28.3107V28.3107V28.3107V28.3106V28.3106V28.3106V28.3106V28.3105V28.3105V28.3105V28.3104V28.3104V28.3104V28.3104V28.3103V28.3103V28.3103V28.3103V28.3102V28.3102V28.3102V28.3102V28.3101V28.3101V28.3101V28.3101V28.31V28.31V28.31V28.3099V28.3099V28.3099V28.3099V28.3098V28.3098V28.3098V28.3098V28.3097V28.3097V28.3097V28.3097V28.3096V28.3096V28.3096V28.3096V28.3095V28.3095V28.3095V28.3094V28.3094V28.3094V28.3094V28.3093V28.3093V28.3093V28.3093V28.3092V28.3092V28.3092V28.3092V28.3091V28.3091V28.3091V28.3091V28.309V28.309V28.309V28.3089V28.3089V28.3089V28.3089V28.3088V28.3088V28.3088V28.3088V28.3087V28.3087V28.3087V28.3087V28.3086V28.3086V28.3086V28.3086V28.3085V28.3085V28.3085V28.3085V28.3084V28.3084V28.3084V28.3083V28.3083V28.3083V28.3083V28.3082V28.3082V28.3082V28.3082V28.3081V28.3081V28.3081V28.3081V28.308V28.308V28.308V28.308V28.3079V28.3079V28.3079V28.3078V28.3078V28.3078V28.3078V28.3077V28.3077V28.3077V28.3077V28.3076V28.3076V28.3076V28.3076V28.3075V28.3075V28.3075V28.3075V28.3074V28.3074V28.3074V28.3074V28.3073V28.3073V28.3073V28.3073V28.3072V28.3072V28.3072V28.3071V28.3071V28.3071V28.3071V28.307V28.307V28.307V28.307V28.3069V28.3069V28.3069V28.3069V28.3068V28.3068V28.3068V28.3068V28.3067V28.3067V28.3067V28.3067V28.3066V28.3066V28.3066V28.3065V28.3065V28.3065V28.3065V28.3064V28.3064V28.3064V28.3064V28.3063V28.3063V28.3063V28.3063V28.3062V28.3062V28.3062V28.3062V28.3061V28.3061V28.3061V28.3061V28.306V28.306V28.306V28.306V28.3059V28.3059V28.3059V28.3058V28.3058V28.3058V28.3058V28.3057V28.3057V28.3057V28.3057V28.3056V28.3056V28.3056V28.3056V28.3055V28.3055V28.3055V28.3055V28.3054V28.3054V28.3054V28.3054V28.3053V28.3053V28.3053V28.3052V28.3052V28.3052V28.3052V28.3051V28.3051V28.3051V28.3051V28.305V28.305V28.305V28.305V28.3049V28.3049V28.3049V28.3049V28.3048V28.3048V28.3048V28.3048V28.3047V28.3047V28.3047V28.3047V28.3046V28.3046V28.3046V28.3045V28.3045V28.3045V28.3045V28.3044V28.3044V28.3044V28.3044V28.3043V28.3043V28.3043V28.3043V28.3042V28.3042V28.3042V28.3042V28.3041V28.3041V28.3041V28.3041V28.304V28.304V28.304V28.304V28.3039V28.3039V28.3039V28.3038V28.3038V28.3038V28.3038V28.3037V28.3037V28.3037V28.3037V28.3036V28.3036V28.3036V28.3036V28.3035V28.3035V28.3035V28.3035V28.3034V28.3034V28.3034V28.3034V28.3033V28.3033V28.3033V28.3033V28.3032V28.3032V28.3032V28.3031V28.3031V28.3031V28.3031V28.303V28.303V28.303V28.303V28.3029V28.3029V28.3029V28.3029V28.3028V28.3028V28.3028V28.3028V28.3027V28.3027V28.3027V28.3027V28.3026V28.3026V28.3026V28.3026V28.3025V28.3025V28.3025V28.3024V28.3024V28.3024V28.3024V28.3023V28.3023V28.3023V28.3023V28.3022V28.3022V28.3022V28.3022V28.3021V28.3021V28.3021V28.3021V28.302V28.302V28.302V28.302V28.3019V28.3019V28.3019V28.3019V28.3018V28.3018V28.3018V28.3017V28.3017V28.3017V28.3017V28.3016V28.3016V28.3016V28.3016V28.3015V28.3015V28.3015V28.3015V28.3014V28.3014V28.3014V28.3014V28.3013V28.3013V28.3013V28.3013V28.3012V28.3012V28.3012V28.3011V28.3011V28.3011V28.3011V28.301V28.301V28.301V28.301V28.3009V28.3009V28.3009V28.3009V28.3008V28.3008V28.3008V28.3008V28.3007V28.3007V28.3007V28.3007V28.3006V28.3006V28.3006V28.3006V28.3005V28.3005V28.3005V28.3004V28.3004V28.3004V28.3004V28.3003V28.3003V28.3003V28.3003V28.3002V28.3002V28.3002V28.3002V28.3001V28.3001V28.3001V28.3001V28.3V28.3V28.3V28.2999V28.2999V28.2999V28.2999V28.2998V28.2998V28.2998V28.2998V28.2997V28.2997V28.2997V28.2997V28.2996V28.2996V28.2996V28.2996V28.2995V28.2995V28.2995V28.2995V28.2994V28.2994V28.2994V28.2993V28.2993V28.2993V28.2993V28.2992V28.2992V28.2992V28.2992V28.2991V28.2991V28.2991V28.2991V28.299V28.299V28.299V28.299V28.2989V28.2989V28.2989V28.2988V28.2988V28.2988V28.2988V28.2987V28.2987V28.2987V28.2987V28.2986V28.2986V28.2986V28.2986V28.2985V28.2985V28.2985V28.2985V28.2984V28.2984V28.2984V28.2983V28.2983V28.2983V28.2983V28.2982V28.2982V28.2982V28.2982V28.2981V28.2981V28.2981V28.2981V28.298V28.298V28.298V28.298V28.2979V28.2979V28.2979V28.2978V28.2978V28.2978V28.2978V28.2977V28.2977V28.2977V28.2977V28.2976V28.2976V28.2976V28.2976V28.2975V28.2975V28.2975V28.2975V28.2974V28.2974V28.2974C31.404 26.3801 29.8397 24.8154 27.9224 24.8146M27.9053 26.1325H27.9079H27.9079H27.9079H27.908H27.908H27.908H27.908H27.9081H27.9081H27.9081H27.9082H27.9082H27.9082H27.9082H27.9083H27.9083H27.9083H27.9083H27.9084H27.9084H27.9084H27.9084H27.9085H27.9085H27.9085H27.9086H27.9086H27.9086H27.9086H27.9087H27.9087H27.9087H27.9087H27.9088H27.9088H27.9088H27.9088H27.9089H27.9089H27.9089H27.9089H27.909H27.909H27.909H27.909H27.9091H27.9091H27.9091H27.9092H27.9092H27.9092H27.9092H27.9093H27.9093H27.9093H27.9093H27.9094H27.9094H27.9094H27.9094H27.9095H27.9095H27.9095H27.9095H27.9096H27.9096H27.9096H27.9097H27.9097H27.9097H27.9097H27.9098H27.9098H27.9098H27.9098H27.9099H27.9099H27.9099H27.9099H27.91H27.91H27.91H27.91H27.9101H27.9101H27.9101H27.9102H27.9102H27.9102H27.9102H27.9103H27.9103H27.9103H27.9103H27.9104H27.9104H27.9104H27.9104H27.9105H27.9105H27.9105H27.9105H27.9106H27.9106H27.9106H27.9106H27.9107H27.9107H27.9107H27.9108H27.9108H27.9108H27.9108H27.9109H27.9109H27.9109H27.9109H27.911H27.911H27.911H27.911H27.9111H27.9111H27.9111H27.9111H27.9112H27.9112H27.9112H27.9112H27.9113H27.9113H27.9113H27.9114H27.9114H27.9114H27.9114H27.9115H27.9115H27.9115H27.9115H27.9116H27.9116H27.9116H27.9116H27.9117H27.9117H27.9117H27.9117H27.9118H27.9118H27.9118H27.9118H27.9119H27.9119H27.9119H27.912H27.912H27.912H27.912H27.9121H27.9121H27.9121H27.9121H27.9122H27.9122H27.9122H27.9122H27.9123H27.9123H27.9123H27.9123H27.9124H27.9124H27.9124H27.9124H27.9125H27.9125H27.9125H27.9125H27.9126H27.9126H27.9126H27.9127H27.9127H27.9127H27.9127H27.9128H27.9128H27.9128H27.9128H27.9129H27.9129H27.9129H27.9129H27.913H27.913H27.913H27.913H27.9131H27.9131H27.9131H27.9131H27.9132H27.9132H27.9132H27.9133H27.9133H27.9133H27.9133H27.9134H27.9134H27.9134H27.9134H27.9135H27.9135H27.9135H27.9135H27.9136H27.9136H27.9136H27.9136H27.9137H27.9137H27.9137H27.9137H27.9138H27.9138H27.9138H27.9138H27.9139H27.9139H27.9139H27.914H27.914H27.914H27.914H27.9141H27.9141H27.9141H27.9141H27.9142H27.9142H27.9142H27.9142H27.9143H27.9143H27.9143H27.9143H27.9144H27.9144H27.9144H27.9144H27.9145H27.9145H27.9145H27.9145H27.9146H27.9146H27.9146H27.9147H27.9147H27.9147H27.9147H27.9148H27.9148H27.9148H27.9148H27.9149H27.9149H27.9149H27.9149H27.915H27.915H27.915H27.915H27.9151H27.9151H27.9151H27.9151H27.9152H27.9152H27.9152H27.9152H27.9153H27.9153H27.9153H27.9154H27.9154H27.9154H27.9154H27.9155H27.9155H27.9155H27.9155H27.9156H27.9156H27.9156H27.9156H27.9157H27.9157H27.9157H27.9157H27.9158H27.9158H27.9158H27.9158H27.9159H27.9159H27.9159H27.9159H27.916H27.916H27.916H27.9161H27.9161H27.9161H27.9161H27.9162H27.9162H27.9162H27.9162H27.9163H27.9163H27.9163H27.9163H27.9164H27.9164H27.9164H27.9164H27.9165H27.9165H27.9165H27.9165H27.9166H27.9166H27.9166H27.9167H27.9167H27.9167H27.9167H27.9168H27.9168H27.9168H27.9168H27.9169H27.9169H27.9169H27.9169H27.917H27.917H27.917H27.917H27.9171H27.9171H27.9171H27.9171H27.9172H27.9172H27.9172H27.9172H27.9173H27.9173H27.9173H27.9174H27.9174H27.9174H27.9174H27.9175H27.9175H27.9175H27.9175H27.9176H27.9176H27.9176H27.9176H27.9177H27.9177H27.9177H27.9177H27.9178H27.9178H27.9178H27.9178H27.9179H27.9179H27.9179H27.918H27.918H27.918H27.918H27.9181H27.9181H27.9181H27.9181H27.9182H27.9182H27.9182H27.9182H27.9183H27.9183H27.9183H27.9183H27.9184H27.9184H27.9184H27.9184H27.9185H27.9185H27.9185H27.9186H27.9186H27.9186H27.9186H27.9187H27.9187H27.9187H27.9187H27.9188H27.9188H27.9188H27.9188H27.9189H27.9189H27.9189H27.9189H27.919H27.919H27.919H27.919H27.9191H27.9191H27.9191H27.9192H27.9192H27.9192H27.9192H27.9193H27.9193H27.9193H27.9193H27.9194H27.9194H27.9194H27.9194H27.9195H27.9195H27.9195H27.9195H27.9196H27.9196H27.9196H27.9197H27.9197H27.9197H27.9197H27.9198H27.9198H27.9198H27.9198H27.9199H27.9199H27.9199H27.9199H27.92H27.92H27.92H27.92H27.9201H27.9201H27.9201H27.9202H27.9202H27.9202H27.9202H27.9203H27.9203H27.9203H27.9203H27.9204H27.9204H27.9204H27.9204H27.9205H27.9205H27.9205H27.9205H27.9206H27.9206H27.9206H27.9207H27.9207H27.9207H27.9207H27.9208H27.9208H27.9208H27.9208H27.9209H27.9209H27.9209H27.9209H27.921H27.921H27.921H27.921H27.9211H27.9211H27.9211H27.9212H27.9212H27.9212H27.9212H27.9213C29.1222 26.1325 30.0857 27.0957 30.0863 28.2964M27.9053 26.1325L30.736 28.9631C30.3726 28.958 30.0819 28.6597 30.0863 28.2964M27.2556 25.4642L27.4438 25.467L27.2556 25.4644C27.2556 25.4643 27.2556 25.4643 27.2556 25.4642ZM27.2556 25.4642C27.2606 25.1008 27.559 24.8101 27.9224 24.8146M27.9224 24.8146C27.9229 24.8146 27.9233 24.8146 27.9238 24.8146L27.9211 25.0028V24.8146C27.9215 24.8146 27.922 24.8146 27.9224 24.8146ZM30.0863 28.2964C30.0863 28.2959 30.0863 28.2954 30.0864 28.2948L30.2746 28.2976H30.0863C30.0863 28.2972 30.0863 28.2968 30.0863 28.2964ZM43.7235 8.08418C43.7312 7.4604 44.2433 6.96096 44.867 6.96858L43.7235 8.08418ZM43.7235 8.08418C43.7192 8.42799 43.8717 8.7549 44.1378 8.97264M43.7235 8.08418L44.1378 8.97264M44.1378 8.97264C49.8504 13.7665 53.1489 20.8402 53.1489 28.2976C53.1489 35.7553 49.85 42.8295 44.1369 47.6232C43.6582 48.0227 43.5938 48.7349 43.993 49.2139C44.3921 49.6927 45.1038 49.7576 45.5829 49.3593C45.5864 49.3565 45.5894 49.3539 45.5914 49.3522C51.8139 44.13 55.4081 36.4211 55.4081 28.2976C55.4081 20.1736 51.8136 12.4644 45.5905 7.24221C45.5909 7.24249 45.5912 7.24278 45.5915 7.24307L44.1378 8.97264ZM10.9411 6.96949L10.9411 6.96949C10.6873 6.98031 10.4444 7.07621 10.2516 7.24216C4.0286 12.4643 0.434047 20.1736 0.434047 28.2976C0.434047 36.4219 4.02886 44.1314 10.2523 49.3535C10.7288 49.7561 11.4414 49.6962 11.8441 49.2196C12.247 48.7431 12.187 48.0304 11.7106 47.6276L11.7107 47.6275L11.7079 47.6253L11.7052 47.623C5.99211 42.8295 2.69325 35.7553 2.69325 28.2976C2.69325 20.8403 5.99175 13.7664 11.7042 8.97274C12.1868 8.57829 12.2586 7.86737 11.8647 7.38412L11.8646 7.38397C11.6392 7.10799 11.297 6.95436 10.9411 6.96949ZM11.7047 47.6228C11.7048 47.6229 11.705 47.623 11.7051 47.6231L11.7047 47.6228ZM19.6145 14.1803C19.3606 14.1912 19.1176 14.2875 18.9251 14.4534L19.6145 14.1803ZM27.9211 21.5199C24.189 21.5199 21.1434 24.5655 21.1434 28.2976C21.1434 32.0296 24.189 35.0752 27.9211 35.0752C31.6531 35.0752 34.6987 32.0296 34.6987 28.2976C34.6987 24.5655 31.6531 21.5199 27.9211 21.5199ZM27.9211 23.7791C30.4276 23.7791 32.4395 25.791 32.4395 28.2976C32.4395 30.8041 30.4276 32.816 27.9211 32.816C25.4145 32.816 23.4027 30.8041 23.4027 28.2976C23.4027 25.791 25.4145 23.7791 27.9211 23.7791Z" fill="black" stroke="black" stroke-width="0.376535"/>
</g>
<defs>
<clipPath id="clip0_43_3523">
<rect width="54.5975" height="54.5975" fill="white" transform="translate(0.622314 0.99585)"/>
</clipPath>
</defs>
</svg>
