<svg width="36" height="36" viewBox="0 0 36 36" fill="none" xmlns="http://www.w3.org/2000/svg">
<g clip-path="url(#clip0_22_2256)">
<path d="M6.80393 3.93885L6.80394 3.93885C7.03858 3.92887 7.26422 4.03018 7.41284 4.21215L7.41292 4.21224C7.67263 4.53089 7.62526 4.99966 7.30708 5.25975C3.54044 8.42054 1.36552 13.0848 1.36552 18.002C1.36552 22.9194 3.54069 27.5839 7.30772 30.7446L7.3095 30.7461L7.31137 30.7475L7.3113 30.7476C7.62543 31.0132 7.66494 31.4831 7.39934 31.7973C7.13381 32.1116 6.66395 32.1511 6.34975 31.8856M6.80393 3.93885L6.42972 31.7907M6.80393 3.93885C6.63655 3.94599 6.4764 4.00922 6.34929 4.11865M6.80393 3.93885L6.42972 4.21321M6.34975 31.8856C6.3497 31.8856 6.34964 31.8855 6.34958 31.8855L6.42972 31.7907M6.34975 31.8856C6.34981 31.8857 6.34987 31.8857 6.34993 31.8858L6.42972 31.7907M6.34975 31.8856C2.24618 28.4423 -0.124138 23.3589 -0.124138 18.002C-0.124138 12.6452 2.246 7.56198 6.34929 4.11865M6.42972 31.7907C2.35415 28.3709 0 23.3223 0 18.002C0 12.6817 2.35415 7.63296 6.42972 4.21321M6.34929 4.11865C6.34907 4.11884 6.34884 4.11904 6.34862 4.11923L6.42972 4.21321M6.34929 4.11865C6.34951 4.11847 6.34972 4.11829 6.34993 4.11811L6.42972 4.21321M23.4547 8.69286L23.4547 8.69286C23.63 8.69509 23.799 8.75908 23.9318 8.87353C23.9321 8.87372 23.9323 8.87391 23.9325 8.8741L23.8514 8.96807C26.5216 11.2085 28.0641 14.5164 28.0641 18.002L23.4547 8.69286ZM23.4547 8.69286C23.0434 8.6878 22.7057 9.01699 22.7006 9.42845M23.4547 8.69286L22.7006 9.42845M12.523 8.69346C12.3555 8.7006 12.1952 8.76413 12.0683 8.87352C9.37052 11.1375 7.812 14.48 7.812 18.002C7.812 21.5239 9.37048 24.8663 12.0683 27.1303C12.3792 27.3991 12.8491 27.3654 13.1183 27.0549L13.1184 27.0548C13.3878 26.744 13.3543 26.2736 13.0436 26.0041L13.0428 26.0034C13.0381 25.9994 13.0322 25.9943 13.0258 25.9892C10.6648 24.0077 9.30178 21.0843 9.30178 18.002C9.30178 14.9195 10.665 11.9961 13.026 10.0146C13.3442 9.75471 13.3919 9.28595 13.1323 8.96725L13.1323 8.96721C12.9837 8.78499 12.758 8.68335 12.523 8.69346ZM12.523 8.69346L12.5282 8.81749M12.523 8.69346C12.5229 8.69346 12.5229 8.69346 12.5229 8.69346L12.5282 8.81749M12.5282 8.81749C12.724 8.80904 12.9122 8.89371 13.0361 9.04565L7.93614 18.002C7.93614 14.5164 9.47868 11.2085 12.1488 8.96807C12.2546 8.87658 12.3885 8.82344 12.5282 8.81749ZM17.9913 16.5744H17.9896C17.7496 16.5711 17.5578 16.3739 17.5612 16.1338L17.9913 16.5744ZM17.9913 16.5744H17.9913M17.9913 16.5744H17.9913M20.2967 18.0106V18.0124C20.2934 18.2523 20.0962 18.4442 19.8561 18.4408L20.2967 18.0106ZM20.2967 18.0106V18.0106V18.0106V18.0106V18.0106V18.0106V18.0105V18.0105V18.0105V18.0105V18.0105V18.0105V18.0104V18.0104V18.0104V18.0104V18.0104V18.0103V18.0103V18.0103V18.0103V18.0103V18.0103V18.0102V18.0102V18.0102V18.0102V18.0102V18.0102V18.0101V18.0101V18.0101V18.0101V18.0101V18.0101V18.01V18.01V18.01V18.01V18.01V18.0099V18.0099V18.0099V18.0099V18.0099V18.0099V18.0098V18.0098V18.0098V18.0098V18.0098V18.0098V18.0097V18.0097V18.0097V18.0097V18.0097V18.0097V18.0096V18.0096V18.0096V18.0096V18.0096V18.0096V18.0095V18.0095V18.0095V18.0095V18.0095V18.0094V18.0094V18.0094V18.0094V18.0094V18.0094V18.0093V18.0093V18.0093V18.0093V18.0093V18.0093V18.0092V18.0092V18.0092V18.0092V18.0092V18.0092V18.0091V18.0091V18.0091V18.0091V18.0091V18.0091V18.009V18.009V18.009V18.009V18.009V18.0089V18.0089V18.0089V18.0089V18.0089V18.0089V18.0088V18.0088V18.0088V18.0088V18.0088V18.0088V18.0087V18.0087V18.0087V18.0087V18.0087V18.0087V18.0086V18.0086V18.0086V18.0086V18.0086V18.0086V18.0085V18.0085V18.0085V18.0085V18.0085V18.0084V18.0084V18.0084V18.0084V18.0084V18.0084V18.0083V18.0083V18.0083V18.0083V18.0083V18.0083V18.0082V18.0082V18.0082V18.0082V18.0082V18.0082V18.0081V18.0081V18.0081V18.0081V18.0081V18.0081V18.008V18.008V18.008V18.008V18.008V18.0079V18.0079V18.0079V18.0079V18.0079V18.0079V18.0078V18.0078V18.0078V18.0078V18.0078V18.0078V18.0077V18.0077V18.0077V18.0077V18.0077V18.0077V18.0076V18.0076V18.0076V18.0076V18.0076V18.0076V18.0075V18.0075V18.0075V18.0075V18.0075V18.0075V18.0074V18.0074V18.0074V18.0074V18.0074V18.0074V18.0073V18.0073V18.0073V18.0073V18.0073V18.0072V18.0072V18.0072V18.0072V18.0072V18.0072V18.0071V18.0071V18.0071V18.0071V18.0071V18.0071V18.007V18.007V18.007V18.007V18.007V18.007V18.0069V18.0069V18.0069V18.0069V18.0069V18.0069V18.0068V18.0068V18.0068V18.0068V18.0068V18.0068V18.0067V18.0067V18.0067V18.0067V18.0067V18.0066V18.0066V18.0066V18.0066V18.0066V18.0066V18.0065V18.0065V18.0065V18.0065V18.0065V18.0065V18.0064V18.0064V18.0064V18.0064V18.0064V18.0064V18.0063V18.0063V18.0063V18.0063V18.0063V18.0063V18.0062V18.0062V18.0062V18.0062V18.0062V18.0062V18.0061V18.0061V18.0061V18.0061V18.0061V18.0061V18.006V18.006V18.006V18.006V18.006V18.0059V18.0059V18.0059V18.0059V18.0059V18.0059V18.0058V18.0058V18.0058V18.0058V18.0058V18.0058V18.0057V18.0057V18.0057V18.0057V18.0057V18.0057V18.0056V18.0056V18.0056V18.0056V18.0056V18.0056V18.0055V18.0055V18.0055V18.0055V18.0055V18.0055V18.0054V18.0054V18.0054V18.0054V18.0054V18.0054V18.0053V18.0053V18.0053V18.0053V18.0053V18.0052V18.0052V18.0052V18.0052V18.0052V18.0052V18.0051V18.0051V18.0051V18.0051V18.0051V18.0051V18.005V18.005V18.005V18.005V18.005V18.005V18.0049V18.0049V18.0049V18.0049V18.0049V18.0049V18.0048V18.0048V18.0048V18.0048V18.0048V18.0048V18.0047V18.0047V18.0047V18.0047V18.0047V18.0046V18.0046V18.0046V18.0046V18.0046V18.0046V18.0045V18.0045V18.0045V18.0045V18.0045V18.0045V18.0044V18.0044V18.0044V18.0044V18.0044V18.0044V18.0043V18.0043V18.0043V18.0043V18.0043V18.0043V18.0042V18.0042V18.0042V18.0042V18.0042V18.0042V18.0041V18.0041V18.0041V18.0041V18.0041V18.004V18.004V18.004V18.004V18.004V18.004V18.0039V18.0039V18.0039V18.0039V18.0039V18.0039V18.0038V18.0038V18.0038V18.0038V18.0038V18.0038V18.0037V18.0037V18.0037V18.0037V18.0037V18.0037V18.0036V18.0036V18.0036V18.0036V18.0036V18.0035V18.0035V18.0035V18.0035V18.0035V18.0035V18.0034V18.0034V18.0034V18.0034V18.0034V18.0034V18.0033V18.0033V18.0033V18.0033V18.0033V18.0033V18.0032V18.0032V18.0032V18.0032V18.0032V18.0032V18.0031V18.0031V18.0031V18.0031V18.0031V18.003V18.003V18.003V18.003V18.003V18.003V18.0029V18.0029V18.0029V18.0029V18.0029V18.0029V18.0028V18.0028V18.0028V18.0028V18.0028V18.0028V18.0027V18.0027V18.0027V18.0027V18.0027V18.0026V18.0026V18.0026V18.0026V18.0026V18.0026V18.0025V18.0025V18.0025V18.0025V18.0025V18.0025V18.0024V18.0024V18.0024V18.0024V18.0024V18.0024V18.0023V18.0023V18.0023V18.0023V18.0023V18.0022V18.0022V18.0022V18.0022V18.0022V18.0022V18.0021V18.0021V18.0021V18.0021V18.0021V18.0021V18.002V18.002V18.002V18.002V18.002V18.002V18.0019V18.0019V18.0019V18.0019V18.0019V18.0018V18.0018C20.2965 16.7376 19.2651 15.7059 18.0009 15.7054M20.2967 18.0106L17.5612 16.1337C17.5645 15.8941 17.7613 15.7024 18.0009 15.7054M28.4197 4.67385C28.4247 4.26254 28.7624 3.93322 29.1736 3.93825L28.4197 4.67385ZM28.4197 4.67385C28.4168 4.90059 28.5174 5.11618 28.6929 5.25976M28.4197 4.67385L28.6929 5.25976M28.6929 5.25976C32.4596 8.42067 34.6345 13.0848 34.6345 18.002C34.6345 22.9192 32.4594 27.5837 28.6926 30.7445C28.3766 31.0079 28.334 31.4777 28.5974 31.7936C28.8603 32.109 29.329 32.152 29.645 31.8901C29.6476 31.888 29.6498 31.8861 29.6513 31.8848C33.7542 28.4414 36.1241 23.3584 36.1241 18.002C36.1241 12.6452 33.754 7.562 29.6507 4.11867C29.518 4.00436 29.3491 3.94035 29.1737 3.93825L28.6929 5.25976ZM22.7006 9.42845C22.6978 9.65527 22.7985 9.87115 22.9743 10.0146M22.7006 9.42845L22.9743 10.0146M22.9743 10.0146C25.3354 11.9961 26.6985 14.9196 26.6985 18.002C26.6985 21.0843 25.3353 24.0078 22.9743 25.9892C22.6557 26.2487 22.6073 26.7173 22.8664 27.0364C23.1257 27.3557 23.5947 27.4045 23.9141 27.1452L22.9743 10.0146ZM18.0009 15.7054C18.0012 15.7054 18.0015 15.7054 18.0018 15.7054L18 15.8295V15.7054C18.0003 15.7054 18.0006 15.7054 18.0009 15.7054ZM17.9913 16.5744H17.9913M17.9913 16.5744H17.9913M17.9913 16.5744H17.9914M17.9913 16.5744H17.9914M17.9914 16.5744H17.9914M17.9914 16.5744H17.9914M17.9914 16.5744H17.9914M17.9914 16.5744H17.9914M17.9914 16.5744H17.9914M17.9914 16.5744H17.9914M17.9914 16.5744H17.9914M17.9914 16.5744H17.9914M17.9914 16.5744H17.9914M17.9914 16.5744H17.9914M17.9914 16.5744H17.9915M17.9914 16.5744H17.9915M17.9915 16.5744H17.9915M17.9915 16.5744H17.9915M17.9915 16.5744H17.9915M17.9915 16.5744H17.9915M17.9915 16.5744H17.9915M17.9915 16.5744H17.9915M17.9915 16.5744H17.9915M17.9915 16.5744H17.9915M17.9915 16.5744H17.9916M17.9915 16.5744H17.9916M17.9916 16.5744H17.9916M17.9916 16.5744H17.9916M17.9916 16.5744H17.9916M17.9916 16.5744H17.9916M17.9916 16.5744H17.9916M17.9916 16.5744H17.9916M17.9916 16.5744H17.9916M17.9916 16.5744H17.9916M17.9916 16.5744H17.9916M17.9916 16.5744H17.9916M17.9916 16.5744H17.9917M17.9916 16.5744H17.9917M17.9917 16.5744H17.9917M17.9917 16.5744H17.9917M17.9917 16.5744H17.9917M17.9917 16.5744H17.9917M17.9917 16.5744H17.9917M17.9917 16.5744H17.9917M17.9917 16.5744H17.9917M17.9917 16.5744H17.9917M17.9917 16.5744H17.9917M17.9917 16.5744H17.9917M17.9917 16.5744H17.9918M17.9917 16.5744H17.9918M17.9918 16.5744H17.9918M17.9918 16.5744H17.9918M17.9918 16.5744H17.9918M17.9918 16.5744H17.9918M17.9918 16.5744H17.9918M17.9918 16.5744H17.9918M17.9918 16.5744H17.9918M17.9918 16.5744H17.9918M17.9918 16.5744H17.9918M17.9918 16.5744H17.9918M17.9918 16.5744H17.9919M17.9918 16.5744H17.9919M17.9919 16.5744H17.9919M17.9919 16.5744H17.9919M17.9919 16.5744H17.9919M17.9919 16.5744H17.9919M17.9919 16.5744H17.9919M17.9919 16.5744H17.9919M17.9919 16.5744H17.9919M17.9919 16.5744H17.9919M17.9919 16.5744H17.992M17.9919 16.5744H17.992M17.992 16.5744H17.992M17.992 16.5744H17.992M17.992 16.5744H17.992M17.992 16.5744H17.992M17.992 16.5744H17.992M17.992 16.5744H17.992M17.992 16.5744H17.992M17.992 16.5744H17.992M17.992 16.5744H17.992M17.992 16.5744H17.992M17.992 16.5744H17.9921M17.992 16.5744H17.9921M17.9921 16.5744H17.9921M17.9921 16.5744H17.9921M17.9921 16.5744H17.9921M17.9921 16.5744H17.9921M17.9921 16.5744H17.9921M17.9921 16.5744H17.9921M17.9921 16.5744H17.9921M17.9921 16.5744H17.9921M17.9921 16.5744H17.9921M17.9921 16.5744H17.9921M17.9921 16.5744H17.9922M17.9921 16.5744H17.9922M17.9922 16.5744H17.9922M17.9922 16.5744H17.9922M17.9922 16.5744H17.9922M17.9922 16.5744H17.9922M17.9922 16.5744H17.9922M17.9922 16.5744H17.9922M17.9922 16.5744H17.9922M17.9922 16.5744H17.9922M17.9922 16.5744H17.9922M17.9922 16.5744H17.9922M17.9922 16.5744H17.9923M17.9922 16.5744H17.9923M17.9923 16.5744H17.9923M17.9923 16.5744H17.9923M17.9923 16.5744H17.9923M17.9923 16.5744H17.9923M17.9923 16.5744H17.9923M17.9923 16.5744H17.9923M17.9923 16.5744H17.9923M17.9923 16.5744H17.9923M17.9923 16.5744H17.9924M17.9923 16.5744H17.9924M17.9924 16.5744H17.9924M17.9924 16.5744H17.9924M17.9924 16.5744H17.9924M17.9924 16.5744H17.9924M17.9924 16.5744H17.9924M17.9924 16.5744H17.9924M17.9924 16.5744H17.9924M17.9924 16.5744H17.9924M17.9924 16.5744H17.9924M17.9924 16.5744H17.9924M17.9924 16.5744H17.9925M17.9924 16.5744H17.9925M17.9925 16.5744H17.9925M17.9925 16.5744H17.9925M17.9925 16.5744H17.9925M17.9925 16.5744H17.9925M17.9925 16.5744H17.9925M17.9925 16.5744H17.9925M17.9925 16.5744H17.9925M17.9925 16.5744H17.9925M17.9925 16.5744H17.9925M17.9925 16.5744H17.9925M17.9925 16.5744H17.9926M17.9925 16.5744H17.9926M17.9926 16.5744H17.9926M17.9926 16.5744H17.9926M17.9926 16.5744H17.9926M17.9926 16.5744H17.9926M17.9926 16.5744H17.9926M17.9926 16.5744H17.9926M17.9926 16.5744H17.9926M17.9926 16.5744H17.9926M17.9926 16.5744H17.9926M17.9926 16.5744H17.9926M17.9926 16.5744H17.9927M17.9926 16.5744H17.9927M17.9927 16.5744H17.9927M17.9927 16.5744H17.9927M17.9927 16.5744H17.9927M17.9927 16.5744H17.9927M17.9927 16.5744H17.9927M17.9927 16.5744H17.9927M17.9927 16.5744H17.9927M17.9927 16.5744H17.9927M17.9927 16.5744H17.9928M17.9927 16.5744H17.9928M17.9928 16.5744H17.9928M17.9928 16.5744H17.9928M17.9928 16.5744H17.9928M17.9928 16.5744H17.9928M17.9928 16.5744H17.9928M17.9928 16.5744H17.9928M17.9928 16.5744H17.9928M17.9928 16.5744H17.9928M17.9928 16.5744H17.9928M17.9928 16.5744H17.9928M17.9928 16.5744H17.9929M17.9928 16.5744H17.9929M17.9929 16.5744H17.9929M17.9929 16.5744H17.9929M17.9929 16.5744H17.9929M17.9929 16.5744H17.9929M17.9929 16.5744H17.9929M17.9929 16.5744H17.9929M17.9929 16.5744H17.9929M17.9929 16.5744H17.9929M17.9929 16.5744H17.9929M17.9929 16.5744H17.9929M17.9929 16.5744H17.993M17.9929 16.5744H17.993M17.993 16.5744H17.993M17.993 16.5744H17.993M17.993 16.5744H17.993M17.993 16.5744H17.993M17.993 16.5744H17.993M17.993 16.5744H17.993M17.993 16.5744H17.993M17.993 16.5744H17.993M17.993 16.5744H17.993M17.993 16.5744H17.993M17.993 16.5744H17.9931M17.993 16.5744H17.9931M17.9931 16.5744H17.9931M17.9931 16.5744H17.9931M17.9931 16.5744H17.9931M17.9931 16.5744H17.9931M17.9931 16.5744H17.9931M17.9931 16.5744H17.9931M17.9931 16.5744H17.9931M17.9931 16.5744H17.9931M17.9931 16.5744H17.9931M17.9931 16.5744H17.9931M17.9931 16.5744H17.9932M17.9931 16.5744H17.9932M17.9932 16.5744H17.9932M17.9932 16.5744H17.9932M17.9932 16.5744H17.9932M17.9932 16.5744H17.9932M17.9932 16.5744H17.9932M17.9932 16.5744H17.9932M17.9932 16.5744H17.9932M17.9932 16.5744H17.9932M17.9932 16.5744H17.9932M17.9932 16.5744H17.9932M17.9932 16.5744H17.9933M17.9932 16.5744H17.9933M17.9933 16.5744H17.9933M17.9933 16.5744H17.9933M17.9933 16.5744H17.9933M17.9933 16.5744H17.9933M17.9933 16.5744H17.9933M17.9933 16.5744H17.9933M17.9933 16.5744H17.9933M17.9933 16.5744H17.9933M17.9933 16.5744H17.9934M17.9933 16.5744H17.9934M17.9934 16.5744H17.9934M17.9934 16.5744H17.9934M17.9934 16.5744H17.9934M17.9934 16.5744H17.9934M17.9934 16.5744H17.9934M17.9934 16.5744H17.9934M17.9934 16.5744H17.9934M17.9934 16.5744H17.9934M17.9934 16.5744H17.9934M17.9934 16.5744H17.9934M17.9934 16.5744H17.9935M17.9934 16.5744H17.9935M17.9935 16.5744H17.9935M17.9935 16.5744H17.9935M17.9935 16.5744H17.9935M17.9935 16.5744H17.9935M17.9935 16.5744H17.9935M17.9935 16.5744H17.9935M17.9935 16.5744H17.9935M17.9935 16.5744H17.9935M17.9935 16.5744H17.9935M17.9935 16.5744H17.9935M17.9935 16.5744H17.9936M17.9935 16.5744H17.9936M17.9936 16.5744H17.9936M17.9936 16.5744H17.9936M17.9936 16.5744H17.9936M17.9936 16.5744H17.9936M17.9936 16.5744H17.9936M17.9936 16.5744H17.9936M17.9936 16.5744H17.9936M17.9936 16.5744H17.9936M17.9936 16.5744H17.9936M17.9936 16.5744H17.9936M17.9936 16.5744H17.9937M17.9936 16.5744H17.9937M17.9937 16.5744H17.9937M17.9937 16.5744H17.9937M17.9937 16.5744H17.9937M17.9937 16.5744H17.9937M17.9937 16.5744H17.9937M17.9937 16.5744H17.9937M17.9937 16.5744H17.9937M17.9937 16.5744H17.9937M17.9937 16.5744H17.9937M17.9937 16.5744H17.9937M17.9937 16.5744H17.9938M17.9937 16.5744H17.9938M17.9938 16.5744H17.9938M17.9938 16.5744H17.9938M17.9938 16.5744H17.9938M17.9938 16.5744H17.9938M17.9938 16.5744H17.9938M17.9938 16.5744H17.9938M17.9938 16.5744H17.9938M17.9938 16.5744H17.9938M17.9938 16.5744H17.9939M17.9938 16.5744H17.9939M17.9939 16.5744H17.9939M17.9939 16.5744H17.9939M17.9939 16.5744H17.9939M17.9939 16.5744H17.9939M17.9939 16.5744H17.9939M17.9939 16.5744H17.9939M17.9939 16.5744H17.9939M17.9939 16.5744H17.9939M17.9939 16.5744H17.9939M17.9939 16.5744H17.9939M17.9939 16.5744H17.994M17.9939 16.5744H17.994M17.994 16.5744H17.994M17.994 16.5744H17.994M17.994 16.5744H17.994M17.994 16.5744H17.994M17.994 16.5744H17.994M17.994 16.5744H17.994M17.994 16.5744H17.994M17.994 16.5744H17.994M17.994 16.5744H17.994M17.994 16.5744H17.994M17.994 16.5744H17.9941M17.994 16.5744H17.9941M17.9941 16.5744H17.9941M17.9941 16.5744H17.9941M17.9941 16.5744H17.9941M17.9941 16.5744H17.9941M17.9941 16.5744H17.9941M17.9941 16.5744H17.9941M17.9941 16.5744H17.9941M17.9941 16.5744H17.9941M17.9941 16.5744H17.9941M17.9941 16.5744H17.9941M17.9941 16.5744H17.9942M17.9941 16.5744H17.9942M17.9942 16.5744H17.9942M17.9942 16.5744H17.9942M17.9942 16.5744H17.9942M17.9942 16.5744H17.9942M17.9942 16.5744H17.9942M17.9942 16.5744H17.9942M17.9942 16.5744H17.9942M17.9942 16.5744H17.9942M17.9942 16.5744H17.9942M17.9942 16.5744H17.9942M17.9942 16.5744H17.9943M17.9942 16.5744H17.9943M17.9943 16.5744H17.9943M17.9943 16.5744H17.9943M17.9943 16.5744H17.9943M17.9943 16.5744H17.9943M17.9943 16.5744H17.9943M17.9943 16.5744H17.9943M17.9943 16.5744H17.9943M17.9943 16.5744H17.9943M17.9943 16.5744H17.9943M17.9943 16.5744H17.9943M17.9943 16.5744H17.9944M17.9943 16.5744H17.9944M17.9944 16.5744H17.9944M17.9944 16.5744H17.9944M17.9944 16.5744H17.9944M17.9944 16.5744H17.9944M17.9944 16.5744H17.9944M17.9944 16.5744H17.9944M17.9944 16.5744H17.9944M17.9944 16.5744H17.9944M17.9944 16.5744H17.9945M17.9944 16.5744H17.9945M17.9945 16.5744H17.9945M17.9945 16.5744H17.9945M17.9945 16.5744H17.9945M17.9945 16.5744H17.9945M17.9945 16.5744H17.9945M17.9945 16.5744H17.9945M17.9945 16.5744H17.9945M17.9945 16.5744H17.9945M17.9945 16.5744H17.9945M17.9945 16.5744H17.9945M17.9945 16.5744H17.9946M17.9945 16.5744H17.9946M17.9946 16.5744H17.9946M17.9946 16.5744H17.9946M17.9946 16.5744H17.9946M17.9946 16.5744H17.9946M17.9946 16.5744H17.9946M17.9946 16.5744H17.9946M17.9946 16.5744H17.9946M17.9946 16.5744H17.9946M17.9946 16.5744H17.9946M17.9946 16.5744H17.9946M17.9946 16.5744H17.9947M17.9946 16.5744H17.9947M17.9947 16.5744H17.9947M17.9947 16.5744H17.9947M17.9947 16.5744H17.9947M17.9947 16.5744H17.9947M17.9947 16.5744H17.9947M17.9947 16.5744H17.9947M17.9947 16.5744H17.9947M17.9947 16.5744H17.9947M17.9947 16.5744H17.9947M17.9947 16.5744H17.9947M17.9947 16.5744H17.9948M17.9947 16.5744H17.9948M17.9948 16.5744H17.9948M17.9948 16.5744H17.9948M17.9948 16.5744H17.9948M17.9948 16.5744H17.9948M17.9948 16.5744H17.9948M17.9948 16.5744H17.9948M17.9948 16.5744H17.9948M17.9948 16.5744H17.9948M17.9948 16.5744H17.9948M17.9948 16.5744H17.9948M17.9948 16.5744H17.9949M17.9948 16.5744H17.9949M17.9949 16.5744H17.9949M17.9949 16.5744H17.9949M17.9949 16.5744H17.9949M17.9949 16.5744H17.9949M17.9949 16.5744H17.9949M17.9949 16.5744H17.9949M17.9949 16.5744H17.9949M17.9949 16.5744H17.9949M17.9949 16.5744H17.9949M17.9949 16.5744H17.9949M17.9949 16.5744H17.995M17.9949 16.5744H17.995M17.995 16.5744H17.995M17.995 16.5744H17.995M17.995 16.5744H17.995M17.995 16.5744H17.995M17.995 16.5744H17.995M17.995 16.5744H17.995M17.995 16.5744H17.995M17.995 16.5744H17.995M17.995 16.5744H17.9951M17.995 16.5744H17.9951M17.9951 16.5744H17.9951M17.9951 16.5744H17.9951M17.9951 16.5744H17.9951M17.9951 16.5744H17.9951M17.9951 16.5744H17.9951M17.9951 16.5744H17.9951M17.9951 16.5744H17.9951M17.9951 16.5744H17.9951M17.9951 16.5744H17.9951M17.9951 16.5744H17.9951M17.9951 16.5744H17.9952M17.9951 16.5744H17.9952M17.9952 16.5744H17.9952M17.9952 16.5744H17.9952M17.9952 16.5744H17.9952M17.9952 16.5744H17.9952M17.9952 16.5744H17.9952M17.9952 16.5744H17.9952M17.9952 16.5744H17.9952M17.9952 16.5744H17.9952M17.9952 16.5744H17.9952M17.9952 16.5744H17.9952M17.9952 16.5744H17.9953M17.9952 16.5744H17.9953M17.9953 16.5744H17.9953M17.9953 16.5744H17.9953M17.9953 16.5744H17.9953M17.9953 16.5744H17.9953M17.9953 16.5744H17.9953M17.9953 16.5744H17.9953M17.9953 16.5744H17.9953M17.9953 16.5744H17.9953M17.9953 16.5744H17.9953M17.9953 16.5744H17.9953M17.9953 16.5744H17.9954M17.9953 16.5744H17.9954M17.9954 16.5744H17.9954M17.9954 16.5744H17.9954M17.9954 16.5744H17.9954M17.9954 16.5744H17.9954M17.9954 16.5744H17.9954M17.9954 16.5744H17.9954M17.9954 16.5744H17.9954M17.9954 16.5744H17.9954M17.9954 16.5744H17.9954M17.9954 16.5744H17.9954M17.9954 16.5744H17.9955M17.9954 16.5744H17.9955M17.9955 16.5744H17.9955M17.9955 16.5744H17.9955M17.9955 16.5744H17.9955M17.9955 16.5744H17.9955M17.9955 16.5744H17.9955M17.9955 16.5744H17.9955M17.9955 16.5744H17.9955M17.9955 16.5744H17.9955M17.9955 16.5744H17.9955M17.9955 16.5744H17.9955M17.9955 16.5744H17.9956M17.9955 16.5744H17.9956M17.9956 16.5744H17.9956M17.9956 16.5744H17.9956M17.9956 16.5744H17.9956M17.9956 16.5744H17.9956M17.9956 16.5744H17.9956M17.9956 16.5744H17.9956M17.9956 16.5744H17.9956M17.9956 16.5744H17.9956M17.9956 16.5744H17.9956M17.9956 16.5744H17.9956M17.9956 16.5744H17.9957M17.9956 16.5744H17.9957M17.9957 16.5744H17.9957M17.9957 16.5744H17.9957M17.9957 16.5744H17.9957M17.9957 16.5744H17.9957M17.9957 16.5744H17.9957M17.9957 16.5744H17.9957M17.9957 16.5744H17.9957M17.9957 16.5744H17.9957M17.9957 16.5744H17.9958M17.9957 16.5744H17.9958M17.9958 16.5744H17.9958M17.9958 16.5744H17.9958M17.9958 16.5744H17.9958M17.9958 16.5744H17.9958M17.9958 16.5744H17.9958M17.9958 16.5744H17.9958M17.9958 16.5744H17.9958M17.9958 16.5744H17.9958M17.9958 16.5744H17.9958M17.9958 16.5744H17.9958M17.9958 16.5744H17.9959M17.9958 16.5744H17.9959M17.9959 16.5744H17.9959M17.9959 16.5744H17.9959M17.9959 16.5744H17.9959M17.9959 16.5744H17.9959M17.9959 16.5744H17.9959M17.9959 16.5744H17.9959M17.9959 16.5744H17.9959M17.9959 16.5744H17.9959M17.9959 16.5744H17.9959M17.9959 16.5744H17.9959M17.9959 16.5744H17.996M17.9959 16.5744H17.996M17.996 16.5744H17.996M17.996 16.5744H17.996M17.996 16.5744H17.996M17.996 16.5744H17.996M17.996 16.5744H17.996M17.996 16.5744H17.996M17.996 16.5744H17.996M17.996 16.5744H17.996M17.996 16.5744H17.996M17.996 16.5744H17.996M17.996 16.5744H17.9961M17.996 16.5744H17.9961M17.9961 16.5744H17.9961M17.9961 16.5744H17.9961M17.9961 16.5744H17.9961M17.9961 16.5744H17.9961M17.9961 16.5744H17.9961M17.9961 16.5744H17.9961M17.9961 16.5744H17.9961M17.9961 16.5744H17.9961M17.9961 16.5744H17.9961M17.9961 16.5744H17.9961M17.9961 16.5744H17.9962M17.9961 16.5744H17.9962M17.9962 16.5744H17.9962M17.9962 16.5744H17.9962M17.9962 16.5744H17.9962M17.9962 16.5744H17.9962M17.9962 16.5744H17.9962M17.9962 16.5744H17.9962M17.9962 16.5744H17.9962M17.9962 16.5744H17.9962M17.9962 16.5744H17.9962M17.9962 16.5744H17.9962M17.9962 16.5744H17.9963M17.9962 16.5744H17.9963M17.9963 16.5744H17.9963M17.9963 16.5744H17.9963M17.9963 16.5744H17.9963M17.9963 16.5744H17.9963M17.9963 16.5744H17.9963M17.9963 16.5744H17.9963M17.9963 16.5744H17.9963M17.9963 16.5744H17.9963M17.9963 16.5744H17.9963M17.9963 16.5744H17.9963M17.9963 16.5744H17.9964M17.9963 16.5744H17.9964M17.9964 16.5744H17.9964M17.9964 16.5744H17.9964M17.9964 16.5744H17.9964M17.9964 16.5744H17.9964M17.9964 16.5744H17.9964M17.9964 16.5744H17.9964M17.9964 16.5744H17.9964M17.9964 16.5744H17.9964M17.9964 16.5744H17.9965M17.9964 16.5744H17.9965M17.9965 16.5744H17.9965M17.9965 16.5744H17.9965M17.9965 16.5744H17.9965M17.9965 16.5744H17.9965M17.9965 16.5744H17.9965M17.9965 16.5744H17.9965M17.9965 16.5744H17.9965M17.9965 16.5744H17.9965M17.9965 16.5744H17.9965M17.9965 16.5744H17.9965M17.9965 16.5744H17.9966M17.9965 16.5744H17.9966M17.9966 16.5744H17.9966M17.9966 16.5744H17.9966M17.9966 16.5744H17.9966M17.9966 16.5744H17.9966M17.9966 16.5744H17.9966M17.9966 16.5744H17.9966M17.9966 16.5744H17.9966M17.9966 16.5744H17.9966M17.9966 16.5744H17.9966M17.9966 16.5744H17.9966M17.9966 16.5744H17.9967M17.9966 16.5744H17.9967M17.9967 16.5744H17.9967M17.9967 16.5744H17.9967M17.9967 16.5744H17.9967M17.9967 16.5744H17.9967M17.9967 16.5744H17.9967M17.9967 16.5744H17.9967M17.9967 16.5744H17.9967M17.9967 16.5744H17.9967M17.9967 16.5744H17.9967M17.9967 16.5744H17.9967M17.9967 16.5744H17.9968M17.9967 16.5744H17.9968M17.9968 16.5744H17.9968M17.9968 16.5744H17.9968M17.9968 16.5744H17.9968M17.9968 16.5744H17.9968M17.9968 16.5744H17.9968M17.9968 16.5744H17.9968M17.9968 16.5744H17.9968M17.9968 16.5744H17.9968M17.9968 16.5744H17.9968M17.9968 16.5744H17.9968M17.9968 16.5744H17.9969M17.9968 16.5744H17.9969M17.9969 16.5744H17.9969M17.9969 16.5744H17.9969M17.9969 16.5744H17.9969M17.9969 16.5744H17.9969M17.9969 16.5744H17.9969M17.9969 16.5744H17.9969M17.9969 16.5744H17.9969M17.9969 16.5744H17.9969M17.9969 16.5744H17.9969M17.9969 16.5744H17.9969M17.9969 16.5744H17.997M17.9969 16.5744H17.997M17.997 16.5744H17.997M17.997 16.5744H17.997M17.997 16.5744H17.997M17.997 16.5744H17.997M17.997 16.5744H17.997M17.997 16.5744H17.997M17.997 16.5744H17.997M17.997 16.5744H17.997M17.997 16.5744H17.9971M17.997 16.5744H17.9971M17.9971 16.5744H17.9971M17.9971 16.5744H17.9971M17.9971 16.5744H17.9971M17.9971 16.5744H17.9971M17.9971 16.5744H17.9971M17.9971 16.5744H17.9971M17.9971 16.5744H17.9971M17.9971 16.5744H17.9971M17.9971 16.5744H17.9971M17.9971 16.5744H17.9971M17.9971 16.5744H17.9972M17.9971 16.5744H17.9972M17.9972 16.5744H17.9972M17.9972 16.5744H17.9972M17.9972 16.5744H17.9972M17.9972 16.5744H17.9972M17.9972 16.5744H17.9972M17.9972 16.5744H17.9972M17.9972 16.5744H17.9972M17.9972 16.5744H17.9972M17.9972 16.5744H17.9972M17.9972 16.5744H17.9972M17.9972 16.5744H17.9973M17.9972 16.5744H17.9973M17.9973 16.5744H17.9973M17.9973 16.5744H17.9973M17.9973 16.5744H17.9973M17.9973 16.5744H17.9973M17.9973 16.5744H17.9973M17.9973 16.5744H17.9973M17.9973 16.5744H17.9973M17.9973 16.5744H17.9973M17.9973 16.5744H17.9973M17.9973 16.5744H17.9973M17.9973 16.5744H17.9974M17.9973 16.5744H17.9974M17.9974 16.5744H17.9974M17.9974 16.5744H17.9974M17.9974 16.5744H17.9974M17.9974 16.5744H17.9974M17.9974 16.5744H17.9974M17.9974 16.5744H17.9974M17.9974 16.5744H17.9974M17.9974 16.5744H17.9974M17.9974 16.5744H17.9974M17.9974 16.5744H17.9974M17.9974 16.5744H17.9975M17.9974 16.5744H17.9975M17.9975 16.5744H17.9975M17.9975 16.5744H17.9975M17.9975 16.5744H17.9975M17.9975 16.5744H17.9975M17.9975 16.5744H17.9975M17.9975 16.5744H17.9975M17.9975 16.5744H17.9975M17.9975 16.5744H17.9975M17.9975 16.5744H17.9975M17.9975 16.5744H17.9975M17.9975 16.5744H17.9976M17.9975 16.5744H17.9976M17.9976 16.5744H17.9976M17.9976 16.5744H17.9976M17.9976 16.5744H17.9976M17.9976 16.5744H17.9976M17.9976 16.5744H17.9976M17.9976 16.5744H17.9976M17.9976 16.5744H17.9976M17.9976 16.5744H17.9976M17.9976 16.5744H17.9977M17.9976 16.5744H17.9977M17.9977 16.5744H17.9977M17.9977 16.5744H17.9977M17.9977 16.5744H17.9977M17.9977 16.5744H17.9977M17.9977 16.5744H17.9977M17.9977 16.5744H17.9977M17.9977 16.5744H17.9977M17.9977 16.5744H17.9977M17.9977 16.5744H17.9977M17.9977 16.5744H17.9977M17.9977 16.5744H17.9978M17.9977 16.5744H17.9978M17.9978 16.5744H17.9978M17.9978 16.5744H17.9978M17.9978 16.5744H17.9978M17.9978 16.5744H17.9978M17.9978 16.5744H17.9978M17.9978 16.5744H17.9978M17.9978 16.5744H17.9978M17.9978 16.5744H17.9978M17.9978 16.5744H17.9978M17.9978 16.5744H17.9978M17.9978 16.5744H17.9979M17.9978 16.5744H17.9979M17.9979 16.5744H17.9979M17.9979 16.5744H17.9979M17.9979 16.5744H17.9979M17.9979 16.5744H17.9979M17.9979 16.5744H17.9979M17.9979 16.5744H17.9979M17.9979 16.5744H17.9979M17.9979 16.5744H17.9979M17.9979 16.5744H17.9979M17.9979 16.5744H17.9979M17.9979 16.5744H17.998M17.9979 16.5744H17.998M17.998 16.5744H17.998M17.998 16.5744H17.998M17.998 16.5744H17.998M17.998 16.5744H17.998M17.998 16.5744H17.998M17.998 16.5744H17.998M17.998 16.5744H17.998M17.998 16.5744H17.998M17.998 16.5744H17.998M17.998 16.5744H17.998M17.998 16.5744H17.9981M17.998 16.5744H17.9981M17.9981 16.5744H17.9981M17.9981 16.5744H17.9981M17.9981 16.5744H17.9981M17.9981 16.5744H17.9981M17.9981 16.5744H17.9981M17.9981 16.5744H17.9981M17.9981 16.5744H17.9981M17.9981 16.5744H17.9981M17.9981 16.5744H17.9981M17.9981 16.5744H17.9981M17.9981 16.5744H17.9982M17.9981 16.5744H17.9982M17.9982 16.5744H17.9982M17.9982 16.5744H17.9982M17.9982 16.5744H17.9982M17.9982 16.5744H17.9982M17.9982 16.5744H17.9982M17.9982 16.5744H17.9982M17.9982 16.5744H17.9982M17.9982 16.5744H17.9982M17.9982 16.5744H17.9983M17.9982 16.5744H17.9983M17.9983 16.5744H17.9983M17.9983 16.5744H17.9983M17.9983 16.5744H17.9983M17.9983 16.5744H17.9983M17.9983 16.5744H17.9983M17.9983 16.5744H17.9983M17.9983 16.5744H17.9983M17.9983 16.5744H17.9983M17.9983 16.5744H17.9983M17.9983 16.5744H17.9983M17.9983 16.5744H17.9984M17.9983 16.5744H17.9984M17.9984 16.5744H17.9984M17.9984 16.5744H17.9984M17.9984 16.5744H17.9984M17.9984 16.5744H17.9984M17.9984 16.5744H17.9984M17.9984 16.5744H17.9984M17.9984 16.5744H17.9984M17.9984 16.5744H17.9984M17.9984 16.5744H17.9984M17.9984 16.5744H17.9984M17.9984 16.5744H17.9985M17.9984 16.5744H17.9985M17.9985 16.5744H17.9985M17.9985 16.5744H17.9985M17.9985 16.5744H17.9985M17.9985 16.5744H17.9985M17.9985 16.5744H17.9985M17.9985 16.5744H17.9985M17.9985 16.5744H17.9985M17.9985 16.5744H17.9985M17.9985 16.5744H17.9985M17.9985 16.5744H17.9985M17.9985 16.5744H17.9986M17.9985 16.5744H17.9986M17.9986 16.5744H17.9986M17.9986 16.5744H17.9986M17.9986 16.5744H17.9986M17.9986 16.5744H17.9986M17.9986 16.5744H17.9986M17.9986 16.5744H17.9986M17.9986 16.5744H17.9986M17.9986 16.5744H17.9986M17.9986 16.5744H17.9986M17.9986 16.5744H17.9986M17.9986 16.5744H17.9987M17.9986 16.5744H17.9987M17.9987 16.5744H17.9987M17.9987 16.5744H17.9987M17.9987 16.5744H17.9987M17.9987 16.5744H17.9987M17.9987 16.5744H17.9987M17.9987 16.5744H17.9987M17.9987 16.5744H17.9987M17.9987 16.5744H17.9987M17.9987 16.5744H17.9988M17.9987 16.5744H17.9988M17.9988 16.5744H17.9988M17.9988 16.5744H17.9988M17.9988 16.5744H17.9988M17.9988 16.5744H17.9988M17.9988 16.5744H17.9988M17.9988 16.5744H17.9988M17.9988 16.5744H17.9988M17.9988 16.5744H17.9988M17.9988 16.5744H17.9988M17.9988 16.5744H17.9988M17.9988 16.5744H17.9989M17.9988 16.5744H17.9989M17.9989 16.5744H17.9989M17.9989 16.5744H17.9989M17.9989 16.5744H17.9989M17.9989 16.5744H17.9989M17.9989 16.5744H17.9989M17.9989 16.5744H17.9989M17.9989 16.5744H17.9989M17.9989 16.5744H17.9989M17.9989 16.5744H17.9989M17.9989 16.5744H17.9989M17.9989 16.5744H17.999M17.9989 16.5744H17.999M17.999 16.5744H17.999M17.999 16.5744H17.999M17.999 16.5744H17.999M17.999 16.5744H17.999M17.999 16.5744H17.999M17.999 16.5744H17.999M17.999 16.5744H17.999M17.999 16.5744H17.999M17.999 16.5744H17.999M17.999 16.5744H17.999M17.999 16.5744H17.9991M17.999 16.5744H17.9991M17.9991 16.5744H17.9991M17.9991 16.5744H17.9991M17.9991 16.5744H17.9991M17.9991 16.5744H17.9991M17.9991 16.5744H17.9991M17.9991 16.5744H17.9991M17.9991 16.5744H17.9991M17.9991 16.5744H17.9991M17.9991 16.5744H17.9992M17.9991 16.5744H17.9992M17.9992 16.5744H17.9992M17.9992 16.5744H17.9992M17.9992 16.5744H17.9992M17.9992 16.5744H17.9992M17.9992 16.5744H17.9992M17.9992 16.5744H17.9992M17.9992 16.5744H17.9992M17.9992 16.5744H17.9992M17.9992 16.5744H17.9992M17.9992 16.5744H17.9992M17.9992 16.5744H17.9993M17.9992 16.5744H17.9993M17.9993 16.5744H17.9993M17.9993 16.5744H17.9993M17.9993 16.5744H17.9993M17.9993 16.5744H17.9993M17.9993 16.5744H17.9993M17.9993 16.5744H17.9993M17.9993 16.5744H17.9993M17.9993 16.5744H17.9993M17.9993 16.5744H17.9993M17.9993 16.5744H17.9993M17.9993 16.5744H17.9994M17.9993 16.5744H17.9994M17.9994 16.5744H17.9994M17.9994 16.5744H17.9994M17.9994 16.5744H17.9994M17.9994 16.5744H17.9994M17.9994 16.5744H17.9994M17.9994 16.5744H17.9994M17.9994 16.5744H17.9994M17.9994 16.5744H17.9994M17.9994 16.5744H17.9994M17.9994 16.5744H17.9994M17.9994 16.5744H17.9995M17.9994 16.5744H17.9995M17.9995 16.5744H17.9995M17.9995 16.5744H17.9995M17.9995 16.5744H17.9995M17.9995 16.5744H17.9995M17.9995 16.5744H17.9995M17.9995 16.5744H17.9995M17.9995 16.5744H17.9995M17.9995 16.5744H17.9995M17.9995 16.5744H17.9996M17.9995 16.5744H17.9996M17.9996 16.5744H17.9996M17.9996 16.5744H17.9996M17.9996 16.5744H17.9996M17.9996 16.5744H17.9996M17.9996 16.5744H17.9996M17.9996 16.5744H17.9996M17.9996 16.5744H17.9996M17.9996 16.5744H17.9996M17.9996 16.5744H17.9996M17.9996 16.5744H17.9996M17.9996 16.5744H17.9997M17.9996 16.5744H17.9997M17.9997 16.5744H17.9997M17.9997 16.5744H17.9997M17.9997 16.5744H17.9997M17.9997 16.5744H17.9997M17.9997 16.5744H17.9997M17.9997 16.5744H17.9997M17.9997 16.5744H17.9997M17.9997 16.5744H17.9997M17.9997 16.5744H17.9997M17.9997 16.5744H17.9997M17.9997 16.5744H17.9998M17.9997 16.5744H17.9998M17.9998 16.5744H17.9998M17.9998 16.5744H17.9998M17.9998 16.5744H17.9998M17.9998 16.5744H17.9998M17.9998 16.5744H17.9998M17.9998 16.5744H17.9998M17.9998 16.5744H17.9998M17.9998 16.5744H17.9998M17.9998 16.5744H17.9998M17.9998 16.5744H17.9998M17.9998 16.5744H17.9999M17.9998 16.5744H17.9999M17.9999 16.5744H17.9999M17.9999 16.5744H17.9999M17.9999 16.5744H17.9999M17.9999 16.5744H17.9999M17.9999 16.5744H17.9999M17.9999 16.5744H17.9999M17.9999 16.5744H17.9999M17.9999 16.5744H17.9999M17.9999 16.5744H18M17.9999 16.5744H18M18 16.5744H18M18 16.5744H18M18 16.5744H18M18 16.5744H18M18 16.5744H18M18 16.5744H18M18 16.5744H18M18 16.5744H18M18 16.5744H18M18 16.5744H18M18 16.5744H18.0001M18 16.5744H18.0001M18.0001 16.5744H18.0001M18.0001 16.5744H18.0001M18.0001 16.5744H18.0001M18.0001 16.5744H18.0001M18.0001 16.5744H18.0001M18.0001 16.5744H18.0001M18.0001 16.5744H18.0001M18.0001 16.5744H18.0001M18.0001 16.5744C18.792 16.5744 19.4273 17.2094 19.4277 18.0012M18.0001 16.5744L19.4277 18.0012M19.4277 18.0012C19.4248 18.2407 19.6164 18.4374 19.8561 18.4408L19.4277 18.0012ZM7.30731 30.7444C7.30743 30.7445 7.30755 30.7446 7.30767 30.7446L7.30731 30.7444ZM23.9218 27.1389C23.9253 27.1359 23.9287 27.1331 23.9316 27.1306L23.9218 27.1389ZM18 13.533C15.5392 13.533 13.531 15.5411 13.531 18.002C13.531 20.4628 15.5392 22.4709 18 22.4709C20.4608 22.4709 22.469 20.4628 22.469 18.002C22.469 15.5411 20.4608 13.533 18 13.533ZM18 15.0226C19.6527 15.0226 20.9793 16.3492 20.9793 18.002C20.9793 19.6547 19.6527 20.9813 18 20.9813C16.3473 20.9813 15.0207 19.6547 15.0207 18.002C15.0207 16.3492 16.3473 15.0226 18 15.0226Z" fill="black" stroke="black" stroke-width="0.248276"/>
</g>
<defs>
<clipPath id="clip0_22_2256">
<rect width="36" height="36" fill="white"/>
</clipPath>
</defs>
</svg>
