<svg width="23" height="49" viewBox="0 0 23 49" fill="none" xmlns="http://www.w3.org/2000/svg">
<path d="M11.2461 48.9073L16.6355 39.5726H5.85672L11.2461 48.9073ZM10.3126 0.366943V4.41197H12.1796V0.366943L10.3126 0.366943ZM10.3126 12.502L10.3126 20.5921H12.1796L12.1796 12.502H10.3126ZM10.3126 28.6821L10.3126 36.7722H12.1796L12.1796 28.6821H10.3126ZM11.2461 48.9073L22.0249 30.2379H0.467337L11.2461 48.9073ZM9.37916 0.366943V4.41197H13.113V0.366943L9.37916 0.366943ZM9.37916 12.502L9.37916 20.5921H13.113L13.113 12.502H9.37916ZM9.37916 28.6821L9.37916 36.7722H13.113L13.113 28.6821H9.37916Z" fill="black"/>
</svg>
