<svg width="23" height="49" viewBox="0 0 23 49" fill="none" xmlns="http://www.w3.org/2000/svg">
<path d="M11.246 48.9073L16.6354 39.5726H5.85659L11.246 48.9073ZM10.3125 0.366943V4.41197H12.1794V0.366943L10.3125 0.366943ZM10.3125 12.502L10.3125 20.5921H12.1794L12.1794 12.502H10.3125ZM10.3125 28.6821L10.3125 36.7722H12.1794L12.1794 28.6821H10.3125ZM11.246 48.9073L22.0247 30.2379H0.467215L11.246 48.9073ZM9.37904 0.366943V4.41197H13.1129V0.366943L9.37904 0.366943ZM9.37904 12.502L9.37904 20.5921H13.1129L13.1129 12.502H9.37904ZM9.37904 28.6821L9.37904 36.7722H13.1129L13.1129 28.6821H9.37904Z" fill="black"/>
</svg>
