<svg width="84" height="74" viewBox="0 0 84 74" fill="none" xmlns="http://www.w3.org/2000/svg">
<path d="M83.508 73.113L79.9659 62.9328L72.9206 71.0905L83.508 73.113ZM0.75266 2.8759L3.68642 5.4096L4.90668 3.99666L1.97293 1.46296L0.75266 2.8759ZM9.55393 10.477L15.4214 15.5444L16.6417 14.1315L10.7742 9.06406L9.55393 10.477ZM21.2889 20.6118L27.1565 25.6792L28.3767 24.2662L22.5092 19.1989L21.2889 20.6118ZM33.024 30.7466L38.8915 35.814L40.1118 34.401L34.2442 29.3336L33.024 30.7466ZM44.759 40.8814L50.6265 45.9488L51.8468 44.5358L45.9793 39.4684L44.759 40.8814ZM56.494 51.0162L62.3615 56.0836L63.5818 54.6706L57.7143 49.6032L56.494 51.0162ZM68.229 61.151L74.0965 66.2183L75.3168 64.8054L69.4493 59.738L68.229 61.151ZM83.508 73.113L76.4238 52.7527L62.3333 69.0679L83.508 73.113ZM0.142527 3.58237L3.07628 6.11607L5.51682 3.29019L2.58306 0.756494L0.142527 3.58237ZM8.94379 11.1835L14.8113 16.2509L17.2518 13.425L11.3843 8.35759L8.94379 11.1835ZM20.6788 21.3183L26.5463 26.3857L28.9869 23.5598L23.1193 18.4924L20.6788 21.3183ZM32.4138 31.4531L38.2814 36.5205L40.7219 33.6946L34.8544 28.6272L32.4138 31.4531ZM44.1489 41.5878L50.0164 46.6552L52.4569 43.8294L46.5894 38.762L44.1489 41.5878ZM55.8839 51.7226L61.7514 56.79L64.1919 53.9642L58.3244 48.8968L55.8839 51.7226ZM67.6189 61.8574L73.4864 66.9248L75.9269 64.0989L70.0594 59.0315L67.6189 61.8574Z" fill="black"/>
</svg>
