<svg width="45" height="39" viewBox="0 0 45 39" fill="none" xmlns="http://www.w3.org/2000/svg">
<path d="M45 39L43.1027 33.5471L39.329 37.9167L45 39ZM0.67319 1.37841L2.24462 2.73555L2.89824 1.97873L1.32681 0.621588L0.67319 1.37841ZM5.38748 5.44984L8.53033 8.16413L9.18395 7.4073L6.0411 4.69302L5.38748 5.44984ZM11.6732 10.8784L14.816 13.5927L15.4697 12.8359L12.3268 10.1216L11.6732 10.8784ZM17.9589 16.307L21.1018 19.0213L21.7554 18.2644L18.6125 15.5502L17.9589 16.307ZM24.2446 21.7356L27.3875 24.4498L28.0411 23.693L24.8982 20.9787L24.2446 21.7356ZM30.5303 27.1641L33.6732 29.8784L34.3268 29.1216L31.184 26.4073L30.5303 27.1641ZM36.8161 32.5927L39.9589 35.307L40.6125 34.5502L37.4697 31.8359L36.8161 32.5927ZM45 39L41.2054 28.0943L33.6581 36.8333L45 39ZM0.34638 1.75682L1.91781 3.11397L3.22505 1.60032L1.65362 0.243177L0.34638 1.75682ZM5.06067 5.82825L8.20352 8.54254L9.51076 7.02889L6.36791 4.31461L5.06067 5.82825ZM11.3464 11.2568L14.4892 13.9711L15.7965 12.4575L12.6536 9.74318L11.3464 11.2568ZM17.6321 16.6854L20.775 19.3997L22.0822 17.886L18.9393 15.1717L17.6321 16.6854ZM23.9178 22.114L27.0607 24.8283L28.3679 23.3146L25.225 20.6003L23.9178 22.114ZM30.2035 27.5425L33.3464 30.2568L34.6536 28.7432L31.5108 26.0289L30.2035 27.5425ZM36.4892 32.9711L39.6321 35.6854L40.9393 34.1718L37.7965 31.4575L36.4892 32.9711Z" fill="black"/>
</svg>
