<svg width="30" height="30" viewBox="0 0 30 30" fill="none" xmlns="http://www.w3.org/2000/svg">
<path fill-rule="evenodd" clip-rule="evenodd" d="M28.8191 25.6496L21.3191 3.14961C21.1886 2.76152 20.9347 2.42678 20.5961 2.19655C20.2575 1.96632 19.8529 1.85328 19.4441 1.87462H10.5566C10.1635 1.87361 9.77995 1.99613 9.46032 2.22492C9.14069 2.45372 8.90107 2.7772 8.77527 3.14961L1.18155 25.6496C1.08308 25.9397 1.05716 26.2494 1.10614 26.5519C1.15512 26.8545 1.2775 27.1403 1.46251 27.3846C1.64751 27.6287 1.88958 27.8239 2.16746 27.9529C2.44535 28.0819 2.7506 28.1409 3.05656 28.1246H8.55029C8.94016 28.1218 9.3194 27.9973 9.6353 27.7688C9.9512 27.5404 10.188 27.219 10.3128 26.8496L11.4565 23.5121L17.0815 27.7684C17.4084 28.0052 17.803 28.1301 18.2066 28.1246H26.9816C27.2844 28.1346 27.5852 28.0708 27.858 27.9392C28.131 27.8074 28.3678 27.6116 28.5486 27.3683C28.7291 27.1251 28.848 26.8416 28.8951 26.5423C28.9423 26.2429 28.9162 25.9367 28.8191 25.6496ZM18.2815 26.8871C18.1453 26.8871 18.013 26.841 17.9065 26.7559L7.31283 18.8996L7.14404 18.7684H12.769L12.9191 18.3746L14.7941 13.6308L18.9941 26.0621C19.0279 26.1664 19.0341 26.2776 19.0123 26.3848C18.9906 26.4923 18.9416 26.5922 18.87 26.6753C18.7984 26.7581 18.7067 26.8211 18.6036 26.8583C18.5005 26.8954 18.3896 26.9053 18.2815 26.8871ZM27.0377 26.8871H20.0629C20.2029 26.4864 20.2029 26.0501 20.0629 25.6496L12.4691 3.14961H19.4441C19.5765 3.15027 19.7053 3.19215 19.8129 3.26942C19.9204 3.34671 20.0012 3.45559 20.0441 3.58088L27.6379 26.0809C27.6634 26.1743 27.6675 26.2723 27.6495 26.3676C27.6317 26.4628 27.5923 26.5526 27.5346 26.6304C27.4766 26.7081 27.402 26.7716 27.3159 26.8161C27.2299 26.8605 27.1346 26.8849 27.0377 26.8871Z" fill="black"/>
</svg>
