<svg width="57" height="57" viewBox="0 0 57 57" fill="none" xmlns="http://www.w3.org/2000/svg">
<path fill-rule="evenodd" clip-rule="evenodd" d="M53.8483 48.241L39.8463 6.23494C39.6026 5.5104 39.1287 4.88546 38.4965 4.45563C37.8643 4.0258 37.1089 3.81477 36.3458 3.85462H19.7533C19.0194 3.85272 18.3034 4.08146 17.7067 4.50859C17.1099 4.93576 16.6626 5.53967 16.4277 6.23494L2.25074 48.241C2.0669 48.7825 2.0185 49.3608 2.10994 49.9255C2.20139 50.4904 2.42986 51.0239 2.77526 51.48C3.12066 51.9358 3.57258 52.3002 4.09136 52.541C4.61017 52.7819 5.18005 52.8921 5.75126 52.8617H16.0077C16.7356 52.8564 17.4436 52.624 18.0333 52.1973C18.6231 51.7709 19.0653 51.1709 19.2982 50.4813L21.4334 44.2504L31.935 52.1966C32.5452 52.6387 33.282 52.8718 34.0354 52.8617H50.4178C50.9831 52.8802 51.5446 52.7612 52.0539 52.5155C52.5636 52.2694 53.0057 51.9039 53.3432 51.4496C53.6803 50.9956 53.9022 50.4663 53.9901 49.9076C54.0783 49.3486 54.0296 48.7769 53.8483 48.241ZM34.1753 50.5514C33.9209 50.5514 33.6739 50.4652 33.4752 50.3063L13.6974 35.6392L13.3823 35.3942H23.8838L24.1639 34.659L27.6644 25.8027L35.5057 49.0111C35.5687 49.2058 35.5802 49.4133 35.5396 49.6136C35.499 49.8141 35.4076 50.0007 35.2739 50.1558C35.1402 50.3105 34.969 50.4281 34.7765 50.4974C34.5841 50.5668 34.377 50.5853 34.1753 50.5514ZM50.5225 50.5514H37.5009C37.7624 49.8033 37.7624 48.9887 37.5009 48.241L23.3238 6.23494H36.3458C36.5929 6.23616 36.8334 6.31436 37.0343 6.45862C37.2349 6.60291 37.3858 6.80618 37.4659 7.04009L51.643 49.0461C51.6906 49.2205 51.6983 49.4035 51.6647 49.5814C51.6314 49.7592 51.5579 49.9269 51.4501 50.0721C51.3419 50.2171 51.2026 50.3357 51.0419 50.4187C50.8813 50.5016 50.7034 50.5472 50.5225 50.5514Z" fill="black"/>
</svg>
