<svg width="30" height="30" viewBox="0 0 30 30" fill="none" xmlns="http://www.w3.org/2000/svg">
<path fill-rule="evenodd" clip-rule="evenodd" d="M28.8193 25.6496L21.3193 3.14961C21.1888 2.76152 20.9349 2.42678 20.5963 2.19655C20.2577 1.96632 19.8531 1.85328 19.4443 1.87462H10.5568C10.1637 1.87361 9.78015 1.99613 9.46052 2.22492C9.14089 2.45372 8.90127 2.7772 8.77547 3.14961L1.18175 25.6496C1.08328 25.9397 1.05735 26.2494 1.10633 26.5519C1.15531 26.8545 1.27769 27.1403 1.4627 27.3846C1.64771 27.6287 1.88978 27.8239 2.16765 27.9529C2.44555 28.0819 2.7508 28.1409 3.05676 28.1246H8.55049C8.94036 28.1218 9.3196 27.9973 9.6355 27.7688C9.9514 27.5404 10.1882 27.219 10.313 26.8496L11.4567 23.5121L17.0817 27.7684C17.4086 28.0052 17.8032 28.1301 18.2068 28.1246H26.9818C27.2846 28.1346 27.5854 28.0708 27.8582 27.9392C28.1312 27.8074 28.368 27.6116 28.5488 27.3683C28.7293 27.1251 28.8482 26.8416 28.8953 26.5423C28.9425 26.2429 28.9164 25.9367 28.8193 25.6496ZM18.2817 26.8871C18.1455 26.8871 18.0132 26.841 17.9067 26.7559L7.31303 18.8996L7.14424 18.7684H12.7692L12.9193 18.3746L14.7943 13.6308L18.9943 26.0621C19.0281 26.1664 19.0343 26.2776 19.0125 26.3848C18.9908 26.4923 18.9418 26.5922 18.8702 26.6753C18.7986 26.7581 18.7069 26.8211 18.6038 26.8583C18.5007 26.8954 18.3898 26.9053 18.2817 26.8871ZM27.0379 26.8871H20.0631C20.2031 26.4864 20.2031 26.0501 20.0631 25.6496L12.4693 3.14961H19.4443C19.5767 3.15027 19.7055 3.19215 19.8131 3.26942C19.9206 3.34671 20.0014 3.45559 20.0443 3.58088L27.6381 26.0809C27.6636 26.1743 27.6677 26.2723 27.6497 26.3676C27.6319 26.4628 27.5925 26.5526 27.5348 26.6304C27.4768 26.7081 27.4022 26.7716 27.3161 26.8161C27.2301 26.8605 27.1348 26.8849 27.0379 26.8871Z" fill="black"/>
</svg>
