<svg width="85" height="84" viewBox="0 0 85 84" fill="none" xmlns="http://www.w3.org/2000/svg">
<g clip-path="url(#clip0_43_3526)">
<path d="M31.8771 53.4364L31.2835 59.0422C31.2356 59.4946 31.3819 59.9459 31.6863 60.284C31.9905 60.6222 32.424 60.8151 32.879 60.8151H49.8406C50.2953 60.8151 50.7289 60.622 51.0333 60.284C51.3374 59.9459 51.4837 59.4946 51.436 59.0422L50.8425 53.4364H71.9698C75.2582 53.4364 77.9333 50.7612 77.9333 47.4729V6.14388C77.9331 2.85554 75.2577 0.18042 71.9696 0.18042H9.46638C6.17805 0.18042 3.50293 2.85554 3.50293 6.14388V47.4729C3.50293 50.7612 6.17805 53.4364 9.46638 53.4364H31.8771ZM48.0574 57.607H34.6617L35.1032 53.4364H47.6157L48.0574 57.607ZM9.46638 3.38876H71.9696C73.4889 3.38876 74.7247 4.62462 74.7247 6.14388V42.5284H6.71127V6.14388C6.71127 4.62462 7.94713 3.38876 9.46638 3.38876ZM6.71127 47.4729V45.7368H74.7245V47.4729C74.7245 48.9922 73.4887 50.228 71.9694 50.228H9.46638C7.94713 50.228 6.71127 48.9922 6.71127 47.4729Z" fill="black"/>
<path d="M71.925 71.5928C72.2159 71.1137 72.2358 70.5176 71.9772 70.0203L68.8088 63.9246C68.5327 63.3935 67.9841 63.0603 67.3854 63.0603H14.0499C13.4514 63.0603 12.9026 63.3935 12.6265 63.9246L9.45811 70.0203C9.19973 70.5176 9.21941 71.1137 9.5103 71.5928C9.80119 72.0719 10.3212 72.3643 10.8815 72.3643H70.5537C71.1141 72.3645 71.6341 72.0719 71.925 71.5928ZM13.5233 69.1562L15.0239 66.2689H66.4111L67.912 69.1562H13.5233Z" fill="black"/>
<path d="M74.7249 75.2517H72.1582C68.4434 75.2517 65.4209 78.274 65.4209 81.989C65.4209 82.8749 66.1391 83.5932 67.0251 83.5932H79.8578C80.7437 83.5932 81.462 82.8749 81.462 81.989C81.4622 78.2742 78.4399 75.2517 74.7249 75.2517ZM69.0155 80.3848C69.6005 79.2433 70.7897 78.4601 72.1582 78.4601H74.7249C76.0933 78.4601 77.2826 79.2433 77.8678 80.3848H69.0155Z" fill="black"/>
</g>
<defs>
<clipPath id="clip0_43_3526">
<rect width="83.4129" height="83.4129" fill="white" transform="translate(0.775879 0.18042)"/>
</clipPath>
</defs>
</svg>
