<svg width="85" height="84" viewBox="0 0 85 84" fill="none" xmlns="http://www.w3.org/2000/svg">
<g clip-path="url(#clip0_41_2131)">
<path d="M31.7587 53.5609L31.1651 59.1667C31.1172 59.6191 31.2635 60.0704 31.5679 60.4085C31.872 60.7467 32.3056 60.9396 32.7605 60.9396H49.7222C50.1769 60.9396 50.6105 60.7465 50.9148 60.4085C51.219 60.0704 51.3653 59.6191 51.3176 59.1667L50.7241 53.5609H71.8514C75.1398 53.5609 77.8149 50.8857 77.8149 47.5974V6.26839C77.8147 2.98005 75.1393 0.304932 71.8512 0.304932H9.34798C6.05964 0.304932 3.38452 2.98005 3.38452 6.26839V47.5974C3.38452 50.8857 6.05964 53.5609 9.34798 53.5609H31.7587ZM47.939 57.7315H34.5433L34.9848 53.5609H47.4973L47.939 57.7315ZM9.34798 3.51328H71.8512C73.3705 3.51328 74.6063 4.74913 74.6063 6.26839V42.6529H6.59286V6.26839C6.59286 4.74913 7.82872 3.51328 9.34798 3.51328ZM6.59286 47.5974V45.8613H74.6061V47.5974C74.6061 49.1167 73.3703 50.3525 71.851 50.3525H9.34798C7.82872 50.3525 6.59286 49.1167 6.59286 47.5974Z" fill="black"/>
<path d="M71.8066 71.7173C72.0975 71.2382 72.1174 70.6421 71.8588 70.1448L68.6904 64.0491C68.4143 63.5181 67.8657 63.1848 67.267 63.1848H13.9315C13.333 63.1848 12.7842 63.5181 12.508 64.0491L9.3397 70.1448C9.08132 70.6421 9.101 71.2382 9.39189 71.7173C9.68278 72.1964 10.2027 72.4888 10.7631 72.4888H70.4353C70.9957 72.489 71.5157 72.1964 71.8066 71.7173ZM13.4049 69.2807L14.9055 66.3934H66.2927L67.7936 69.2807H13.4049Z" fill="black"/>
<path d="M74.6062 75.3762H72.0396C68.3247 75.3762 65.3022 78.3985 65.3022 82.1135C65.3022 82.9995 66.0205 83.7177 66.9064 83.7177H79.7391C80.6251 83.7177 81.3433 82.9995 81.3433 82.1135C81.3435 78.3987 78.3213 75.3762 74.6062 75.3762ZM68.8969 80.5094C69.4819 79.3678 70.6711 78.5846 72.0396 78.5846H74.6062C75.9747 78.5846 77.1639 79.3678 77.7491 80.5094H68.8969Z" fill="black"/>
</g>
<defs>
<clipPath id="clip0_41_2131">
<rect width="83.4129" height="83.4129" fill="white" transform="translate(0.657715 0.304932)"/>
</clipPath>
</defs>
</svg>
