<svg width="85" height="85" viewBox="0 0 85 85" fill="none" xmlns="http://www.w3.org/2000/svg">
<g clip-path="url(#clip0_43_3561)">
<path d="M32.018 53.9364L31.4244 59.5422C31.3765 59.9946 31.5228 60.4459 31.8272 60.784C32.1313 61.1222 32.5649 61.3151 33.0198 61.3151H49.9815C50.4362 61.3151 50.8698 61.122 51.1741 60.784C51.4783 60.4459 51.6246 59.9946 51.5769 59.5422L50.9833 53.9364H72.1107C75.399 53.9364 78.0742 51.2612 78.0742 47.9729V6.64388C78.0739 3.35554 75.3986 0.68042 72.1105 0.68042H9.60725C6.31892 0.68042 3.6438 3.35554 3.6438 6.64388V47.9729C3.6438 51.2612 6.31892 53.9364 9.60725 53.9364H32.018ZM48.1983 58.107H34.8026L35.2441 53.9364H47.7566L48.1983 58.107ZM9.60725 3.88876H72.1105C73.6297 3.88876 74.8656 5.12462 74.8656 6.64388V43.0284H6.85214V6.64388C6.85214 5.12462 8.088 3.88876 9.60725 3.88876ZM6.85214 47.9729V46.2368H74.8654V47.9729C74.8654 49.4922 73.6295 50.728 72.1103 50.728H9.60725C8.088 50.728 6.85214 49.4922 6.85214 47.9729Z" fill="black"/>
<path d="M72.0658 72.0928C72.3567 71.6137 72.3766 71.0176 72.118 70.5203L68.9497 64.4246C68.6736 63.8935 68.1249 63.5603 67.5263 63.5603H14.1908C13.5923 63.5603 13.0435 63.8935 12.7673 64.4246L9.59898 70.5203C9.3406 71.0176 9.36027 71.6137 9.65116 72.0928C9.94205 72.5719 10.462 72.8643 11.0224 72.8643H70.6946C71.255 72.8645 71.775 72.5719 72.0658 72.0928ZM13.6642 69.6562L15.1648 66.7689H66.552L68.0529 69.6562H13.6642Z" fill="black"/>
<path d="M74.8655 75.7517H72.2988C68.584 75.7517 65.5615 78.774 65.5615 82.489C65.5615 83.3749 66.2798 84.0932 67.1657 84.0932H79.9984C80.8844 84.0932 81.6026 83.3749 81.6026 82.489C81.6028 78.7742 78.5806 75.7517 74.8655 75.7517ZM69.1562 80.8848C69.7411 79.7433 70.9304 78.9601 72.2988 78.9601H74.8655C76.234 78.9601 77.4232 79.7433 78.0084 80.8848H69.1562Z" fill="black"/>
</g>
<defs>
<clipPath id="clip0_43_3561">
<rect width="83.4129" height="83.4129" fill="white" transform="translate(0.916992 0.68042)"/>
</clipPath>
</defs>
</svg>
