<svg width="85" height="85" viewBox="0 0 85 85" fill="none" xmlns="http://www.w3.org/2000/svg">
<g clip-path="url(#clip0_43_3551)">
<path d="M31.7584 53.9364L31.1649 59.5422C31.117 59.9946 31.2633 60.4459 31.5676 60.784C31.8718 61.1222 32.3054 61.3151 32.7603 61.3151H49.722C50.1767 61.3151 50.6102 61.122 50.9146 60.784C51.2188 60.4459 51.3651 59.9946 51.3174 59.5422L50.7238 53.9364H71.8512C75.1395 53.9364 77.8146 51.2612 77.8146 47.9729V6.64388C77.8144 3.35554 75.1391 0.68042 71.851 0.68042H9.34773C6.05939 0.68042 3.38428 3.35554 3.38428 6.64388V47.9729C3.38428 51.2612 6.05939 53.9364 9.34773 53.9364H31.7584ZM47.9388 58.107H34.5431L34.9845 53.9364H47.4971L47.9388 58.107ZM9.34773 3.88876H71.851C73.3702 3.88876 74.6061 5.12462 74.6061 6.64388V43.0284H6.59262V6.64388C6.59262 5.12462 7.82847 3.88876 9.34773 3.88876ZM6.59262 47.9729V46.2368H74.6059V47.9729C74.6059 49.4922 73.37 50.728 71.8508 50.728H9.34773C7.82847 50.728 6.59262 49.4922 6.59262 47.9729Z" fill="black"/>
<path d="M71.8063 72.0928C72.0972 71.6137 72.1171 71.0176 71.8585 70.5203L68.6902 64.4246C68.414 63.8935 67.8654 63.5603 67.2667 63.5603H13.9312C13.3328 63.5603 12.7839 63.8935 12.5078 64.4246L9.33945 70.5203C9.08107 71.0176 9.10075 71.6137 9.39164 72.0928C9.68253 72.5719 10.2025 72.8643 10.7629 72.8643H70.4351C70.9955 72.8645 71.5154 72.5719 71.8063 72.0928ZM13.4046 69.6562L14.9053 66.7689H66.2925L67.7933 69.6562H13.4046Z" fill="black"/>
<path d="M74.6062 75.7517H72.0396C68.3247 75.7517 65.3022 78.774 65.3022 82.489C65.3022 83.3749 66.0205 84.0932 66.9064 84.0932H79.7391C80.6251 84.0932 81.3433 83.3749 81.3433 82.489C81.3435 78.7742 78.3213 75.7517 74.6062 75.7517ZM68.8969 80.8848C69.4819 79.7433 70.6711 78.9601 72.0396 78.9601H74.6062C75.9747 78.9601 77.1639 79.7433 77.7491 80.8848H68.8969Z" fill="black"/>
</g>
<defs>
<clipPath id="clip0_43_3551">
<rect width="83.4129" height="83.4129" fill="white" transform="translate(0.657715 0.68042)"/>
</clipPath>
</defs>
</svg>
