<svg width="84" height="84" viewBox="0 0 84 84" fill="none" xmlns="http://www.w3.org/2000/svg">
<g clip-path="url(#clip0_41_2121)">
<path d="M31.5346 53.5609L30.941 59.1667C30.8931 59.6191 31.0394 60.0704 31.3438 60.4085C31.6479 60.7467 32.0815 60.9396 32.5364 60.9396H49.4981C49.9528 60.9396 50.3864 60.7465 50.6907 60.4085C50.9949 60.0704 51.1412 59.6191 51.0935 59.1667L50.4999 53.5609H71.6273C74.9156 53.5609 77.5908 50.8857 77.5908 47.5974V6.26839C77.5905 2.98005 74.9152 0.304932 71.6271 0.304932H9.12386C5.83552 0.304932 3.1604 2.98005 3.1604 6.26839V47.5974C3.1604 50.8857 5.83552 53.5609 9.12386 53.5609H31.5346ZM47.7149 57.7315H34.3192L34.7607 53.5609H47.2732L47.7149 57.7315ZM9.12386 3.51328H71.6271C73.1463 3.51328 74.3822 4.74913 74.3822 6.26839V42.6529H6.36874V6.26839C6.36874 4.74913 7.6046 3.51328 9.12386 3.51328ZM6.36874 47.5974V45.8613H74.382V47.5974C74.382 49.1167 73.1461 50.3525 71.6269 50.3525H9.12386C7.6046 50.3525 6.36874 49.1167 6.36874 47.5974Z" fill="black"/>
<path d="M71.5824 71.7173C71.8733 71.2382 71.8932 70.6421 71.6346 70.1448L68.4663 64.0491C68.1902 63.5181 67.6415 63.1848 67.0429 63.1848H13.7074C13.1089 63.1848 12.5601 63.5181 12.2839 64.0491L9.11558 70.1448C8.8572 70.6421 8.87688 71.2382 9.16777 71.7173C9.45866 72.1964 9.97862 72.4888 10.539 72.4888H70.2112C70.7716 72.489 71.2916 72.1964 71.5824 71.7173ZM13.1808 69.2807L14.6814 66.3934H66.0686L67.5695 69.2807H13.1808Z" fill="black"/>
<path d="M74.3822 75.3762H71.8156C68.1007 75.3762 65.0782 78.3985 65.0782 82.1135C65.0782 82.9995 65.7965 83.7177 66.6824 83.7177H79.5151C80.4011 83.7177 81.1193 82.9995 81.1193 82.1135C81.1195 78.3987 78.0973 75.3762 74.3822 75.3762ZM68.6729 80.5094C69.2579 79.3678 70.4471 78.5846 71.8156 78.5846H74.3822C75.7507 78.5846 76.9399 79.3678 77.5251 80.5094H68.6729Z" fill="black"/>
</g>
<defs>
<clipPath id="clip0_41_2121">
<rect width="83.4129" height="83.4129" fill="white" transform="translate(0.433594 0.304932)"/>
</clipPath>
</defs>
</svg>
