<svg width="55" height="55" viewBox="0 0 55 55" fill="none" xmlns="http://www.w3.org/2000/svg">
<path d="M20.5071 35.1154L20.1158 38.8117C20.0842 39.11 20.1806 39.4076 20.3813 39.6306C20.5819 39.8535 20.8677 39.9807 21.1677 39.9807H32.3517C32.6516 39.9807 32.9375 39.8534 33.1381 39.6306C33.3387 39.4076 33.4352 39.11 33.4037 38.8117L33.0123 35.1154H46.9431C49.1113 35.1154 50.8752 33.3515 50.8752 31.1833V3.93213C50.8751 1.76389 49.1111 0 46.943 0H5.73016C3.56193 0 1.79803 1.76389 1.79803 3.93213V31.1833C1.79803 33.3515 3.56193 35.1154 5.73016 35.1154H20.5071ZM31.176 37.8654H22.3432L22.6343 35.1154H30.8847L31.176 37.8654ZM5.73016 2.11549H46.943C47.9447 2.11549 48.7596 2.93037 48.7596 3.93213V27.923H3.91352V3.93213C3.91352 2.93037 4.72841 2.11549 5.73016 2.11549ZM3.91352 31.1833V30.0385H48.7595V31.1833C48.7595 32.185 47.9446 32.9999 46.9428 32.9999H5.73016C4.72841 32.9999 3.91352 32.185 3.91352 31.1833Z" fill="black"/>
<path d="M46.9135 47.0873C47.1054 46.7713 47.1185 46.3783 46.948 46.0504L44.8588 42.0311C44.6768 41.6809 44.315 41.4612 43.9203 41.4612H8.75241C8.3578 41.4612 7.99591 41.6809 7.81383 42.0311L5.72472 46.0504C5.55435 46.3783 5.56733 46.7713 5.75913 47.0873C5.95094 47.4032 6.29379 47.596 6.66329 47.596H46.0094C46.3789 47.5961 46.7217 47.4032 46.9135 47.0873ZM8.40518 45.4806L9.39467 43.5768H43.2779L44.2675 45.4806H8.40518Z" fill="black"/>
<path d="M48.7596 49.4998H47.0672C44.6177 49.4998 42.6248 51.4925 42.6248 53.9421C42.6248 54.5263 43.0984 54.9999 43.6826 54.9999H52.1441C52.7282 54.9999 53.2018 54.5263 53.2018 53.9421C53.202 51.4927 51.2092 49.4998 48.7596 49.4998ZM44.995 52.8844C45.3807 52.1317 46.1649 51.6152 47.0672 51.6152H48.7596C49.6619 51.6152 50.4461 52.1317 50.8319 52.8844H44.995Z" fill="black"/>
<path d="M33.3297 12C32.4554 12 31.7462 12.7091 31.7462 13.5835C31.7462 13.7128 31.7663 13.8371 31.7958 13.9578L29.514 15.9486C29.3308 15.8747 29.1311 15.8315 28.9213 15.8315C28.6181 15.8315 28.3372 15.9213 28.0965 16.0693L24.3569 13.7171C24.3605 13.6726 24.3706 13.6295 24.3706 13.5835C24.3706 12.7091 23.6615 12 22.7871 12C21.9127 12 21.2036 12.7091 21.2036 13.5835C21.2036 13.8112 21.2539 14.0268 21.3401 14.2229L19.9535 15.8804C19.8342 15.8517 19.7114 15.8322 19.5835 15.8322C18.7091 15.8322 18 16.5413 18 17.4157C18 18.2901 18.7091 18.9992 19.5835 18.9992C20.4578 18.9992 21.167 18.2901 21.167 17.4157C21.167 17.2023 21.1231 16.999 21.047 16.8129L22.4544 15.1311C22.5622 15.1541 22.6728 15.1677 22.7871 15.1677C23.0853 15.1677 23.3604 15.0808 23.5982 14.9378L27.35 17.298C27.3471 17.3375 27.3378 17.3756 27.3378 17.4165C27.3378 18.2909 28.0469 19 28.9213 19C29.7956 19 30.5048 18.2909 30.5048 17.4165C30.5048 17.285 30.4839 17.1593 30.4538 17.0365L32.732 15.0492C32.9166 15.1247 33.1185 15.1678 33.3304 15.1678C34.2048 15.1678 34.9139 14.4587 34.9139 13.5843C34.9139 12.7098 34.204 12 33.3297 12Z" fill="black"/>
</svg>
