<svg width="84" height="85" viewBox="0 0 84 85" fill="none" xmlns="http://www.w3.org/2000/svg">
<g clip-path="url(#clip0_41_2156)">
<path d="M31.6757 54.0838L31.0821 59.6896C31.0342 60.142 31.1805 60.5933 31.4849 60.9315C31.789 61.2696 32.2226 61.4626 32.6775 61.4626H49.6392C50.0939 61.4626 50.5275 61.2694 50.8318 60.9315C51.136 60.5933 51.2823 60.142 51.2346 59.6896L50.641 54.0838H71.7684C75.0568 54.0838 77.7319 51.4087 77.7319 48.1204V6.79134C77.7317 3.503 75.0563 0.827881 71.7682 0.827881H9.26497C5.97663 0.827881 3.30151 3.503 3.30151 6.79134V48.1204C3.30151 51.4087 5.97663 54.0838 9.26497 54.0838H31.6757ZM47.856 58.2544H34.4603L34.9018 54.0838H47.4143L47.856 58.2544ZM9.26497 4.03622H71.7682C73.2875 4.03622 74.5233 5.27208 74.5233 6.79134V43.1759H6.50986V6.79134C6.50986 5.27208 7.74571 4.03622 9.26497 4.03622ZM6.50986 48.1204V46.3842H74.5231V48.1204C74.5231 49.6396 73.2872 50.8755 71.768 50.8755H9.26497C7.74571 50.8755 6.50986 49.6396 6.50986 48.1204Z" fill="black"/>
<path d="M71.7236 72.2402C72.0145 71.7611 72.0343 71.165 71.7758 70.6677L68.6074 64.5721C68.3313 64.041 67.7826 63.7078 67.184 63.7078H13.8485C13.25 63.7078 12.7012 64.041 12.425 64.5721L9.25669 70.6677C8.99831 71.165 9.01799 71.7611 9.30888 72.2402C9.59977 72.7194 10.1197 73.0117 10.6801 73.0117H70.3523C70.9127 73.012 71.4327 72.7194 71.7236 72.2402ZM13.3219 69.8036L14.8225 66.9163H66.2097L67.7106 69.8036H13.3219Z" fill="black"/>
<path d="M74.5232 75.8989H71.9565C68.2417 75.8989 65.2192 78.9212 65.2192 82.6362C65.2192 83.5222 65.9375 84.2404 66.8234 84.2404H79.6561C80.5421 84.2404 81.2603 83.5222 81.2603 82.6362C81.2605 78.9214 78.2383 75.8989 74.5232 75.8989ZM68.8139 81.0321C69.3989 79.8905 70.5881 79.1073 71.9565 79.1073H74.5232C75.8917 79.1073 77.0809 79.8905 77.6661 81.0321H68.8139Z" fill="black"/>
<path d="M51.1224 19.0269C49.7964 19.0269 48.7209 20.1023 48.7209 21.4284C48.7209 21.6245 48.7514 21.813 48.7961 21.9961L45.3355 25.0154C45.0577 24.9031 44.7548 24.8377 44.4366 24.8377C43.9768 24.8377 43.5508 24.9739 43.1857 25.1984L37.5143 21.631C37.5197 21.5635 37.535 21.4981 37.535 21.4284C37.535 20.1023 36.4596 19.0269 35.1335 19.0269C33.8075 19.0269 32.732 20.1023 32.732 21.4284C32.732 21.7738 32.8083 22.1007 32.939 22.3981L30.8361 24.9118C30.6552 24.8683 30.4689 24.8388 30.2749 24.8388C28.9489 24.8388 27.8734 25.9142 27.8734 27.2403C27.8734 28.5663 28.9488 29.6418 30.2749 29.6418C31.6009 29.6418 32.6764 28.5664 32.6764 27.2403C32.6764 26.9167 32.61 26.6084 32.4945 26.3262L34.629 23.7754C34.7924 23.8103 34.9602 23.831 35.1335 23.831C35.5857 23.831 36.003 23.6992 36.3637 23.4823L42.0536 27.0617C42.0493 27.1216 42.0351 27.1794 42.0351 27.2415C42.0351 28.5676 43.1105 29.643 44.4366 29.643C45.7626 29.643 46.8381 28.5676 46.8381 27.2415C46.8381 27.0421 46.8065 26.8514 46.7608 26.6652L50.2159 23.6513C50.4959 23.7658 50.8021 23.8311 51.1235 23.8311C52.4496 23.8311 53.525 22.7557 53.525 21.4296C53.525 20.1034 52.4484 19.0269 51.1224 19.0269Z" fill="black"/>
</g>
<defs>
<clipPath id="clip0_41_2156">
<rect width="83.4129" height="83.4129" fill="white" transform="translate(0.574707 0.827881)"/>
</clipPath>
</defs>
</svg>
