<svg width="85" height="84" viewBox="0 0 85 84" fill="none" xmlns="http://www.w3.org/2000/svg">
<g clip-path="url(#clip0_41_2116)">
<path d="M31.8768 53.4364L31.2833 59.0422C31.2354 59.4946 31.3817 59.9459 31.6861 60.284C31.9902 60.6222 32.4238 60.8151 32.8787 60.8151H49.8404C50.2951 60.8151 50.7286 60.622 51.033 60.284C51.3372 59.9459 51.4835 59.4946 51.4358 59.0422L50.8422 53.4364H71.9696C75.2579 53.4364 77.933 50.7612 77.933 47.4729V6.14388C77.9328 2.85554 75.2575 0.18042 71.9694 0.18042H9.46614C6.1778 0.18042 3.50269 2.85554 3.50269 6.14388V47.4729C3.50269 50.7612 6.1778 53.4364 9.46614 53.4364H31.8768ZM48.0572 57.607H34.6615L35.1029 53.4364H47.6155L48.0572 57.607ZM9.46614 3.38876H71.9694C73.4886 3.38876 74.7245 4.62462 74.7245 6.14388V42.5284H6.71103V6.14388C6.71103 4.62462 7.94688 3.38876 9.46614 3.38876ZM6.71103 47.4729V45.7368H74.7243V47.4729C74.7243 48.9922 73.4884 50.228 71.9692 50.228H9.46614C7.94688 50.228 6.71103 48.9922 6.71103 47.4729Z" fill="black"/>
<path d="M71.9249 71.5928C72.2157 71.1137 72.2356 70.5176 71.977 70.0203L68.8087 63.9246C68.5326 63.3935 67.9839 63.0603 67.3853 63.0603H14.0498C13.4513 63.0603 12.9025 63.3935 12.6263 63.9246L9.45798 70.0203C9.19961 70.5176 9.21928 71.1137 9.51017 71.5928C9.80106 72.0719 10.321 72.3643 10.8814 72.3643H70.5536C71.114 72.3645 71.634 72.0719 71.9249 71.5928ZM13.5232 69.1562L15.0238 66.2689H66.411L67.9119 69.1562H13.5232Z" fill="black"/>
<path d="M74.7245 75.2517H72.1578C68.443 75.2517 65.4205 78.274 65.4205 81.989C65.4205 82.8749 66.1388 83.5932 67.0247 83.5932H79.8574C80.7434 83.5932 81.4616 82.8749 81.4616 81.989C81.4618 78.2742 78.4396 75.2517 74.7245 75.2517ZM69.0152 80.3848C69.6001 79.2433 70.7894 78.4601 72.1578 78.4601H74.7245C76.093 78.4601 77.2822 79.2433 77.8674 80.3848H69.0152Z" fill="black"/>
</g>
<defs>
<clipPath id="clip0_41_2116">
<rect width="83.4129" height="83.4129" fill="white" transform="translate(0.775879 0.18042)"/>
</clipPath>
</defs>
</svg>
