<svg width="85" height="85" viewBox="0 0 85 85" fill="none" xmlns="http://www.w3.org/2000/svg">
<g clip-path="url(#clip0_41_2141)">
<path d="M31.7587 53.9364L31.1651 59.5422C31.1172 59.9946 31.2635 60.4459 31.5679 60.784C31.872 61.1222 32.3056 61.3151 32.7605 61.3151H49.7222C50.1769 61.3151 50.6105 61.122 50.9148 60.784C51.219 60.4459 51.3653 59.9946 51.3176 59.5422L50.7241 53.9364H71.8514C75.1398 53.9364 77.8149 51.2612 77.8149 47.9729V6.64388C77.8147 3.35554 75.1393 0.68042 71.8512 0.68042H9.34798C6.05964 0.68042 3.38452 3.35554 3.38452 6.64388V47.9729C3.38452 51.2612 6.05964 53.9364 9.34798 53.9364H31.7587ZM47.939 58.107H34.5433L34.9848 53.9364H47.4973L47.939 58.107ZM9.34798 3.88876H71.8512C73.3705 3.88876 74.6063 5.12462 74.6063 6.64388V43.0284H6.59286V6.64388C6.59286 5.12462 7.82872 3.88876 9.34798 3.88876ZM6.59286 47.9729V46.2368H74.6061V47.9729C74.6061 49.4922 73.3703 50.728 71.851 50.728H9.34798C7.82872 50.728 6.59286 49.4922 6.59286 47.9729Z" fill="black"/>
<path d="M71.8066 72.0928C72.0975 71.6137 72.1174 71.0176 71.8588 70.5203L68.6904 64.4246C68.4143 63.8935 67.8657 63.5603 67.267 63.5603H13.9315C13.333 63.5603 12.7842 63.8935 12.508 64.4246L9.3397 70.5203C9.08132 71.0176 9.101 71.6137 9.39189 72.0928C9.68278 72.5719 10.2027 72.8643 10.7631 72.8643H70.4353C70.9957 72.8645 71.5157 72.5719 71.8066 72.0928ZM13.4049 69.6562L14.9055 66.7689H66.2927L67.7936 69.6562H13.4049Z" fill="black"/>
<path d="M74.6062 75.7517H72.0396C68.3247 75.7517 65.3022 78.774 65.3022 82.489C65.3022 83.3749 66.0205 84.0932 66.9064 84.0932H79.7391C80.6251 84.0932 81.3433 83.3749 81.3433 82.489C81.3435 78.7742 78.3213 75.7517 74.6062 75.7517ZM68.8969 80.8848C69.4819 79.7433 70.6711 78.9601 72.0396 78.9601H74.6062C75.9747 78.9601 77.1639 79.7433 77.7491 80.8848H68.8969Z" fill="black"/>
</g>
<defs>
<clipPath id="clip0_41_2141">
<rect width="83.4129" height="83.4129" fill="white" transform="translate(0.657715 0.68042)"/>
</clipPath>
</defs>
</svg>
