<svg width="55" height="55" viewBox="0 0 55 55" fill="none" xmlns="http://www.w3.org/2000/svg">
<path d="M20.5069 35.1154L20.1156 38.8117C20.084 39.11 20.1805 39.4076 20.3811 39.6306C20.5817 39.8535 20.8676 39.9807 21.1675 39.9807H32.3516C32.6514 39.9807 32.9373 39.8534 33.138 39.6306C33.3385 39.4076 33.435 39.11 33.4035 38.8117L33.0122 35.1154H46.9429C49.1112 35.1154 50.8751 33.3515 50.8751 31.1833V3.93213C50.8749 1.76389 49.1109 0 46.9428 0H5.72998C3.56175 0 1.79785 1.76389 1.79785 3.93213V31.1833C1.79785 33.3515 3.56175 35.1154 5.72998 35.1154H20.5069ZM31.1758 37.8654H22.343L22.6341 35.1154H30.8845L31.1758 37.8654ZM5.72998 2.11549H46.9428C47.9445 2.11549 48.7594 2.93037 48.7594 3.93213V27.923H3.91334V3.93213C3.91334 2.93037 4.72823 2.11549 5.72998 2.11549ZM3.91334 31.1833V30.0385H48.7593V31.1833C48.7593 32.185 47.9444 32.9999 46.9426 32.9999H5.72998C4.72823 32.9999 3.91334 32.185 3.91334 31.1833Z" fill="black"/>
<path d="M46.9135 47.0873C47.1053 46.7713 47.1184 46.3783 46.9479 46.0504L44.8588 42.0311C44.6767 41.6809 44.315 41.4612 43.9202 41.4612H8.75234C8.35774 41.4612 7.99585 41.6809 7.81377 42.0311L5.72466 46.0504C5.55429 46.3783 5.56727 46.7713 5.75907 47.0873C5.95087 47.4032 6.29372 47.596 6.66323 47.596H46.0093C46.3788 47.5961 46.7217 47.4032 46.9135 47.0873ZM8.40512 45.4806L9.39461 43.5768H43.2778L44.2674 45.4806H8.40512Z" fill="black"/>
<path d="M48.7598 49.4999H47.0674C44.6179 49.4999 42.625 51.4927 42.625 53.9423C42.625 54.5264 43.0986 55 43.6827 55H52.1443C52.7284 55 53.202 54.5264 53.202 53.9423C53.2022 51.4928 51.2094 49.4999 48.7598 49.4999ZM44.9952 52.8845C45.3809 52.1318 46.1651 51.6154 47.0674 51.6154H48.7598C49.6621 51.6154 50.4462 52.1318 50.8321 52.8845H44.9952Z" fill="black"/>
</svg>
