<svg width="85" height="84" viewBox="0 0 85 84" fill="none" xmlns="http://www.w3.org/2000/svg">
<g clip-path="url(#clip0_43_3541)">
<path d="M31.7584 53.5609L31.1649 59.1667C31.117 59.6191 31.2633 60.0704 31.5676 60.4085C31.8718 60.7467 32.3054 60.9396 32.7603 60.9396H49.722C50.1767 60.9396 50.6102 60.7465 50.9146 60.4085C51.2188 60.0704 51.3651 59.6191 51.3174 59.1667L50.7238 53.5609H71.8512C75.1395 53.5609 77.8146 50.8857 77.8146 47.5974V6.26839C77.8144 2.98005 75.1391 0.304932 71.851 0.304932H9.34773C6.05939 0.304932 3.38428 2.98005 3.38428 6.26839V47.5974C3.38428 50.8857 6.05939 53.5609 9.34773 53.5609H31.7584ZM47.9388 57.7315H34.5431L34.9845 53.5609H47.4971L47.9388 57.7315ZM9.34773 3.51328H71.851C73.3702 3.51328 74.6061 4.74913 74.6061 6.26839V42.6529H6.59262V6.26839C6.59262 4.74913 7.82847 3.51328 9.34773 3.51328ZM6.59262 47.5974V45.8613H74.6059V47.5974C74.6059 49.1167 73.37 50.3525 71.8508 50.3525H9.34773C7.82847 50.3525 6.59262 49.1167 6.59262 47.5974Z" fill="black"/>
<path d="M71.8063 71.7173C72.0972 71.2382 72.1171 70.6421 71.8585 70.1448L68.6902 64.0491C68.414 63.5181 67.8654 63.1848 67.2667 63.1848H13.9312C13.3328 63.1848 12.7839 63.5181 12.5078 64.0491L9.33945 70.1448C9.08107 70.6421 9.10075 71.2382 9.39164 71.7173C9.68253 72.1964 10.2025 72.4888 10.7629 72.4888H70.4351C70.9955 72.489 71.5154 72.1964 71.8063 71.7173ZM13.4046 69.2807L14.9053 66.3934H66.2925L67.7933 69.2807H13.4046Z" fill="black"/>
<path d="M74.6062 75.3762H72.0396C68.3247 75.3762 65.3022 78.3985 65.3022 82.1135C65.3022 82.9995 66.0205 83.7177 66.9064 83.7177H79.7391C80.6251 83.7177 81.3433 82.9995 81.3433 82.1135C81.3435 78.3987 78.3213 75.3762 74.6062 75.3762ZM68.8969 80.5094C69.4819 79.3678 70.6711 78.5846 72.0396 78.5846H74.6062C75.9747 78.5846 77.1639 79.3678 77.7491 80.5094H68.8969Z" fill="black"/>
</g>
<defs>
<clipPath id="clip0_43_3541">
<rect width="83.4129" height="83.4129" fill="white" transform="translate(0.657715 0.304932)"/>
</clipPath>
</defs>
</svg>
