<svg width="20" height="20" viewBox="0 0 20 20" fill="none" xmlns="http://www.w3.org/2000/svg">
<g clip-path="url(#clip0_41_2146)">
<path d="M9.78587 8.69702L17.8184 4.68077L9.91751 0.876538C9.83137 0.834984 9.73097 0.8365 9.64604 0.880785L2.06305 4.82394C2.05971 4.82576 2.05759 4.82849 2.05425 4.83031C2.05395 4.83061 2.05365 4.83061 2.05334 4.83091L9.78587 8.69702Z" fill="black"/>
<path d="M10.0892 9.22342V19.0455C10.1311 19.0455 10.1717 19.034 10.2109 19.017C10.2154 19.0149 10.2206 19.0158 10.2248 19.0137L18.1111 15.0705C18.2139 15.0189 18.2789 14.914 18.2789 14.799V5.12891L10.0892 9.22342Z" fill="black"/>
<path d="M9.48277 9.22362L1.89978 5.43213V14.7992C1.89978 14.9142 1.96469 15.0191 2.06752 15.0707L9.48277 18.7785V9.22362Z" fill="black"/>
</g>
<defs>
<clipPath id="clip0_41_2146">
<rect width="18.1992" height="18.1992" fill="white" transform="translate(0.989624 0.846436)"/>
</clipPath>
</defs>
</svg>
