<svg width="19" height="19" viewBox="0 0 19 19" fill="none" xmlns="http://www.w3.org/2000/svg">
<g clip-path="url(#clip0_43_3536)">
<path d="M9.56187 8.32154L17.5944 4.30528L9.69351 0.50105C9.60737 0.459495 9.50697 0.461012 9.42204 0.505297L1.83905 4.44845C1.83572 4.45027 1.83359 4.453 1.83026 4.45482C1.82995 4.45512 1.82965 4.45512 1.82935 4.45543L9.56187 8.32154Z" fill="black"/>
<path d="M9.86523 8.84793V18.67C9.90709 18.67 9.94774 18.6585 9.98687 18.6415C9.99141 18.6394 9.99657 18.6403 10.0008 18.6382L17.8871 14.695C17.9899 14.6435 18.0549 14.5385 18.0549 14.4235V4.75342L9.86523 8.84793Z" fill="black"/>
<path d="M9.25877 8.84813L1.67578 5.05664V14.4238C1.67578 14.5387 1.74069 14.6437 1.84352 14.6952L9.25877 18.403V8.84813Z" fill="black"/>
</g>
<defs>
<clipPath id="clip0_43_3536">
<rect width="18.1992" height="18.1992" fill="white" transform="translate(0.765625 0.470947)"/>
</clipPath>
</defs>
</svg>
