<svg width="19" height="20" viewBox="0 0 19 20" fill="none" xmlns="http://www.w3.org/2000/svg">
<g clip-path="url(#clip0_41_2162)">
<path d="M9.04527 8.69702L17.0778 4.68077L9.17691 0.876538C9.09077 0.834984 8.99037 0.8365 8.90544 0.880785L1.32245 4.82394C1.31911 4.82576 1.31699 4.82849 1.31365 4.83031C1.31335 4.83061 1.31305 4.83061 1.31274 4.83091L9.04527 8.69702Z" fill="black"/>
<path d="M9.34851 9.22342V19.0455C9.39037 19.0455 9.43101 19.034 9.47014 19.017C9.47469 19.0149 9.47985 19.0158 9.48409 19.0137L17.3704 15.0705C17.4732 15.0189 17.5381 14.914 17.5381 14.799V5.12891L9.34851 9.22342Z" fill="black"/>
<path d="M8.74205 9.22362L1.15906 5.43213V14.7992C1.15906 14.9142 1.22397 15.0191 1.32679 15.0707L8.74205 18.7785V9.22362Z" fill="black"/>
</g>
<defs>
<clipPath id="clip0_41_2162">
<rect width="18.1992" height="18.1992" fill="white" transform="translate(0.249023 0.846436)"/>
</clipPath>
</defs>
</svg>
