<svg width="20" height="19" viewBox="0 0 20 19" fill="none" xmlns="http://www.w3.org/2000/svg">
<g clip-path="url(#clip0_43_3546)">
<path d="M9.78623 8.32154L17.8187 4.30528L9.91788 0.50105C9.83173 0.459495 9.73133 0.461012 9.6464 0.505297L2.06342 4.44845C2.06008 4.45027 2.05796 4.453 2.05462 4.45482C2.05432 4.45512 2.05401 4.45512 2.05371 4.45543L9.78623 8.32154Z" fill="black"/>
<path d="M10.0894 8.84793V18.67C10.1312 18.67 10.1719 18.6585 10.211 18.6415C10.2155 18.6394 10.2207 18.6403 10.2249 18.6382L18.1112 14.695C18.2141 14.6435 18.279 14.5385 18.279 14.4235V4.75342L10.0894 8.84793Z" fill="black"/>
<path d="M9.48289 8.84813L1.8999 5.05664V14.4238C1.8999 14.5387 1.96481 14.6437 2.06764 14.6952L9.48289 18.403V8.84813Z" fill="black"/>
</g>
<defs>
<clipPath id="clip0_43_3546">
<rect width="18.1992" height="18.1992" fill="white" transform="translate(0.989746 0.470947)"/>
</clipPath>
</defs>
</svg>
