<svg width="20" height="20" viewBox="0 0 20 20" fill="none" xmlns="http://www.w3.org/2000/svg">
<g clip-path="url(#clip0_43_3556)">
<path d="M9.78623 8.69702L17.8187 4.68077L9.91788 0.876538C9.83173 0.834984 9.73133 0.8365 9.6464 0.880785L2.06342 4.82394C2.06008 4.82576 2.05796 4.82849 2.05462 4.83031C2.05432 4.83061 2.05401 4.83061 2.05371 4.83091L9.78623 8.69702Z" fill="black"/>
<path d="M10.0894 9.22342V19.0455C10.1312 19.0455 10.1719 19.034 10.211 19.017C10.2155 19.0149 10.2207 19.0158 10.2249 19.0137L18.1112 15.0705C18.2141 15.0189 18.279 14.914 18.279 14.799V5.12891L10.0894 9.22342Z" fill="black"/>
<path d="M9.48289 9.22362L1.8999 5.43213V14.7992C1.8999 14.9142 1.96481 15.0191 2.06764 15.0707L9.48289 18.7785V9.22362Z" fill="black"/>
</g>
<defs>
<clipPath id="clip0_43_3556">
<rect width="18.1992" height="18.1992" fill="white" transform="translate(0.989746 0.846436)"/>
</clipPath>
</defs>
</svg>
