<svg width="20" height="19" viewBox="0 0 20 19" fill="none" xmlns="http://www.w3.org/2000/svg">
<g clip-path="url(#clip0_41_2136)">
<path d="M9.78587 8.32154L17.8184 4.30528L9.91751 0.50105C9.83137 0.459495 9.73097 0.461012 9.64604 0.505297L2.06305 4.44845C2.05971 4.45027 2.05759 4.453 2.05425 4.45482C2.05395 4.45512 2.05365 4.45512 2.05334 4.45543L9.78587 8.32154Z" fill="black"/>
<path d="M10.0892 8.84793V18.67C10.1311 18.67 10.1717 18.6585 10.2109 18.6415C10.2154 18.6394 10.2206 18.6403 10.2248 18.6382L18.1111 14.695C18.2139 14.6435 18.2789 14.5385 18.2789 14.4235V4.75342L10.0892 8.84793Z" fill="black"/>
<path d="M9.48277 8.84813L1.89978 5.05664V14.4238C1.89978 14.5387 1.96469 14.6437 2.06752 14.6952L9.48277 18.403V8.84813Z" fill="black"/>
</g>
<defs>
<clipPath id="clip0_41_2136">
<rect width="18.1992" height="18.1992" fill="white" transform="translate(0.989624 0.470947)"/>
</clipPath>
</defs>
</svg>
