<svg width="12" height="12" viewBox="0 0 12 12" fill="none" xmlns="http://www.w3.org/2000/svg">
<g clip-path="url(#clip0_27_2424)">
<path d="M5.80002 5.17645L11.0964 2.52825L5.88682 0.0198489C5.83002 -0.00755108 5.76382 -0.00655108 5.70782 0.0226489L0.707816 2.62265C0.705616 2.62385 0.704216 2.62565 0.702016 2.62685C0.701816 2.62705 0.701616 2.62705 0.701416 2.62725L5.80002 5.17645Z" fill="black"/>
<path d="M5.99994 5.52353V11.9999C6.02754 11.9999 6.05434 11.9923 6.08014 11.9811C6.08314 11.9797 6.08654 11.9803 6.08934 11.9789L11.2893 9.37893C11.3571 9.34493 11.3999 9.27573 11.3999 9.19993V2.82373L5.99994 5.52353Z" fill="black"/>
<path d="M5.59998 5.52368L0.599976 3.02368V9.20008C0.599976 9.27588 0.642776 9.34508 0.710576 9.37908L5.59998 11.8239V5.52368Z" fill="black"/>
</g>
<defs>
<clipPath id="clip0_27_2424">
<rect width="12" height="12" fill="white"/>
</clipPath>
</defs>
</svg>
