<svg width="12" height="12" viewBox="0 0 12 12" fill="none" xmlns="http://www.w3.org/2000/svg">
<g clip-path="url(#clip0_22_2329)">
<path d="M5.79977 5.17645L11.0962 2.52825L5.88657 0.0198489C5.82977 -0.00755108 5.76357 -0.00655108 5.70757 0.0226489L0.707572 2.62265C0.705372 2.62385 0.703972 2.62565 0.701772 2.62685C0.701572 2.62705 0.701372 2.62705 0.701172 2.62725L5.79977 5.17645Z" fill="black"/>
<path d="M6 5.52365V12.0001C6.0276 12.0001 6.0544 11.9925 6.0802 11.9813C6.0832 11.9799 6.0866 11.9805 6.0894 11.9791L11.2894 9.37905C11.3572 9.34505 11.4 9.27585 11.4 9.20005V2.82385L6 5.52365Z" fill="black"/>
<path d="M5.59961 5.52368L0.599609 3.02368V9.20008C0.599609 9.27588 0.642409 9.34508 0.710209 9.37908L5.59961 11.8239V5.52368Z" fill="black"/>
</g>
<defs>
<clipPath id="clip0_22_2329">
<rect width="12" height="12" fill="white"/>
</clipPath>
</defs>
</svg>
