<svg width="35" height="35" viewBox="0 0 35 35" fill="none" xmlns="http://www.w3.org/2000/svg">
<path d="M17.4963 19.0838C10.9245 19.0838 5.41737 17.1532 3.91378 14.5503C3.64942 15.0084 3.49512 15.4845 3.49512 15.9785V20.2381C3.49512 23.5288 9.76545 26.1986 17.4963 26.1986C25.232 26.1986 31.5047 23.5288 31.5047 20.2381V15.9785C31.5047 15.4845 31.348 15.0084 31.0812 14.5503C29.5777 17.152 24.0753 19.0838 17.4963 19.0838Z" fill="#030104"/>
<path d="M17.4963 27.8827C10.9245 27.8827 5.41737 25.9496 3.91378 23.3516C3.64942 23.8073 3.49512 24.2834 3.49512 24.7762V29.0394C3.49512 32.3312 9.76545 34.9999 17.4963 34.9999C25.232 34.9999 31.5047 32.3324 31.5047 29.0394V24.7762C31.5047 24.2834 31.348 23.8073 31.0812 23.3528C29.5777 25.9497 24.0753 27.8827 17.4963 27.8827Z" fill="#030104"/>
<path d="M31.1219 6.03101C30.8468 8.44249 24.8635 10.3719 17.4963 10.3719C10.1327 10.3719 4.14942 8.44249 3.8755 6.0322C3.63507 6.47 3.49512 6.92694 3.49512 7.39703V11.6566C3.49512 14.9485 9.76545 17.6171 17.4963 17.6171C25.232 17.6171 31.5047 14.9497 31.5047 11.6566V7.39703C31.5047 6.92694 31.3623 6.47 31.1219 6.03101Z" fill="#030104"/>
<path d="M17.4965 9.02033C25.036 9.02033 31.1448 7.00239 31.1448 4.50957C31.1448 2.01914 25.036 0 17.4965 0C9.96183 0.00119617 3.85059 2.02033 3.85059 4.51077C3.85059 7.00239 9.96183 9.02033 17.4965 9.02033Z" fill="#030104"/>
</svg>
