<svg width="54" height="55" viewBox="0 0 54 55" fill="none" xmlns="http://www.w3.org/2000/svg">
<g clip-path="url(#clip0_41_2167)">
<path d="M26.7469 29.9258C16.7801 29.9258 8.42797 26.9978 6.14763 23.0503C5.74672 23.7451 5.5127 24.4671 5.5127 25.2163V31.6764C5.5127 36.667 15.0223 40.7161 26.7469 40.7161C38.4787 40.7161 47.9919 36.667 47.9919 31.6764V25.2163C47.9919 24.4671 47.7543 23.7451 47.3497 23.0503C45.0694 26.996 36.7245 29.9258 26.7469 29.9258Z" fill="#030104"/>
<path d="M26.7469 43.2703C16.7801 43.2703 8.42797 40.3387 6.14763 36.3984C5.74672 37.0896 5.5127 37.8116 5.5127 38.559V45.0245C5.5127 50.017 15.0223 54.0643 26.7469 54.0643C38.4787 54.0643 47.9919 50.0188 47.9919 45.0245V38.559C47.9919 37.8116 47.7543 37.0896 47.3497 36.4003C45.0694 40.3387 36.7245 43.2703 26.7469 43.2703Z" fill="#030104"/>
<path d="M47.4114 10.1301C46.9942 13.7874 37.92 16.7135 26.7469 16.7135C15.5792 16.7135 6.50501 13.7874 6.08958 10.1319C5.72495 10.7959 5.5127 11.4889 5.5127 12.2018V18.6619C5.5127 23.6543 15.0223 27.7016 26.7469 27.7016C38.4787 27.7016 47.9919 23.6561 47.9919 18.6619V12.2018C47.9919 11.4889 47.7761 10.7959 47.4114 10.1301Z" fill="#030104"/>
<path d="M26.747 14.6636C38.1814 14.6636 47.446 11.6032 47.446 7.8226C47.446 4.04562 38.1814 0.983398 26.747 0.983398C15.3199 0.985213 6.05164 4.04743 6.05164 7.82441C6.05164 11.6032 15.3199 14.6636 26.747 14.6636Z" fill="#030104"/>
</g>
<defs>
<clipPath id="clip0_41_2167">
<rect width="53.0809" height="53.0809" fill="white" transform="translate(0.21167 0.983398)"/>
</clipPath>
</defs>
</svg>
