<svg width="35" height="35" viewBox="0 0 35 35" fill="none" xmlns="http://www.w3.org/2000/svg">
<path d="M17.4966 19.0838C10.9248 19.0838 5.41761 17.1532 3.91402 14.5503C3.64967 15.0084 3.49536 15.4845 3.49536 15.9785V20.2381C3.49536 23.5288 9.7657 26.1986 17.4966 26.1986C25.2322 26.1986 31.5049 23.5288 31.5049 20.2381V15.9785C31.5049 15.4845 31.3482 15.0084 31.0815 14.5503C29.5779 17.152 24.0755 19.0838 17.4966 19.0838Z" fill="#030104"/>
<path d="M17.4966 27.8827C10.9248 27.8827 5.41761 25.9496 3.91402 23.3516C3.64967 23.8073 3.49536 24.2834 3.49536 24.7762V29.0394C3.49536 32.3312 9.7657 34.9999 17.4966 34.9999C25.2322 34.9999 31.5049 32.3324 31.5049 29.0394V24.7762C31.5049 24.2834 31.3482 23.8073 31.0815 23.3528C29.5779 25.9497 24.0755 27.8827 17.4966 27.8827Z" fill="#030104"/>
<path d="M31.1222 6.03101C30.847 8.44249 24.8638 10.3719 17.4966 10.3719C10.1329 10.3719 4.14967 8.44249 3.87574 6.0322C3.63531 6.47 3.49536 6.92694 3.49536 7.39703V11.6566C3.49536 14.9485 9.7657 17.6171 17.4966 17.6171C25.2322 17.6171 31.5049 14.9497 31.5049 11.6566V7.39703C31.5049 6.92694 31.3626 6.47 31.1222 6.03101Z" fill="#030104"/>
<path d="M17.4966 9.02033C25.0361 9.02033 31.145 7.00239 31.145 4.50957C31.145 2.01914 25.0361 0 17.4966 0C9.96195 0.00119617 3.85071 2.02033 3.85071 4.51077C3.85071 7.00239 9.96195 9.02033 17.4966 9.02033Z" fill="#030104"/>
</svg>
