<svg width="77" height="77" viewBox="0 0 77 77" fill="none" xmlns="http://www.w3.org/2000/svg">
<path d="M57.6431 0H19.2958C8.6709 0 0 8.6709 0 19.2958V57.7042C0 68.268 8.6709 76.9389 19.2958 76.9389H57.7042C68.3291 76.9389 77 68.268 77 57.6431V19.2958C76.9389 8.6709 68.268 0 57.6431 0ZM25.6463 62.2839H14.655V30.5313H25.6463V62.2839ZM20.0896 25.6463C16.9754 25.6463 14.4718 23.1427 14.4718 20.0285C14.4718 16.9144 16.9754 14.4108 20.0896 14.4108C23.2038 14.4108 25.7074 16.9144 25.7074 20.0285C25.6463 23.1427 23.1427 25.6463 20.0896 25.6463ZM62.345 62.2839H62.2839H53.1245V46.8961C53.1245 43.1713 52.636 38.4084 47.5678 38.4084C42.3775 38.4084 41.5226 42.4385 41.5226 46.6519V62.2839H32.3632V30.5313H40.912V34.8057H41.1562C42.4996 32.3632 45.6138 30.4703 50.4988 30.4703C60.5741 30.4703 62.345 36.2712 62.345 44.881V62.2839Z" fill="url(#paint0_linear_44_4332)"/>
<defs>
<linearGradient id="paint0_linear_44_4332" x1="10.0453" y1="0.394856" x2="55.0386" y2="79.2919" gradientUnits="userSpaceOnUse">
<stop stop-color="#FF9900"/>
<stop offset="1" stop-color="#FBC751"/>
</linearGradient>
</defs>
</svg>
