<svg width="67" height="68" viewBox="0 0 67 68" fill="none" xmlns="http://www.w3.org/2000/svg">
<g clip-path="url(#clip0_41_2180)">
<path d="M39.1007 5.31944C38.8419 4.62493 38.0385 4.31172 37.3576 4.58408C36.6631 4.84282 36.3498 5.64627 36.6222 6.32717C37.9976 9.82698 36.309 13.7898 32.8092 15.1652C32.1147 15.4239 31.8015 16.2274 32.0738 16.9083C32.4824 17.5892 33.1633 17.8616 33.8169 17.6028C38.6785 15.6418 41.0072 10.1402 39.1007 5.31944Z" fill="black"/>
<path d="M34.8655 20.1494C34.171 20.4082 33.8577 21.2116 34.1301 21.8925C34.4297 22.587 35.1378 22.9139 35.8187 22.6279C39.5228 21.1435 42.3826 18.3383 43.9759 14.6887C45.5692 11.039 45.6236 7.00814 44.1393 3.30406C43.8805 2.60955 43.0771 2.29634 42.3962 2.5687C41.7017 2.82744 41.3884 3.63089 41.6608 4.31179C42.8728 7.33497 42.832 10.6714 41.5519 13.6809C40.2718 16.6496 37.8886 18.9783 34.8655 20.1494Z" fill="black"/>
<path d="M36.9896 25.5012C36.2951 25.7599 35.9819 26.5634 36.2542 27.2443C36.5538 27.9252 37.2347 28.2656 37.9429 27.9796C43.0768 25.9097 47.0533 22.0422 49.2185 16.9627C51.3838 11.9377 51.4382 6.31351 49.4364 1.17955C49.1777 0.485038 48.3742 0.171825 47.6933 0.444184C46.9988 0.702924 46.6856 1.50638 46.9579 2.18728C48.7555 6.64034 48.6466 11.5019 46.7945 15.9005C44.9289 20.3127 41.4291 23.7036 36.9896 25.5012Z" fill="black"/>
<path d="M16.386 56.7954H13.5807C12.8453 56.7954 12.2598 57.381 12.2598 58.1163C12.2598 58.8517 12.8453 59.4373 13.5807 59.4373H16.386C17.1214 59.4373 17.7069 58.8517 17.7069 58.1163C17.7069 57.381 17.1214 56.7954 16.386 56.7954Z" fill="black"/>
<path d="M25.5917 56.7954H22.7864C22.051 56.7954 21.4655 57.381 21.4655 58.1163C21.4655 58.8517 22.051 59.4373 22.7864 59.4373H25.5917C26.3271 59.4373 26.9126 58.8517 26.9126 58.1163C26.9126 57.381 26.2862 56.7954 25.5917 56.7954Z" fill="black"/>
<path d="M34.7565 56.7954H31.9512C31.2158 56.7954 30.6302 57.381 30.6302 58.1163C30.6302 58.8517 31.2158 59.4373 31.9512 59.4373H34.7565C35.4918 59.4373 36.0774 58.8517 36.0774 58.1163C36.0774 57.381 35.5055 56.7954 34.7565 56.7954Z" fill="black"/>
<path d="M43.9762 56.7954H41.1709C40.4355 56.7954 39.85 57.381 39.85 58.1163C39.85 58.8517 40.4355 59.4373 41.1709 59.4373H43.9762C44.7116 59.4373 45.2971 58.8517 45.2971 58.1163C45.2971 57.381 44.7116 56.7954 43.9762 56.7954Z" fill="black"/>
<path d="M53.1953 56.7954H50.39C49.6547 56.7954 49.0691 57.381 49.0691 58.1163C49.0691 58.8517 49.6547 59.4373 50.39 59.4373H53.1953C53.9307 59.4373 54.5163 58.8517 54.5163 58.1163C54.5163 57.381 53.9307 56.7954 53.1953 56.7954Z" fill="black"/>
<path d="M60.9708 21.688H61.0252C61.0252 19.7815 59.4864 18.1882 57.5254 18.1882C55.6189 18.1882 54.0256 19.7271 54.0256 21.688V46.5271H60.9572V21.688H60.9708Z" fill="black"/>
<path d="M0.711792 49.1694V67.077H66.1187V49.1694H0.711792ZM58.2203 61.6162H8.5421C6.63559 61.6162 5.04229 60.0774 5.04229 58.1164C5.04229 56.2099 6.58112 54.6166 8.5421 54.6166H58.2748C60.1813 54.6166 61.7746 56.1554 61.7746 58.1164C61.7201 60.0229 60.1813 61.6162 58.2203 61.6162Z" fill="black"/>
</g>
<defs>
<clipPath id="clip0_41_2180">
<rect width="66.7303" height="66.7303" fill="white" transform="translate(0.0498047 0.346436)"/>
</clipPath>
</defs>
</svg>
