<svg width="67" height="68" viewBox="0 0 67 68" fill="none" xmlns="http://www.w3.org/2000/svg">
<g clip-path="url(#clip0_43_3590)">
<path d="M39.1007 5.31969C38.8419 4.62517 38.0385 4.31196 37.3576 4.58432C36.6631 4.84306 36.3498 5.64652 36.6222 6.32742C37.9976 9.82722 36.309 13.79 32.8092 15.1654C32.1147 15.4242 31.8015 16.2276 32.0738 16.9085C32.4824 17.5894 33.1633 17.8618 33.8169 17.6031C38.6785 15.6421 41.0072 10.1404 39.1007 5.31969Z" fill="black"/>
<path d="M34.8656 20.1497C34.1711 20.4084 33.8579 21.2119 34.1302 21.8928C34.4298 22.5873 35.1379 22.9141 35.8188 22.6281C39.5229 21.1438 42.3827 18.3385 43.976 14.6889C45.5693 11.0393 45.6237 7.00838 44.1394 3.30431C43.8807 2.60979 43.0772 2.29658 42.3963 2.56894C41.7018 2.82768 41.3886 3.63114 41.6609 4.31203C42.8729 7.33521 42.8321 10.6716 41.552 13.6812C40.2719 16.6499 37.8888 18.9785 34.8656 20.1497Z" fill="black"/>
<path d="M36.9896 25.5014C36.2951 25.7602 35.9819 26.5636 36.2542 27.2445C36.5538 27.9254 37.2347 28.2659 37.9429 27.9799C43.0768 25.91 47.0533 22.0425 49.2185 16.963C51.3838 11.938 51.4382 6.31375 49.4364 1.1798C49.1777 0.485282 48.3742 0.172069 47.6933 0.444428C46.9988 0.703169 46.6856 1.50663 46.9579 2.18752C48.7555 6.64058 48.6466 11.5022 46.7945 15.9008C44.9289 20.313 41.4291 23.7038 36.9896 25.5014Z" fill="black"/>
<path d="M16.386 56.7957H13.5807C12.8453 56.7957 12.2598 57.3812 12.2598 58.1166C12.2598 58.852 12.8453 59.4375 13.5807 59.4375H16.386C17.1214 59.4375 17.7069 58.852 17.7069 58.1166C17.7069 57.3812 17.1214 56.7957 16.386 56.7957Z" fill="black"/>
<path d="M25.5916 56.7957H22.7863C22.0509 56.7957 21.4653 57.3812 21.4653 58.1166C21.4653 58.852 22.0509 59.4375 22.7863 59.4375H25.5916C26.3269 59.4375 26.9125 58.852 26.9125 58.1166C26.9125 57.3812 26.2861 56.7957 25.5916 56.7957Z" fill="black"/>
<path d="M34.7564 56.7957H31.9511C31.2157 56.7957 30.6301 57.3812 30.6301 58.1166C30.6301 58.852 31.2157 59.4375 31.9511 59.4375H34.7564C35.4917 59.4375 36.0773 58.852 36.0773 58.1166C36.0773 57.3812 35.5053 56.7957 34.7564 56.7957Z" fill="black"/>
<path d="M43.9761 56.7957H41.1708C40.4354 56.7957 39.8499 57.3812 39.8499 58.1166C39.8499 58.852 40.4354 59.4375 41.1708 59.4375H43.9761C44.7115 59.4375 45.297 58.852 45.297 58.1166C45.297 57.3812 44.7115 56.7957 43.9761 56.7957Z" fill="black"/>
<path d="M53.1953 56.7957H50.39C49.6547 56.7957 49.0691 57.3812 49.0691 58.1166C49.0691 58.852 49.6547 59.4375 50.39 59.4375H53.1953C53.9307 59.4375 54.5163 58.852 54.5163 58.1166C54.5163 57.3812 53.9307 56.7957 53.1953 56.7957Z" fill="black"/>
<path d="M60.9708 21.6883H61.0252C61.0252 19.7818 59.4864 18.1885 57.5254 18.1885C55.6189 18.1885 54.0256 19.7273 54.0256 21.6883V46.5274H60.9572V21.6883H60.9708Z" fill="black"/>
<path d="M0.711914 49.1697V67.0773H66.1188V49.1697H0.711914ZM58.2204 61.6165H8.54222C6.63571 61.6165 5.04241 60.0776 5.04241 58.1167C5.04241 56.2101 6.58124 54.6168 8.54222 54.6168H58.2749C60.1814 54.6168 61.7747 56.1557 61.7747 58.1167C61.7202 60.0232 60.1814 61.6165 58.2204 61.6165Z" fill="black"/>
</g>
<defs>
<clipPath id="clip0_43_3590">
<rect width="66.7303" height="66.7303" fill="white" transform="translate(0.0498047 0.34668)"/>
</clipPath>
</defs>
</svg>
