<svg width="44" height="44" viewBox="0 0 44 44" fill="none" xmlns="http://www.w3.org/2000/svg">
<g clip-path="url(#clip0_27_2468)">
<path d="M25.749 3.27907C25.5784 2.82113 25.0486 2.6146 24.5997 2.79419C24.1417 2.96479 23.9352 3.49457 24.1148 3.94353C25.0217 6.2512 23.9083 8.86417 21.6006 9.77108C21.1427 9.94168 20.9361 10.4715 21.1157 10.9204C21.3851 11.3694 21.8341 11.549 22.2651 11.3784C25.4707 10.0854 27.0061 6.45773 25.749 3.27907Z" fill="black"/>
<path d="M22.9564 13.0576C22.4985 13.2282 22.292 13.7579 22.4716 14.2069C22.6691 14.6648 23.136 14.8803 23.585 14.6918C26.0273 13.713 27.913 11.8633 28.9636 9.45687C30.0141 7.05043 30.0501 4.39257 29.0713 1.95021C28.9007 1.49227 28.3709 1.28575 27.922 1.46533C27.464 1.63594 27.2575 2.16571 27.4371 2.61468C28.2362 4.60807 28.2093 6.80799 27.3653 8.79241C26.5212 10.7499 24.9498 12.2853 22.9564 13.0576Z" fill="black"/>
<path d="M24.357 16.5863C23.8991 16.7569 23.6925 17.2867 23.8721 17.7356C24.0697 18.1846 24.5186 18.4091 24.9856 18.2205C28.3707 16.8557 30.9927 14.3056 32.4204 10.9563C33.8481 7.64295 33.884 3.93451 32.5641 0.549332C32.3934 0.0913902 31.8637 -0.115133 31.4147 0.0644524C30.9568 0.235058 30.7502 0.764835 30.9298 1.2138C32.1151 4.15002 32.0433 7.35561 30.8221 10.2559C29.5919 13.1652 27.2842 15.401 24.357 16.5863Z" fill="black"/>
<path d="M10.7716 37.2207H8.92189C8.43701 37.2207 8.0509 37.6068 8.0509 38.0917C8.0509 38.5766 8.43701 38.9627 8.92189 38.9627H10.7716C11.2565 38.9627 11.6426 38.5766 11.6426 38.0917C11.6426 37.6068 11.2565 37.2207 10.7716 37.2207Z" fill="black"/>
<path d="M16.8415 37.2207H14.9918C14.5069 37.2207 14.1208 37.6068 14.1208 38.0917C14.1208 38.5766 14.5069 38.9627 14.9918 38.9627H16.8415C17.3264 38.9627 17.7125 38.5766 17.7125 38.0917C17.7125 37.6068 17.2994 37.2207 16.8415 37.2207Z" fill="black"/>
<path d="M22.8844 37.2207H21.0347C20.5498 37.2207 20.1637 37.6068 20.1637 38.0917C20.1637 38.5766 20.5498 38.9627 21.0347 38.9627H22.8844C23.3693 38.9627 23.7554 38.5766 23.7554 38.0917C23.7554 37.6068 23.3783 37.2207 22.8844 37.2207Z" fill="black"/>
<path d="M28.9636 37.2207H27.1139C26.629 37.2207 26.2429 37.6068 26.2429 38.0917C26.2429 38.5766 26.629 38.9627 27.1139 38.9627H28.9636C29.4485 38.9627 29.8346 38.5766 29.8346 38.0917C29.8346 37.6068 29.4485 37.2207 28.9636 37.2207Z" fill="black"/>
<path d="M35.0426 37.2207H33.1928C32.7079 37.2207 32.3218 37.6068 32.3218 38.0917C32.3218 38.5766 32.7079 38.9627 33.1928 38.9627H35.0426C35.5274 38.9627 35.9135 38.5766 35.9135 38.0917C35.9135 37.6068 35.5274 37.2207 35.0426 37.2207Z" fill="black"/>
<path d="M40.1695 14.0721H40.2054C40.2054 12.815 39.1908 11.7644 37.8978 11.7644C36.6407 11.7644 35.5901 12.7791 35.5901 14.0721V30.4502H40.1605V14.0721H40.1695Z" fill="black"/>
<path d="M0.436401 32.1924V44.0001H43.5638V32.1924H0.436401ZM38.3558 40.3994H5.59948C4.34238 40.3994 3.29181 39.3848 3.29181 38.0918C3.29181 36.8347 4.30646 35.7841 5.59948 35.7841H38.3917C39.6488 35.7841 40.6994 36.7987 40.6994 38.0918C40.6635 39.3489 39.6488 40.3994 38.3558 40.3994Z" fill="black"/>
</g>
<defs>
<clipPath id="clip0_27_2468">
<rect width="44" height="44" fill="white"/>
</clipPath>
</defs>
</svg>
