<svg width="93" height="93" viewBox="0 0 93 93" fill="none" xmlns="http://www.w3.org/2000/svg">
<path fill-rule="evenodd" clip-rule="evenodd" d="M40.863 51.8532C40.8845 51.8746 40.9054 51.8957 40.9256 51.9157C41.4784 52.4667 42.0744 52.9134 42.7139 53.2566C43.2515 53.5525 43.8199 53.7743 44.4191 53.9222V58.5169H33.8655C33.7891 58.5174 33.713 58.5174 33.6368 58.5169C33.6265 58.5169 33.6163 58.5169 33.6056 58.5169H33.3769C32.2984 58.4921 31.2964 58.2843 30.3718 57.8933L40.863 51.8532ZM48.131 32.5695C48.9699 33.0253 49.753 33.6146 50.4809 34.3368C51.1681 35.0227 51.7364 35.7572 52.1863 36.5408C52.5539 36.2468 52.9486 36.0147 53.3715 35.8442C53.9609 35.6023 54.6016 35.4811 55.295 35.4804C56.6919 35.4769 57.884 35.9655 58.8722 36.9463C58.9291 37.0029 58.9846 37.0619 59.0384 37.123L51.6979 41.3434C51.6853 41.3214 51.6714 41.3005 51.656 41.281C51.6337 41.2714 51.6128 41.2612 51.5939 41.2497C51.2746 40.9331 50.9414 40.6521 50.5955 40.4077C49.8382 39.8704 49.0171 39.4929 48.131 39.2745V32.5695ZM23.8313 35.896C22.8115 36.9119 21.6503 37.5771 20.3481 37.8921V55.2835C21.6428 55.5974 22.797 56.253 23.8106 57.2485C23.8228 57.2596 23.8367 57.2696 23.8522 57.2794C23.8714 57.2961 23.8923 57.3134 23.9146 57.3314L27.1378 55.4707C25.8732 53.9658 25.2387 52.2019 25.2352 50.1797C25.2405 48.2351 25.8298 46.5302 27.0028 45.0651C27.214 44.8024 27.4425 44.5462 27.689 44.2957C29.2313 42.7602 31.0752 41.9532 33.2211 41.8735C33.2191 41.7389 33.2191 41.6037 33.2211 41.4681C33.2211 41.3887 33.2211 41.3091 33.2211 41.2288L38.9918 44.5553C38.9066 44.8809 38.8442 45.2171 38.8046 45.5638C38.7554 45.8966 38.7276 46.2399 38.7215 46.5929C38.7258 47.3103 38.8158 47.993 38.9918 48.641L27.1587 55.4707C27.3263 55.6748 27.5066 55.8724 27.6996 56.0632C27.7882 56.1526 27.8783 56.239 27.9699 56.323C28.7028 57.0041 29.5033 57.5239 30.3716 57.8825L25.7447 60.5539C25.9248 61.1961 26.022 61.8716 26.036 62.5812C26.0361 62.5949 26.0361 62.6087 26.036 62.623C26.0219 63.323 25.9281 63.9886 25.7551 64.6187L40.853 73.3197C40.8768 73.299 40.9013 73.2782 40.9257 73.2573L40.9361 73.2468C41.9545 72.2417 43.1193 71.5799 44.4299 71.2612V58.506H48.1314V53.9113C49.43 53.5961 50.5881 52.9311 51.6044 51.9154C51.6205 51.9068 51.638 51.9 51.6564 51.8946C51.6728 51.8732 51.6902 51.8525 51.7084 51.8321L62.1998 57.8928C61.2066 58.308 60.1253 58.516 58.9555 58.5164C58.945 58.5164 58.9349 58.5164 58.9248 58.5164H48.1316V71.261C49.4298 71.5821 50.5872 72.2441 51.6046 73.2466C51.6171 73.2543 51.6307 73.2612 51.6464 73.2673C51.6646 73.2863 51.682 73.3066 51.6984 73.3299L66.806 64.6391C66.6232 63.9875 66.5299 63.301 66.5254 62.5806C66.5299 61.8538 66.62 61.1605 66.796 60.5014L62.2 57.8819C62.9803 57.5508 63.7082 57.0938 64.3839 56.5097C64.5454 56.3696 64.705 56.2206 64.8617 56.0627C65.0546 55.8715 65.2381 55.6735 65.413 55.4702L53.5596 48.6198C53.7292 47.9896 53.8192 47.3205 53.8301 46.6135C53.8301 46.5995 53.8301 46.5858 53.8301 46.572C53.8276 46.4453 53.8242 46.3206 53.8192 46.1977C53.7851 45.6292 53.6984 45.0849 53.5596 44.5655L60.3495 40.6567C60.3382 41.0997 60.2762 41.5224 60.1621 41.9249C61.9557 42.1686 63.5227 42.9587 64.8617 44.2954C65.6112 45.0403 66.1906 45.858 66.5982 46.7485C67.0717 47.7916 67.3073 48.9349 67.3052 50.1792C67.3073 52.2005 66.6836 53.9647 65.4336 55.4702L68.6365 57.3102C68.665 57.2846 68.6933 57.2603 68.7195 57.2376V57.2269C69.7371 56.2276 70.8947 55.5694 72.1926 55.2517V37.902C70.894 37.5814 69.7362 36.923 68.7195 35.9268V35.9164C68.6958 35.8994 68.6713 35.8821 68.647 35.8644L60.3497 40.6565C60.3497 40.6067 60.3497 40.5581 60.3497 40.5111C60.3525 39.8188 60.2344 39.1777 59.9959 38.5879C59.7781 38.0528 59.4595 37.5607 59.0393 37.1117L66.7961 32.6521C66.6203 32.0001 66.5303 31.314 66.5256 30.5936C66.5301 29.8807 66.6201 29.2014 66.7961 28.5562L51.6775 19.8451C51.6566 19.8663 51.6353 19.8872 51.6153 19.9074C50.5953 20.9196 49.4343 21.5816 48.1319 21.893V32.5586C47.403 32.1586 46.6338 31.8605 45.8237 31.6645C45.3709 31.5566 44.9064 31.4805 44.4304 31.436V21.9135C43.1159 21.5939 41.9476 20.9251 40.9265 19.9074C40.9064 19.8876 40.8855 19.8665 40.8639 19.8451L25.7556 28.5562C25.9288 29.1871 26.0224 29.8523 26.0365 30.5523C26.0367 30.5659 26.0367 30.5798 26.0365 30.5936C26.0224 31.3077 25.9252 31.9869 25.7453 32.6313L34.0533 37.3922C34.5411 36.282 35.2517 35.2632 36.1849 34.3359C36.4286 34.0936 36.6782 33.8649 36.9333 33.6498C38.7506 32.1378 40.8822 31.3824 43.328 31.3837C43.6993 31.3851 44.0632 31.4058 44.4197 31.446V39.2738C43.742 39.4373 43.1045 39.6937 42.5065 40.0432C41.9481 40.3632 41.4246 40.7652 40.9365 41.249C40.9209 41.2603 40.9032 41.2706 40.8845 41.2803C40.8721 41.2967 40.8582 41.3141 40.843 41.3323L34.043 37.4028C33.8005 37.954 33.6097 38.5257 33.471 39.118C33.3186 39.7902 33.2355 40.4902 33.2216 41.2181L23.8737 35.8435C23.8683 35.8558 23.8614 35.8664 23.8531 35.8748C23.844 35.881 23.8369 35.8878 23.8313 35.896ZM40.915 9.26306L40.9358 9.2527C42.1462 8.05739 43.5638 7.35056 45.1885 7.13205C45.5392 7.0847 45.8996 7.06058 46.27 7.05933C48.3454 7.06379 50.1234 7.79492 51.604 9.2527L51.6246 9.26306C53.077 10.725 53.8155 12.4922 53.8394 14.5646C53.8398 14.5796 53.8398 14.5969 53.8394 14.6166C53.8219 15.3263 53.7211 16.0018 53.5378 16.6438L68.6356 25.3344C68.6627 25.3142 68.6904 25.2933 68.7186 25.272V25.2408C70.1963 23.7919 71.9815 23.0676 74.0736 23.0683C76.1455 23.0658 77.9202 23.79 79.3971 25.2408L79.418 25.2822C79.976 25.8409 80.4297 26.4439 80.78 27.0911C81.33 28.1406 81.6109 29.3048 81.6221 30.5839C81.6225 30.5977 81.6225 30.6116 81.6221 30.6254C81.6001 32.7055 80.8617 34.4692 79.4079 35.9167C78.3857 36.9382 77.2209 37.607 75.9139 37.9231V55.252C77.2166 55.5635 78.378 56.2219 79.3969 57.2273L79.4179 57.2483C80.8663 58.7135 81.6018 60.4843 81.6219 62.5601C81.6223 62.5703 81.6223 62.5808 81.6219 62.5913C81.6098 63.7682 81.3672 64.8428 80.894 65.814C80.536 66.5686 80.0402 67.2613 79.4079 67.8931C77.9276 69.3696 76.1499 70.1079 74.0736 70.1075C71.9805 70.1063 70.1959 69.368 68.7186 67.8931C68.6926 67.8704 68.6681 67.8496 68.6461 67.8305L53.5378 76.5318C53.721 77.167 53.8219 77.8426 53.8394 78.5589C53.8398 78.5783 53.8398 78.5955 53.8394 78.6108C53.8139 80.6909 53.072 82.4544 51.6144 83.902C50.3659 85.1518 48.9033 85.8722 47.2264 86.0643C46.9159 86.1009 46.597 86.1185 46.2698 86.1163C44.1804 86.1147 42.3989 85.3768 40.9254 83.902C39.4655 82.4485 38.734 80.6777 38.7315 78.5898C38.7326 77.8695 38.8192 77.1836 38.9914 76.5318L23.9144 67.8305C23.8946 67.8532 23.8737 67.8743 23.8521 67.8931C23.8439 67.8988 23.8367 67.9052 23.8312 67.9138C22.348 69.3907 20.5665 70.1286 18.4867 70.1282C16.394 70.1265 14.6089 69.3887 13.1318 67.9138C12.3892 67.173 11.8384 66.3483 11.4787 65.4395C11.1219 64.5676 10.9416 63.618 10.9379 62.5913C10.9423 60.5105 11.6736 58.737 13.1318 57.2691L13.1423 57.2483C14.1607 56.2503 15.3251 55.5953 16.6361 55.2833V37.8921C15.3212 37.5757 14.1532 36.9103 13.1318 35.896C11.672 34.4427 10.9407 32.6721 10.9379 30.5841C10.9382 29.2384 11.2396 28.0188 11.8427 26.9251C12.1812 26.326 12.6109 25.765 13.1318 25.2409L13.1423 25.2202C14.6164 23.7712 16.3982 23.0469 18.4867 23.0476C20.559 23.0452 22.3334 23.7696 23.8104 25.2202C23.8226 25.2383 23.8365 25.2554 23.8521 25.2722C23.8782 25.292 23.9023 25.3128 23.9246 25.3346L38.9913 16.644C38.819 15.9961 38.7324 15.3132 38.7313 14.5962C38.7326 12.5122 39.4605 10.7344 40.915 9.26306Z" fill="#333333"/>
</svg>
