<svg width="49" height="49" viewBox="0 0 49 49" fill="none" xmlns="http://www.w3.org/2000/svg">
<path fill-rule="evenodd" clip-rule="evenodd" d="M21.5984 27.3231C21.6099 27.3346 21.6211 27.3459 21.6319 27.3566C21.928 27.6517 22.2472 27.891 22.5898 28.0748C22.8777 28.2333 23.1822 28.3521 23.5032 28.4313V30.8924H17.8503C17.8093 30.8927 17.7685 30.8927 17.7278 30.8924C17.7222 30.8924 17.7167 30.8924 17.711 30.8924H17.5885C17.0108 30.8791 16.4741 30.7678 15.9789 30.5584L21.5984 27.3231ZM25.4914 16.994C25.9407 17.2382 26.3602 17.5538 26.7501 17.9406C27.1181 18.308 27.4226 18.7015 27.6636 19.1212C27.8604 18.9637 28.0718 18.8394 28.2984 18.7481C28.6141 18.6185 28.9573 18.5536 29.3287 18.5532C30.0769 18.5513 30.7154 18.8131 31.2448 19.3384C31.2752 19.3687 31.305 19.4003 31.3338 19.433L27.4019 21.6936C27.3952 21.6819 27.3877 21.6707 27.3795 21.6602C27.3675 21.6551 27.3563 21.6496 27.3462 21.6435C27.1752 21.4739 26.9967 21.3234 26.8114 21.1924C26.4058 20.9047 25.966 20.7024 25.4914 20.5855V16.994ZM12.4756 18.7758C11.9293 19.32 11.3073 19.6763 10.6098 19.845V29.1605C11.3033 29.3286 11.9215 29.6798 12.4645 30.213C12.471 30.219 12.4784 30.2243 12.4868 30.2296C12.497 30.2385 12.5082 30.2478 12.5202 30.2574L14.2467 29.2608C13.5693 28.4547 13.2294 27.5099 13.2275 26.4267C13.2304 25.3851 13.546 24.4719 14.1743 23.6871C14.2874 23.5464 14.4098 23.4092 14.5419 23.275C15.368 22.4526 16.3557 22.0203 17.5051 21.9776C17.504 21.9055 17.504 21.8331 17.5051 21.7604C17.5051 21.7179 17.5051 21.6753 17.5051 21.6323L20.5961 23.4141C20.5504 23.5885 20.517 23.7686 20.4958 23.9542C20.4695 24.1325 20.4545 24.3164 20.4513 24.5055C20.4536 24.8897 20.5018 25.2554 20.5961 25.6025L14.2578 29.2608C14.3476 29.3701 14.4442 29.4759 14.5475 29.5781C14.595 29.626 14.6432 29.6723 14.6923 29.7173C15.0849 30.0821 15.5137 30.3605 15.9788 30.5526L13.5005 31.9835C13.5969 32.3275 13.649 32.6894 13.6564 33.0694C13.6565 33.0768 13.6565 33.0841 13.6564 33.0918C13.6489 33.4667 13.5986 33.8232 13.506 34.1608L21.593 38.8213C21.6057 38.8102 21.6189 38.7991 21.632 38.7879L21.6375 38.7823C22.183 38.244 22.8069 37.8895 23.5089 37.7187V30.8866H25.4916V28.4255C26.1871 28.2567 26.8075 27.9005 27.3519 27.3564C27.3605 27.3518 27.3698 27.3482 27.3797 27.3453C27.3885 27.3338 27.3978 27.3227 27.4076 27.3118L33.0271 30.5581C32.4951 30.7806 31.9159 30.892 31.2894 30.8921C31.2837 30.8921 31.2784 30.8921 31.2729 30.8921H25.4917V37.7186C26.187 37.8906 26.807 38.2452 27.3519 38.7822C27.3586 38.7863 27.3659 38.79 27.3743 38.7933C27.3841 38.8034 27.3934 38.8144 27.4022 38.8268L35.4944 34.1717C35.3965 33.8227 35.3465 33.455 35.3441 33.0691C35.3465 32.6798 35.3947 32.3085 35.489 31.9554L33.0272 30.5523C33.4452 30.375 33.8351 30.1302 34.197 29.8173C34.2835 29.7423 34.369 29.6625 34.4529 29.5779C34.5563 29.4755 34.6546 29.3694 34.7483 29.2605L28.3991 25.5911C28.49 25.2536 28.5382 24.8952 28.544 24.5165C28.544 24.509 28.544 24.5017 28.544 24.4943C28.5427 24.4264 28.5409 24.3596 28.5382 24.2938C28.5199 23.9893 28.4735 23.6978 28.3991 23.4195L32.036 21.3258C32.03 21.5631 31.9968 21.7895 31.9357 22.0051C32.8964 22.1357 33.7357 22.5589 34.4529 23.2748C34.8544 23.6738 35.1648 24.1119 35.3831 24.5888C35.6367 25.1476 35.7629 25.76 35.7618 26.4264C35.7629 27.5091 35.4288 28.4541 34.7593 29.2605L36.4748 30.2461C36.4902 30.2324 36.5053 30.2194 36.5194 30.2072V30.2015C37.0644 29.6662 37.6844 29.3136 38.3796 29.1435V19.8503C37.6841 19.6786 37.0639 19.3259 36.5194 18.7923V18.7867C36.5066 18.7777 36.4935 18.7684 36.4805 18.7589L32.0361 21.3258C32.0361 21.2991 32.0361 21.273 32.0361 21.2479C32.0377 20.877 31.9744 20.5336 31.8466 20.2177C31.73 19.9311 31.5593 19.6675 31.3343 19.427L35.4891 17.0383C35.3949 16.689 35.3467 16.3215 35.3442 15.9357C35.3466 15.5538 35.3948 15.1899 35.4891 14.8444L27.391 10.1783C27.3798 10.1897 27.3684 10.2009 27.3577 10.2118C26.8113 10.7539 26.1894 11.1085 25.4919 11.2753V16.9882C25.1014 16.7739 24.6894 16.6143 24.2555 16.5093C24.013 16.4515 23.7641 16.4107 23.5092 16.3869V11.2863C22.8051 11.1151 22.1793 10.7569 21.6323 10.2118C21.6216 10.2011 21.6104 10.1898 21.5989 10.1783L13.5063 14.8444C13.599 15.1823 13.6492 15.5386 13.6567 15.9136C13.6568 15.9208 13.6568 15.9283 13.6567 15.9357C13.6492 16.3182 13.5971 16.682 13.5007 17.0272L17.9508 19.5773C18.2121 18.9826 18.5927 18.4369 19.0926 17.9402C19.2231 17.8104 19.3568 17.6879 19.4935 17.5727C20.4669 16.7628 21.6086 16.3582 22.9187 16.3589C23.1176 16.3596 23.3125 16.3707 23.5034 16.3923V20.5851C23.1404 20.6727 22.799 20.81 22.4786 20.9972C22.1796 21.1686 21.8992 21.3839 21.6377 21.6431C21.6294 21.6491 21.6199 21.6547 21.6099 21.6599C21.6033 21.6687 21.5958 21.6779 21.5877 21.6877L17.9453 19.5829C17.8154 19.8781 17.7132 20.1844 17.6389 20.5017C17.5573 20.8617 17.5128 21.2367 17.5053 21.6265L12.4982 18.7477C12.4954 18.7543 12.4916 18.76 12.4872 18.7645C12.4824 18.7678 12.4785 18.7714 12.4756 18.7758ZM21.6262 4.51024L21.6373 4.50469C22.2857 3.86443 23.045 3.48583 23.9152 3.36879C24.1031 3.34342 24.2961 3.3305 24.4945 3.32983C25.6062 3.33223 26.5586 3.72384 27.3517 4.50469L27.3627 4.51024C28.1406 5.29328 28.5362 6.23988 28.549 7.34994C28.5492 7.35798 28.5492 7.36726 28.549 7.37779C28.5396 7.75792 28.4856 8.11978 28.3875 8.46364L36.4744 13.1186C36.4889 13.1078 36.5038 13.0966 36.5189 13.0852V13.0685C37.3103 12.2924 38.2666 11.9045 39.3872 11.9048C40.497 11.9035 41.4476 12.2914 42.2387 13.0685L42.2499 13.0907C42.5487 13.39 42.7917 13.713 42.9794 14.0596C43.274 14.6218 43.4244 15.2454 43.4305 15.9305C43.4306 15.9379 43.4306 15.9453 43.4305 15.9527C43.4187 17.0669 43.0231 18.0116 42.2444 18.7869C41.6969 19.3341 41.073 19.6923 40.3729 19.8616V29.1436C41.0707 29.3105 41.6928 29.6631 42.2386 30.2016L42.2498 30.2129C43.0256 30.9977 43.4195 31.9462 43.4304 33.0581C43.4306 33.0636 43.4306 33.0692 43.4304 33.0748C43.4239 33.7052 43.2939 34.2808 43.0405 34.801C42.8487 35.2052 42.5831 35.5762 42.2444 35.9146C41.4515 36.7055 40.4994 37.101 39.3872 37.1008C38.266 37.1001 37.3101 36.7047 36.5189 35.9146C36.5049 35.9025 36.4918 35.8914 36.48 35.8811L28.3875 40.5419C28.4856 40.8821 28.5396 41.244 28.549 41.6276C28.5492 41.6381 28.5492 41.6473 28.549 41.6555C28.5353 42.7697 28.138 43.7143 27.3572 44.4896C26.6884 45.1591 25.905 45.545 25.0068 45.6478C24.8405 45.6675 24.6697 45.6768 24.4944 45.6757C23.3753 45.6748 22.421 45.2796 21.6318 44.4896C20.8498 43.7111 20.458 42.7626 20.4566 41.6442C20.4572 41.2584 20.5036 40.891 20.5959 40.5419L12.5201 35.8811C12.5094 35.8933 12.4983 35.9046 12.4867 35.9146C12.4823 35.9177 12.4784 35.9212 12.4755 35.9257C11.681 36.7168 10.7268 37.1121 9.6128 37.1119C8.49183 37.1109 7.53566 36.7158 6.74448 35.9257C6.34674 35.529 6.05169 35.0872 5.85904 34.6004C5.66792 34.1334 5.57135 33.6248 5.56934 33.0748C5.57174 31.9603 5.96345 31.0103 6.74448 30.224L6.75013 30.2129C7.29564 29.6783 7.91933 29.3275 8.62151 29.1604V19.845C7.91723 19.6755 7.29162 19.3191 6.74448 18.7758C5.96259 17.9974 5.57087 17.049 5.56934 15.9306C5.56953 15.2097 5.73099 14.5565 6.05398 13.9707C6.23534 13.6498 6.46551 13.3493 6.74448 13.0686L6.75013 13.0575C7.53968 12.2813 8.49413 11.8933 9.6128 11.8937C10.7228 11.8925 11.6732 12.2805 12.4644 13.0575C12.4709 13.0671 12.4783 13.0763 12.4867 13.0853C12.5006 13.096 12.5136 13.1071 12.5255 13.1187L20.5958 8.46373C20.5035 8.11671 20.4571 7.75094 20.4565 7.36688C20.4572 6.2506 20.8471 5.29835 21.6262 4.51024Z" fill="#333333"/>
</svg>
