<svg width="93" height="93" viewBox="0 0 93 93" fill="none" xmlns="http://www.w3.org/2000/svg">
<path fill-rule="evenodd" clip-rule="evenodd" d="M40.8632 51.8532C40.8846 51.8746 40.9055 51.8957 40.9257 51.9157C41.4785 52.4667 42.0745 52.9134 42.714 53.2566C43.2516 53.5525 43.82 53.7743 44.4193 53.9222V58.5169H33.8657C33.7892 58.5174 33.7131 58.5174 33.637 58.5169C33.6266 58.5169 33.6164 58.5169 33.6057 58.5169H33.377C32.2985 58.4921 31.2965 58.2843 30.3719 57.8933L40.8632 51.8532ZM48.1312 32.5695C48.97 33.0253 49.7531 33.6146 50.481 34.3368C51.1682 35.0227 51.7366 35.7572 52.1865 36.5408C52.554 36.2468 52.9487 36.0147 53.3716 35.8442C53.961 35.6023 54.6017 35.4811 55.2952 35.4804C56.692 35.4769 57.8841 35.9655 58.8724 36.9463C58.9292 37.0029 58.9847 37.0619 59.0385 37.123L51.698 41.3434C51.6855 41.3214 51.6715 41.3005 51.6562 41.281C51.6338 41.2714 51.6129 41.2612 51.594 41.2497C51.2747 40.9331 50.9415 40.6521 50.5956 40.4077C49.8384 39.8704 49.0172 39.4929 48.1312 39.2745V32.5695ZM23.8315 35.896C22.8116 36.9119 21.6504 37.5771 20.3483 37.8921V55.2835C21.6429 55.5974 22.7971 56.253 23.8107 57.2485C23.8229 57.2596 23.8368 57.2696 23.8524 57.2794C23.8715 57.2961 23.8924 57.3134 23.9147 57.3314L27.138 55.4707C25.8733 53.9658 25.2389 52.2019 25.2353 50.1797C25.2406 48.2351 25.8299 46.5302 27.0029 45.0651C27.2141 44.8024 27.4426 44.5462 27.6892 44.2957C29.2315 42.7602 31.0753 41.9532 33.2212 41.8735C33.2192 41.7389 33.2192 41.6037 33.2212 41.4681C33.2212 41.3887 33.2212 41.3091 33.2212 41.2288L38.9919 44.5553C38.9067 44.8809 38.8443 45.2171 38.8047 45.5638C38.7555 45.8966 38.7277 46.2399 38.7216 46.5929C38.7259 47.3103 38.8159 47.993 38.9919 48.641L27.1589 55.4707C27.3265 55.6748 27.5067 55.8724 27.6997 56.0632C27.7883 56.1526 27.8784 56.239 27.97 56.323C28.7029 57.0041 29.5034 57.5239 30.3717 57.8825L25.7449 60.5539C25.925 61.1961 26.0222 61.8716 26.0361 62.5812C26.0363 62.5949 26.0363 62.6087 26.0361 62.623C26.022 63.323 25.9282 63.9886 25.7552 64.6187L40.8531 73.3197C40.8769 73.2989 40.9014 73.2782 40.9259 73.2573L40.9362 73.2468C41.9547 72.2417 43.1194 71.5799 44.43 71.2612V58.506H48.1315V53.9113C49.4301 53.5961 50.5882 52.9311 51.6045 51.9154C51.6206 51.9068 51.6381 51.9 51.6565 51.8946C51.673 51.8732 51.6903 51.8525 51.7085 51.8321L62.1999 57.8928C61.2067 58.308 60.1254 58.516 58.9556 58.5164C58.9451 58.5164 58.9351 58.5164 58.9249 58.5164H48.1317V71.261C49.4299 71.5821 50.5874 72.2441 51.6047 73.2466C51.6172 73.2543 51.6308 73.2612 51.6465 73.2673C51.6647 73.2863 51.6821 73.3066 51.6985 73.3299L66.8061 64.6391C66.6233 63.9875 66.53 63.301 66.5256 62.5806C66.53 61.8538 66.6201 61.1605 66.7961 60.5014L62.2001 57.8819C62.9804 57.5508 63.7083 57.0938 64.384 56.5097C64.5455 56.3696 64.7051 56.2206 64.8618 56.0627C65.0547 55.8715 65.2382 55.6735 65.4132 55.4702L53.5597 48.6198C53.7293 47.9896 53.8193 47.3205 53.8302 46.6135C53.8302 46.5995 53.8302 46.5858 53.8302 46.572C53.8277 46.4453 53.8243 46.3206 53.8193 46.1977C53.7852 45.6292 53.6986 45.0849 53.5597 44.5655L60.3496 40.6567C60.3384 41.0997 60.2764 41.5224 60.1622 41.9249C61.9559 42.1686 63.5228 42.9587 64.8618 44.2954C65.6113 45.0403 66.1907 45.858 66.5983 46.7485C67.0718 47.7916 67.3074 48.9349 67.3053 50.1792C67.3074 52.2005 66.6837 53.9647 65.4337 55.4702L68.6366 57.3102C68.6652 57.2846 68.6934 57.2603 68.7197 57.2376V57.2269C69.7372 56.2276 70.8948 55.5694 72.1927 55.2517V37.902C70.8941 37.5814 69.7363 36.923 68.7197 35.9268V35.9164C68.6959 35.8994 68.6714 35.8821 68.6471 35.8644L60.3498 40.6565C60.3498 40.6067 60.3498 40.5581 60.3498 40.5111C60.3526 39.8188 60.2345 39.1777 59.996 38.5879C59.7782 38.0528 59.4596 37.5607 59.0394 37.1117L66.7963 32.6521C66.6204 32.0001 66.5304 31.314 66.5258 30.5936C66.5302 29.8807 66.6203 29.2014 66.7963 28.5562L51.6776 19.8451C51.6567 19.8663 51.6354 19.8872 51.6154 19.9074C50.5954 20.9196 49.4344 21.5816 48.1321 21.893V32.5586C47.4031 32.1586 46.6339 31.8605 45.8238 31.6645C45.371 31.5566 44.9065 31.4805 44.4305 31.436V21.9135C43.116 21.5939 41.9477 20.9251 40.9266 19.9074C40.9066 19.8876 40.8857 19.8665 40.864 19.8451L25.7558 28.5562C25.9289 29.1871 26.0225 29.8523 26.0366 30.5523C26.0368 30.5659 26.0368 30.5798 26.0366 30.5936C26.0225 31.3077 25.9253 31.9869 25.7454 32.6313L34.0534 37.3922C34.5412 36.282 35.2518 35.2632 36.185 34.3359C36.4287 34.0936 36.6783 33.8649 36.9335 33.6498C38.7507 32.1378 40.8823 31.3824 43.3281 31.3837C43.6994 31.3851 44.0633 31.4058 44.4198 31.446V39.2738C43.7421 39.4373 43.1046 39.6937 42.5066 40.0432C41.9482 40.3632 41.4247 40.7652 40.9366 41.249C40.921 41.2603 40.9034 41.2706 40.8846 41.2803C40.8723 41.2967 40.8583 41.3141 40.8431 41.3323L34.0431 37.4028C33.8006 37.954 33.6098 38.5257 33.4712 39.118C33.3187 39.7902 33.2357 40.4902 33.2217 41.2181L23.8738 35.8435C23.8684 35.8558 23.8615 35.8664 23.8533 35.8748C23.8442 35.881 23.837 35.8878 23.8315 35.896ZM40.9151 9.26306L40.9359 9.2527C42.1464 8.05739 43.564 7.35056 45.1886 7.13205C45.5393 7.0847 45.8997 7.06058 46.2701 7.05933C48.3456 7.06379 50.1235 7.79492 51.6042 9.2527L51.6247 9.26306C53.0771 10.725 53.8156 12.4922 53.8395 14.5646C53.8399 14.5796 53.8399 14.5969 53.8395 14.6166C53.822 15.3263 53.7213 16.0018 53.5379 16.6438L68.6357 25.3344C68.6628 25.3142 68.6905 25.2933 68.7188 25.272V25.2408C70.1964 23.7919 71.9817 23.0676 74.0737 23.0683C76.1456 23.0658 77.9204 23.79 79.3973 25.2408L79.4182 25.2822C79.9761 25.8409 80.4298 26.4439 80.7802 27.0911C81.3301 28.1406 81.611 29.3048 81.6222 30.5839C81.6226 30.5977 81.6226 30.6116 81.6222 30.6254C81.6003 32.7055 80.8618 34.4692 79.408 35.9167C78.3858 36.9382 77.221 37.607 75.914 37.9231V55.252C77.2167 55.5635 78.3781 56.2219 79.3971 57.2273L79.418 57.2483C80.8665 58.7135 81.6019 60.4843 81.6221 62.5601C81.6224 62.5703 81.6224 62.5808 81.6221 62.5913C81.6099 63.7682 81.3673 64.8428 80.8942 65.814C80.5361 66.5686 80.0403 67.2613 79.408 67.8931C77.9277 69.3696 76.1501 70.1079 74.0737 70.1075C71.9806 70.1063 70.196 69.368 68.7188 67.8931C68.6927 67.8704 68.6682 67.8496 68.6462 67.8305L53.5379 76.5318C53.7211 77.167 53.822 77.8426 53.8395 78.5589C53.8399 78.5783 53.8399 78.5955 53.8395 78.6108C53.814 80.6909 53.0721 82.4544 51.6145 83.902C50.366 85.1518 48.9034 85.8722 47.2265 86.0643C46.916 86.1009 46.5971 86.1185 46.2699 86.1163C44.1805 86.1147 42.399 85.3768 40.9255 83.902C39.4656 82.4485 38.7341 80.6777 38.7316 78.5898C38.7327 77.8695 38.8193 77.1836 38.9916 76.5318L23.9145 67.8305C23.8947 67.8532 23.8738 67.8743 23.8522 67.8931C23.844 67.8988 23.8368 67.9052 23.8313 67.9138C22.3481 69.3907 20.5666 70.1286 18.4869 70.1282C16.3941 70.1265 14.609 69.3887 13.1319 67.9138C12.3893 67.173 11.8385 66.3483 11.4788 65.4395C11.122 64.5676 10.9417 63.618 10.938 62.5913C10.9425 60.5105 11.6738 58.737 13.1319 57.2691L13.1424 57.2483C14.1609 56.2503 15.3253 55.5953 16.6362 55.2833V37.8921C15.3213 37.5757 14.1534 36.9103 13.1319 35.896C11.6721 34.4427 10.9408 32.6721 10.938 30.5841C10.9383 29.2384 11.2398 28.0188 11.8428 26.9251C12.1814 26.326 12.6111 25.765 13.1319 25.2409L13.1424 25.2202C14.6165 23.7712 16.3984 23.0469 18.4869 23.0476C20.5591 23.0452 22.3335 23.7696 23.8106 25.2202C23.8227 25.2383 23.8366 25.2554 23.8522 25.2722C23.8783 25.292 23.9024 25.3128 23.9247 25.3346L38.9914 16.644C38.8192 15.9961 38.7325 15.3132 38.7314 14.5962C38.7327 12.5122 39.4606 10.7344 40.9151 9.26306Z" fill="#333333"/>
</svg>
