<svg width="59" height="59" viewBox="0 0 59 59" fill="none" xmlns="http://www.w3.org/2000/svg">
<g clip-path="url(#clip0_43_3638)">
<path d="M15.1127 0.685059V7.31706H18.4805V17.1096L2.00415 50.0106L7.08179 58.5597H13.7138H49.5163H51.4852L56.6146 50.0106H56.511L40.0346 17.1096V7.31706H43.2988V0.685059H15.1128H15.1127ZM25.2162 7.31706H33.4026V17.006H33.3509L37.6513 25.5551H26.7189L13.5067 51.9277H9.72437L8.63629 50.0624L25.1127 17.1096H25.2163V7.31706H25.2162Z" fill="black"/>
<path d="M25.2241 7.33057V17.1191H25.1109L8.64575 50.0778L9.7208 51.9449H13.5117L26.7235 25.578H37.6437L33.3435 17.0343H33.4001V7.33057H25.2241Z" fill="white"/>
</g>
<defs>
<clipPath id="clip0_43_3638">
<rect width="57.875" height="57.875" fill="white" transform="translate(0.375 0.685547)"/>
</clipPath>
</defs>
</svg>
