<svg width="31" height="31" viewBox="0 0 31 31" fill="none" xmlns="http://www.w3.org/2000/svg">
<g clip-path="url(#clip0_22_2059)">
<path d="M7.89449 -0.000244141V3.5521H9.69842V8.79737L0.873047 26.4203L3.59282 30.9996H7.14516H26.3223H27.3769L30.1244 26.4203H30.0689L21.2436 8.79737V3.5521H22.992V-0.000244141H7.8945H7.89449ZM13.3063 3.5521H17.6912V8.74186H17.6635L19.967 13.3211H14.1112L7.03422 27.4472H5.00828L4.42547 26.4481L13.2508 8.79737H13.3063V3.5521H13.3063Z" fill="black"/>
<path d="M13.3106 3.55927V8.80239H13.25L4.43066 26.4562L5.0065 27.4564H7.03707L14.1138 13.3333H19.963L17.6597 8.75693H17.69V3.55927H13.3106Z" fill="white"/>
</g>
<defs>
<clipPath id="clip0_22_2059">
<rect width="31" height="31" fill="white"/>
</clipPath>
</defs>
</svg>
