<svg width="59" height="59" viewBox="0 0 59 59" fill="none" xmlns="http://www.w3.org/2000/svg">
<g clip-path="url(#clip0_43_3642)">
<path d="M15.0485 0.338135V6.97014H18.4163V16.7627L1.93994 49.6637L7.01758 58.2128H13.6496H49.4521H51.421L56.5504 49.6637H56.4468L39.9704 16.7627V6.97014H43.2346V0.338135H15.0485H15.0485ZM25.152 6.97014H33.3384V16.6591H33.2867L37.5871 25.2082H26.6547L13.4425 51.5808H9.66016L8.57208 49.7155L25.0485 16.7627H25.1521V6.97014H25.152Z" fill="black"/>
<path d="M25.1599 6.98364V16.7722H25.0467L8.58154 49.7308L9.65659 51.598H13.4475L26.6593 25.2311H37.5795L33.2793 16.6873H33.3359V6.98364H25.1599Z" fill="white"/>
</g>
<defs>
<clipPath id="clip0_43_3642">
<rect width="57.875" height="57.875" fill="white" transform="translate(0.310547 0.338623)"/>
</clipPath>
</defs>
</svg>
