<svg width="59" height="59" viewBox="0 0 59 59" fill="none" xmlns="http://www.w3.org/2000/svg">
<g clip-path="url(#clip0_41_2049)">
<path d="M15.1129 0.685059V7.31706H18.4807V17.1096L2.00427 50.0106L7.08191 58.5597H13.7139H49.5164H51.4853L56.6147 50.0106H56.5111L40.0347 17.1096V7.31706H43.2989V0.685059H15.1129H15.1129ZM25.2163 7.31706H33.4027V17.006H33.351L37.6515 25.5551H26.719L13.5068 51.9277H9.72449L8.63642 50.0624L25.1128 17.1096H25.2164V7.31706H25.2163Z" fill="black"/>
<path d="M25.2242 7.33057V17.1191H25.111L8.64587 50.0778L9.72092 51.9449H13.5119L26.7236 25.578H37.6438L33.3436 17.0343H33.4002V7.33057H25.2242Z" fill="white"/>
</g>
<defs>
<clipPath id="clip0_41_2049">
<rect width="57.875" height="57.875" fill="white" transform="translate(0.375 0.685547)"/>
</clipPath>
</defs>
</svg>
