<svg width="31" height="31" viewBox="0 0 31 31" fill="none" xmlns="http://www.w3.org/2000/svg">
<g clip-path="url(#clip0_22_1973)">
<path d="M7.89417 -0.000244141V3.5521H9.6981V8.79737L0.872726 26.4203L3.5925 30.9996H7.14484H26.322H27.3766L30.1241 26.4203H30.0686L21.2432 8.79737V3.5521H22.9917V-0.000244141H7.89418H7.89417ZM13.306 3.5521H17.6909V8.74186H17.6632L19.9667 13.3211H14.1109L7.0339 27.4472H5.00796L4.42515 26.4481L13.2505 8.79737H13.306V3.5521H13.306Z" fill="black"/>
<path d="M13.3102 3.55933V8.80245H13.2496L4.43025 26.4563L5.00609 27.4564H7.03666L14.1134 13.3334H19.9626L17.6593 8.75699H17.6896V3.55933H13.3102Z" fill="white"/>
</g>
<defs>
<clipPath id="clip0_22_1973">
<rect width="31" height="31" fill="white"/>
</clipPath>
</defs>
</svg>
