<svg width="59" height="59" viewBox="0 0 59 59" fill="none" xmlns="http://www.w3.org/2000/svg">
<g clip-path="url(#clip0_41_2053)">
<path d="M15.0483 0.338135V6.97014H18.4161V16.7627L1.9397 49.6637L7.01733 58.2128H13.6493H49.4518H51.4207L56.5502 49.6637H56.4465L39.9701 16.7627V6.97014H43.2343V0.338135H15.0483H15.0483ZM25.1517 6.97014H33.3381V16.6591H33.2864L37.5869 25.2082H26.6544L13.4422 51.5808H9.65991L8.57184 49.7155L25.0482 16.7627H25.1519V6.97014H25.1517Z" fill="black"/>
<path d="M25.1596 6.98364V16.7722H25.0465L8.5813 49.7308L9.65634 51.598H13.4473L26.659 25.2311H37.5792L33.279 16.6873H33.3356V6.98364H25.1596Z" fill="white"/>
</g>
<defs>
<clipPath id="clip0_41_2053">
<rect width="57.875" height="57.875" fill="white" transform="translate(0.310547 0.338623)"/>
</clipPath>
</defs>
</svg>
