<svg width="35" height="35" viewBox="0 0 35 35" fill="none" xmlns="http://www.w3.org/2000/svg">
<g clip-path="url(#clip0_22_2053)">
<path d="M16.787 30.6567L10.9087 26.4671L7.74213 26.439C4.11786 26.4068 4.08634 26.4025 2.7786 25.7691C1.55811 25.1779 0.679579 24.1893 0.222679 22.8929L0.0361176 22.3636L0.0133209 19.9382C0.000770923 18.6042 0.00982342 17.5128 0.0330734 17.5128C0.0564734 17.5128 0.724283 18.0596 1.51711 18.7279L2.95862 19.943L2.95911 20.8781C2.95953 21.5996 2.98957 21.9115 3.09067 22.244C3.36089 23.1326 3.98104 23.8989 4.69783 24.23L5.12597 24.4278H17.5798H30.0336L30.3582 24.2778C30.822 24.0635 31.3194 23.5685 31.5731 23.0687C31.9665 22.2936 31.9928 22.0889 31.9937 19.8006L31.9947 17.7192H19.8859H7.77708L7.75893 19.9166L7.74078 22.1141L4.19729 18.7436C2.24837 16.8899 0.514873 15.2353 0.345078 15.0669L0.0363541 14.7606H17.4981H34.9598L34.9388 18.5965L34.9177 22.4324L34.7316 22.9828C34.1745 24.6305 32.9218 25.7601 31.1003 26.2574C30.5223 26.4152 30.4648 26.4173 26.1635 26.441C22.8469 26.4593 21.8117 26.4846 21.812 26.5473C21.8123 26.5925 22.0125 28.4703 22.2568 30.7202C22.5012 32.9701 22.6931 34.8189 22.6833 34.8286C22.6736 34.8384 20.0203 32.9611 16.7872 30.6568L16.787 30.6567ZM0 8.97797C0 5.72846 0.0171485 5.03854 0.108994 4.59162C0.569579 2.35054 2.41609 0.625722 4.76233 0.244982C5.04494 0.199132 9.49868 0.174918 17.6142 0.175173C29.6016 0.175513 30.056 0.180175 30.6753 0.307955C32.3252 0.648405 33.6805 1.71064 34.4109 3.2356C34.8962 4.24908 34.9074 4.33076 34.9365 7.07862L34.9627 9.5455L34.7343 9.36934C34.6088 9.27245 33.9487 8.71899 33.2675 8.13942L32.029 7.08566L31.9941 5.9863C31.9622 4.98186 31.9434 4.85334 31.7772 4.49782C31.4562 3.81099 30.849 3.34932 30.0734 3.20223C29.5425 3.10154 5.60127 3.10644 5.05539 3.20737C4.21411 3.36288 3.52282 3.87745 3.19155 4.5947L2.99302 5.02457L2.97282 6.96832L2.95261 8.91208H14.5827H26.2128L26.2311 6.93855L26.2493 4.96503L30.5497 8.77118C32.9149 10.8646 34.9111 12.6351 34.9857 12.7057C35.1182 12.8309 34.7014 12.834 17.5607 12.834H7.62939e-06V8.97798L0 8.97797Z" fill="black"/>
</g>
<defs>
<clipPath id="clip0_22_2053">
<rect width="35" height="35" fill="white"/>
</clipPath>
</defs>
</svg>
