<svg width="66" height="66" viewBox="0 0 66 66" fill="none" xmlns="http://www.w3.org/2000/svg">
<g clip-path="url(#clip0_41_2047)">
<path d="M31.5534 57.5329L20.579 49.711L14.6672 49.6586C7.90091 49.5986 7.84206 49.5905 5.40061 48.408C3.12203 47.3043 1.48187 45.4586 0.628862 43.0383L0.280564 42.05L0.238004 37.522C0.214574 35.0315 0.231474 32.9939 0.274881 32.9939C0.318567 32.9939 1.56532 34.0148 3.04549 35.2624L5.73668 37.531L5.73761 39.2767C5.73838 40.6237 5.79446 41.2061 5.98321 41.8268C6.4877 43.4857 7.64547 44.9164 8.98368 45.5345L9.78299 45.9037H33.0335H56.2839L56.8899 45.6238C57.7557 45.2238 58.6844 44.2995 59.158 43.3665C59.8925 41.9193 59.9417 41.5373 59.9434 37.2651L59.9452 33.3793H37.3388H14.7324L14.6985 37.4818L14.6647 41.5842L8.0492 35.2918C4.41069 31.831 1.17437 28.7421 0.857372 28.4275L0.281005 27.8557H32.881H65.4809L65.4416 35.0171L65.4023 42.1785L65.0548 43.2062C64.0147 46.2822 61.676 48.3911 58.2754 49.3195C57.1963 49.6141 57.0889 49.6181 49.0587 49.6624C42.8668 49.6966 40.9341 49.7437 40.9348 49.8607C40.9353 49.9452 41.309 53.451 41.7652 57.6514C42.2214 61.8517 42.5797 65.3033 42.5614 65.3215C42.5432 65.3397 37.5897 61.8349 31.5538 57.5329L31.5534 57.5329ZM0.213135 17.06C0.213135 10.9934 0.24515 9.70533 0.416619 8.87095C1.2765 4.687 4.72383 1.46688 9.1041 0.756065C9.63172 0.670466 17.9466 0.62526 33.0978 0.625736C55.4774 0.626371 56.3257 0.635075 57.4819 0.873632C60.5621 1.50923 63.0925 3.49235 64.456 6.33935C65.3621 8.23146 65.383 8.38395 65.4374 13.514L65.4862 18.1195L65.0599 17.7907C64.8255 17.6098 63.5931 16.5765 62.3214 15.4945L60.0092 13.5272L59.944 11.4747C59.8844 9.59951 59.8495 9.35958 59.5392 8.69584C58.9397 7.41357 57.8063 6.55166 56.3583 6.27705C55.367 6.08907 10.6704 6.09822 9.65122 6.28665C8.08061 6.57699 6.79001 7.53764 6.17155 8.8767L5.80091 9.67924L5.76319 13.3081L5.72547 16.937H27.4381H49.1508L49.1849 13.2525L49.219 9.56809L57.2474 16.6739C61.6631 20.5821 65.3899 23.8876 65.5293 24.0193C65.7765 24.2532 64.9984 24.259 32.9979 24.259H0.213149V17.06L0.213135 17.06Z" fill="black"/>
</g>
<defs>
<clipPath id="clip0_41_2047">
<rect width="65.3427" height="65.3427" fill="white" transform="translate(0.213623 0.29834)"/>
</clipPath>
</defs>
</svg>
