<svg width="35" height="35" viewBox="0 0 35 35" fill="none" xmlns="http://www.w3.org/2000/svg">
<g clip-path="url(#clip0_22_1967)">
<path d="M16.7868 30.6569L10.9084 26.4672L7.74189 26.4391C4.11761 26.407 4.08609 26.4027 2.77836 25.7692C1.55787 25.1781 0.679335 24.1894 0.222435 22.893L0.0358734 22.3637L0.0130768 19.9383C0.000526782 18.6043 0.00957928 17.5129 0.0328293 17.5129C0.0562293 17.5129 0.724039 18.0597 1.51687 18.728L2.95837 19.9431L2.95887 20.8782C2.95929 21.5997 2.98932 21.9116 3.09042 22.2441C3.36065 23.1327 3.98079 23.899 4.69759 24.2301L5.12572 24.4279H17.5795H30.0334L30.3579 24.2779C30.8217 24.0637 31.3191 23.5686 31.5728 23.0688C31.9663 22.2937 31.9926 22.089 31.9935 19.8007L31.9945 17.7193H19.8857H7.77683L7.75868 19.9167L7.74053 22.1142L4.19704 18.7437C2.24812 16.89 0.514628 15.2354 0.344833 15.067L0.0361099 14.7607H17.4979H34.9596L34.9385 18.5966L34.9175 22.4325L34.7314 22.983C34.1742 24.6306 32.9216 25.7602 31.1001 26.2575C30.522 26.4153 30.4646 26.4174 26.1633 26.4411C22.8467 26.4594 21.8114 26.4847 21.8118 26.5474C21.8121 26.5926 22.0122 28.4705 22.2566 30.7203C22.5009 32.9702 22.6928 34.819 22.6831 34.8288C22.6733 34.8385 20.0201 32.9612 16.787 30.6569L16.7868 30.6569ZM-0.000244141 8.97809C-0.000244141 5.72859 0.0169044 5.03866 0.108749 4.59174C0.569334 2.35066 2.41585 0.625844 4.76208 0.245104C5.0447 0.199254 9.49844 0.17504 17.614 0.175295C29.6013 0.175635 30.0557 0.180297 30.675 0.308077C32.3249 0.648527 33.6803 1.71076 34.4106 3.23572C34.896 4.2492 34.9071 4.33088 34.9363 7.07874L34.9624 9.54563L34.7341 9.36946C34.6085 9.27257 33.9484 8.71911 33.2673 8.13954L32.0288 7.08579L31.9938 5.98642C31.9619 4.98198 31.9432 4.85347 31.777 4.49794C31.4559 3.81111 30.8488 3.34944 30.0732 3.20235C29.5422 3.10166 5.60103 3.10656 5.05515 3.20749C4.21387 3.36301 3.52258 3.87757 3.19131 4.59482L2.99277 5.02469L2.97257 6.96845L2.95237 8.9122H14.5825H26.2126L26.2309 6.93868L26.2491 4.96515L30.5495 8.7713C32.9146 10.8647 34.9109 12.6352 34.9855 12.7058C35.118 12.8311 34.7012 12.8341 17.5605 12.8341H-0.000236511V8.97811L-0.000244141 8.97809Z" fill="black"/>
</g>
<defs>
<clipPath id="clip0_22_1967">
<rect width="35" height="35" fill="white"/>
</clipPath>
</defs>
</svg>
