<svg width="66" height="66" viewBox="0 0 66 66" fill="none" xmlns="http://www.w3.org/2000/svg">
<g clip-path="url(#clip0_43_3636)">
<path d="M31.5537 57.5329L20.5792 49.711L14.6674 49.6586C7.90116 49.5986 7.84231 49.5906 5.40085 48.408C3.12227 47.3043 1.48211 45.4586 0.629106 43.0383L0.280808 42.05L0.238248 37.522C0.214818 35.0315 0.231719 32.9939 0.275125 32.9939C0.318811 32.9939 1.56557 34.0148 3.04573 35.2624L5.73693 37.531L5.73785 39.2767C5.73863 40.6237 5.79471 41.2061 5.98346 41.8268C6.48795 43.4857 7.64571 44.9164 8.98392 45.5345L9.78323 45.9037H33.0337H56.2842L56.8901 45.6238C57.756 45.2238 58.6846 44.2995 59.1582 43.3665C59.8928 41.9193 59.942 41.5373 59.9436 37.2651L59.9455 33.3793H37.3391H14.7327L14.6988 37.4818L14.6649 41.5842L8.04945 35.2918C4.41094 31.831 1.17461 28.7421 0.857616 28.4275L0.28125 27.8557H32.8812H65.4811L65.4418 35.0171L65.4025 42.1785L65.0551 43.2062C64.0149 46.2822 61.6762 48.3911 58.2757 49.3195C57.1965 49.6141 57.0892 49.6181 49.059 49.6624C42.8671 49.6966 40.9344 49.7437 40.9351 49.8607C40.9356 49.9452 41.3092 53.451 41.7654 57.6514C42.2216 61.8517 42.5799 65.3033 42.5617 65.3215C42.5435 65.3397 37.59 61.8349 31.554 57.5329L31.5537 57.5329ZM0.213379 17.06C0.213379 10.9934 0.245394 9.70533 0.416863 8.87095C1.27675 4.687 4.72407 1.46688 9.10434 0.756065C9.63196 0.670466 17.9468 0.62526 33.098 0.625736C55.4776 0.626371 56.3259 0.635075 57.4821 0.873632C60.5624 1.50923 63.0928 3.49235 64.4562 6.33935C65.3624 8.23146 65.3832 8.38395 65.4376 13.514L65.4864 18.1195L65.0601 17.7907C64.8257 17.6098 63.5934 16.5765 62.3217 15.4945L60.0095 13.5272L59.9442 11.4747C59.8847 9.59951 59.8497 9.35958 59.5394 8.69584C58.94 7.41357 57.8065 6.55166 56.3585 6.27705C55.3673 6.08907 10.6706 6.09822 9.65146 6.28665C8.08086 6.57699 6.79026 7.53764 6.1718 8.8767L5.80115 9.67925L5.76344 13.3081L5.72572 16.937H27.4384H49.1511L49.1851 13.2525L49.2192 9.56809L57.2477 16.6739C61.6633 20.5821 65.3902 23.8876 65.5295 24.0193C65.7768 24.2532 64.9987 24.259 32.9981 24.259H0.213393V17.06L0.213379 17.06Z" fill="black"/>
</g>
<defs>
<clipPath id="clip0_43_3636">
<rect width="65.3427" height="65.3427" fill="white" transform="translate(0.213867 0.29834)"/>
</clipPath>
</defs>
</svg>
