<svg width="30" height="43" viewBox="0 0 30 43" fill="none" xmlns="http://www.w3.org/2000/svg">
<g clip-path="url(#clip0_27_2461)">
<path fill-rule="evenodd" clip-rule="evenodd" d="M4.6393 0.0307617H20.0605C21.3396 0.0307617 22.507 0.553145 23.3393 1.39131C24.1833 2.23619 24.6981 3.3977 24.6981 4.6709V24.4568H23.0932V4.62639H1.59822V36.5262H23.0932V24.4568H24.6981V38.331C24.6981 39.6109 24.1766 40.7791 23.3393 41.6097C22.4935 42.4555 21.3329 42.9695 20.0605 42.9695H4.6393C3.35854 42.9695 2.19115 42.4487 1.35971 41.6097C0.514824 40.7665 0 39.605 0 38.331V4.66418C0 3.38426 0.520703 2.21604 1.35971 1.38375C2.20375 0.540547 3.35854 0.0307617 4.6393 0.0307617ZM12.3432 37.9774C13.393 37.9774 14.2505 38.8223 14.2505 39.8839C14.2505 40.9345 13.4056 41.792 12.3432 41.792C11.2934 41.792 10.4351 40.948 10.4351 39.8839C10.4351 38.8357 11.2799 37.9774 12.3432 37.9774Z" fill="black"/>
</g>
<defs>
<clipPath id="clip0_27_2461">
<rect width="29.2266" height="43" fill="white"/>
</clipPath>
</defs>
</svg>
