<svg width="30" height="43" viewBox="0 0 30 43" fill="none" xmlns="http://www.w3.org/2000/svg">
<g clip-path="url(#clip0_27_2352)">
<path fill-rule="evenodd" clip-rule="evenodd" d="M4.6393 0.0307007H20.0605C21.3396 0.0307007 22.507 0.553084 23.3393 1.39125C24.1833 2.23613 24.6981 3.39763 24.6981 4.67084V24.4567H23.0932V4.62633H1.59822V36.5261H23.0932V24.4567H24.6981V38.3309C24.6981 39.6109 24.1766 40.7791 23.3393 41.6097C22.4935 42.4554 21.3329 42.9694 20.0605 42.9694H4.6393C3.35854 42.9694 2.19115 42.4487 1.35971 41.6097C0.514824 40.7665 0 39.605 0 38.3309V4.66412C0 3.3842 0.520703 2.21597 1.35971 1.38369C2.20375 0.540486 3.35854 0.0307007 4.6393 0.0307007ZM12.3432 37.9774C13.393 37.9774 14.2505 38.8222 14.2505 39.8838C14.2505 40.9345 13.4056 41.7919 12.3432 41.7919C11.2934 41.7919 10.4351 40.9479 10.4351 39.8838C10.4351 38.8357 11.2799 37.9774 12.3432 37.9774Z" fill="black"/>
</g>
<defs>
<clipPath id="clip0_27_2352">
<rect width="29.2266" height="43" fill="white"/>
</clipPath>
</defs>
</svg>
