<svg width="46" height="66" viewBox="0 0 46 66" fill="none" xmlns="http://www.w3.org/2000/svg">
<g clip-path="url(#clip0_43_3583)">
<path fill-rule="evenodd" clip-rule="evenodd" d="M7.96539 0.144043H31.3532C33.293 0.144043 35.0635 0.936288 36.3257 2.20745C37.6058 3.48879 38.3866 5.25033 38.3866 7.18126V37.1885H35.9525V7.11376H3.3533V55.4929H35.9525V37.1885H38.3866V58.2301C38.3866 60.1712 37.5956 61.9429 36.3257 63.2026C35.0431 64.4852 33.2828 65.2648 31.3532 65.2648H7.96539C6.02299 65.2648 4.25254 64.4751 2.99157 63.2026C1.71022 61.9238 0.929443 60.1623 0.929443 58.2301V7.17107C0.929443 5.22995 1.71914 3.45822 2.99157 2.19598C4.27165 0.917182 6.02299 0.144043 7.96539 0.144043ZM19.6491 57.6939C21.2412 57.6939 22.5417 58.9752 22.5417 60.5852C22.5417 62.1786 21.2603 63.479 19.6491 63.479C18.057 63.479 16.7552 62.199 16.7552 60.5852C16.7552 58.9956 18.0366 57.6939 19.6491 57.6939Z" fill="black"/>
</g>
<defs>
<clipPath id="clip0_43_3583">
<rect width="44.3249" height="65.2137" fill="white" transform="translate(0.929443 0.0974121)"/>
</clipPath>
</defs>
</svg>
