<svg width="36" height="53" viewBox="0 0 36 53" fill="none" xmlns="http://www.w3.org/2000/svg">
<g clip-path="url(#clip0_22_2045)">
<path fill-rule="evenodd" clip-rule="evenodd" d="M5.71448 0.0378418H24.7097C26.2852 0.0378418 27.7231 0.68129 28.7483 1.7137C29.7879 2.75439 30.4221 4.18508 30.4221 5.75336V13.0206H28.4452V5.69853H1.96862V44.9913H28.4452V30.1247H30.4221V47.2144C30.4221 48.7909 29.7797 50.2299 28.7483 51.253C27.7066 52.2947 26.2769 52.9278 24.7097 52.9278H5.71448C4.1369 52.9278 2.69897 52.2865 1.67483 51.253C0.634138 50.2144 0 48.7837 0 47.2144V5.74508C0 4.16853 0.641379 2.72957 1.67483 1.70439C2.71448 0.665773 4.1369 0.0378418 5.71448 0.0378418ZM36 16.9578V24.942C36 25.4851 35.5572 25.9289 35.0131 25.9289H29.4734L27.1562 27.9906C26.9235 28.2513 26.4838 28.0899 26.4838 27.7341L26.3679 25.9289H24.6703C24.1283 25.9289 23.6834 25.4841 23.6834 24.942V16.9578C23.6834 16.4178 24.1303 15.972 24.6703 15.972H35.0131C35.5531 15.972 36 16.4168 36 16.9578ZM26.7848 20.1834C26.5055 20.1834 26.2779 19.9568 26.2779 19.6775C26.2779 19.3982 26.5055 19.1706 26.7848 19.1706H33.3103C33.5897 19.1706 33.8162 19.3982 33.8162 19.6775C33.8162 19.9568 33.5897 20.1834 33.3103 20.1834H26.7848ZM26.7848 22.8834C26.5055 22.8834 26.2779 22.6568 26.2779 22.3775C26.2779 22.0972 26.5055 21.8706 26.7848 21.8706H32.1062C32.3855 21.8706 32.6121 22.0972 32.6121 22.3775C32.6121 22.6568 32.3855 22.8834 32.1062 22.8834H26.7848ZM4.64379 7.89577H7.40379C7.67897 7.89577 7.90448 8.12129 7.90448 8.39646V8.92922L9.49862 7.97129V10.994L7.90448 10.1344V10.8275C7.90448 11.1027 7.67897 11.3272 7.40379 11.3272H4.64379C4.36759 11.3272 4.1431 11.1027 4.1431 10.8275V8.39646C4.14338 8.26376 4.19622 8.13656 4.29005 8.04272C4.38389 7.94889 4.51109 7.89605 4.64379 7.89577ZM12.8214 29.4109L15.449 31.242L17.9152 29.1875C17.7786 28.9785 17.639 28.7034 17.5303 28.4168C18.6259 29.1865 18.8628 30.8044 18.8266 32.112C18.8214 32.2765 18.8162 32.3241 18.8131 32.3789C18.1241 32.533 17.6338 33.1444 17.6338 33.8499C17.6338 34.2658 17.8024 34.6434 18.0755 34.9154C18.6072 35.4472 19.3821 35.5682 20.0648 35.0354C20.4176 34.7592 20.6441 34.3299 20.6441 33.8478C20.6441 33.5944 20.5769 33.3658 20.461 33.1641C20.2076 32.7254 19.9324 32.5961 19.5114 32.3861C19.4814 32.3706 19.5124 32.3065 19.5176 32.1275C19.5403 31.3361 19.4845 30.4992 19.2703 29.7482C19.4566 29.8454 19.651 29.923 19.8507 29.9882C20.5138 30.1444 21.3807 30.1599 22.1524 30.3751C25.8652 31.4127 25.6521 32.7999 26.1517 37.123C26.099 37.6765 25.7855 37.9951 25.1679 38.0416H5.2531C4.63655 37.9951 4.32207 37.6744 4.26931 37.123C4.55276 32.3623 5.86862 30.6337 10.2579 29.9903C10.649 29.9334 11.0183 29.8578 11.3452 29.7699C11.191 30.2396 11.1052 30.7103 11.0783 31.1178C10.9014 31.2472 10.4617 31.3982 10.3221 31.5668C10.0775 31.8582 9.85939 32.1708 9.67035 32.5009C9.63931 32.5537 9.62276 32.6137 9.62276 32.6737C9.62276 32.7213 9.67345 32.7699 9.65172 32.8113L9.61966 32.8734C9.18104 33.7278 8.89448 34.6682 9.03104 35.0737C9.09414 35.2661 9.24724 35.3923 9.47276 35.4627C9.69841 35.5216 9.93229 35.5426 10.1648 35.5247C10.2569 35.6096 10.3945 35.6737 10.5197 35.6737C10.5906 35.6737 10.6605 35.6559 10.7228 35.6218C10.7851 35.5878 10.8379 35.5387 10.8763 35.479C10.9147 35.4193 10.9375 35.3509 10.9426 35.2801C10.9477 35.2093 10.935 35.1383 10.9055 35.0737C10.7317 34.6734 10.1907 34.7809 10.1307 34.9951C10.1234 35.0189 10.1297 35.0292 10.1193 35.0478C10.0831 35.0499 10.0469 35.052 10.0107 35.052C9.87828 35.052 9.74483 35.0385 9.61655 35.0044C9.54103 34.9847 9.49655 34.9547 9.48724 34.9227C9.38897 34.6392 9.6569 33.852 10.0438 33.0916C10.0593 33.0606 10.0748 33.0296 10.0914 32.9996C10.166 32.9721 10.2283 32.9189 10.2672 32.8496C10.4343 32.5561 10.6271 32.2781 10.8434 32.0189C10.9107 31.9392 11.1238 31.814 11.2831 31.7572C11.37 31.7272 11.4207 31.7044 11.491 31.7582C11.5821 31.8265 11.6669 31.904 11.7424 31.9899C11.9731 32.2506 12.1769 32.5372 12.3507 32.8392C12.39 32.9075 12.4841 32.922 12.5255 32.9892C12.9714 33.7123 13.2238 34.543 13.1638 34.8585C13.1503 34.933 13.0893 34.9775 12.9931 35.0085C12.8493 35.0458 12.6993 35.0675 12.5503 35.0706C12.5224 35.0137 12.5431 35.0437 12.5266 34.9878C12.4903 34.8637 12.2938 34.8068 12.1541 34.8016C11.9783 34.7965 11.8221 34.9123 11.7517 35.0737C11.6286 35.3551 11.8241 35.6737 12.1376 35.6737C12.2534 35.6737 12.3755 35.6189 12.4655 35.5485C12.4852 35.5485 12.5059 35.5496 12.5255 35.5496C12.7355 35.5496 12.9466 35.5247 13.1462 35.4627C13.4028 35.3809 13.5838 35.2196 13.6355 34.9465C13.71 34.5347 13.411 33.6244 12.9693 32.7999C12.9869 32.7565 12.9962 32.7099 12.9962 32.6634C12.9962 32.6013 12.9797 32.5403 12.9486 32.4865C12.75 32.1433 12.5178 31.8207 12.2555 31.5234C12.1159 31.3651 11.8066 31.3196 11.7745 31.1106C11.6897 30.5644 11.9255 29.8878 12.2793 29.3003C12.6476 28.842 12.4831 28.7675 13.1566 28.5027C12.9734 28.3661 12.7997 28.2058 12.6269 28.0558C11.9462 27.4682 11.3772 26.9685 11.2686 25.7644C10.2579 25.6744 9.81621 23.6251 10.5528 22.992C10.3107 22.8316 11.0017 19.3651 9.2731 18.8427C12.0455 15.4175 15.089 14.7875 17.639 16.8854C20.2914 17.024 21.57 20.8599 19.7669 22.9247C20.6617 23.1254 20.3266 24.6647 19.9479 25.2347C19.7276 25.5678 19.4348 25.7882 19.0955 25.7675C19.0728 26.8661 18.5348 27.374 17.8334 28.033C17.3855 28.4561 17.0503 28.7778 16.4441 28.9951C15.7293 29.2496 14.8055 29.2444 14.0876 28.9992C13.8062 28.903 13.4524 28.7592 13.2041 28.6051C13.0966 28.9196 12.9683 29.1844 12.8214 29.4109ZM19.1576 33.1734C19.2483 33.1734 19.3381 33.1912 19.4219 33.226C19.5057 33.2607 19.5818 33.3116 19.6459 33.3758C19.7099 33.44 19.7607 33.5162 19.7954 33.6C19.83 33.6839 19.8477 33.7737 19.8476 33.8644C19.8476 34.2451 19.5393 34.5544 19.1576 34.5544C18.7759 34.5544 18.4666 34.2451 18.4666 33.8644C18.4666 33.6811 18.5394 33.5054 18.669 33.3758C18.7985 33.2462 18.9743 33.1734 19.1576 33.1734ZM16.3438 28.4292C16.8145 28.2389 17.0897 27.9596 17.4434 27.6234C18.1169 26.9913 18.6134 26.5247 18.5183 25.3909C18.5141 25.3299 18.5297 25.2668 18.5648 25.212C18.6066 25.1498 18.6712 25.1067 18.7447 25.092C18.8181 25.0772 18.8944 25.0921 18.9569 25.1334C19.1472 25.2596 19.3366 25.1354 19.4783 24.9223C19.6666 24.6368 19.9262 23.8196 19.6924 23.5185C19.6262 23.4327 19.4452 23.4668 19.0986 23.7306C19.0366 23.7844 18.9528 23.8113 18.8648 23.7968C18.8282 23.7905 18.7932 23.7771 18.7617 23.7572C18.7303 23.7374 18.7031 23.7116 18.6817 23.6812C18.6603 23.6508 18.645 23.6166 18.6369 23.5803C18.6287 23.544 18.6278 23.5065 18.6341 23.4699C18.8814 22.0268 18.7572 21.132 18.4417 20.5382C18.1666 20.022 17.7259 19.7178 17.2583 19.4685C16.2166 20.264 15.4831 20.3551 14.7517 20.4451C14.1497 20.5185 13.5486 20.594 12.7531 21.1444C12.3766 21.4051 12.1252 21.7206 11.9979 22.0868C11.8686 22.4561 11.8593 22.8885 11.9648 23.3758C11.9886 23.4616 11.971 23.5589 11.91 23.6323C11.8117 23.7534 11.6317 23.7699 11.5117 23.6706C11.1652 23.384 10.9676 23.3561 10.8817 23.4606C10.5569 23.8547 10.8807 25.3589 11.4507 25.184L11.5262 25.1727C11.6011 25.1709 11.6736 25.1988 11.7279 25.2504C11.7822 25.302 11.8138 25.373 11.8159 25.4478C11.8438 26.623 12.3631 27.0823 12.9962 27.6275C13.411 27.9875 13.7276 28.2792 14.2697 28.4644C14.9369 28.692 15.6776 28.6351 16.3438 28.4292ZM15.2038 46.7789C16.4969 46.7789 17.5531 47.8196 17.5531 49.1272C17.5531 50.4213 16.5124 51.4775 15.2038 51.4775C13.9107 51.4775 12.8534 50.4378 12.8534 49.1272C12.8534 47.8361 13.8941 46.7789 15.2038 46.7789Z" fill="black"/>
</g>
<defs>
<clipPath id="clip0_22_2045">
<rect width="36" height="52.9655" fill="white"/>
</clipPath>
</defs>
</svg>
