<svg width="68" height="100" viewBox="0 0 68 100" fill="none" xmlns="http://www.w3.org/2000/svg">
<g clip-path="url(#clip0_43_3628)">
<path fill-rule="evenodd" clip-rule="evenodd" d="M10.8502 0.381104H46.313C49.2544 0.381104 51.9389 1.58238 53.8528 3.50983C55.7938 5.45273 56.9777 8.12374 56.9777 11.0516V24.6191H53.2869V10.9492H3.85693V84.3063H53.2869V56.5514H56.9777V88.4567C56.9777 91.4 55.7783 94.0865 53.8528 95.9965C51.908 97.9414 49.2389 99.1233 46.313 99.1233H10.8502C7.90496 99.1233 5.22044 97.9259 3.30844 95.9965C1.36554 94.0575 0.181641 91.3865 0.181641 88.4567V11.0362C0.181641 8.09283 1.37905 5.40638 3.30844 3.49245C5.2494 1.55341 7.90496 0.381104 10.8502 0.381104ZM67.3913 31.9697V46.8755C67.3913 47.8895 66.5647 48.718 65.5488 48.718H55.2067L50.8805 52.5671C50.446 53.0538 49.6252 52.7525 49.6252 52.0881L49.4089 48.718H46.2396C45.2276 48.718 44.3971 47.8875 44.3971 46.8755V31.9697C44.3971 30.9615 45.2314 30.1291 46.2396 30.1291H65.5488C66.557 30.1291 67.3913 30.9596 67.3913 31.9697V31.9697ZM50.1872 37.9915C49.6657 37.9915 49.2408 37.5685 49.2408 37.0471C49.2408 36.5256 49.6657 36.1007 50.1872 36.1007H62.3699C62.8914 36.1007 63.3143 36.5256 63.3143 37.0471C63.3143 37.5685 62.8914 37.9915 62.3699 37.9915H50.1872ZM50.1872 43.0322C49.6657 43.0322 49.2408 42.6093 49.2408 42.0878C49.2408 41.5644 49.6657 41.1415 50.1872 41.1415H60.1219C60.6433 41.1415 61.0663 41.5644 61.0663 42.0878C61.0663 42.6093 60.6433 43.0322 60.1219 43.0322H50.1872ZM8.8513 15.0514H14.004C14.5178 15.0514 14.9388 15.4724 14.9388 15.9861V16.9807L17.915 15.1923V20.8356L14.9388 19.2307V20.5247C14.9388 21.0384 14.5178 21.4575 14.004 21.4575H8.8513C8.33564 21.4575 7.91655 21.0384 7.91655 20.5247V15.9861C7.91706 15.7384 8.0157 15.5009 8.19089 15.3257C8.36608 15.1505 8.60355 15.0519 8.8513 15.0514V15.0514ZM24.1183 55.2188L29.0239 58.6372L33.6281 54.8016C33.3732 54.4115 33.1125 53.8978 32.9097 53.3628C34.9549 54.7997 35.3972 57.8203 35.3296 60.2615C35.3199 60.5685 35.3103 60.6574 35.3045 60.7597C34.0182 61.0475 33.1028 62.1889 33.1028 63.5061C33.1028 64.2824 33.4176 64.9874 33.9275 65.4953C34.9202 66.488 36.3667 66.714 37.6414 65.7193C38.3 65.2037 38.7229 64.4022 38.7229 63.5022C38.7229 63.029 38.5974 62.6022 38.3811 62.2256C37.9079 61.4067 37.3942 61.1653 36.6081 60.7733C36.5521 60.7443 36.6101 60.6245 36.6197 60.2904C36.6622 58.813 36.5579 57.2505 36.1581 55.8484C36.5058 56.0299 36.8689 56.1748 37.2416 56.2965C38.4796 56.5881 40.098 56.6171 41.5388 57.0188C48.4702 58.9559 48.0724 61.5458 49.0052 69.6167C48.9067 70.65 48.3215 71.2448 47.1685 71.3317H9.98885C8.83778 71.2448 8.25066 70.6461 8.15217 69.6167C8.68135 60.7288 11.138 57.5016 19.3325 56.3003C20.0626 56.1941 20.7521 56.0531 21.3623 55.889C21.0746 56.7658 20.9143 57.6445 20.8641 58.4055C20.5338 58.6469 19.713 58.9288 19.4523 59.2437C18.9957 59.7877 18.5885 60.3713 18.2356 60.9876C18.1776 61.0861 18.1467 61.1981 18.1467 61.3102C18.1467 61.399 18.2413 61.4898 18.2008 61.567L18.1409 61.6829C17.322 63.2782 16.7871 65.0337 17.042 65.7908C17.1598 66.15 17.4456 66.3856 17.8667 66.517C18.2879 66.627 18.7246 66.6662 19.1587 66.6329C19.3306 66.7912 19.5875 66.911 19.8212 66.911C19.9537 66.9109 20.0841 66.8776 20.2004 66.8141C20.3168 66.7506 20.4153 66.6589 20.487 66.5474C20.5587 66.436 20.6012 66.3083 20.6108 66.1761C20.6203 66.0439 20.5965 65.9114 20.5415 65.7908C20.2171 65.0434 19.207 65.2442 19.095 65.644C19.0815 65.6884 19.0931 65.7078 19.0737 65.7425C19.0061 65.7464 18.9385 65.7502 18.871 65.7502C18.6237 65.7502 18.3746 65.7251 18.1351 65.6614C17.9941 65.6247 17.9111 65.5687 17.8937 65.5088C17.7102 64.9797 18.2104 63.5099 18.9328 62.0904C18.9617 62.0325 18.9907 61.9745 19.0216 61.9185C19.1609 61.8672 19.2773 61.7679 19.3499 61.6385C19.6618 61.0906 20.0218 60.5716 20.4257 60.0876C20.5512 59.9389 20.949 59.7052 21.2465 59.599C21.4087 59.543 21.5033 59.5005 21.6347 59.6009C21.8046 59.7284 21.963 59.8733 22.104 60.0336C22.5347 60.5202 22.9151 61.0552 23.2396 61.6192C23.313 61.7466 23.4887 61.7737 23.566 61.8992C24.3984 63.2492 24.8696 64.8 24.7576 65.3891C24.7325 65.5281 24.6185 65.6112 24.4389 65.6691C24.1705 65.7387 23.8904 65.7792 23.6123 65.785C23.5602 65.6788 23.5988 65.7348 23.5679 65.6305C23.5003 65.3987 23.1334 65.2925 22.8726 65.2829C22.5443 65.2732 22.2527 65.4895 22.1214 65.7908C21.8915 66.3161 22.2565 66.911 22.8417 66.911C23.058 66.911 23.2859 66.8086 23.454 66.6773C23.4907 66.6773 23.5293 66.6792 23.566 66.6792C23.958 66.6792 24.352 66.6329 24.7248 66.517C25.2037 66.3644 25.5417 66.0631 25.6383 65.5533C25.7773 64.7846 25.2192 63.085 24.3945 61.5458C24.4273 61.4647 24.4447 61.3778 24.4447 61.2908C24.4447 61.175 24.4138 61.061 24.3559 60.9606C23.985 60.32 23.5516 59.7177 23.0619 59.1625C22.8012 58.867 22.2237 58.7821 22.1638 58.3919C22.0055 57.3722 22.4458 56.1091 23.1063 55.0121C23.7939 54.1566 23.4868 54.0175 24.7441 53.5231C24.4022 53.2682 24.0778 52.9688 23.7552 52.6888C22.4844 51.5918 21.4222 50.659 21.2194 48.4109C19.3325 48.2429 18.5079 44.417 19.883 43.235C19.431 42.9356 20.7211 36.4638 17.4939 35.4885C22.6698 29.0939 28.3518 27.9178 33.1124 31.8345C38.0643 32.0933 40.4514 39.2546 37.0852 43.1095C38.7557 43.4841 38.13 46.3579 37.4231 47.4221C37.0118 48.044 36.4652 48.4553 35.8317 48.4167C35.7892 50.4678 34.785 51.416 33.4755 52.6463C32.6393 53.4362 32.0135 54.0368 30.8818 54.4424C29.5472 54.9175 27.8226 54.9079 26.4823 54.4501C25.9569 54.2705 25.2964 54.0021 24.8329 53.7143C24.6321 54.3014 24.3926 54.7958 24.1183 55.2188V55.2188ZM35.9476 62.243C36.1169 62.243 36.2846 62.2764 36.441 62.3412C36.5974 62.4061 36.7395 62.5011 36.8592 62.621C36.9788 62.7408 37.0737 62.883 37.1383 63.0395C37.2029 63.196 37.2361 63.3638 37.2358 63.5331C37.2358 64.2438 36.6603 64.8213 35.9476 64.8213C35.235 64.8213 34.6575 64.2438 34.6575 63.5331C34.6575 63.1909 34.7934 62.8628 35.0354 62.6208C35.2773 62.3789 35.6055 62.243 35.9476 62.243ZM30.6944 53.386C31.5732 53.0306 32.0869 52.5092 32.7474 51.8815C34.0047 50.7015 34.9317 49.8304 34.7541 47.7137C34.7463 47.5998 34.7753 47.482 34.841 47.3796C34.919 47.2636 35.0397 47.183 35.1767 47.1555C35.3138 47.128 35.4562 47.1558 35.5729 47.2328C35.9283 47.4684 36.2817 47.2367 36.5463 46.8388C36.8978 46.3058 37.3826 44.78 36.9461 44.218C36.8225 44.0577 36.4845 44.1215 35.8375 44.614C35.7217 44.7144 35.5652 44.7646 35.4011 44.7376C35.3327 44.7258 35.2673 44.7007 35.2086 44.6637C35.1499 44.6267 35.0991 44.5784 35.0591 44.5217C35.0191 44.4651 34.9907 44.401 34.9755 44.3333C34.9602 44.2657 34.9585 44.1956 34.9704 44.1273C35.432 41.4331 35.2002 39.7625 34.6111 38.6539C34.0974 37.6902 33.2747 37.1224 32.4017 36.6569C30.4569 38.1421 29.0876 38.3121 27.7222 38.4801C26.5981 38.6172 25.476 38.7582 23.9909 39.7857C23.2879 40.2724 22.8186 40.8614 22.581 41.5451C22.3396 42.2346 22.3222 43.0419 22.5192 43.9515C22.5636 44.1118 22.5308 44.2934 22.4168 44.4305C22.2334 44.6564 21.8973 44.6873 21.6733 44.5019C21.0263 43.967 20.6574 43.9148 20.4971 44.1099C19.8907 44.8457 20.4952 47.6538 21.5593 47.3275L21.7003 47.3062C21.8401 47.3028 21.9755 47.355 22.0769 47.4513C22.1782 47.5476 22.2373 47.6802 22.2411 47.8199C22.2932 50.0139 23.2628 50.8714 24.4447 51.8892C25.2192 52.5613 25.8102 53.1059 26.8222 53.4516C28.0679 53.8765 29.4507 53.7703 30.6944 53.386V53.386ZM28.5661 87.6436C30.9803 87.6436 32.9522 89.5865 32.9522 92.0277C32.9522 94.4438 31.0093 96.4156 28.5661 96.4156C26.152 96.4156 24.1782 94.4747 24.1782 92.0277C24.1782 89.6174 26.1211 87.6436 28.5661 87.6436Z" fill="black"/>
</g>
<defs>
<clipPath id="clip0_43_3628">
<rect width="67.2097" height="98.8832" fill="white" transform="translate(0.181641 0.310547)"/>
</clipPath>
</defs>
</svg>
