<svg width="56" height="81" viewBox="0 0 56 81" fill="none" xmlns="http://www.w3.org/2000/svg">
<g clip-path="url(#clip0_43_3626)">
<path fill-rule="evenodd" clip-rule="evenodd" d="M9.37099 0.500977H38.1614C40.5494 0.500977 42.7288 1.47623 44.2826 3.04103C45.8584 4.61837 46.8195 6.78682 46.8195 9.16381V46.1028H43.8232V9.08071H3.6935V68.6356H43.8232V46.1028H46.8195V72.005C46.8195 74.3946 45.8458 76.5756 44.2826 78.1263C42.7037 79.7052 40.5368 80.6647 38.1614 80.6647H9.37099C6.97989 80.6647 4.80046 79.6926 3.2482 78.1263C1.67086 76.552 0.709717 74.3836 0.709717 72.005V9.15127C0.709717 6.76174 1.68184 4.58074 3.2482 3.02692C4.82398 1.45271 6.97989 0.500977 9.37099 0.500977ZM23.7536 71.3449C25.7136 71.3449 27.3144 72.9223 27.3144 74.9042C27.3144 76.8656 25.7371 78.4665 23.7536 78.4665C21.7937 78.4665 20.1913 76.8907 20.1913 74.9042C20.1913 72.9474 21.7686 71.3449 23.7536 71.3449Z" fill="black"/>
</g>
<defs>
<clipPath id="clip0_43_3626">
<rect width="54.5641" height="80.2782" fill="white" transform="translate(0.709717 0.443604)"/>
</clipPath>
</defs>
</svg>
