<svg width="68" height="100" viewBox="0 0 68 100" fill="none" xmlns="http://www.w3.org/2000/svg">
<g clip-path="url(#clip0_43_3624)">
<path fill-rule="evenodd" clip-rule="evenodd" d="M10.7775 0.877197H46.2402C49.1816 0.877197 51.8661 2.07847 53.7801 4.00592C55.721 5.94882 56.9049 8.61983 56.9049 11.5477V25.1152H53.2142V11.4453H3.78417V84.8024H53.2142V57.0475H56.9049V88.9528C56.9049 91.8961 55.7056 94.5826 53.7801 96.4926C51.8352 98.4375 49.1662 99.6194 46.2402 99.6194H10.7775C7.83221 99.6194 5.14768 98.422 3.23568 96.4926C1.29278 94.5536 0.108887 91.8826 0.108887 88.9528V11.5322C0.108887 8.58893 1.3063 5.90247 3.23568 3.98854C5.17665 2.0495 7.83221 0.877197 10.7775 0.877197ZM67.3186 32.4657V47.3716C67.3186 48.3856 66.492 49.2141 65.4761 49.2141H55.1339L50.8078 53.0632C50.3732 53.5499 49.5524 53.2486 49.5524 52.5842L49.3361 49.2141H46.1668C45.1548 49.2141 44.3244 48.3836 44.3244 47.3716V32.4657C44.3244 31.4576 45.1587 30.6252 46.1668 30.6252H65.4761C66.4842 30.6252 67.3186 31.4557 67.3186 32.4657V32.4657ZM50.1144 38.4876C49.593 38.4876 49.1681 38.0646 49.1681 37.5432C49.1681 37.0217 49.593 36.5968 50.1144 36.5968H62.2972C62.8186 36.5968 63.2416 37.0217 63.2416 37.5432C63.2416 38.0646 62.8186 38.4876 62.2972 38.4876H50.1144ZM50.1144 43.5283C49.593 43.5283 49.1681 43.1053 49.1681 42.5839C49.1681 42.0605 49.593 41.6376 50.1144 41.6376H60.0491C60.5706 41.6376 60.9935 42.0605 60.9935 42.5839C60.9935 43.1053 60.5706 43.5283 60.0491 43.5283H50.1144ZM8.77855 15.5474H13.9313C14.445 15.5474 14.866 15.9685 14.866 16.4822V17.4768L17.8422 15.6884V21.3317L14.866 19.7268V21.0208C14.866 21.5345 14.445 21.9536 13.9313 21.9536H8.77855C8.26289 21.9536 7.84379 21.5345 7.84379 21.0208V16.4822C7.8443 16.2344 7.94295 15.997 8.11814 15.8218C8.29333 15.6466 8.53079 15.548 8.77855 15.5474V15.5474ZM24.0456 55.7149L28.9511 59.1333L33.5554 55.2977C33.3004 54.9076 33.0397 54.3939 32.8369 53.8589C34.8822 55.2958 35.3244 58.3164 35.2568 60.7575C35.2472 61.0646 35.2375 61.1535 35.2317 61.2558C33.9455 61.5436 33.03 62.685 33.03 64.0022C33.03 64.7785 33.3448 65.4835 33.8547 65.9914C34.8474 66.9841 36.294 67.2101 37.5686 66.2154C38.2272 65.6998 38.6502 64.8983 38.6502 63.9983C38.6502 63.5251 38.5246 63.0983 38.3083 62.7217C37.8351 61.9028 37.3214 61.6614 36.5354 61.2693C36.4794 61.2404 36.5373 61.1206 36.547 60.7865C36.5894 59.3091 36.4852 57.7466 36.0854 56.3445C36.433 56.526 36.7961 56.6709 37.1688 56.7926C38.4068 57.0842 40.0253 57.1132 41.466 57.5149C48.3975 59.452 47.9996 62.0419 48.9325 70.1128C48.834 71.1461 48.2488 71.7409 47.0958 71.8278H9.91609C8.76503 71.7409 8.17791 71.1422 8.07941 70.1128C8.60859 61.2249 11.0652 57.9977 19.2598 56.7964C19.9898 56.6902 20.6793 56.5492 21.2896 56.3851C21.0018 57.2619 20.8415 58.1406 20.7913 58.9016C20.4611 59.143 19.6403 59.4249 19.3795 59.7397C18.9229 60.2837 18.5157 60.8674 18.1628 61.4837C18.1049 61.5822 18.074 61.6942 18.074 61.8063C18.074 61.8951 18.1686 61.9859 18.128 62.0631L18.0682 62.179C17.2493 63.7743 16.7143 65.5298 16.9692 66.2869C17.0871 66.6461 17.3729 66.8817 17.7939 67.0131C18.2152 67.1231 18.6518 67.1623 19.086 67.1289C19.2579 67.2873 19.5147 67.4071 19.7484 67.4071C19.8809 67.407 20.0114 67.3737 20.1277 67.3102C20.244 67.2467 20.3425 67.155 20.4142 67.0435C20.4859 66.9321 20.5285 66.8044 20.538 66.6722C20.5475 66.54 20.5237 66.4075 20.4688 66.2869C20.1443 65.5395 19.1342 65.7403 19.0222 66.1401C19.0087 66.1845 19.0203 66.2038 19.001 66.2386C18.9334 66.2425 18.8658 66.2463 18.7982 66.2463C18.551 66.2463 18.3019 66.2212 18.0624 66.1575C17.9214 66.1208 17.8383 66.0648 17.821 66.0049C17.6375 65.4757 18.1377 64.006 18.86 62.5865C18.889 62.5286 18.9179 62.4706 18.9488 62.4146C19.0881 62.3633 19.2045 62.264 19.2772 62.1346C19.589 61.5867 19.949 61.0677 20.3529 60.5837C20.4784 60.435 20.8763 60.2013 21.1737 60.0951C21.3359 60.0391 21.4306 59.9966 21.5619 60.097C21.7319 60.2245 21.8902 60.3694 22.0312 60.5297C22.4619 61.0163 22.8424 61.5513 23.1668 62.1153C23.2402 62.2427 23.416 62.2698 23.4932 62.3953C24.3256 63.7453 24.7969 65.2961 24.6848 65.8852C24.6597 66.0242 24.5458 66.1073 24.3662 66.1652C24.0977 66.2347 23.8177 66.2753 23.5396 66.2811C23.4874 66.1749 23.5261 66.2309 23.4951 66.1266C23.4276 65.8948 23.0606 65.7886 22.7999 65.779C22.4716 65.7693 22.1799 65.9856 22.0486 66.2869C21.8188 66.8122 22.1838 67.4071 22.769 67.4071C22.9853 67.4071 23.2132 67.3047 23.3812 67.1734C23.4179 67.1734 23.4565 67.1753 23.4932 67.1753C23.8853 67.1753 24.2793 67.1289 24.652 67.0131C25.131 66.8605 25.469 66.5592 25.5655 66.0493C25.7046 65.2807 25.1464 63.5811 24.3218 62.0419C24.3546 61.9608 24.372 61.8738 24.372 61.7869C24.372 61.6711 24.3411 61.5571 24.2831 61.4567C23.9123 60.8161 23.4788 60.2138 22.9891 59.6586C22.7284 59.3631 22.151 59.2782 22.0911 58.888C21.9327 57.8683 22.3731 56.6052 23.0336 55.5082C23.7211 54.6527 23.414 54.5136 24.6713 54.0192C24.3295 53.7643 24.005 53.4649 23.6825 53.1849C22.4117 52.0879 21.3495 51.1551 21.1467 48.907C19.2598 48.739 18.4351 44.9131 19.8102 43.7311C19.3583 43.4317 20.6484 36.9599 17.4212 35.9846C22.5971 29.59 28.279 28.4139 33.0397 32.3306C37.9916 32.5894 40.3787 39.7507 37.0124 43.6056C38.683 43.9802 38.0572 46.854 37.3504 47.9182C36.939 48.5401 36.3925 48.9514 35.759 48.9128C35.7165 50.9639 34.7122 51.9121 33.4028 53.1424C32.5665 53.9323 31.9408 54.5329 30.809 54.9385C29.4745 55.4136 27.7498 55.4039 26.4095 54.9462C25.8842 54.7666 25.2237 54.4982 24.7602 54.2104C24.5593 54.7975 24.3198 55.2919 24.0456 55.7149V55.7149ZM35.8749 62.7391C36.0442 62.7391 36.2119 62.7725 36.3683 62.8373C36.5247 62.9022 36.6668 62.9972 36.7864 63.1171C36.9061 63.2369 37.0009 63.3791 37.0655 63.5356C37.1302 63.6921 37.1633 63.8599 37.163 64.0292C37.163 64.7399 36.5875 65.3174 35.8749 65.3174C35.1622 65.3174 34.5847 64.7399 34.5847 64.0292C34.5847 63.687 34.7207 63.3589 34.9626 63.1169C35.2046 62.875 35.5327 62.7391 35.8749 62.7391ZM30.6217 53.8821C31.5004 53.5267 32.0142 53.0053 32.6747 52.3776C33.932 51.1975 34.859 50.3265 34.6813 48.2098C34.6736 48.0959 34.7026 47.9781 34.7682 47.8757C34.8462 47.7596 34.9669 47.6791 35.104 47.6516C35.2411 47.6241 35.3835 47.6519 35.5002 47.7289C35.8556 47.9645 36.209 47.7328 36.4736 47.3349C36.8251 46.8019 37.3098 45.2761 36.8734 44.7141C36.7497 44.5538 36.4118 44.6176 35.7648 45.1101C35.6489 45.2105 35.4925 45.2607 35.3283 45.2337C35.2599 45.2219 35.1945 45.1968 35.1358 45.1598C35.0772 45.1228 35.0264 45.0745 34.9864 45.0178C34.9464 44.9611 34.9179 44.8971 34.9027 44.8294C34.8875 44.7617 34.8858 44.6917 34.8976 44.6234C35.3592 41.9292 35.1274 40.2586 34.5384 39.15C34.0247 38.1863 33.2019 37.6185 32.329 37.153C30.3841 38.6382 29.0148 38.8082 27.6494 38.9762C26.5254 39.1133 25.4033 39.2543 23.9181 40.2818C23.2151 40.7685 22.7458 41.3575 22.5083 42.0412C22.2668 42.7307 22.2495 43.538 22.4464 44.4476C22.4909 44.6079 22.458 44.7895 22.3441 44.9266C22.1606 45.1525 21.8246 45.1834 21.6005 44.998C20.9535 44.4631 20.5847 44.4109 20.4244 44.606C19.8179 45.3418 20.4224 48.1499 21.4866 47.8235L21.6276 47.8023C21.7673 47.7989 21.9028 47.8511 22.0041 47.9474C22.1055 48.0437 22.1645 48.1763 22.1683 48.316C22.2205 50.51 23.19 51.3675 24.372 52.3853C25.1464 53.0574 25.7374 53.602 26.7494 53.9477C27.9951 54.3726 29.3779 54.2664 30.6217 53.8821V53.8821ZM28.4934 88.1397C30.9075 88.1397 32.8794 90.0826 32.8794 92.5238C32.8794 94.9398 30.9365 96.9117 28.4934 96.9117C26.0792 96.9117 24.1054 94.9708 24.1054 92.5238C24.1054 90.1135 26.0483 88.1397 28.4934 88.1397Z" fill="black"/>
</g>
<defs>
<clipPath id="clip0_43_3624">
<rect width="67.2097" height="98.8832" fill="white" transform="translate(0.108887 0.806396)"/>
</clipPath>
</defs>
</svg>
