<svg width="68" height="100" viewBox="0 0 68 100" fill="none" xmlns="http://www.w3.org/2000/svg">
<g clip-path="url(#clip0_41_2039)">
<path fill-rule="evenodd" clip-rule="evenodd" d="M10.85 0.381104H46.3127C49.2541 0.381104 51.9386 1.58238 53.8526 3.50983C55.7935 5.45273 56.9774 8.12374 56.9774 11.0516V24.6191H53.2867V10.9492H3.85668V84.3063H53.2867V56.5514H56.9774V88.4567C56.9774 91.4 55.7781 94.0865 53.8526 95.9965C51.9077 97.9414 49.2387 99.1233 46.3127 99.1233H10.85C7.90472 99.1233 5.22019 97.9259 3.30819 95.9965C1.36529 94.0575 0.181396 91.3865 0.181396 88.4567V11.0362C0.181396 8.09283 1.37881 5.40638 3.30819 3.49245C5.24916 1.55341 7.90472 0.381104 10.85 0.381104ZM67.3911 31.9697V46.8755C67.3911 47.8895 66.5645 48.718 65.5486 48.718H55.2064L50.8803 52.5671C50.4457 53.0538 49.6249 52.7525 49.6249 52.0881L49.4086 48.718H46.2393C45.2273 48.718 44.3969 47.8875 44.3969 46.8755V31.9697C44.3969 30.9615 45.2312 30.1291 46.2393 30.1291H65.5486C66.5567 30.1291 67.3911 30.9596 67.3911 31.9697ZM50.1869 37.9915C49.6655 37.9915 49.2406 37.5685 49.2406 37.0471C49.2406 36.5256 49.6655 36.1007 50.1869 36.1007H62.3697C62.8911 36.1007 63.3141 36.5256 63.3141 37.0471C63.3141 37.5685 62.8911 37.9915 62.3697 37.9915H50.1869ZM50.1869 43.0322C49.6655 43.0322 49.2406 42.6093 49.2406 42.0878C49.2406 41.5644 49.6655 41.1415 50.1869 41.1415H60.1216C60.6431 41.1415 61.066 41.5644 61.066 42.0878C61.066 42.6093 60.6431 43.0322 60.1216 43.0322H50.1869ZM8.85106 15.0514H14.0038C14.5175 15.0514 14.9386 15.4724 14.9386 15.9861V16.9807L17.9147 15.1923V20.8356L14.9386 19.2307V20.5247C14.9386 21.0384 14.5175 21.4575 14.0038 21.4575H8.85106C8.3354 21.4575 7.9163 21.0384 7.9163 20.5247V15.9861C7.91681 15.7384 8.01546 15.5009 8.19065 15.3257C8.36584 15.1505 8.6033 15.0519 8.85106 15.0514ZM24.1181 55.2188L29.0236 58.6372L33.6279 54.8016C33.3729 54.4115 33.1122 53.8978 32.9094 53.3628C34.9547 54.7997 35.3969 57.8203 35.3294 60.2615C35.3197 60.5685 35.31 60.6574 35.3042 60.7597C34.018 61.0475 33.1026 62.1889 33.1026 63.5061C33.1026 64.2824 33.4174 64.9874 33.9272 65.4953C34.9199 66.488 36.3665 66.714 37.6411 65.7193C38.2997 65.2037 38.7227 64.4022 38.7227 63.5022C38.7227 63.029 38.5971 62.6022 38.3808 62.2256C37.9077 61.4067 37.3939 61.1653 36.6079 60.7733C36.5519 60.7443 36.6098 60.6245 36.6195 60.2904C36.662 58.813 36.5577 57.2505 36.1579 55.8484C36.5055 56.0299 36.8686 56.1748 37.2414 56.2965C38.4793 56.5881 40.0978 56.6171 41.5385 57.0188C48.47 58.9559 48.0722 61.5458 49.005 69.6167C48.9065 70.65 48.3213 71.2448 47.1683 71.3317H9.9886C8.83754 71.2448 8.25042 70.6461 8.15192 69.6167C8.6811 60.7288 11.1377 57.5016 19.3323 56.3003C20.0623 56.1941 20.7518 56.0531 21.3621 55.889C21.0743 56.7658 20.914 57.6445 20.8638 58.4055C20.5336 58.6469 19.7128 58.9288 19.452 59.2437C18.9954 59.7877 18.5882 60.3713 18.2353 60.9876C18.1774 61.0861 18.1465 61.1981 18.1465 61.3102C18.1465 61.399 18.2411 61.4898 18.2005 61.567L18.1407 61.6829C17.3218 63.2782 16.7868 65.0337 17.0418 65.7908C17.1596 66.15 17.4454 66.3856 17.8664 66.517C18.2877 66.627 18.7243 66.6662 19.1585 66.6329C19.3304 66.7912 19.5872 66.911 19.8209 66.911C19.9535 66.9109 20.0839 66.8776 20.2002 66.8141C20.3165 66.7506 20.415 66.6589 20.4867 66.5474C20.5584 66.436 20.601 66.3083 20.6105 66.1761C20.62 66.0439 20.5962 65.9114 20.5413 65.7908C20.2168 65.0434 19.2068 65.2442 19.0947 65.644C19.0812 65.6884 19.0928 65.7078 19.0735 65.7425C19.0059 65.7464 18.9383 65.7502 18.8707 65.7502C18.6235 65.7502 18.3744 65.7251 18.1349 65.6614C17.9939 65.6247 17.9108 65.5687 17.8935 65.5088C17.71 64.9797 18.2102 63.5099 18.9325 62.0904C18.9615 62.0325 18.9904 61.9745 19.0214 61.9185C19.1606 61.8672 19.277 61.7679 19.3497 61.6385C19.6615 61.0906 20.0215 60.5716 20.4254 60.0876C20.5509 59.9389 20.9488 59.7052 21.2462 59.599C21.4085 59.543 21.5031 59.5005 21.6344 59.6009C21.8044 59.7284 21.9627 59.8733 22.1037 60.0336C22.5344 60.5202 22.9149 61.0552 23.2393 61.6192C23.3127 61.7466 23.4885 61.7737 23.5657 61.8992C24.3981 63.2492 24.8694 64.8 24.7573 65.3891C24.7322 65.5281 24.6183 65.6112 24.4387 65.6691C24.1702 65.7387 23.8902 65.7792 23.6121 65.785C23.5599 65.6788 23.5986 65.7348 23.5677 65.6305C23.5001 65.3987 23.1331 65.2925 22.8724 65.2829C22.5441 65.2732 22.2524 65.4895 22.1211 65.7908C21.8913 66.3161 22.2563 66.911 22.8415 66.911C23.0578 66.911 23.2857 66.8086 23.4537 66.6773C23.4904 66.6773 23.529 66.6792 23.5657 66.6792C23.9578 66.6792 24.3518 66.6329 24.7245 66.517C25.2035 66.3644 25.5415 66.0631 25.638 65.5533C25.7771 64.7846 25.2189 63.085 24.3943 61.5458C24.4271 61.4647 24.4445 61.3778 24.4445 61.2908C24.4445 61.175 24.4136 61.061 24.3556 60.9606C23.9848 60.32 23.5513 59.7177 23.0617 59.1625C22.8009 58.867 22.2235 58.7821 22.1636 58.3919C22.0052 57.3722 22.4456 56.1091 23.1061 55.0121C23.7936 54.1566 23.4865 54.0175 24.7438 53.5231C24.402 53.2682 24.0775 52.9688 23.755 52.6888C22.4842 51.5918 21.422 50.659 21.2192 48.4109C19.3323 48.2429 18.5076 44.417 19.8827 43.235C19.4308 42.9356 20.7209 36.4638 17.4937 35.4885C22.6696 29.0939 28.3515 27.9178 33.1122 31.8345C38.0641 32.0933 40.4512 39.2546 37.0849 43.1095C38.7555 43.4841 38.1298 46.3579 37.4229 47.4221C37.0115 48.044 36.465 48.4553 35.8315 48.4167C35.789 50.4678 34.7847 51.416 33.4753 52.6463C32.639 53.4362 32.0133 54.0368 30.8815 54.4424C29.547 54.9175 27.8223 54.9079 26.482 54.4501C25.9567 54.2705 25.2962 54.0021 24.8327 53.7143C24.6318 54.3014 24.3923 54.7958 24.1181 55.2188ZM35.9474 62.243C36.1167 62.243 36.2844 62.2764 36.4408 62.3412C36.5972 62.4061 36.7393 62.5011 36.8589 62.621C36.9786 62.7408 37.0734 62.883 37.1381 63.0395C37.2027 63.196 37.2358 63.3638 37.2356 63.5331C37.2356 64.2438 36.66 64.8213 35.9474 64.8213C35.2347 64.8213 34.6573 64.2438 34.6573 63.5331C34.6573 63.1909 34.7932 62.8628 35.0351 62.6208C35.2771 62.3789 35.6052 62.243 35.9474 62.243ZM30.6942 53.386C31.573 53.0306 32.0867 52.5092 32.7472 51.8815C34.0045 50.7015 34.9315 49.8304 34.7538 47.7137C34.7461 47.5998 34.7751 47.482 34.8407 47.3796C34.9187 47.2636 35.0394 47.183 35.1765 47.1555C35.3136 47.128 35.456 47.1558 35.5727 47.2328C35.9281 47.4684 36.2815 47.2367 36.5461 46.8388C36.8976 46.3058 37.3823 44.78 36.9459 44.218C36.8223 44.0577 36.4843 44.1215 35.8373 44.614C35.7214 44.7144 35.565 44.7646 35.4008 44.7376C35.3324 44.7258 35.267 44.7007 35.2084 44.6637C35.1497 44.6267 35.0989 44.5784 35.0589 44.5217C35.0189 44.4651 34.9905 44.401 34.9752 44.3333C34.96 44.2657 34.9583 44.1956 34.9701 44.1273C35.4317 41.4331 35.2 39.7625 34.6109 38.6539C34.0972 37.6902 33.2744 37.1224 32.4015 36.6569C30.4567 38.1421 29.0874 38.3121 27.7219 38.4801C26.5979 38.6172 25.4758 38.7582 23.9906 39.7857C23.2876 40.2724 22.8183 40.8614 22.5808 41.5451C22.3393 42.2346 22.322 43.0419 22.519 43.9515C22.5634 44.1118 22.5305 44.2934 22.4166 44.4305C22.2331 44.6564 21.8971 44.6873 21.673 44.5019C21.0261 43.967 20.6572 43.9148 20.4969 44.1099C19.8904 44.8457 20.4949 47.6538 21.5591 47.3275L21.7001 47.3062C21.8399 47.3028 21.9753 47.355 22.0766 47.4513C22.178 47.5476 22.2371 47.6802 22.2408 47.8199C22.293 50.0139 23.2625 50.8714 24.4445 51.8892C25.2189 52.5613 25.8099 53.1059 26.8219 53.4516C28.0676 53.8765 29.4504 53.7703 30.6942 53.386ZM28.5659 87.6436C30.98 87.6436 32.9519 89.5865 32.9519 92.0277C32.9519 94.4438 31.009 96.4156 28.5659 96.4156C26.1518 96.4156 24.178 94.4747 24.178 92.0277C24.178 89.6174 26.1209 87.6436 28.5659 87.6436Z" fill="black"/>
</g>
<defs>
<clipPath id="clip0_41_2039">
<rect width="67.2097" height="98.8832" fill="white" transform="translate(0.181396 0.310547)"/>
</clipPath>
</defs>
</svg>
