<svg width="44" height="44" viewBox="0 0 44 44" fill="none" xmlns="http://www.w3.org/2000/svg">
<g clip-path="url(#clip0_22_2187)">
<path d="M25.7495 3.27901C25.5789 2.82107 25.0491 2.61454 24.6002 2.79413C24.1422 2.96473 23.9357 3.49451 24.1153 3.94347C25.0222 6.25114 23.9088 8.86411 21.6011 9.77101C21.1431 9.94162 20.9366 10.4714 21.1162 10.9204C21.3856 11.3693 21.8346 11.5489 22.2656 11.3783C25.4712 10.0853 27.0066 6.45767 25.7495 3.27901Z" fill="black"/>
<path d="M22.9566 13.0575C22.4986 13.2281 22.2921 13.7579 22.4717 14.2068C22.6692 14.6648 23.1361 14.8803 23.5851 14.6917C26.0275 13.713 27.9131 11.8633 28.9637 9.45681C30.0143 7.05037 30.0502 4.39251 29.0714 1.95015C28.9008 1.49221 28.3711 1.28569 27.9221 1.46527C27.4641 1.63588 27.2576 2.16565 27.4372 2.61462C28.2364 4.60801 28.2094 6.80793 27.3654 8.79235C26.5213 10.7498 24.95 12.2853 22.9566 13.0575Z" fill="black"/>
<path d="M24.3569 16.5863C23.899 16.7569 23.6925 17.2867 23.8721 17.7356C24.0696 18.1846 24.5186 18.4091 24.9855 18.2205C28.3707 16.8557 30.9926 14.3056 32.4203 10.9563C33.848 7.64295 33.8839 3.93451 32.564 0.549332C32.3934 0.0913902 31.8636 -0.115133 31.4146 0.0644524C30.9567 0.235058 30.7502 0.764835 30.9298 1.2138C32.115 4.15002 32.0432 7.35561 30.822 10.2559C29.5919 13.1652 27.2842 15.401 24.3569 16.5863Z" fill="black"/>
<path d="M10.7715 37.2208H8.92177C8.43689 37.2208 8.05078 37.6069 8.05078 38.0918C8.05078 38.5767 8.43689 38.9628 8.92177 38.9628H10.7715C11.2564 38.9628 11.6425 38.5767 11.6425 38.0918C11.6425 37.6069 11.2564 37.2208 10.7715 37.2208Z" fill="black"/>
<path d="M16.8418 37.2208H14.9921C14.5072 37.2208 14.1211 37.6069 14.1211 38.0918C14.1211 38.5767 14.5072 38.9628 14.9921 38.9628H16.8418C17.3267 38.9628 17.7128 38.5767 17.7128 38.0918C17.7128 37.6069 17.2998 37.2208 16.8418 37.2208Z" fill="black"/>
<path d="M22.8848 37.2208H21.0351C20.5502 37.2208 20.1641 37.6069 20.1641 38.0918C20.1641 38.5767 20.5502 38.9628 21.0351 38.9628H22.8848C23.3697 38.9628 23.7558 38.5767 23.7558 38.0918C23.7558 37.6069 23.3786 37.2208 22.8848 37.2208Z" fill="black"/>
<path d="M28.9639 37.2208H27.1142C26.6293 37.2208 26.2432 37.6069 26.2432 38.0918C26.2432 38.5767 26.6293 38.9628 27.1142 38.9628H28.9639C29.4488 38.9628 29.8349 38.5767 29.8349 38.0918C29.8349 37.6069 29.4488 37.2208 28.9639 37.2208Z" fill="black"/>
<path d="M35.043 37.2208H33.1933C32.7084 37.2208 32.3223 37.6069 32.3223 38.0918C32.3223 38.5767 32.7084 38.9628 33.1933 38.9628H35.043C35.5279 38.9628 35.914 38.5767 35.914 38.0918C35.914 37.6069 35.5279 37.2208 35.043 37.2208Z" fill="black"/>
<path d="M40.1693 14.0721H40.2052C40.2052 12.815 39.1905 11.7645 37.8975 11.7645C36.6404 11.7645 35.5898 12.7791 35.5898 14.0721V30.4503H40.1603V14.0721H40.1693Z" fill="black"/>
<path d="M0.436523 32.1923V44.0001H43.5639V32.1923H0.436523ZM38.3559 40.3994H5.5996C4.3425 40.3994 3.29193 39.3847 3.29193 38.0917C3.29193 36.8346 4.30659 35.784 5.5996 35.784H38.3919C39.649 35.784 40.6995 36.7987 40.6995 38.0917C40.6636 39.3488 39.649 40.3994 38.3559 40.3994Z" fill="black"/>
</g>
<defs>
<clipPath id="clip0_22_2187">
<rect width="44" height="44" fill="white"/>
</clipPath>
</defs>
</svg>
