<svg width="49" height="49" viewBox="0 0 49 49" fill="none" xmlns="http://www.w3.org/2000/svg">
<g clip-path="url(#clip0_43_3518)">
<path d="M8.84404 24.4974L5.25488 26.1619L8.5839 33.3402L12.1731 31.6757L8.84404 24.4974Z" fill="black"/>
<path d="M1.26025 17.5476L6.30215 22.1871L18.2801 16.6322L20.2775 20.9392L38.9411 12.2838L34.2805 2.23413L1.26025 17.5476Z" fill="black"/>
<path d="M43.1127 26.9212L31.6274 32.2477L29.9629 28.6585L31.3986 27.9927L30.3999 25.8392L40.4495 21.1786L37.7863 15.4359L19.1226 24.0914L17.1252 19.7844L10.6648 22.7805L15.3254 32.8302L25.3751 28.1695L26.3738 30.323L27.8094 29.6572L30.4726 35.3999L44.1114 29.0747L45.443 31.9461L47.5965 30.9474L43.9346 23.0512L41.7811 24.0499L43.1127 26.9212Z" fill="black"/>
</g>
<defs>
<clipPath id="clip0_43_3518">
<rect width="36.3983" height="36.3983" fill="white" transform="translate(0.261475 15.3943) rotate(-24.88)"/>
</clipPath>
</defs>
</svg>
