<svg width="32" height="32" viewBox="0 0 32 32" fill="none" xmlns="http://www.w3.org/2000/svg">
<g clip-path="url(#clip0_27_2396)">
<path d="M5.65919 16.0995L3.2926 17.197L5.48766 21.9302L7.85424 20.8327L5.65919 16.0995Z" fill="black"/>
<path d="M0.658508 11.5171L3.98298 14.5762L11.8809 10.9135L13.1979 13.7534L25.5042 8.04627L22.4311 1.41983L0.658508 11.5171Z" fill="black"/>
<path d="M28.2548 17.6978L20.6818 21.2099L19.5842 18.8433L20.5309 18.4043L19.8724 16.9843L26.4988 13.9113L24.7427 10.1247L12.4365 15.8319L11.1194 12.992L6.85962 14.9675L9.9327 21.594L16.5591 18.5209L17.2177 19.9408L18.1643 19.5018L19.9203 23.2884L28.9134 19.1178L29.7914 21.011L31.2113 20.3525L28.7968 15.146L27.3768 15.8045L28.2548 17.6978Z" fill="black"/>
</g>
<defs>
<clipPath id="clip0_27_2396">
<rect width="24" height="24" fill="white" transform="translate(0 10.0972) rotate(-24.88)"/>
</clipPath>
</defs>
</svg>
