<svg width="49" height="49" viewBox="0 0 49 49" fill="none" xmlns="http://www.w3.org/2000/svg">
<g clip-path="url(#clip0_41_2108)">
<path d="M8.84416 24.4974L5.255 26.1619L8.58402 33.3402L12.1732 31.6757L8.84416 24.4974Z" fill="black"/>
<path d="M1.26025 17.5476L6.30215 22.1871L18.2801 16.6322L20.2775 20.9392L38.9411 12.2838L34.2805 2.23413L1.26025 17.5476Z" fill="black"/>
<path d="M43.1129 26.9212L31.6276 32.2477L29.963 28.6585L31.3987 27.9927L30.4 25.8392L40.4496 21.1786L37.7864 15.4359L19.1227 24.0914L17.1253 19.7844L10.6649 22.7805L15.3255 32.8302L25.3752 28.1695L26.3739 30.323L27.8095 29.6572L30.4728 35.3999L44.1116 29.0747L45.4432 31.9461L47.5967 30.9474L43.9347 23.0512L41.7812 24.0499L43.1129 26.9212Z" fill="black"/>
</g>
<defs>
<clipPath id="clip0_41_2108">
<rect width="36.3983" height="36.3983" fill="white" transform="translate(0.261475 15.3943) rotate(-24.88)"/>
</clipPath>
</defs>
</svg>
