<svg width="32" height="32" viewBox="0 0 32 32" fill="none" xmlns="http://www.w3.org/2000/svg">
<g clip-path="url(#clip0_22_2147)">
<path d="M5.65858 16.0994L3.29199 17.197L5.48705 21.9301L7.85363 20.8326L5.65858 16.0994Z" fill="black"/>
<path d="M0.658203 11.5172L3.98268 14.5763L11.8806 10.9136L13.1976 13.7535L25.5039 8.04633L22.4308 1.41989L0.658203 11.5172Z" fill="black"/>
<path d="M28.2546 17.6979L20.6815 21.21L19.584 18.8434L20.5306 18.4044L19.8721 16.9845L26.4985 13.9114L24.7425 10.1249L12.4362 15.832L11.1192 12.9921L6.85938 14.9677L9.93245 21.5941L16.5589 18.521L17.2174 19.941L18.164 19.502L19.9201 23.2885L28.9131 19.1179L29.7911 21.0111L31.2111 20.3526L28.7965 15.1461L27.3766 15.8047L28.2546 17.6979Z" fill="black"/>
</g>
<defs>
<clipPath id="clip0_22_2147">
<rect width="24" height="24" fill="white" transform="translate(0 10.0972) rotate(-24.88)"/>
</clipPath>
</defs>
</svg>
