<svg width="153" height="44" viewBox="0 0 153 44" fill="none" xmlns="http://www.w3.org/2000/svg">
<g clip-path="url(#clip0_104_2246)">
<path d="M32.743 8.24721C32.7126 8.03521 32.5301 7.91407 32.3781 7.91407C32.226 7.91407 29.2156 7.8535 29.2156 7.8535C29.2156 7.8535 26.6916 5.43064 26.4484 5.15807C26.2051 4.91579 25.7186 4.97636 25.5361 5.03693C25.5361 5.03693 25.0496 5.18836 24.2589 5.43064C24.1373 5.00664 23.9244 4.49179 23.6508 3.94664C22.7689 2.25064 21.4309 1.34207 19.8497 1.34207C19.728 1.34207 19.6368 1.34207 19.5152 1.37236C19.4544 1.31179 19.4239 1.25121 19.3631 1.22093C18.6637 0.494071 17.7819 0.130643 16.7176 0.160929C14.6802 0.2215 12.6428 1.7055 10.9703 4.31007C9.81478 6.1575 8.93293 8.45921 8.65925 10.2461C6.31778 10.9729 4.67571 11.4878 4.61489 11.4878C3.42895 11.8512 3.39854 11.8815 3.24649 13.0021C3.18568 13.8501 0.0839844 37.7455 0.0839844 37.7455L26.1139 42.2278L37.3955 39.4415C37.3651 39.4415 32.7734 8.45921 32.743 8.24721ZM22.9514 5.85464C22.3432 6.03636 21.6742 6.24836 20.9444 6.49064C20.9444 5.46093 20.7923 4.00721 20.3362 2.79579C21.8871 3.03807 22.6473 4.79464 22.9514 5.85464ZM19.576 6.88436C18.2076 7.30836 16.7176 7.76264 15.2275 8.21693C15.6533 6.61179 16.4439 5.03693 17.417 3.97693C17.7819 3.58321 18.2988 3.15921 18.8766 2.91693C19.4848 4.09807 19.6064 5.76379 19.576 6.88436ZM16.7784 1.52379C17.2649 1.52379 17.6602 1.61464 17.9947 1.85693C17.4474 2.1295 16.9 2.5535 16.4135 3.09864C15.1059 4.49179 14.1024 6.64207 13.7071 8.73179C12.4603 9.1255 11.244 9.48893 10.1493 9.82207C10.8791 6.52093 13.6463 1.61464 16.7784 1.52379Z" fill="#95BF47"/>
<path d="M32.3785 7.91426C32.2264 7.91426 29.216 7.85369 29.216 7.85369C29.216 7.85369 26.692 5.43084 26.4488 5.15826C26.3575 5.06741 26.2359 5.00684 26.1143 5.00684V42.228L37.3959 39.4417C37.3959 39.4417 32.8042 8.45941 32.7738 8.24741C32.713 8.03541 32.5305 7.91426 32.3785 7.91426Z" fill="#5E8E3E"/>
<path d="M19.8501 13.6988L18.5425 18.5748C18.5425 18.5748 17.0829 17.9085 15.3496 18.0296C12.7952 18.1811 12.7952 19.7862 12.7952 20.1799C12.9473 22.3605 18.6945 22.8451 19.029 27.9633C19.2723 31.9913 16.9004 34.7474 13.4338 34.9594C9.29823 35.1714 7.01758 32.7485 7.01758 32.7485L7.89943 29.0233C7.89943 29.0233 10.2105 30.7496 12.035 30.6285C13.221 30.5679 13.6771 29.5685 13.6163 28.9022C13.4338 26.0554 8.75088 26.2371 8.44679 21.5428C8.20352 17.6056 10.7883 13.6382 16.5051 13.2748C18.7249 13.1233 19.8501 13.6988 19.8501 13.6988Z" fill="white"/>
<path d="M52.6602 24.0868C51.3526 23.3903 50.6836 22.7845 50.6836 21.9668C50.6836 20.9371 51.6263 20.2708 53.0859 20.2708C54.7888 20.2708 56.3092 20.9674 56.3092 20.9674L57.4952 17.3331C57.4952 17.3331 56.4005 16.4851 53.1771 16.4851C48.6767 16.4851 45.5445 19.0594 45.5445 22.6634C45.5445 24.7228 47.0042 26.2674 48.9503 27.388C50.5316 28.2662 51.0789 28.9022 51.0789 29.8411C51.0789 30.8102 50.2883 31.5977 48.8287 31.5977C46.6697 31.5977 44.6019 30.4771 44.6019 30.4771L43.3247 34.1114C43.3247 34.1114 45.21 35.3834 48.403 35.3834C53.0251 35.3834 56.3701 33.112 56.3701 29.0234C56.3397 26.8125 54.6672 25.2377 52.6602 24.0868Z" fill="black"/>
<path d="M71.0882 16.4246C68.8076 16.4246 67.0135 17.5149 65.6451 19.1503L65.5842 19.12L67.5608 8.82288H62.4217L57.4043 35.0503H62.5434L64.2463 26.0857C64.9153 22.6937 66.679 20.604 68.321 20.604C69.4766 20.604 69.9327 21.3914 69.9327 22.512C69.9327 23.2086 69.8719 24.0869 69.7198 24.7834L67.7737 35.0503H72.9128L74.9197 24.4503C75.1326 23.3297 75.2846 21.9972 75.2846 21.0886C75.315 18.1812 73.7946 16.4246 71.0882 16.4246Z" fill="black"/>
<path d="M86.9614 16.4246C80.758 16.4246 76.6528 21.9971 76.6528 28.2057C76.6528 32.1731 79.1159 35.3834 83.7381 35.3834C89.8198 35.3834 93.925 29.9623 93.925 23.6023C93.9554 19.9377 91.7964 16.4246 86.9614 16.4246ZM84.4375 31.4766C82.6738 31.4766 81.944 29.9926 81.944 28.1148C81.944 25.1771 83.4644 20.392 86.262 20.392C88.0865 20.392 88.6947 21.9668 88.6947 23.4811C88.6947 26.6308 87.1439 31.4766 84.4375 31.4766Z" fill="black"/>
<path d="M107.123 16.4246C103.656 16.4246 101.679 19.4834 101.679 19.4834H101.619L101.923 16.7274H97.3614C97.1485 18.5748 96.7228 21.4217 96.3275 23.5417L92.7393 42.3189H97.8783L99.3075 34.7171H99.4292C99.4292 34.7171 100.493 35.3834 102.44 35.3834C108.491 35.3834 112.444 29.2051 112.444 22.9663C112.444 19.5137 110.893 16.4246 107.123 16.4246ZM102.196 31.5371C100.858 31.5371 100.068 30.78 100.068 30.78L100.919 25.9948C101.527 22.7846 103.2 20.6646 104.994 20.6646C106.575 20.6646 107.062 22.1183 107.062 23.4811C107.062 26.8126 105.085 31.5371 102.196 31.5371Z" fill="black"/>
<path d="M119.803 9.06506C118.161 9.06506 116.853 10.3673 116.853 12.0331C116.853 13.5474 117.826 14.6074 119.286 14.6074H119.347C120.958 14.6074 122.327 13.5171 122.357 11.6393C122.357 10.1553 121.354 9.06506 119.803 9.06506Z" fill="black"/>
<path d="M112.596 35.0199H117.735L121.232 16.8485H116.062L112.596 35.0199Z" fill="black"/>
<path d="M134.338 16.8183H130.75L130.933 15.9703C131.237 14.2138 132.271 12.6692 134.004 12.6692C134.916 12.6692 135.646 12.9418 135.646 12.9418L136.649 8.91376C136.649 8.91376 135.768 8.45947 133.852 8.45947C132.027 8.45947 130.203 8.97433 128.804 10.1555C127.04 11.6395 126.219 13.7898 125.824 15.9703L125.672 16.8183H123.27L122.509 20.6949H124.912L122.175 35.0503H127.314L130.051 20.6949H133.609L134.338 16.8183Z" fill="black"/>
<path d="M146.745 16.8485C146.745 16.8485 143.522 24.9348 142.093 29.3565H142.032C141.94 27.9331 140.755 16.8485 140.755 16.8485H135.342L138.443 33.5359C138.504 33.8994 138.474 34.1417 138.322 34.3839C137.714 35.5348 136.71 36.6554 135.524 37.4731C134.551 38.1697 133.456 38.6239 132.605 38.9268L134.034 43.2879C135.068 43.0759 137.258 42.1977 139.082 40.5017C141.424 38.3211 143.613 34.9291 145.833 30.3257L152.127 16.8485H146.745Z" fill="black"/>
</g>
<defs>
<clipPath id="clip0_104_2246">
<rect width="152.044" height="43.248" fill="white" transform="translate(0.0839844 0.0400391)"/>
</clipPath>
</defs>
</svg>
