<svg width="39" height="39" viewBox="0 0 39 39" fill="none" xmlns="http://www.w3.org/2000/svg">
<path fill-rule="evenodd" clip-rule="evenodd" d="M33.4088 22.5931C33.4088 23.5406 32.6399 24.3018 31.7001 24.3018H29.1372V17.04H31.7001C32.6399 17.04 33.4088 17.8081 33.4088 18.7487V22.5931ZM22.3024 34.5622H18.4579C18.2187 34.5622 18.0308 34.3648 18.0308 34.135V32.4264C18.0308 32.1863 18.2187 31.9992 18.4579 31.9992H22.3024V34.5622ZM9.48777 24.3018H6.92481C5.98506 24.3018 5.21617 23.5406 5.21617 22.5931V18.7487C5.21617 17.8081 5.98506 17.04 6.92481 17.04H9.48777V24.3018ZM31.7002 14.4771V13.8611C31.7002 7.48018 27.1211 2.09796 21.6961 2.09796H16.929C11.5041 2.09796 6.92493 7.48018 6.92493 13.8611V14.4771C4.567 14.4771 2.65332 16.3899 2.65332 18.7487V22.5931C2.65332 24.9596 4.567 26.8647 6.92493 26.8647H10.3422C11.282 26.8647 12.0509 26.1035 12.0509 25.1561V16.1857C12.0509 15.2451 11.282 14.4771 10.3422 14.4771H9.48789V13.8611C9.48789 8.87187 12.8966 4.66092 16.929 4.66092H21.6961C25.7285 4.66092 29.1373 8.87187 29.1373 13.8611V14.4771H28.283C27.3432 14.4771 26.5743 15.2451 26.5743 16.1857V25.1561C26.5743 26.1035 27.3432 26.8647 28.283 26.8647H29.9916V30.7177C29.9916 31.4174 29.4192 31.9992 28.7101 31.9992H24.8657V30.7177C24.8657 30.0086 24.2933 29.4362 23.5842 29.4362H18.4583C16.8094 29.4362 15.4681 30.7767 15.4681 32.4264V34.135C15.4681 35.783 16.8094 37.1251 18.4583 37.1251H23.5842C24.2933 37.1251 24.8657 36.5433 24.8657 35.8436V34.5622H28.7101C30.8288 34.5622 32.5546 32.8356 32.5546 30.7177V26.7784C34.5024 26.3855 35.9718 24.6691 35.9718 22.5931V18.7487C35.9718 16.3899 34.0582 14.4771 31.7002 14.4771V14.4771Z" fill="black"/>
</svg>
