<svg width="45" height="45" viewBox="0 0 45 45" fill="none" xmlns="http://www.w3.org/2000/svg">
<path fill-rule="evenodd" clip-rule="evenodd" d="M38.5466 25.9502C38.5466 27.024 37.6752 27.8867 36.6101 27.8867H33.7054V19.6567H36.6101C37.6752 19.6567 38.5466 20.5271 38.5466 21.5932V25.9502ZM25.9595 39.5153H21.6024C21.3313 39.5153 21.1183 39.2916 21.1183 39.0312V37.0947C21.1183 36.8226 21.3313 36.6106 21.6024 36.6106H25.9595V39.5153ZM11.436 27.8867H8.5313C7.46624 27.8867 6.59482 27.024 6.59482 25.9502V21.5932C6.59482 20.5271 7.46624 19.6567 8.5313 19.6567H11.436V27.8867ZM36.6101 16.752V16.0539C36.6101 8.82212 31.4204 2.72223 25.2721 2.72223H19.8693C13.721 2.72223 8.53125 8.82212 8.53125 16.0539V16.752C5.85891 16.752 3.69006 18.9199 3.69006 21.5932V25.9502C3.69006 28.6322 5.85891 30.7914 8.53125 30.7914H12.4042C13.4693 30.7914 14.3407 29.9287 14.3407 28.8549V18.6885C14.3407 17.6224 13.4693 16.752 12.4042 16.752H11.436V16.0539C11.436 10.3994 15.2992 5.62694 19.8693 5.62694H25.2721C29.8421 5.62694 33.7054 10.3994 33.7054 16.0539V16.752H32.7372C31.6721 16.752 30.8007 17.6224 30.8007 18.6885V28.8549C30.8007 29.9287 31.6721 30.7914 32.7372 30.7914H34.6736V35.1582C34.6736 35.9511 34.0249 36.6105 33.2213 36.6105H28.8642V35.1582C28.8642 34.3545 28.2155 33.7058 27.4119 33.7058H21.6024C19.7337 33.7058 18.2136 35.225 18.2136 37.0946V39.0311C18.2136 40.8988 19.7337 42.4199 21.6024 42.4199H27.4119C28.2155 42.4199 28.8642 41.7606 28.8642 40.9676V39.5152H33.2213C35.6225 39.5152 37.5783 37.5584 37.5783 35.1582V30.6936C39.7859 30.2482 41.4513 28.303 41.4513 25.9502V21.5932C41.4513 18.9199 39.2824 16.752 36.6101 16.752Z" fill="url(#paint0_linear_104_597)"/>
<defs>
<linearGradient id="paint0_linear_104_597" x1="8.61633" y1="2.92596" x2="32.4165" y2="42.5929" gradientUnits="userSpaceOnUse">
<stop stop-color="#FF9900"/>
<stop offset="1" stop-color="#FBC751"/>
</linearGradient>
</defs>
</svg>
