<svg width="44" height="45" viewBox="0 0 44 45" fill="none" xmlns="http://www.w3.org/2000/svg">
<path fill-rule="evenodd" clip-rule="evenodd" d="M38.1185 25.8392C38.1185 26.9129 37.2471 27.7756 36.1821 27.7756H33.2774V19.5456H36.1821C37.2471 19.5456 38.1185 20.4161 38.1185 21.4821V25.8392ZM25.5315 39.4042H21.1744C20.9033 39.4042 20.6903 39.1805 20.6903 38.92V36.9836C20.6903 36.7115 20.9033 36.4994 21.1744 36.4994H25.5315V39.4042ZM11.008 27.7756H8.10326C7.0382 27.7756 6.16678 26.9129 6.16678 25.8392V21.4821C6.16678 20.4161 7.0382 19.5456 8.10326 19.5456H11.008V27.7756ZM36.1821 16.6409V15.9428C36.1821 8.71107 30.9923 2.61118 24.844 2.61118H19.4413C13.293 2.61118 8.10321 8.71107 8.10321 15.9428V16.6409C5.43087 16.6409 3.26202 18.8088 3.26202 21.4821V25.8392C3.26202 28.5212 5.43087 30.6804 8.10321 30.6804H11.9762C13.0412 30.6804 13.9126 29.8177 13.9126 28.7439V18.5774C13.9126 17.5114 13.0412 16.6409 11.9762 16.6409H11.0079V15.9428C11.0079 10.2883 14.8712 5.51589 19.4413 5.51589H24.844C29.4141 5.51589 33.2774 10.2883 33.2774 15.9428V16.6409H32.3091C31.2441 16.6409 30.3727 17.5114 30.3727 18.5774V28.7439C30.3727 29.8177 31.2441 30.6804 32.3091 30.6804H34.2456V35.0471C34.2456 35.8401 33.5969 36.4995 32.7932 36.4995H28.4362V35.0471C28.4362 34.2435 27.7875 33.5947 26.9838 33.5947H21.1744C19.3057 33.5947 17.7856 35.1139 17.7856 36.9836V38.9201C17.7856 40.7878 19.3057 42.3089 21.1744 42.3089H26.9838C27.7875 42.3089 28.4362 41.6495 28.4362 40.8565V39.4042H32.7932C35.1945 39.4042 37.1503 37.4474 37.1503 35.0471V30.5826C39.3579 30.1372 41.0233 28.192 41.0233 25.8392V21.4821C41.0233 18.8088 38.8544 16.6409 36.1821 16.6409Z" fill="url(#paint0_linear_104_573)"/>
<defs>
<linearGradient id="paint0_linear_104_573" x1="8.18829" y1="2.81491" x2="31.9884" y2="42.4818" gradientUnits="userSpaceOnUse">
<stop stop-color="#FF9900"/>
<stop offset="1" stop-color="#FBC751"/>
</linearGradient>
</defs>
</svg>
