<svg width="44" height="45" viewBox="0 0 44 45" fill="none" xmlns="http://www.w3.org/2000/svg">
<path fill-rule="evenodd" clip-rule="evenodd" d="M38.1186 26.0878C38.1186 27.1616 37.2472 28.0243 36.1821 28.0243H33.2774V19.7943H36.1821C37.2472 19.7943 38.1186 20.6647 38.1186 21.7307V26.0878ZM25.5315 39.6528H21.1745C20.9034 39.6528 20.6903 39.4291 20.6903 39.1687V37.2322C20.6903 36.9601 20.9034 36.7481 21.1745 36.7481H25.5315V39.6528ZM11.008 28.0243H8.10332C7.03826 28.0243 6.16685 27.1616 6.16685 26.0878V21.7307C6.16685 20.6647 7.03826 19.7943 8.10332 19.7943H11.008V28.0243ZM36.1821 16.8896V16.1915C36.1821 8.95969 30.9924 2.8598 24.8441 2.8598H19.4413C13.293 2.8598 8.10327 8.95969 8.10327 16.1915V16.8896C5.43094 16.8896 3.26208 19.0574 3.26208 21.7307V26.0878C3.26208 28.7698 5.43094 30.929 8.10327 30.929H11.9762C13.0413 30.929 13.9127 30.0663 13.9127 28.9925V18.826C13.9127 17.76 13.0413 16.8896 11.9762 16.8896H11.008V16.1915C11.008 10.537 14.8712 5.76451 19.4413 5.76451H24.8441C29.4142 5.76451 33.2774 10.537 33.2774 16.1915V16.8896H32.3092C31.2441 16.8896 30.3727 17.76 30.3727 18.826V28.9925C30.3727 30.0663 31.2441 30.929 32.3092 30.929H34.2457V35.2957C34.2457 36.0887 33.5969 36.7481 32.7933 36.7481H28.4362V35.2957C28.4362 34.4921 27.7875 33.8434 26.9839 33.8434H21.1745C19.3058 33.8434 17.7856 35.3625 17.7856 37.2322V39.1687C17.7856 41.0364 19.3058 42.5575 21.1745 42.5575H26.9839C27.7875 42.5575 28.4362 41.8981 28.4362 41.1052V39.6528H32.7933C35.1945 39.6528 37.1504 37.696 37.1504 35.2957V30.8312C39.3579 30.3858 41.0233 28.4406 41.0233 26.0878V21.7307C41.0233 19.0574 38.8545 16.8896 36.1821 16.8896Z" fill="url(#paint0_linear_104_603)"/>
<defs>
<linearGradient id="paint0_linear_104_603" x1="8.18835" y1="3.06353" x2="31.9885" y2="42.7305" gradientUnits="userSpaceOnUse">
<stop stop-color="#FF9900"/>
<stop offset="1" stop-color="#FBC751"/>
</linearGradient>
</defs>
</svg>
