<svg width="38" height="37" viewBox="0 0 38 37" fill="none" xmlns="http://www.w3.org/2000/svg">
<path fill-rule="evenodd" clip-rule="evenodd" d="M32.196 21.049C32.196 21.9471 31.4671 22.6687 30.5762 22.6687H28.1466V15.7848H30.5762C31.4671 15.7848 32.196 16.5129 32.196 17.4045V21.049ZM21.6674 32.3954H18.0229C17.7962 32.3954 17.618 32.2083 17.618 31.9905V30.3707C17.618 30.1431 17.7962 29.9658 18.0229 29.9658H21.6674V32.3954ZM9.51941 22.6687H7.08978C6.19891 22.6687 5.47002 21.9471 5.47002 21.049V17.4045C5.47002 16.5129 6.19891 15.7848 7.08978 15.7848H9.51941V22.6687ZM30.5763 13.3552V12.7712C30.5763 6.72228 26.2354 1.62006 21.0927 1.62006H16.5736C11.4308 1.62006 7.08991 6.72228 7.08991 12.7712V13.3552C4.85465 13.3552 3.04053 15.1685 3.04053 17.4045V21.049C3.04053 23.2924 4.85465 25.0984 7.08991 25.0984H10.3294C11.2203 25.0984 11.9492 24.3768 11.9492 23.4786V14.9749C11.9492 14.0832 11.2203 13.3552 10.3294 13.3552H9.51954V12.7712C9.51954 8.04157 12.7509 4.04969 16.5736 4.04969H21.0927C24.9153 4.04969 28.1467 8.04157 28.1467 12.7712V13.3552H27.3368C26.446 13.3552 25.7171 14.0832 25.7171 14.9749V23.4786C25.7171 24.3768 26.446 25.0984 27.3368 25.0984H28.9566V28.7509C28.9566 29.4142 28.414 29.9657 27.7418 29.9657H24.0973V28.7509C24.0973 28.0787 23.5547 27.5361 22.8825 27.5361H18.0232C16.4602 27.5361 15.1887 28.8068 15.1887 30.3707V31.9904C15.1887 33.5527 16.4602 34.825 18.0232 34.825H22.8825C23.5547 34.825 24.0973 34.2735 24.0973 33.6102V32.3954H27.7418C29.7503 32.3954 31.3862 30.7586 31.3862 28.7509V25.0166C33.2327 24.644 34.6257 23.017 34.6257 21.049V17.4045C34.6257 15.1685 32.8116 13.3552 30.5763 13.3552Z" fill="black"/>
</svg>
