<svg width="39" height="39" viewBox="0 0 39 39" fill="none" xmlns="http://www.w3.org/2000/svg">
<path fill-rule="evenodd" clip-rule="evenodd" d="M33.4088 22.5376C33.4088 23.485 32.6399 24.2462 31.7001 24.2462H29.1372V16.9845H31.7001C32.6399 16.9845 33.4088 17.7525 33.4088 18.6931V22.5376ZM22.3024 34.5066H18.4579C18.2187 34.5066 18.0308 34.3092 18.0308 34.0794V32.3708C18.0308 32.1307 18.2187 31.9436 18.4579 31.9436H22.3024V34.5066ZM9.48777 24.2462H6.92481C5.98506 24.2462 5.21617 23.485 5.21617 22.5376V18.6931C5.21617 17.7525 5.98506 16.9845 6.92481 16.9845H9.48777V24.2462ZM31.7002 14.4215V13.8055C31.7002 7.42461 27.1211 2.04239 21.6961 2.04239H16.929C11.5041 2.04239 6.92493 7.42461 6.92493 13.8055V14.4215C4.567 14.4215 2.65332 16.3343 2.65332 18.6931V22.5376C2.65332 24.904 4.567 26.8092 6.92493 26.8092H10.3422C11.282 26.8092 12.0509 26.048 12.0509 25.1005V16.1301C12.0509 15.1895 11.282 14.4215 10.3422 14.4215H9.48789V13.8055C9.48789 8.8163 12.8966 4.60535 16.929 4.60535H21.6961C25.7285 4.60535 29.1373 8.8163 29.1373 13.8055V14.4215H28.283C27.3432 14.4215 26.5743 15.1895 26.5743 16.1301V25.1005C26.5743 26.048 27.3432 26.8092 28.283 26.8092H29.9916V30.6621C29.9916 31.3618 29.4192 31.9436 28.7101 31.9436H24.8657V30.6621C24.8657 29.9531 24.2933 29.3807 23.5842 29.3807H18.4583C16.8094 29.3807 15.4681 30.7211 15.4681 32.3708V34.0794C15.4681 35.7274 16.8094 37.0696 18.4583 37.0696H23.5842C24.2933 37.0696 24.8657 36.4878 24.8657 35.7881V34.5066H28.7101C30.8288 34.5066 32.5546 32.78 32.5546 30.6621V26.7229C34.5024 26.3299 35.9718 24.6136 35.9718 22.5376V18.6931C35.9718 16.3343 34.0582 14.4215 31.7002 14.4215V14.4215Z" fill="black"/>
</svg>
