<svg width="39" height="39" viewBox="0 0 39 39" fill="none" xmlns="http://www.w3.org/2000/svg">
<path fill-rule="evenodd" clip-rule="evenodd" d="M33.4088 22.482C33.4088 23.4295 32.6399 24.1907 31.7001 24.1907H29.1372V16.9289H31.7001C32.6399 16.9289 33.4088 17.697 33.4088 18.6376V22.482ZM22.3024 34.4511H18.4579C18.2187 34.4511 18.0308 34.2537 18.0308 34.0239V32.3153C18.0308 32.0752 18.2187 31.8881 18.4579 31.8881H22.3024V34.4511ZM9.48777 24.1907H6.92481C5.98506 24.1907 5.21617 23.4295 5.21617 22.482V18.6376C5.21617 17.697 5.98506 16.9289 6.92481 16.9289H9.48777V24.1907ZM31.7002 14.366V13.75C31.7002 7.36909 27.1211 1.98686 21.6961 1.98686H16.929C11.5041 1.98686 6.92493 7.36909 6.92493 13.75V14.366C4.567 14.366 2.65332 16.2788 2.65332 18.6376V22.482C2.65332 24.8485 4.567 26.7536 6.92493 26.7536H10.3422C11.282 26.7536 12.0509 25.9924 12.0509 25.045V16.0746C12.0509 15.134 11.282 14.366 10.3422 14.366H9.48789V13.75C9.48789 8.76077 12.8966 4.54983 16.929 4.54983H21.6961C25.7285 4.54983 29.1373 8.76077 29.1373 13.75V14.366H28.283C27.3432 14.366 26.5743 15.134 26.5743 16.0746V25.045C26.5743 25.9924 27.3432 26.7536 28.283 26.7536H29.9916V30.6066C29.9916 31.3063 29.4192 31.8881 28.7101 31.8881H24.8657V30.6066C24.8657 29.8975 24.2933 29.3251 23.5842 29.3251H18.4583C16.8094 29.3251 15.4681 30.6656 15.4681 32.3153V34.0239C15.4681 35.6719 16.8094 37.014 18.4583 37.014H23.5842C24.2933 37.014 24.8657 36.4322 24.8657 35.7325V34.4511H28.7101C30.8288 34.4511 32.5546 32.7245 32.5546 30.6066V26.6673C34.5024 26.2744 35.9718 24.558 35.9718 22.482V18.6376C35.9718 16.2788 34.0582 14.366 31.7002 14.366V14.366Z" fill="black"/>
</svg>
