<svg width="39" height="39" viewBox="0 0 39 39" fill="none" xmlns="http://www.w3.org/2000/svg">
<path fill-rule="evenodd" clip-rule="evenodd" d="M33.4088 22.3154C33.4088 23.2628 32.6399 24.024 31.7001 24.024H29.1372V16.7623H31.7001C32.6399 16.7623 33.4088 17.5303 33.4088 18.4709V22.3154ZM22.3024 34.2844H18.4579C18.2187 34.2844 18.0308 34.087 18.0308 33.8572V32.1486C18.0308 31.9085 18.2187 31.7214 18.4579 31.7214H22.3024V34.2844ZM9.48777 24.024H6.92481C5.98506 24.024 5.21617 23.2628 5.21617 22.3154V18.4709C5.21617 17.5303 5.98506 16.7623 6.92481 16.7623H9.48777V24.024ZM31.7002 14.1993V13.5833C31.7002 7.20241 27.1211 1.82019 21.6961 1.82019H16.929C11.5041 1.82019 6.92493 7.20241 6.92493 13.5833V14.1993C4.567 14.1993 2.65332 16.1121 2.65332 18.4709V22.3154C2.65332 24.6818 4.567 26.587 6.92493 26.587H10.3422C11.282 26.587 12.0509 25.8258 12.0509 24.8783V15.9079C12.0509 14.9673 11.282 14.1993 10.3422 14.1993H9.48789V13.5833C9.48789 8.5941 12.8966 4.38315 16.929 4.38315H21.6961C25.7285 4.38315 29.1373 8.5941 29.1373 13.5833V14.1993H28.283C27.3432 14.1993 26.5743 14.9673 26.5743 15.9079V24.8783C26.5743 25.8258 27.3432 26.587 28.283 26.587H29.9916V30.4399C29.9916 31.1396 29.4192 31.7214 28.7101 31.7214H24.8657V30.4399C24.8657 29.7309 24.2933 29.1585 23.5842 29.1585H18.4583C16.8094 29.1585 15.4681 30.4989 15.4681 32.1486V33.8572C15.4681 35.5052 16.8094 36.8474 18.4583 36.8474H23.5842C24.2933 36.8474 24.8657 36.2656 24.8657 35.5659V34.2844H28.7101C30.8288 34.2844 32.5546 32.5578 32.5546 30.4399V26.5007C34.5024 26.1077 35.9718 24.3914 35.9718 22.3154V18.4709C35.9718 16.1121 34.0582 14.1993 31.7002 14.1993V14.1993Z" fill="black"/>
</svg>
