<svg width="37" height="37" viewBox="0 0 37 37" fill="none" xmlns="http://www.w3.org/2000/svg">
<path fill-rule="evenodd" clip-rule="evenodd" d="M31.7516 21.049C31.7516 21.9471 31.0227 22.6687 30.1319 22.6687H27.7023V15.7848H30.1319C31.0227 15.7848 31.7516 16.5129 31.7516 17.4045V21.049ZM21.223 32.3954H17.5786C17.3518 32.3954 17.1737 32.2083 17.1737 31.9905V30.3707C17.1737 30.1431 17.3518 29.9658 17.5786 29.9658H21.223V32.3954ZM9.07507 22.6687H6.64544C5.75458 22.6687 5.02569 21.9471 5.02569 21.049V17.4045C5.02569 16.5129 5.75458 15.7848 6.64544 15.7848H9.07507V22.6687ZM30.132 13.3552V12.7712C30.132 6.72228 25.7911 1.62006 20.6483 1.62006H16.1292C10.9865 1.62006 6.64557 6.72228 6.64557 12.7712V13.3552C4.41031 13.3552 2.59619 15.1685 2.59619 17.4045V21.049C2.59619 23.2924 4.41031 25.0984 6.64557 25.0984H9.88508C10.7759 25.0984 11.5048 24.3768 11.5048 23.4786V14.9749C11.5048 14.0832 10.7759 13.3552 9.88508 13.3552H9.0752V12.7712C9.0752 8.04157 12.3066 4.04969 16.1292 4.04969H20.6483C24.471 4.04969 27.7024 8.04157 27.7024 12.7712V13.3552H26.8925C26.0016 13.3552 25.2727 14.0832 25.2727 14.9749V23.4786C25.2727 24.3768 26.0016 25.0984 26.8925 25.0984H28.5122V28.7509C28.5122 29.4142 27.9696 29.9657 27.2974 29.9657H23.653V28.7509C23.653 28.0787 23.1104 27.5361 22.4382 27.5361H17.5789C16.0158 27.5361 14.7443 28.8068 14.7443 30.3707V31.9904C14.7443 33.5527 16.0158 34.825 17.5789 34.825H22.4382C23.1104 34.825 23.653 34.2735 23.653 33.6102V32.3954H27.2974C29.3059 32.3954 30.9419 30.7586 30.9419 28.7509V25.0166C32.7884 24.644 34.1814 23.017 34.1814 21.049V17.4045C34.1814 15.1685 32.3673 13.3552 30.132 13.3552Z" fill="black"/>
</svg>
