<svg width="45" height="45" viewBox="0 0 45 45" fill="none" xmlns="http://www.w3.org/2000/svg">
<path fill-rule="evenodd" clip-rule="evenodd" d="M38.5465 25.9503C38.5465 27.0241 37.6751 27.8868 36.61 27.8868H33.7053V19.6567H36.61C37.6751 19.6567 38.5465 20.5272 38.5465 21.5932V25.9503ZM25.9595 39.5153H21.6024C21.3313 39.5153 21.1183 39.2916 21.1183 39.0312V37.0947C21.1183 36.8226 21.3313 36.6106 21.6024 36.6106H25.9595V39.5153ZM11.4358 27.8868H8.53113C7.46607 27.8868 6.59466 27.0241 6.59466 25.9503V21.5932C6.59466 20.5272 7.46607 19.6567 8.53113 19.6567H11.4358V27.8868ZM36.61 16.752V16.0539C36.61 8.82218 31.4202 2.72229 25.2719 2.72229H19.8692C13.7209 2.72229 8.53113 8.82218 8.53113 16.0539V16.752C5.85879 16.752 3.68994 18.9199 3.68994 21.5932V25.9503C3.68994 28.6323 5.85879 30.7915 8.53113 30.7915H12.4041C13.4691 30.7915 14.3405 29.9288 14.3405 28.855V18.6885C14.3405 17.6225 13.4691 16.752 12.4041 16.752H11.4358V16.0539C11.4358 10.3994 15.2991 5.627 19.8692 5.627H25.2719C29.842 5.627 33.7053 10.3994 33.7053 16.0539V16.752H32.737C31.672 16.752 30.8006 17.6225 30.8006 18.6885V28.855C30.8006 29.9288 31.672 30.7915 32.737 30.7915H34.6735V35.1582C34.6735 35.9512 34.0248 36.6106 33.2212 36.6106H28.8641V35.1582C28.8641 34.3546 28.2154 33.7059 27.4117 33.7059H21.6023C19.7336 33.7059 18.2135 35.225 18.2135 37.0947V39.0312C18.2135 40.8989 19.7336 42.42 21.6023 42.42H27.4117C28.2154 42.42 28.8641 41.7606 28.8641 40.9676V39.5153H33.2212C35.6224 39.5153 37.5782 37.5585 37.5782 35.1582V30.6937C39.7858 30.2483 41.4512 28.3031 41.4512 25.9503V21.5932C41.4512 18.9199 39.2823 16.752 36.61 16.752Z" fill="url(#paint0_linear_104_609)"/>
<defs>
<linearGradient id="paint0_linear_104_609" x1="8.61621" y1="2.92602" x2="32.4164" y2="42.5929" gradientUnits="userSpaceOnUse">
<stop stop-color="#FF9900"/>
<stop offset="1" stop-color="#FBC751"/>
</linearGradient>
</defs>
</svg>
