<svg width="83" height="83" viewBox="0 0 83 83" fill="none" xmlns="http://www.w3.org/2000/svg">
<g clip-path="url(#clip0_43_3648)">
<path d="M10.4906 60.1556C4.87471 50.1515 0.250281 41.9119 0.214079 41.8451C0.177935 41.7782 4.77969 33.4847 10.4403 23.4147L20.7323 5.10547H41.3198H61.9073L72.0881 23.2284C77.6875 33.196 82.3094 41.4568 82.3589 41.5859C82.4104 41.7203 78.0733 49.6111 72.2147 60.0417L61.9804 78.2628L41.3409 78.3039L20.7013 78.3449L10.4906 60.1559V60.1556ZM58.2419 63.4552C59.7922 62.8451 61.0162 61.6178 61.6051 60.0831C61.845 59.458 61.8759 57.847 61.9158 43.9282L61.96 28.4677L57.741 24.1265L53.5219 19.7854H39.3529C25.2567 19.7854 25.1792 19.7854 24.2585 20.1316C23.1455 20.5481 21.9057 21.6534 21.3734 22.7039C20.6548 24.1221 20.6386 24.5873 20.6884 42.4504L20.7356 59.3887L21.2445 60.4629C22.0765 62.2189 23.5145 63.3555 25.2898 63.6603C25.7129 63.733 33.1369 63.7807 41.7875 63.7671C56.4222 63.7436 57.5664 63.7213 58.2418 63.4557L58.2419 63.4552ZM25.3333 60.5787C24.807 60.3689 24.2396 59.8315 23.9063 59.2274C23.6639 58.7879 23.6348 57.2616 23.5896 42.6118C23.5622 33.7393 23.586 26.0289 23.6421 25.4775C23.7607 24.316 24.179 23.5899 25.0111 23.1012C25.5677 22.7741 25.7497 22.7697 38.8032 22.7697H52.0312L52.0746 26.359L52.118 29.9483H55.5833H59.0485L59.0475 44.1039C59.047 52.8962 58.9864 58.4761 58.8878 58.8312C58.7076 59.4799 57.8985 60.3341 57.2231 60.5887C56.6147 60.8181 25.9094 60.8084 25.3332 60.5769L25.3333 60.5787ZM38.1887 56.2992C38.9626 55.9778 39.8014 55.0202 40.199 54.0042C40.6886 52.7531 40.8258 48.6046 40.4295 47.0349C39.8973 44.9271 38.745 43.9829 36.7048 43.9829C34.9044 43.9829 34.0416 44.3835 33.219 45.6009C32.5421 46.6029 32.2421 48.1235 32.2494 50.5163C32.2613 54.4735 33.1687 56.1843 35.4525 56.5551C36.3586 56.7023 37.4682 56.5985 38.1887 56.2992V56.2992ZM35.6481 54.5618C35.4211 54.434 35.1472 54.1357 35.0393 53.8989C34.4397 52.583 34.4063 48.2981 34.9854 46.9919C35.374 46.1155 35.725 45.8454 36.4754 45.8454C37.8377 45.8454 38.32 47.0329 38.3064 50.3549C38.2971 52.6185 38.108 53.5844 37.5474 54.2294C37.1103 54.7325 36.2259 54.8872 35.6481 54.5618V54.5618ZM50.0147 55.5171V54.6298H48.8855H47.7563V49.4044C47.7563 43.5711 47.8463 43.9829 46.5723 43.9829C46.011 43.9829 45.6351 44.1591 44.3185 45.0396L42.7384 46.0963L42.7873 46.8544C42.846 47.7679 43.0062 47.778 44.4089 46.9566L45.3365 46.4132V50.5216V54.6302H44.1439C42.8745 54.6302 42.7554 54.7065 42.7554 55.5175C42.7554 56.4272 42.6609 56.4047 46.483 56.4047H50.0147V55.5175L50.0147 55.5171ZM48.004 39.1575C49.3373 38.5678 50.0728 37.1596 50.3581 34.6504C50.5407 33.0446 50.3895 30.7216 50.0196 29.4463C49.5353 27.7773 48.2309 26.8811 46.2938 26.8869C44.2834 26.8986 43.1737 27.6611 42.415 29.5722C42.0773 30.423 42.041 30.7753 42.0355 33.2553C42.0285 36.2502 42.2231 37.2441 43.0202 38.2967C43.9777 39.561 46.2173 39.9478 48.004 39.1575ZM45.2034 37.2873C44.5479 36.7357 44.3297 35.7119 44.3297 33.1882C44.3297 29.8963 44.8378 28.732 46.2567 28.7721C46.9445 28.792 47.534 29.3102 47.7635 30.0977C48.0525 31.0892 48.1405 34.1156 47.9185 35.4297C47.7489 36.4338 47.6261 36.7248 47.187 37.1639C46.5324 37.8185 45.8828 37.8589 45.2034 37.2873ZM40.3038 38.4579L40.255 37.6109L39.1661 37.5628L38.0772 37.5147V32.2972V27.0798L37.4991 26.9718C36.6019 26.8035 36.0187 27.0105 34.4907 28.0376L33.0764 28.9885V29.7909C33.0764 30.2614 33.1489 30.5934 33.2518 30.5934C33.3483 30.5934 33.8815 30.3393 34.4368 30.0288C34.9921 29.7183 35.4939 29.4641 35.5519 29.4641C35.6099 29.4641 35.6574 31.2759 35.6574 33.4903V37.5164L34.4072 37.5634L33.157 37.6103L33.106 38.2323C33.0141 39.351 32.853 39.3042 36.7901 39.3042H40.3525L40.3038 38.4572L40.3038 38.4579Z" fill="black"/>
</g>
<defs>
<clipPath id="clip0_43_3648">
<rect width="82.1452" height="82.1452" fill="white" transform="translate(0.213867 0.657227)"/>
</clipPath>
</defs>
</svg>
