<svg width="44" height="44" viewBox="0 0 44 44" fill="none" xmlns="http://www.w3.org/2000/svg">
<g clip-path="url(#clip0_22_2065)">
<path d="M5.50459 31.8693C2.49652 26.5108 0.0195047 22.0973 0.00011327 22.0616C-0.0192467 22.0257 2.44562 17.5834 5.47765 12.1895L10.9904 2.38245H22.0179H33.0453L38.4985 12.0897C41.4978 17.4288 43.9734 21.8536 43.9999 21.9227C44.0275 21.9947 41.7044 26.2213 38.5663 31.8083L33.0845 41.5682L22.0291 41.5902L10.9738 41.6122L5.50459 31.8695V31.8693ZM31.082 33.6367C31.9123 33.3099 32.568 32.6526 32.8834 31.8305C33.0119 31.4957 33.0285 30.6328 33.0498 23.1773L33.0735 14.8961L30.8137 12.5708L28.5538 10.2456H20.9643C13.4139 10.2456 13.3724 10.2456 12.8792 10.431C12.283 10.6541 11.619 11.2461 11.3338 11.8088C10.9489 12.5685 10.9403 12.8176 10.9669 22.3858L10.9922 31.4586L11.2648 32.0339C11.7104 32.9745 12.4807 33.5833 13.4316 33.7466C13.6582 33.7856 17.6348 33.8111 22.2684 33.8038C30.1073 33.7912 30.7201 33.7793 31.0819 33.637L31.082 33.6367ZM13.4549 32.096C13.173 31.9836 12.8691 31.6958 12.6906 31.3722C12.5607 31.1368 12.5451 30.3192 12.5209 22.4722C12.5062 17.7198 12.519 13.5898 12.549 13.2945C12.6126 12.6723 12.8366 12.2834 13.2823 12.0216C13.5805 11.8464 13.678 11.8441 20.6699 11.8441H27.7553L27.7785 13.7666L27.8018 15.6892H29.6579H31.514L31.5135 23.2715C31.5132 27.981 31.4807 30.9697 31.4279 31.1599C31.3314 31.5074 30.898 31.965 30.5363 32.1013C30.2104 32.2242 13.7635 32.219 13.4549 32.095L13.4549 32.096ZM20.3407 29.8037C20.7553 29.6315 21.2045 29.1186 21.4175 28.5744C21.6798 27.9043 21.7533 25.6822 21.541 24.8414C21.2559 23.7124 20.6387 23.2067 19.5459 23.2067C18.5816 23.2067 18.1194 23.4212 17.6788 24.0733C17.3162 24.61 17.1555 25.4245 17.1594 26.7062C17.1658 28.8258 17.6518 29.7422 18.8751 29.9408C19.3604 30.0196 19.9548 29.9641 20.3407 29.8037ZM18.9799 28.8731C18.8583 28.8046 18.7116 28.6449 18.6538 28.518C18.3326 27.8132 18.3147 25.518 18.6249 24.8184C18.8331 24.349 19.0211 24.2043 19.423 24.2043C20.1527 24.2043 20.411 24.8404 20.4038 26.6197C20.3988 27.8322 20.2975 28.3495 19.9972 28.6951C19.7631 28.9645 19.2894 29.0474 18.9799 28.8731ZM26.6752 29.3848V28.9095H26.0703H25.4655V26.1106C25.4655 22.9861 25.5137 23.2067 24.8313 23.2067C24.5307 23.2067 24.3293 23.301 23.6241 23.7727L22.7777 24.3387L22.8039 24.7447C22.8354 25.234 22.9212 25.2395 23.6725 24.7995L24.1694 24.5084V26.709V28.9097H23.5306C22.8506 28.9097 22.7868 28.9506 22.7868 29.385C22.7868 29.8723 22.7362 29.8602 24.7835 29.8602H26.6752V29.385L26.6752 29.3848ZM25.5982 20.622C26.3123 20.3061 26.7063 19.5518 26.8591 18.2078C26.9569 17.3477 26.8759 16.1034 26.6778 15.4203C26.4184 14.5263 25.7197 14.0463 24.6821 14.0494C23.6053 14.0556 23.0109 14.4641 22.6045 15.4877C22.4236 15.9434 22.4042 16.1321 22.4012 17.4606C22.3975 19.0647 22.5017 19.5971 22.9287 20.1609C23.4415 20.8381 24.6411 21.0453 25.5982 20.622ZM24.0981 19.6202C23.747 19.3248 23.6301 18.7764 23.6301 17.4246C23.6301 15.6613 23.9022 15.0377 24.6623 15.0592C25.0307 15.0699 25.3464 15.3474 25.4694 15.7692C25.6242 16.3003 25.6713 17.9214 25.5524 18.6252C25.4615 19.1631 25.3957 19.3189 25.1605 19.5542C24.8099 19.9048 24.462 19.9264 24.0981 19.6202ZM21.4737 20.2472L21.4475 19.7936L20.8643 19.7678L20.281 19.742V16.9473V14.1527L19.9713 14.0949C19.4908 14.0047 19.1784 14.1156 18.3599 14.6657L17.6024 15.1751V15.6049C17.6024 15.8569 17.6412 16.0347 17.6963 16.0347C17.748 16.0347 18.0337 15.8986 18.3311 15.7323C18.6285 15.566 18.8973 15.4298 18.9284 15.4298C18.9594 15.4298 18.9849 16.4003 18.9849 17.5864V19.743L18.3152 19.7681L17.6456 19.7933L17.6182 20.1264C17.569 20.7256 17.4827 20.7005 19.5916 20.7005H21.4998L21.4737 20.2469L21.4737 20.2472Z" fill="black"/>
</g>
<defs>
<clipPath id="clip0_22_2065">
<rect width="44" height="44" fill="white"/>
</clipPath>
</defs>
</svg>
