<svg width="83" height="83" viewBox="0 0 83 83" fill="none" xmlns="http://www.w3.org/2000/svg">
<g clip-path="url(#clip0_41_2059)">
<path d="M10.4903 60.1556C4.87446 50.1515 0.250037 41.9119 0.213835 41.8451C0.177691 41.7782 4.77944 33.4847 10.4401 23.4147L20.7321 5.10547H41.3196H61.907L72.0878 23.2284C77.6873 33.196 82.3091 41.4568 82.3587 41.5859C82.4102 41.7203 78.0731 49.6111 72.2144 60.0417L61.9802 78.2628L41.3406 78.3039L20.701 78.3449L10.4903 60.1559V60.1556ZM58.2416 63.4552C59.7919 62.8451 61.0159 61.6178 61.6048 60.0831C61.8447 59.458 61.8757 57.847 61.9155 43.9282L61.9598 28.4677L57.7407 24.1265L53.5217 19.7854H39.3527C25.2564 19.7854 25.179 19.7854 24.2583 20.1316C23.1452 20.5481 21.9055 21.6534 21.3732 22.7039C20.6545 24.1221 20.6384 24.5873 20.6882 42.4504L20.7354 59.3887L21.2443 60.4629C22.0762 62.2189 23.5143 63.3555 25.2896 63.6603C25.7127 63.733 33.1366 63.7807 41.7873 63.7671C56.422 63.7436 57.5662 63.7213 58.2416 63.4557L58.2416 63.4552ZM25.333 60.5787C24.8068 60.3689 24.2393 59.8315 23.9061 59.2274C23.6637 58.7879 23.6345 57.2616 23.5893 42.6118C23.562 33.7393 23.5858 26.0289 23.6419 25.4775C23.7605 24.316 24.1787 23.5899 25.0109 23.1012C25.5675 22.7741 25.7495 22.7697 38.8029 22.7697H52.0309L52.0744 26.359L52.1178 29.9483H55.583H59.0482L59.0473 44.1039C59.0468 52.8962 58.9861 58.4761 58.8875 58.8312C58.7073 59.4799 57.8982 60.3341 57.2229 60.5887C56.6145 60.8181 25.9091 60.8084 25.333 60.5769L25.333 60.5787ZM38.1885 56.2992C38.9624 55.9778 39.8011 55.0202 40.1988 54.0042C40.6884 52.7531 40.8256 48.6046 40.4293 47.0349C39.8971 44.9271 38.7447 43.9829 36.7045 43.9829C34.9042 43.9829 34.0413 44.3835 33.2187 45.6009C32.5419 46.6029 32.2419 48.1235 32.2491 50.5163C32.2611 54.4735 33.1685 56.1843 35.4523 56.5551C36.3583 56.7023 37.468 56.5985 38.1885 56.2992ZM35.6479 54.5618C35.4209 54.434 35.1469 54.1357 35.0391 53.8989C34.4394 52.583 34.406 48.2981 34.9852 46.9919C35.3738 46.1155 35.7248 45.8454 36.4751 45.8454C37.8375 45.8454 38.3197 47.0329 38.3062 50.3549C38.2968 52.6185 38.1078 53.5844 37.5472 54.2294C37.11 54.7325 36.2257 54.8872 35.6479 54.5618ZM50.0145 55.5171V54.6298H48.8853H47.756V49.4044C47.756 43.5711 47.846 43.9829 46.5721 43.9829C46.0108 43.9829 45.6348 44.1591 44.3183 45.0396L42.7382 46.0963L42.787 46.8544C42.8458 47.7679 43.0059 47.778 44.4087 46.9566L45.3363 46.4132V50.5216V54.6302H44.1436C42.8742 54.6302 42.7552 54.7065 42.7552 55.5175C42.7552 56.4272 42.6606 56.4047 46.4827 56.4047H50.0145V55.5175L50.0145 55.5171ZM48.0038 39.1575C49.337 38.5678 50.0725 37.1596 50.3578 34.6504C50.5404 33.0446 50.3893 30.7216 50.0193 29.4463C49.5351 27.7773 48.2306 26.8811 46.2936 26.8869C44.2832 26.8986 43.1735 27.6611 42.4148 29.5722C42.077 30.423 42.0408 30.7753 42.0353 33.2553C42.0283 36.2502 42.2228 37.2441 43.02 38.2967C43.9775 39.561 46.217 39.9478 48.0038 39.1575ZM45.2032 37.2873C44.5477 36.7357 44.3294 35.7119 44.3294 33.1882C44.3294 29.8963 44.8375 28.732 46.2565 28.7721C46.9443 28.792 47.5337 29.3102 47.7633 30.0977C48.0523 31.0892 48.1402 34.1156 47.9182 35.4297C47.7486 36.4338 47.6259 36.7248 47.1867 37.1639C46.5321 37.8185 45.8825 37.8589 45.2032 37.2873ZM40.3036 38.4579L40.2547 37.6109L39.1658 37.5628L38.0769 37.5147V32.2972V27.0798L37.4988 26.9718C36.6016 26.8035 36.0184 27.0105 34.4905 28.0376L33.0761 28.9885V29.7909C33.0761 30.2614 33.1486 30.5934 33.2516 30.5934C33.348 30.5934 33.8813 30.3393 34.4366 30.0288C34.9919 29.7183 35.4937 29.4641 35.5517 29.4641C35.6097 29.4641 35.6572 31.2759 35.6572 33.4903V37.5164L34.407 37.5634L33.1568 37.6103L33.1057 38.2323C33.0138 39.351 32.8528 39.3042 36.7898 39.3042H40.3523L40.3036 38.4572L40.3036 38.4579Z" fill="black"/>
</g>
<defs>
<clipPath id="clip0_41_2059">
<rect width="82.1452" height="82.1452" fill="white" transform="translate(0.213623 0.657227)"/>
</clipPath>
</defs>
</svg>
