<svg width="44" height="44" viewBox="0 0 44 44" fill="none" xmlns="http://www.w3.org/2000/svg">
<g clip-path="url(#clip0_22_1979)">
<path d="M5.50459 31.8695C2.49652 26.5109 0.0195047 22.0975 0.00011327 22.0617C-0.0192467 22.0259 2.44562 17.5836 5.47765 12.1897L10.9904 2.38257H22.0179H33.0453L38.4985 12.0899C41.4978 17.4289 43.9734 21.8537 43.9999 21.9229C44.0275 21.9948 41.7044 26.2214 38.5663 31.8085L33.0845 41.5684L22.0291 41.5903L10.9738 41.6123L5.50459 31.8696V31.8695ZM31.082 33.6368C31.9123 33.31 32.568 32.6527 32.8834 31.8306C33.0119 31.4958 33.0285 30.6329 33.0498 23.1775L33.0735 14.8962L30.8137 12.571L28.5538 10.2457H20.9643C13.4139 10.2457 13.3724 10.2457 12.8792 10.4311C12.283 10.6542 11.619 11.2463 11.3338 11.809C10.9489 12.5686 10.9403 12.8177 10.9669 22.3859L10.9922 31.4587L11.2648 32.0341C11.7104 32.9747 12.4807 33.5835 13.4316 33.7467C13.6582 33.7857 17.6348 33.8112 22.2684 33.8039C30.1073 33.7913 30.7201 33.7794 31.0819 33.6371L31.082 33.6368ZM13.4549 32.0961C13.173 31.9837 12.8691 31.6959 12.6906 31.3723C12.5607 31.1369 12.5451 30.3193 12.5209 22.4724C12.5062 17.7199 12.519 13.5899 12.549 13.2946C12.6126 12.6724 12.8366 12.2835 13.2823 12.0217C13.5805 11.8465 13.678 11.8442 20.6699 11.8442H27.7553L27.7785 13.7668L27.8018 15.6893H29.6579H31.514L31.5135 23.2716C31.5132 27.9811 31.4807 30.9699 31.4279 31.1601C31.3314 31.5075 30.898 31.9651 30.5363 32.1014C30.2104 32.2243 13.7635 32.2192 13.4549 32.0951L13.4549 32.0961ZM20.3407 29.8038C20.7553 29.6317 21.2045 29.1188 21.4175 28.5745C21.6798 27.9044 21.7533 25.6823 21.541 24.8415C21.2559 23.7125 20.6387 23.2068 19.5459 23.2068C18.5816 23.2068 18.1194 23.4214 17.6788 24.0734C17.3162 24.6101 17.1555 25.4246 17.1594 26.7063C17.1658 28.8259 17.6518 29.7423 18.8751 29.9409C19.3604 30.0197 19.9548 29.9642 20.3407 29.8038ZM18.9799 28.8732C18.8583 28.8048 18.7116 28.645 18.6538 28.5181C18.3326 27.8133 18.3147 25.5182 18.6249 24.8185C18.8331 24.3491 19.0211 24.2044 19.423 24.2044C20.1527 24.2044 20.411 24.8405 20.4038 26.6198C20.3988 27.8323 20.2975 28.3497 19.9972 28.6952C19.7631 28.9647 19.2894 29.0475 18.9799 28.8732ZM26.6752 29.3849V28.9097H26.0703H25.4655V26.1107C25.4655 22.9862 25.5137 23.2068 24.8313 23.2068C24.5307 23.2068 24.3293 23.3012 23.6241 23.7728L22.7777 24.3388L22.8039 24.7449C22.8354 25.2341 22.9212 25.2396 23.6725 24.7996L24.1694 24.5085V26.7092V28.9098H23.5306C22.8506 28.9098 22.7868 28.9507 22.7868 29.3851C22.7868 29.8724 22.7362 29.8603 24.7835 29.8603H26.6752V29.3851L26.6752 29.3849ZM25.5982 20.6221C26.3123 20.3062 26.7063 19.5519 26.8591 18.2079C26.9569 17.3478 26.8759 16.1035 26.6778 15.4204C26.4184 14.5264 25.7197 14.0464 24.6821 14.0495C23.6053 14.0558 23.0109 14.4642 22.6045 15.4878C22.4236 15.9436 22.4042 16.1323 22.4012 17.4607C22.3975 19.0649 22.5017 19.5972 22.9287 20.161C23.4415 20.8382 24.6411 21.0454 25.5982 20.6221ZM24.0981 19.6203C23.747 19.3249 23.6301 18.7765 23.6301 17.4247C23.6301 15.6615 23.9022 15.0378 24.6623 15.0593C25.0307 15.07 25.3464 15.3475 25.4694 15.7693C25.6242 16.3004 25.6713 17.9215 25.5524 18.6254C25.4615 19.1632 25.3957 19.3191 25.1605 19.5543C24.8099 19.9049 24.462 19.9265 24.0981 19.6203ZM21.4737 20.2473L21.4475 19.7937L20.8643 19.7679L20.281 19.7422V16.9475V14.1528L19.9713 14.095C19.4908 14.0048 19.1784 14.1157 18.3599 14.6659L17.6024 15.1752V15.605C17.6024 15.857 17.6412 16.0348 17.6963 16.0348C17.748 16.0348 18.0337 15.8987 18.3311 15.7324C18.6285 15.5661 18.8973 15.43 18.9284 15.43C18.9594 15.43 18.9849 16.4004 18.9849 17.5865V19.7431L18.3152 19.7682L17.6456 19.7934L17.6182 20.1265C17.569 20.7257 17.4827 20.7007 19.5916 20.7007H21.4998L21.4737 20.247L21.4737 20.2473Z" fill="black"/>
</g>
<defs>
<clipPath id="clip0_22_1979">
<rect width="44" height="44" fill="white"/>
</clipPath>
</defs>
</svg>
