<svg width="92" height="92" viewBox="0 0 92 92" fill="none" xmlns="http://www.w3.org/2000/svg">
<g clip-path="url(#clip0_41_2057)">
<path d="M56.2114 10.5957C53.7824 10.6103 51.7066 10.8742 49.3317 11.3837C49.4612 14.1227 49.4583 13.1895 49.4612 14.1227C49.4624 18.7008 45.7509 22.4123 41.1728 22.4111C38.2602 22.4059 35.5639 20.8725 34.0713 18.3713C31.2724 20.6132 28.83 23.2671 26.8274 26.2419C28.3617 27.1752 31.4732 30.4364 31.4732 30.4364C35.1331 27.3463 39.08 26.028 42.6856 26.0788C48.1653 26.1901 54.0799 27.7044 56.2116 28.7009C63.8306 32.2626 70.9412 37.9908 70.9412 46.0416C70.9412 54.0925 64.414 60.6196 56.3632 60.6196C52.2177 60.6196 48.4791 58.8879 45.8248 56.1099C44.6348 54.8645 45.1564 54.4677 43.1238 56.2523C42.3897 56.8969 35.1656 62.3925 28.4987 68.1389C30.4701 70.5913 31.5299 72.7704 34.0765 74.6185C36.8756 72.1343 39.5902 68.9081 43.1719 68.9031C47.748 68.9044 51.4566 72.6153 51.4554 77.1914C51.4528 78.5113 51.4567 77.1901 51.2987 81.1361C53.1761 81.4562 54.3073 81.4726 56.2118 81.4874C58.4055 81.4796 59.521 81.577 61.6757 81.1646C61.7386 76.8844 61.7364 78.271 61.7374 76.8828C61.7387 72.3085 65.4466 68.6007 70.0209 68.5993C73.5243 68.6019 75.4212 70.8092 78.5893 73.65C81.548 71.3824 82.4405 69.8915 84.5516 66.8191C80.7343 63.9037 80.153 61.7478 80.1511 58.3172C80.1499 53.7411 83.8586 50.0303 88.4347 50.0288C89.4255 50.0314 88.4346 50.0301 91.3351 49.9482C91.539 48.4502 91.6468 47.5531 91.6579 46.0413C91.6501 43.8217 91.434 42.6806 91.0123 40.5015C87.21 40.3625 88.5338 40.3606 87.21 40.364C82.6321 40.3652 78.9204 36.6537 78.9216 32.0756C78.9268 28.6537 81.651 26.0473 84.0769 23.8965C81.712 20.8438 79.5533 19.1189 76.3352 16.9848C73.9094 19.7438 71.4983 21.9478 68.0273 21.9503C63.4512 21.949 59.7425 18.2382 59.7437 13.662C59.745 12.7018 59.7437 13.662 59.705 10.8854C58.3675 10.725 57.5589 10.6027 56.2118 10.5955L56.2114 10.5957ZM42.9951 29.8496C37.794 29.8301 33.8562 32.1825 30.6481 34.6441C27.4399 37.1058 24.7947 39.6394 22.2317 40.6396C19.6687 41.6397 17.1359 41.5826 12.8136 38.2993L10.611 41.1997C15.559 44.9583 19.9574 45.4426 23.5561 44.0385C27.1548 42.6344 29.9002 39.8182 32.8698 37.5397C35.8393 35.2612 38.8688 33.4802 42.9857 33.4953C47.1025 33.5099 52.5633 35.3816 60.1696 41.1997L62.3817 38.304C54.4057 32.2033 48.1957 29.8686 42.9944 29.8495L42.9951 29.8496ZM44.0632 38.4987C43.5115 38.4841 42.9714 38.5105 42.4397 38.5745C38.1857 39.0942 35.1163 41.9027 32.1624 44.4656C29.2084 47.0284 26.3565 49.4163 22.7206 50.1714C19.0846 50.9266 14.3887 50.1972 7.40158 45.6949L5.42679 48.7615C12.9027 53.5788 18.7202 54.7257 23.4601 53.7411C28.201 52.7564 31.5892 49.7909 34.554 47.2187C37.5187 44.6466 40.0456 42.5379 42.8802 42.1916C45.7148 41.8453 49.4435 43.0559 55.194 48.4102L57.6766 45.7424C52.308 40.7435 47.9239 38.6064 44.0617 38.4984L44.0632 38.4987ZM42.6865 48.0783C41.6788 48.1116 40.7207 48.2902 39.8099 48.5956C36.1665 49.8177 33.5211 52.5824 30.6339 54.8427C27.7466 57.1031 24.7713 58.9329 20.5038 59.0296C16.2361 59.1261 10.4551 57.4243 2.21819 51.8569L0.177002 54.8761C8.78293 60.6929 15.2817 62.7955 20.5849 62.6754C25.8883 62.5553 29.7729 60.1506 32.8844 57.7148C35.9959 55.2788 38.4859 52.8844 40.9687 52.0516C43.4514 51.2189 46.1637 51.468 50.871 55.1135L53.1021 52.232C50.4791 50.2006 48.0702 48.9885 45.8582 48.4344C44.7521 48.1573 43.6949 48.0451 42.6872 48.0784L42.6865 48.0783Z" fill="black"/>
</g>
<defs>
<clipPath id="clip0_41_2057">
<rect width="91.4798" height="91.4798" fill="white" transform="translate(0.17334 0.310547)"/>
</clipPath>
</defs>
</svg>
