<svg width="49" height="49" viewBox="0 0 49 49" fill="none" xmlns="http://www.w3.org/2000/svg">
<g clip-path="url(#clip0_22_2063)">
<path d="M30.016 5.50916C28.715 5.517 27.6031 5.65832 26.331 5.93124C26.4004 7.39837 26.3988 6.89849 26.4004 7.39836C26.401 9.85054 24.413 11.8386 21.9608 11.8379C20.4007 11.8351 18.9565 11.0138 18.157 9.67408C16.6578 10.8749 15.3496 12.2964 14.2769 13.8898C15.0987 14.3898 16.7653 16.1366 16.7653 16.1366C18.7258 14.4814 20.8398 13.7753 22.7711 13.8025C25.7063 13.8621 28.8743 14.6732 30.0162 15.207C34.0972 17.1148 37.9059 20.183 37.9059 24.4953C37.9059 28.8077 34.4097 32.3038 30.0974 32.3038C27.8769 32.3038 25.8743 31.3763 24.4526 29.8883C23.8152 29.2212 24.0946 29.0086 23.0059 29.9646C22.6126 30.3098 18.7431 33.2534 15.1721 36.3314C16.2281 37.6451 16.7957 38.8122 18.1598 39.8022C19.6591 38.4715 21.1131 36.7435 23.0316 36.7408C25.4827 36.7415 27.4692 38.7291 27.4686 41.1803C27.4672 41.8873 27.4693 41.1796 27.3846 43.2932C28.3902 43.4647 28.9962 43.4735 30.0163 43.4814C31.1913 43.4772 31.7888 43.5294 32.9429 43.3085C32.9767 41.0158 32.9755 41.7585 32.976 41.015C32.9767 38.5648 34.9628 36.5788 37.4129 36.578C39.2895 36.5794 40.3055 37.7617 42.0025 39.2834C43.5873 38.0688 44.0653 37.2702 45.1961 35.6245C43.1514 34.0629 42.84 32.9081 42.8391 31.0706C42.8384 28.6194 44.8249 26.6318 47.276 26.631C47.8068 26.6324 47.276 26.6317 48.8296 26.5878C48.9388 25.7855 48.9966 25.3049 49.0025 24.4951C48.9983 23.3063 48.8826 22.695 48.6567 21.5278C46.62 21.4534 47.3292 21.4523 46.6201 21.4541C44.1679 21.4548 42.1798 19.4668 42.1805 17.0146C42.1833 15.1817 43.6425 13.7856 44.9419 12.6336C43.6751 10.9984 42.5189 10.0745 40.7951 8.93139C39.4958 10.4092 38.2043 11.5898 36.3451 11.5911C33.8939 11.5904 31.9075 9.60276 31.9081 7.15157C31.9088 6.63729 31.9081 7.15156 31.8874 5.66434C31.1709 5.57841 30.7378 5.51291 30.0163 5.50903L30.016 5.50916ZM22.9369 15.8223C20.151 15.8118 18.0418 17.0719 16.3234 18.3904C14.605 19.709 13.1881 21.0661 11.8153 21.6018C10.4424 22.1375 9.08575 22.1069 6.77056 20.3482L5.59078 21.9018C8.24113 23.915 10.5971 24.1744 12.5247 23.4223C14.4523 22.6703 15.9228 21.1618 17.5134 19.9414C19.104 18.7209 20.7267 17.767 22.9319 17.775C25.137 17.7829 28.062 18.7854 32.1362 21.9018L33.3211 20.3507C29.0488 17.083 25.7226 15.8324 22.9366 15.8222L22.9369 15.8223ZM23.509 20.4551C23.2135 20.4472 22.9242 20.4613 22.6394 20.4956C20.3608 20.774 18.7167 22.2783 17.1345 23.6511C15.5522 25.0239 14.0247 26.3029 12.0771 26.7074C10.1296 27.1119 7.61427 26.7212 3.87171 24.3096L2.81394 25.9522C6.8183 28.5325 9.93436 29.1468 12.4733 28.6195C15.0127 28.092 16.8275 26.5036 18.4155 25.1258C20.0035 23.7481 21.3571 22.6186 22.8754 22.4331C24.3937 22.2476 26.3909 22.896 29.4711 25.764L30.8009 24.335C27.9253 21.6574 25.577 20.5127 23.5083 20.4549L23.509 20.4551ZM22.7716 25.5862C22.2319 25.6041 21.7187 25.6997 21.2308 25.8633C19.2792 26.5179 17.8623 27.9988 16.3158 29.2095C14.7693 30.4202 13.1756 31.4004 10.8897 31.4522C8.6038 31.5038 5.50727 30.5923 1.09529 27.6102L0.00195312 29.2274C4.61161 32.3431 8.09258 33.4693 10.9332 33.405C13.7739 33.3406 15.8546 32.0526 17.5213 30.7479C19.1879 29.4431 20.5216 28.1605 21.8515 27.7145C23.1813 27.2685 24.6341 27.4019 27.1555 29.3546L28.3506 27.8111C26.9456 26.723 25.6553 26.0738 24.4705 25.777C23.8781 25.6286 23.3118 25.5685 22.772 25.5863L22.7716 25.5862Z" fill="black"/>
</g>
<defs>
<clipPath id="clip0_22_2063">
<rect width="49" height="49" fill="white"/>
</clipPath>
</defs>
</svg>
