<svg width="92" height="92" viewBox="0 0 92 92" fill="none" xmlns="http://www.w3.org/2000/svg">
<g clip-path="url(#clip0_43_3646)">
<path d="M56.2116 10.5957C53.7827 10.6103 51.7069 10.8742 49.3319 11.3837C49.4614 14.1227 49.4585 13.1895 49.4614 14.1227C49.4626 18.7008 45.7511 22.4123 41.173 22.4111C38.2604 22.4059 35.5641 20.8725 34.0716 18.3713C31.2727 20.6132 28.8303 23.2671 26.8276 26.2419C28.3619 27.1752 31.4734 30.4364 31.4734 30.4364C35.1334 27.3463 39.0802 26.028 42.6859 26.0788C48.1655 26.1901 54.0801 27.7044 56.2119 28.7009C63.8309 32.2626 70.9415 37.9908 70.9415 46.0416C70.9415 54.0925 64.4142 60.6196 56.3635 60.6196C52.218 60.6196 48.4793 58.8879 45.8251 56.1099C44.635 54.8645 45.1566 54.4677 43.1241 56.2523C42.39 56.8969 35.1658 62.3925 28.499 68.1389C30.4704 70.5913 31.5301 72.7704 34.0768 74.6185C36.8758 72.1343 39.5904 68.9081 43.1721 68.9031C47.7482 68.9044 51.4568 72.6153 51.4557 77.1914C51.4531 78.5113 51.457 77.1901 51.2989 81.1361C53.1764 81.4562 54.3076 81.4726 56.2121 81.4874C58.4058 81.4796 59.5213 81.577 61.6759 81.1646C61.7389 76.8844 61.7367 78.271 61.7376 76.8828C61.7389 72.3085 65.4469 68.6007 70.0211 68.5993C73.5246 68.6019 75.4215 70.8092 78.5895 73.65C81.5483 71.3824 82.4407 69.8915 84.5518 66.8191C80.7345 63.9037 80.1532 61.7478 80.1514 58.3172C80.1502 53.7411 83.8588 50.0302 88.4349 50.0288C89.4257 50.0314 88.4349 50.0301 91.3353 49.9482C91.5392 48.4502 91.647 47.5531 91.6581 46.0413C91.6503 43.8217 91.4343 42.6806 91.0125 40.5015C87.2102 40.3625 88.5341 40.3606 87.2102 40.364C82.6323 40.3652 78.9207 36.6537 78.9218 32.0756C78.9271 28.6537 81.6512 26.0473 84.0772 23.8965C81.7123 20.8438 79.5536 19.1189 76.3354 16.9848C73.9096 19.7438 71.4985 21.9478 68.0275 21.9503C63.4514 21.949 59.7428 18.2382 59.744 13.662C59.7453 12.7018 59.744 13.662 59.7053 10.8854C58.3677 10.725 57.5592 10.6027 56.212 10.5955L56.2116 10.5957ZM42.9953 29.8496C37.7943 29.8301 33.8565 32.1825 30.6484 34.6441C27.4402 37.1058 24.795 39.6394 22.2319 40.6396C19.6689 41.6397 17.1361 41.5826 12.8138 38.2993L10.6112 41.1997C15.5593 44.9583 19.9576 45.4426 23.5563 44.0385C27.155 42.6344 29.9005 39.8182 32.8701 37.5397C35.8395 35.2612 38.869 33.4802 42.9859 33.4953C47.1028 33.5099 52.5635 35.3816 60.1698 41.1997L62.3819 38.304C54.4059 32.2033 48.196 29.8686 42.9947 29.8495L42.9953 29.8496ZM44.0634 38.4987C43.5118 38.4841 42.9717 38.5105 42.4399 38.5745C38.186 39.0942 35.1165 41.9027 32.1626 44.4656C29.2086 47.0284 26.3568 49.4163 22.7208 50.1714C19.0849 50.9266 14.3889 50.1972 7.40183 45.6949L5.42704 48.7615C12.9029 53.5788 18.7204 54.7257 23.4604 53.7411C28.2013 52.7564 31.5895 49.7909 34.5542 47.2187C37.5189 44.6466 40.0459 42.5379 42.8805 42.1916C45.715 41.8453 49.4438 43.0559 55.1942 48.4102L57.6769 45.7424C52.3083 40.7435 47.9242 38.6064 44.062 38.4984L44.0634 38.4987ZM42.6868 48.0783C41.6791 48.1116 40.721 48.2902 39.8101 48.5956C36.1667 49.8177 33.5214 52.5824 30.6341 54.8427C27.7469 57.1031 24.7716 58.9329 20.504 59.0296C16.2363 59.1261 10.4553 57.4243 2.21844 51.8569L0.177246 54.8761C8.78318 60.6929 15.2819 62.7955 20.5852 62.6754C25.8885 62.5553 29.7732 60.1506 32.8847 57.7148C35.9962 55.2788 38.4861 52.8844 40.9689 52.0516C43.4517 51.2189 46.164 51.468 50.8713 55.1135L53.1023 52.232C50.4793 50.2006 48.0704 48.9885 45.8584 48.4344C44.7524 48.1573 43.6952 48.0451 42.6874 48.0784L42.6868 48.0783Z" fill="black"/>
</g>
<defs>
<clipPath id="clip0_43_3646">
<rect width="91.4798" height="91.4798" fill="white" transform="translate(0.17334 0.310547)"/>
</clipPath>
</defs>
</svg>
